<svg width="40" height="39" viewBox="0 0 40 39" fill="none" xmlns="http://www.w3.org/2000/svg">
<rect width="40" height="39" fill="#282828"/>
<path d="M-757 -9738C-757 -9739.1 -756.105 -9740 -755 -9740H12931C12932.1 -9740 12933 -9739.1 12933 -9738V6008C12933 6009.1 12932.1 6010 12931 6010H-755C-756.105 6010 -757 6009.1 -757 6008V-9738Z" fill="#D0D0D0"/>
<path d="M-513 -373C-513 -374.105 -512.105 -375 -511 -375H5615C5616.1 -375 5617 -374.105 5617 -373V1728C5617 1729.1 5616.1 1730 5615 1730H-511C-512.104 1730 -513 1729.1 -513 1728V-373Z" fill="#AAAAAA"/>
<g filter="url(#filter0_d_763_5496)">
<g clip-path="url(#clip0_763_5496)">
<rect x="-329" y="-205" width="1366" height="1834" fill="#F6F6F6"/>
<rect x="-50" y="-16" width="140" height="101" rx="8" fill="white"/>
<g clip-path="url(#clip1_763_5496)">
<mask id="path-8-outside-1_763_5496" maskUnits="userSpaceOnUse" x="-0.478516" y="-0.136719" width="35" height="26" fill="black">
<rect fill="white" x="-0.478516" y="-0.136719" width="35" height="26"/>
<path d="M24.3765 0.0740021C23.8045 0.185166 22.7298 0.615926 18.7648 2.33897C17.4085 2.92721 16.8755 3.1588 15.6882 3.6822C14.9515 4.00643 14.1888 4.33992 13.9982 4.42329C13.6558 4.57151 12.8672 4.9189 11.4112 5.56272C10.9995 5.74799 10.5748 5.93327 10.4665 5.97495C10.3582 6.02127 9.83815 6.25286 9.31815 6.48445C8.79382 6.72068 8.16115 7.00322 7.90982 7.11438C7.65849 7.22091 7.20348 7.42472 6.89148 7.56367C6.58382 7.70263 6.09415 7.92032 5.80815 8.05001C4.85048 8.47614 4.25248 8.78184 3.94482 8.99027C2.19415 10.2038 1.00248 12.1862 0.599484 14.5438C0.495484 15.1645 0.495484 16.4985 0.599484 17.0682C0.794484 18.1011 1.06748 18.9672 1.56582 20.0881C1.93848 20.9265 2.19848 21.3758 2.61882 21.9131C3.44648 22.9738 4.46915 23.7936 5.59148 24.2938C6.57515 24.7339 7.00848 24.8265 8.25648 24.8589C9.24448 24.8821 10.0245 24.8126 10.4535 24.6598C10.6788 24.581 13.4435 23.4045 15.4932 22.5198C18.9858 21.0099 19.0508 20.9821 21.8415 19.7546C22.1535 19.6203 22.9595 19.2637 23.6398 18.9672C24.3202 18.6708 25.0785 18.3373 25.3298 18.2261C26.5432 17.6842 26.9678 17.4943 27.6482 17.1932C29.9318 16.1835 30.5212 15.8083 31.4875 14.7476C32.2848 13.8676 32.8785 12.8301 33.2598 11.6443C33.5242 10.8291 33.6802 9.44419 33.6108 8.59194C33.4592 6.76236 32.5708 4.3955 31.5092 2.98279C30.9025 2.17222 29.9188 1.34312 28.9655 0.833623C28.1292 0.384336 27.6222 0.222221 26.7945 0.138848C26.2702 0.0878982 24.5412 0.0415793 24.3765 0.0740021ZM26.2788 1.48208C26.9895 1.54229 27.1282 1.57472 27.7522 1.81557C29.2732 2.40381 30.4128 3.38576 31.1538 4.73825C31.5915 5.53956 32.1202 6.98006 32.2675 7.78137C32.3628 8.2816 32.3412 9.52293 32.2285 10.0788C31.9512 11.4683 31.3662 12.617 30.4215 13.6406C29.6242 14.5022 29.0218 14.8264 24.4632 16.8134C22.0235 17.8788 20.1775 18.643 20.1472 18.606C20.1168 18.5689 19.4538 16.8736 18.0888 13.3488C17.9502 12.9875 17.7162 12.3947 17.5775 12.0288C17.1745 10.9866 17.0142 10.5697 16.8148 10.051C16.7108 9.78232 16.5288 9.3145 16.4118 9.0088C15.8312 7.50346 15.1032 5.58588 15.1032 5.55809C15.1032 5.51177 15.8268 5.19217 18.6348 3.99253C24.4632 1.49597 24.3808 1.53303 24.8922 1.48671C25.5032 1.43113 25.6418 1.43113 26.2788 1.48208ZM13.9028 6.5632C13.9895 6.79016 14.1585 7.23018 14.2842 7.54978C15.1682 9.8518 18.6565 19.171 18.6565 19.2405C18.6565 19.2729 18.5438 19.3563 18.4095 19.4212C17.3868 19.8982 16.4465 20.329 14.8648 21.0284C14.2235 21.3156 13.4695 21.6491 13.1965 21.7695C12.0612 22.2744 10.2065 23.0664 9.92482 23.1637C9.66049 23.2517 9.50449 23.2702 8.65948 23.2887C7.25982 23.3165 6.85248 23.2424 5.89482 22.7792C4.99348 22.3438 3.95348 21.4869 3.42482 20.7505C2.82682 19.9168 2.04248 17.9112 1.86048 16.7671C1.76515 16.1557 1.79548 15.0904 1.92548 14.4883C2.22882 13.0802 2.83982 11.8944 3.75415 10.9495C4.62515 10.051 4.85482 9.93517 9.81648 7.79526C10.8565 7.34597 13.3698 6.27602 13.5865 6.19265C13.7252 6.13707 13.7555 6.17412 13.9028 6.5632Z"/>
</mask>
<path d="M24.3765 0.0740021C23.8045 0.185166 22.7298 0.615926 18.7648 2.33897C17.4085 2.92721 16.8755 3.1588 15.6882 3.6822C14.9515 4.00643 14.1888 4.33992 13.9982 4.42329C13.6558 4.57151 12.8672 4.9189 11.4112 5.56272C10.9995 5.74799 10.5748 5.93327 10.4665 5.97495C10.3582 6.02127 9.83815 6.25286 9.31815 6.48445C8.79382 6.72068 8.16115 7.00322 7.90982 7.11438C7.65849 7.22091 7.20348 7.42472 6.89148 7.56367C6.58382 7.70263 6.09415 7.92032 5.80815 8.05001C4.85048 8.47614 4.25248 8.78184 3.94482 8.99027C2.19415 10.2038 1.00248 12.1862 0.599484 14.5438C0.495484 15.1645 0.495484 16.4985 0.599484 17.0682C0.794484 18.1011 1.06748 18.9672 1.56582 20.0881C1.93848 20.9265 2.19848 21.3758 2.61882 21.9131C3.44648 22.9738 4.46915 23.7936 5.59148 24.2938C6.57515 24.7339 7.00848 24.8265 8.25648 24.8589C9.24448 24.8821 10.0245 24.8126 10.4535 24.6598C10.6788 24.581 13.4435 23.4045 15.4932 22.5198C18.9858 21.0099 19.0508 20.9821 21.8415 19.7546C22.1535 19.6203 22.9595 19.2637 23.6398 18.9672C24.3202 18.6708 25.0785 18.3373 25.3298 18.2261C26.5432 17.6842 26.9678 17.4943 27.6482 17.1932C29.9318 16.1835 30.5212 15.8083 31.4875 14.7476C32.2848 13.8676 32.8785 12.8301 33.2598 11.6443C33.5242 10.8291 33.6802 9.44419 33.6108 8.59194C33.4592 6.76236 32.5708 4.3955 31.5092 2.98279C30.9025 2.17222 29.9188 1.34312 28.9655 0.833623C28.1292 0.384336 27.6222 0.222221 26.7945 0.138848C26.2702 0.0878982 24.5412 0.0415793 24.3765 0.0740021ZM26.2788 1.48208C26.9895 1.54229 27.1282 1.57472 27.7522 1.81557C29.2732 2.40381 30.4128 3.38576 31.1538 4.73825C31.5915 5.53956 32.1202 6.98006 32.2675 7.78137C32.3628 8.2816 32.3412 9.52293 32.2285 10.0788C31.9512 11.4683 31.3662 12.617 30.4215 13.6406C29.6242 14.5022 29.0218 14.8264 24.4632 16.8134C22.0235 17.8788 20.1775 18.643 20.1472 18.606C20.1168 18.5689 19.4538 16.8736 18.0888 13.3488C17.9502 12.9875 17.7162 12.3947 17.5775 12.0288C17.1745 10.9866 17.0142 10.5697 16.8148 10.051C16.7108 9.78232 16.5288 9.3145 16.4118 9.0088C15.8312 7.50346 15.1032 5.58588 15.1032 5.55809C15.1032 5.51177 15.8268 5.19217 18.6348 3.99253C24.4632 1.49597 24.3808 1.53303 24.8922 1.48671C25.5032 1.43113 25.6418 1.43113 26.2788 1.48208ZM13.9028 6.5632C13.9895 6.79016 14.1585 7.23018 14.2842 7.54978C15.1682 9.8518 18.6565 19.171 18.6565 19.2405C18.6565 19.2729 18.5438 19.3563 18.4095 19.4212C17.3868 19.8982 16.4465 20.329 14.8648 21.0284C14.2235 21.3156 13.4695 21.6491 13.1965 21.7695C12.0612 22.2744 10.2065 23.0664 9.92482 23.1637C9.66049 23.2517 9.50449 23.2702 8.65948 23.2887C7.25982 23.3165 6.85248 23.2424 5.89482 22.7792C4.99348 22.3438 3.95348 21.4869 3.42482 20.7505C2.82682 19.9168 2.04248 17.9112 1.86048 16.7671C1.76515 16.1557 1.79548 15.0904 1.92548 14.4883C2.22882 13.0802 2.83982 11.8944 3.75415 10.9495C4.62515 10.051 4.85482 9.93517 9.81648 7.79526C10.8565 7.34597 13.3698 6.27602 13.5865 6.19265C13.7252 6.13707 13.7555 6.17412 13.9028 6.5632Z" fill="#40916C"/>
<path d="M24.3765 0.0740021C23.8045 0.185166 22.7298 0.615926 18.7648 2.33897C17.4085 2.92721 16.8755 3.1588 15.6882 3.6822C14.9515 4.00643 14.1888 4.33992 13.9982 4.42329C13.6558 4.57151 12.8672 4.9189 11.4112 5.56272C10.9995 5.74799 10.5748 5.93327 10.4665 5.97495C10.3582 6.02127 9.83815 6.25286 9.31815 6.48445C8.79382 6.72068 8.16115 7.00322 7.90982 7.11438C7.65849 7.22091 7.20348 7.42472 6.89148 7.56367C6.58382 7.70263 6.09415 7.92032 5.80815 8.05001C4.85048 8.47614 4.25248 8.78184 3.94482 8.99027C2.19415 10.2038 1.00248 12.1862 0.599484 14.5438C0.495484 15.1645 0.495484 16.4985 0.599484 17.0682C0.794484 18.1011 1.06748 18.9672 1.56582 20.0881C1.93848 20.9265 2.19848 21.3758 2.61882 21.9131C3.44648 22.9738 4.46915 23.7936 5.59148 24.2938C6.57515 24.7339 7.00848 24.8265 8.25648 24.8589C9.24448 24.8821 10.0245 24.8126 10.4535 24.6598C10.6788 24.581 13.4435 23.4045 15.4932 22.5198C18.9858 21.0099 19.0508 20.9821 21.8415 19.7546C22.1535 19.6203 22.9595 19.2637 23.6398 18.9672C24.3202 18.6708 25.0785 18.3373 25.3298 18.2261C26.5432 17.6842 26.9678 17.4943 27.6482 17.1932C29.9318 16.1835 30.5212 15.8083 31.4875 14.7476C32.2848 13.8676 32.8785 12.8301 33.2598 11.6443C33.5242 10.8291 33.6802 9.44419 33.6108 8.59194C33.4592 6.76236 32.5708 4.3955 31.5092 2.98279C30.9025 2.17222 29.9188 1.34312 28.9655 0.833623C28.1292 0.384336 27.6222 0.222221 26.7945 0.138848C26.2702 0.0878982 24.5412 0.0415793 24.3765 0.0740021ZM26.2788 1.48208C26.9895 1.54229 27.1282 1.57472 27.7522 1.81557C29.2732 2.40381 30.4128 3.38576 31.1538 4.73825C31.5915 5.53956 32.1202 6.98006 32.2675 7.78137C32.3628 8.2816 32.3412 9.52293 32.2285 10.0788C31.9512 11.4683 31.3662 12.617 30.4215 13.6406C29.6242 14.5022 29.0218 14.8264 24.4632 16.8134C22.0235 17.8788 20.1775 18.643 20.1472 18.606C20.1168 18.5689 19.4538 16.8736 18.0888 13.3488C17.9502 12.9875 17.7162 12.3947 17.5775 12.0288C17.1745 10.9866 17.0142 10.5697 16.8148 10.051C16.7108 9.78232 16.5288 9.3145 16.4118 9.0088C15.8312 7.50346 15.1032 5.58588 15.1032 5.55809C15.1032 5.51177 15.8268 5.19217 18.6348 3.99253C24.4632 1.49597 24.3808 1.53303 24.8922 1.48671C25.5032 1.43113 25.6418 1.43113 26.2788 1.48208ZM13.9028 6.5632C13.9895 6.79016 14.1585 7.23018 14.2842 7.54978C15.1682 9.8518 18.6565 19.171 18.6565 19.2405C18.6565 19.2729 18.5438 19.3563 18.4095 19.4212C17.3868 19.8982 16.4465 20.329 14.8648 21.0284C14.2235 21.3156 13.4695 21.6491 13.1965 21.7695C12.0612 22.2744 10.2065 23.0664 9.92482 23.1637C9.66049 23.2517 9.50449 23.2702 8.65948 23.2887C7.25982 23.3165 6.85248 23.2424 5.89482 22.7792C4.99348 22.3438 3.95348 21.4869 3.42482 20.7505C2.82682 19.9168 2.04248 17.9112 1.86048 16.7671C1.76515 16.1557 1.79548 15.0904 1.92548 14.4883C2.22882 13.0802 2.83982 11.8944 3.75415 10.9495C4.62515 10.051 4.85482 9.93517 9.81648 7.79526C10.8565 7.34597 13.3698 6.27602 13.5865 6.19265C13.7252 6.13707 13.7555 6.17412 13.9028 6.5632Z" stroke="#40916C" stroke-width="0.4" mask="url(#path-8-outside-1_763_5496)"/>
<mask id="path-9-outside-2_763_5496" maskUnits="userSpaceOnUse" x="16.248" y="2.09717" width="13" height="9" fill="black">
<rect fill="white" x="16.248" y="2.09717" width="13" height="9"/>
<path d="M25.737 2.2879C25.2863 2.39907 22.279 3.70988 19.7787 4.88636C18.1537 5.65524 17.9457 5.7942 17.599 6.36855C17.404 6.69277 17.326 6.91973 17.2697 7.35513C17.1917 7.98042 17.326 8.59646 17.651 9.11522C17.8633 9.44408 18.093 9.66641 18.431 9.85631C18.7517 10.037 19.068 10.0972 19.7267 10.0972C20.2207 10.0972 20.277 10.0879 20.55 9.95821C20.7147 9.8841 22.006 9.30049 23.423 8.65667C27.3013 6.91047 27.57 6.76688 27.934 6.28517C28.6057 5.39123 28.649 4.24717 28.051 3.28838C27.8733 3.00121 27.5093 2.64919 27.2407 2.50097C26.816 2.27401 26.179 2.18137 25.737 2.2879ZM26.6383 4.01094C26.9027 4.21011 27.063 4.5575 27.063 4.94194C27.063 5.11332 27.037 5.29396 26.998 5.3727C26.9113 5.54871 26.5387 5.81736 26.0013 6.09064C25.2603 6.46581 22.2443 7.82757 20.303 8.66593C19.4233 9.04574 19.159 9.03185 18.7907 8.58719C18.4483 8.17033 18.4267 7.55893 18.7517 7.23933C18.9943 6.99847 19.8697 6.55382 21.733 5.72009C24.1033 4.66403 25.2777 4.12674 25.568 3.96926C25.7543 3.86273 25.828 3.84883 26.1227 3.86273C26.413 3.87199 26.4823 3.89515 26.6383 4.01094Z"/>
</mask>
<path d="M25.737 2.2879C25.2863 2.39907 22.279 3.70988 19.7787 4.88636C18.1537 5.65524 17.9457 5.7942 17.599 6.36855C17.404 6.69277 17.326 6.91973 17.2697 7.35513C17.1917 7.98042 17.326 8.59646 17.651 9.11522C17.8633 9.44408 18.093 9.66641 18.431 9.85631C18.7517 10.037 19.068 10.0972 19.7267 10.0972C20.2207 10.0972 20.277 10.0879 20.55 9.95821C20.7147 9.8841 22.006 9.30049 23.423 8.65667C27.3013 6.91047 27.57 6.76688 27.934 6.28517C28.6057 5.39123 28.649 4.24717 28.051 3.28838C27.8733 3.00121 27.5093 2.64919 27.2407 2.50097C26.816 2.27401 26.179 2.18137 25.737 2.2879ZM26.6383 4.01094C26.9027 4.21011 27.063 4.5575 27.063 4.94194C27.063 5.11332 27.037 5.29396 26.998 5.3727C26.9113 5.54871 26.5387 5.81736 26.0013 6.09064C25.2603 6.46581 22.2443 7.82757 20.303 8.66593C19.4233 9.04574 19.159 9.03185 18.7907 8.58719C18.4483 8.17033 18.4267 7.55893 18.7517 7.23933C18.9943 6.99847 19.8697 6.55382 21.733 5.72009C24.1033 4.66403 25.2777 4.12674 25.568 3.96926C25.7543 3.86273 25.828 3.84883 26.1227 3.86273C26.413 3.87199 26.4823 3.89515 26.6383 4.01094Z" fill="#40916C"/>
<path d="M25.737 2.2879C25.2863 2.39907 22.279 3.70988 19.7787 4.88636C18.1537 5.65524 17.9457 5.7942 17.599 6.36855C17.404 6.69277 17.326 6.91973 17.2697 7.35513C17.1917 7.98042 17.326 8.59646 17.651 9.11522C17.8633 9.44408 18.093 9.66641 18.431 9.85631C18.7517 10.037 19.068 10.0972 19.7267 10.0972C20.2207 10.0972 20.277 10.0879 20.55 9.95821C20.7147 9.8841 22.006 9.30049 23.423 8.65667C27.3013 6.91047 27.57 6.76688 27.934 6.28517C28.6057 5.39123 28.649 4.24717 28.051 3.28838C27.8733 3.00121 27.5093 2.64919 27.2407 2.50097C26.816 2.27401 26.179 2.18137 25.737 2.2879ZM26.6383 4.01094C26.9027 4.21011 27.063 4.5575 27.063 4.94194C27.063 5.11332 27.037 5.29396 26.998 5.3727C26.9113 5.54871 26.5387 5.81736 26.0013 6.09064C25.2603 6.46581 22.2443 7.82757 20.303 8.66593C19.4233 9.04574 19.159 9.03185 18.7907 8.58719C18.4483 8.17033 18.4267 7.55893 18.7517 7.23933C18.9943 6.99847 19.8697 6.55382 21.733 5.72009C24.1033 4.66403 25.2777 4.12674 25.568 3.96926C25.7543 3.86273 25.828 3.84883 26.1227 3.86273C26.413 3.87199 26.4823 3.89515 26.6383 4.01094Z" stroke="#40916C" stroke-width="0.2" mask="url(#path-9-outside-2_763_5496)"/>
<mask id="path-10-outside-3_763_5496" maskUnits="userSpaceOnUse" x="13.0415" y="19.9878" width="27" height="20" fill="black">
<rect fill="white" x="13.0415" y="19.9878" width="27" height="20"/>
<path d="M24.4198 20.7967C23.8132 20.8476 22.3918 21.0839 21.7722 21.2367C20.3118 21.598 19.2458 21.9871 18.1582 22.5568C16.6415 23.3535 15.5278 24.3308 14.8042 25.5026C14.3925 26.1696 14.2495 26.5772 14.1975 27.2442C14.1195 28.1937 14.0545 30.2919 14.0458 31.9177L14.0415 33.5203L14.2885 34.0484C14.4315 34.3587 14.6525 34.7339 14.8215 34.9562C16.2558 36.8645 19.6532 38.3235 23.8002 38.8145C28.3545 39.3564 33.1212 38.6061 36.2065 36.8599C37.6018 36.0725 38.6852 34.9886 39.1705 33.8816C39.2398 33.7334 39.3395 33.4138 39.4002 33.1683C39.4955 32.77 39.5042 32.6634 39.4825 32.1447C39.4695 31.8251 39.4305 31.3341 39.3958 31.0562C39.2615 29.9724 39.1532 28.8329 39.1098 28.0409C39.0232 26.3642 38.6938 25.5814 37.5975 24.4095C36.5965 23.3396 35.4352 22.5985 33.7452 21.9454C32.4712 21.4544 30.4475 20.9681 29.1432 20.8384C28.5062 20.7782 25.0178 20.7457 24.4198 20.7967ZM28.1465 22.1862C28.8312 22.2279 29.8192 22.353 30.2395 22.4456C30.3045 22.4595 30.3565 22.5012 30.3565 22.5429C30.3565 22.5846 29.9708 23.0246 29.5028 23.5248C28.3718 24.7291 21.6205 31.612 20.8318 32.367L20.5112 32.6727L20.2252 32.5662C19.2025 32.1771 18.0628 31.5657 17.3175 30.996C16.6112 30.4633 15.9265 29.6667 15.7272 29.1525C15.6362 28.9209 15.5322 28.1243 15.5235 27.5823L15.5148 27.1145L15.7142 26.6791C15.9612 26.1372 16.2168 25.7713 16.6632 25.322C17.7942 24.1872 19.9652 23.1126 22.0582 22.6541C23.0072 22.4503 24.1208 22.2604 24.8965 22.1724C25.2475 22.1307 27.4055 22.1446 28.1465 22.1862ZM32.7615 23.1126C34.4818 23.7148 35.7602 24.479 36.6875 25.4702C37.2075 26.0307 37.5325 26.5309 37.6668 26.9941C37.7578 27.3044 37.7232 28.5596 37.6148 28.8561C36.9215 30.7366 34.4645 32.33 31.0628 33.1127C28.7315 33.6454 26.3785 33.7612 23.9432 33.4601C23.3105 33.3814 22.2532 33.1776 22.1968 33.122C22.1318 33.0525 27.0588 27.9297 30.6382 24.3586C31.7345 23.2608 32.0942 22.9273 32.1678 22.9273C32.1982 22.9273 32.4668 23.0107 32.7615 23.1126ZM38.0958 31.4777C38.1305 31.7047 38.1608 32.0984 38.1695 32.3531C38.1782 32.7931 38.1695 32.8302 38.0352 33.1266C37.6885 33.8862 36.9952 34.5764 35.9595 35.1971C34.2695 36.2114 31.4702 36.9988 28.8398 37.1934C27.9688 37.2582 25.3688 37.2582 24.5065 37.1934C22.5175 37.0405 20.1992 36.4847 18.5958 35.7714C17.4908 35.2851 16.7282 34.7895 16.1345 34.1919C15.4585 33.5018 15.2982 33.0618 15.3285 31.9826C15.3415 31.6491 15.3675 31.3434 15.3892 31.3017C15.4238 31.2322 15.4845 31.2693 15.8182 31.5703C17.3132 32.9228 18.9858 33.7797 21.2998 34.3911C23.0028 34.8358 25.2778 35.0998 26.9115 35.0396C28.7358 34.9747 29.2385 34.9284 30.3522 34.7339C33.2425 34.2197 35.8165 33.0757 37.3332 31.6259C37.5585 31.4082 37.7925 31.1766 37.8488 31.1071C37.9095 31.0377 37.9745 31.0052 37.9918 31.0238C38.0135 31.0469 38.0612 31.2507 38.0958 31.4777Z"/>
</mask>
<path d="M24.4198 20.7967C23.8132 20.8476 22.3918 21.0839 21.7722 21.2367C20.3118 21.598 19.2458 21.9871 18.1582 22.5568C16.6415 23.3535 15.5278 24.3308 14.8042 25.5026C14.3925 26.1696 14.2495 26.5772 14.1975 27.2442C14.1195 28.1937 14.0545 30.2919 14.0458 31.9177L14.0415 33.5203L14.2885 34.0484C14.4315 34.3587 14.6525 34.7339 14.8215 34.9562C16.2558 36.8645 19.6532 38.3235 23.8002 38.8145C28.3545 39.3564 33.1212 38.6061 36.2065 36.8599C37.6018 36.0725 38.6852 34.9886 39.1705 33.8816C39.2398 33.7334 39.3395 33.4138 39.4002 33.1683C39.4955 32.77 39.5042 32.6634 39.4825 32.1447C39.4695 31.8251 39.4305 31.3341 39.3958 31.0562C39.2615 29.9724 39.1532 28.8329 39.1098 28.0409C39.0232 26.3642 38.6938 25.5814 37.5975 24.4095C36.5965 23.3396 35.4352 22.5985 33.7452 21.9454C32.4712 21.4544 30.4475 20.9681 29.1432 20.8384C28.5062 20.7782 25.0178 20.7457 24.4198 20.7967ZM28.1465 22.1862C28.8312 22.2279 29.8192 22.353 30.2395 22.4456C30.3045 22.4595 30.3565 22.5012 30.3565 22.5429C30.3565 22.5846 29.9708 23.0246 29.5028 23.5248C28.3718 24.7291 21.6205 31.612 20.8318 32.367L20.5112 32.6727L20.2252 32.5662C19.2025 32.1771 18.0628 31.5657 17.3175 30.996C16.6112 30.4633 15.9265 29.6667 15.7272 29.1525C15.6362 28.9209 15.5322 28.1243 15.5235 27.5823L15.5148 27.1145L15.7142 26.6791C15.9612 26.1372 16.2168 25.7713 16.6632 25.322C17.7942 24.1872 19.9652 23.1126 22.0582 22.6541C23.0072 22.4503 24.1208 22.2604 24.8965 22.1724C25.2475 22.1307 27.4055 22.1446 28.1465 22.1862ZM32.7615 23.1126C34.4818 23.7148 35.7602 24.479 36.6875 25.4702C37.2075 26.0307 37.5325 26.5309 37.6668 26.9941C37.7578 27.3044 37.7232 28.5596 37.6148 28.8561C36.9215 30.7366 34.4645 32.33 31.0628 33.1127C28.7315 33.6454 26.3785 33.7612 23.9432 33.4601C23.3105 33.3814 22.2532 33.1776 22.1968 33.122C22.1318 33.0525 27.0588 27.9297 30.6382 24.3586C31.7345 23.2608 32.0942 22.9273 32.1678 22.9273C32.1982 22.9273 32.4668 23.0107 32.7615 23.1126ZM38.0958 31.4777C38.1305 31.7047 38.1608 32.0984 38.1695 32.3531C38.1782 32.7931 38.1695 32.8302 38.0352 33.1266C37.6885 33.8862 36.9952 34.5764 35.9595 35.1971C34.2695 36.2114 31.4702 36.9988 28.8398 37.1934C27.9688 37.2582 25.3688 37.2582 24.5065 37.1934C22.5175 37.0405 20.1992 36.4847 18.5958 35.7714C17.4908 35.2851 16.7282 34.7895 16.1345 34.1919C15.4585 33.5018 15.2982 33.0618 15.3285 31.9826C15.3415 31.6491 15.3675 31.3434 15.3892 31.3017C15.4238 31.2322 15.4845 31.2693 15.8182 31.5703C17.3132 32.9228 18.9858 33.7797 21.2998 34.3911C23.0028 34.8358 25.2778 35.0998 26.9115 35.0396C28.7358 34.9747 29.2385 34.9284 30.3522 34.7339C33.2425 34.2197 35.8165 33.0757 37.3332 31.6259C37.5585 31.4082 37.7925 31.1766 37.8488 31.1071C37.9095 31.0377 37.9745 31.0052 37.9918 31.0238C38.0135 31.0469 38.0612 31.2507 38.0958 31.4777Z" fill="#40916C"/>
<path d="M24.4198 20.7967C23.8132 20.8476 22.3918 21.0839 21.7722 21.2367C20.3118 21.598 19.2458 21.9871 18.1582 22.5568C16.6415 23.3535 15.5278 24.3308 14.8042 25.5026C14.3925 26.1696 14.2495 26.5772 14.1975 27.2442C14.1195 28.1937 14.0545 30.2919 14.0458 31.9177L14.0415 33.5203L14.2885 34.0484C14.4315 34.3587 14.6525 34.7339 14.8215 34.9562C16.2558 36.8645 19.6532 38.3235 23.8002 38.8145C28.3545 39.3564 33.1212 38.6061 36.2065 36.8599C37.6018 36.0725 38.6852 34.9886 39.1705 33.8816C39.2398 33.7334 39.3395 33.4138 39.4002 33.1683C39.4955 32.77 39.5042 32.6634 39.4825 32.1447C39.4695 31.8251 39.4305 31.3341 39.3958 31.0562C39.2615 29.9724 39.1532 28.8329 39.1098 28.0409C39.0232 26.3642 38.6938 25.5814 37.5975 24.4095C36.5965 23.3396 35.4352 22.5985 33.7452 21.9454C32.4712 21.4544 30.4475 20.9681 29.1432 20.8384C28.5062 20.7782 25.0178 20.7457 24.4198 20.7967ZM28.1465 22.1862C28.8312 22.2279 29.8192 22.353 30.2395 22.4456C30.3045 22.4595 30.3565 22.5012 30.3565 22.5429C30.3565 22.5846 29.9708 23.0246 29.5028 23.5248C28.3718 24.7291 21.6205 31.612 20.8318 32.367L20.5112 32.6727L20.2252 32.5662C19.2025 32.1771 18.0628 31.5657 17.3175 30.996C16.6112 30.4633 15.9265 29.6667 15.7272 29.1525C15.6362 28.9209 15.5322 28.1243 15.5235 27.5823L15.5148 27.1145L15.7142 26.6791C15.9612 26.1372 16.2168 25.7713 16.6632 25.322C17.7942 24.1872 19.9652 23.1126 22.0582 22.6541C23.0072 22.4503 24.1208 22.2604 24.8965 22.1724C25.2475 22.1307 27.4055 22.1446 28.1465 22.1862ZM32.7615 23.1126C34.4818 23.7148 35.7602 24.479 36.6875 25.4702C37.2075 26.0307 37.5325 26.5309 37.6668 26.9941C37.7578 27.3044 37.7232 28.5596 37.6148 28.8561C36.9215 30.7366 34.4645 32.33 31.0628 33.1127C28.7315 33.6454 26.3785 33.7612 23.9432 33.4601C23.3105 33.3814 22.2532 33.1776 22.1968 33.122C22.1318 33.0525 27.0588 27.9297 30.6382 24.3586C31.7345 23.2608 32.0942 22.9273 32.1678 22.9273C32.1982 22.9273 32.4668 23.0107 32.7615 23.1126ZM38.0958 31.4777C38.1305 31.7047 38.1608 32.0984 38.1695 32.3531C38.1782 32.7931 38.1695 32.8302 38.0352 33.1266C37.6885 33.8862 36.9952 34.5764 35.9595 35.1971C34.2695 36.2114 31.4702 36.9988 28.8398 37.1934C27.9688 37.2582 25.3688 37.2582 24.5065 37.1934C22.5175 37.0405 20.1992 36.4847 18.5958 35.7714C17.4908 35.2851 16.7282 34.7895 16.1345 34.1919C15.4585 33.5018 15.2982 33.0618 15.3285 31.9826C15.3415 31.6491 15.3675 31.3434 15.3892 31.3017C15.4238 31.2322 15.4845 31.2693 15.8182 31.5703C17.3132 32.9228 18.9858 33.7797 21.2998 34.3911C23.0028 34.8358 25.2778 35.0998 26.9115 35.0396C28.7358 34.9747 29.2385 34.9284 30.3522 34.7339C33.2425 34.2197 35.8165 33.0757 37.3332 31.6259C37.5585 31.4082 37.7925 31.1766 37.8488 31.1071C37.9095 31.0377 37.9745 31.0052 37.9918 31.0238C38.0135 31.0469 38.0612 31.2507 38.0958 31.4777Z" stroke="#40916C" stroke-width="0.2" mask="url(#path-10-outside-3_763_5496)"/>
</g>
</g>
<rect x="-329.5" y="-205.5" width="1367" height="1835" stroke="#E9E9E9"/>
</g>
<path d="M-511 -374H5615V-376H-511V-374ZM5616 -373V1728H5618V-373H5616ZM5615 1729H-511V1731H5615V1729ZM-512 1728V-373H-514V1728H-512ZM-511 1729C-511.552 1729 -512 1728.55 -512 1728H-514C-514 1729.66 -512.657 1731 -511 1731V1729ZM5616 1728C5616 1728.55 5615.55 1729 5615 1729V1731C5616.66 1731 5618 1729.66 5618 1728H5616ZM5615 -374C5615.55 -374 5616 -373.552 5616 -373H5618C5618 -374.657 5616.66 -376 5615 -376V-374ZM-511 -376C-512.657 -376 -514 -374.657 -514 -373H-512C-512 -373.552 -511.552 -374 -511 -374V-376Z" fill="white" fill-opacity="0.1"/>
<path d="M-755 -9739H12931V-9741H-755V-9739ZM12932 -9738V6008H12934V-9738H12932ZM12931 6009H-755V6011H12931V6009ZM-756 6008V-9738H-758V6008H-756ZM-755 6009C-755.552 6009 -756 6008.55 -756 6008H-758C-758 6009.66 -756.657 6011 -755 6011V6009ZM12932 6008C12932 6008.55 12931.6 6009 12931 6009V6011C12932.7 6011 12934 6009.66 12934 6008H12932ZM12931 -9739C12931.6 -9739 12932 -9738.55 12932 -9738H12934C12934 -9739.66 12932.7 -9741 12931 -9741V-9739ZM-755 -9741C-756.657 -9741 -758 -9739.66 -758 -9738H-756C-756 -9738.55 -755.553 -9739 -755 -9739V-9741Z" fill="white" fill-opacity="0.1"/>
<defs>
<filter id="filter0_d_763_5496" x="-350" y="-226" width="1408" height="1876" filterUnits="userSpaceOnUse" color-interpolation-filters="sRGB">
<feFlood flood-opacity="0" result="BackgroundImageFix"/>
<feColorMatrix in="SourceAlpha" type="matrix" values="0 0 0 0 0 0 0 0 0 0 0 0 0 0 0 0 0 0 127 0" result="hardAlpha"/>
<feOffset/>
<feGaussianBlur stdDeviation="10"/>
<feColorMatrix type="matrix" values="0 0 0 0 0 0 0 0 0 0 0 0 0 0 0 0 0 0 0.1 0"/>
<feBlend mode="normal" in2="BackgroundImageFix" result="effect1_dropShadow_763_5496"/>
<feBlend mode="normal" in="SourceGraphic" in2="effect1_dropShadow_763_5496" result="shape"/>
</filter>
<clipPath id="clip0_763_5496">
<rect x="-329" y="-205" width="1366" height="1834" fill="white"/>
</clipPath>
<clipPath id="clip1_763_5496">
<rect width="39" height="39" fill="white" transform="translate(0.5)"/>
</clipPath>
</defs>
</svg>
