<svg width="48" height="48" viewBox="0 0 48 48" fill="none" xmlns="http://www.w3.org/2000/svg">
<rect width="48" height="48" fill="#282828"/>
<path d="M-996 -9937C-996 -9938.1 -995.105 -9939 -994 -9939H12692C12693.1 -9939 12694 -9938.1 12694 -9937V5809C12694 5810.1 12693.1 5811 12692 5811H-994C-995.105 5811 -996 5810.1 -996 5809V-9937Z" fill="#D0D0D0"/>
<path d="M-752 -572C-752 -573.105 -751.105 -574 -750 -574H5376C5377.1 -574 5378 -573.105 5378 -572V1529C5378 1530.1 5377.1 1531 5376 1531H-750C-751.104 1531 -752 1530.1 -752 1529V-572Z" fill="#AAAAAA"/>
<g filter="url(#filter0_d_763_5496)">
<g clip-path="url(#clip0_763_5496)">
<rect x="-568" y="-404" width="1366" height="1834" fill="#F6F6F6"/>
<rect x="-23.5" y="-23.5" width="305" height="139" rx="7.5" fill="white"/>
<circle cx="24" cy="24" r="24" fill="#40916C"/>
<path d="M33.3333 12H14.6667C13.2 12 12 13.2 12 14.6667V33.3333C12 34.8 13.2 36 14.6667 36H33.3333C34.8 36 36 34.8 36 33.3333V14.6667C36 13.2 34.8 12 33.3333 12ZM25.3333 17.4667L26.8 16L28.6667 17.8667L30.5333 16L32 17.4667L30.1333 19.3333L32 21.2L30.5333 22.6667L28.6667 20.8L26.8 22.6667L25.3333 21.2L27.2 19.3333L25.3333 17.4667ZM16.2667 18.2667H22.9333V20.2667H16.2667V18.2667ZM23.3333 29.3333H20.6667V32H18.6667V29.3333H16V27.3333H18.6667V24.6667H20.6667V27.3333H23.3333V29.3333ZM32 30.9333H25.3333V28.9333H32V30.9333ZM32 27.7333H25.3333V25.7333H32V27.7333Z" fill="white"/>
<rect x="-23.5" y="-23.5" width="305" height="139" rx="7.5" stroke="#E3E8EF"/>
</g>
<rect x="-568.5" y="-404.5" width="1367" height="1835" stroke="#E9E9E9"/>
</g>
<path d="M-750 -573H5376V-575H-750V-573ZM5377 -572V1529H5379V-572H5377ZM5376 1530H-750V1532H5376V1530ZM-751 1529V-572H-753V1529H-751ZM-750 1530C-750.552 1530 -751 1529.55 -751 1529H-753C-753 1530.66 -751.657 1532 -750 1532V1530ZM5377 1529C5377 1529.55 5376.55 1530 5376 1530V1532C5377.66 1532 5379 1530.66 5379 1529H5377ZM5376 -573C5376.55 -573 5377 -572.552 5377 -572H5379C5379 -573.657 5377.66 -575 5376 -575V-573ZM-750 -575C-751.657 -575 -753 -573.657 -753 -572H-751C-751 -572.552 -750.552 -573 -750 -573V-575Z" fill="white" fill-opacity="0.1"/>
<path d="M-994 -9938H12692V-9940H-994V-9938ZM12693 -9937V5809H12695V-9937H12693ZM12692 5810H-994V5812H12692V5810ZM-995 5809V-9937H-997V5809H-995ZM-994 5810C-994.552 5810 -995 5809.55 -995 5809H-997C-997 5810.66 -995.657 5812 -994 5812V5810ZM12693 5809C12693 5809.55 12692.6 5810 12692 5810V5812C12693.7 5812 12695 5810.66 12695 5809H12693ZM12692 -9938C12692.6 -9938 12693 -9937.55 12693 -9937H12695C12695 -9938.66 12693.7 -9940 12692 -9940V-9938ZM-994 -9940C-995.657 -9940 -997 -9938.66 -997 -9937H-995C-995 -9937.55 -994.553 -9938 -994 -9938V-9940Z" fill="white" fill-opacity="0.1"/>
<defs>
<filter id="filter0_d_763_5496" x="-589" y="-425" width="1408" height="1876" filterUnits="userSpaceOnUse" color-interpolation-filters="sRGB">
<feFlood flood-opacity="0" result="BackgroundImageFix"/>
<feColorMatrix in="SourceAlpha" type="matrix" values="0 0 0 0 0 0 0 0 0 0 0 0 0 0 0 0 0 0 127 0" result="hardAlpha"/>
<feOffset/>
<feGaussianBlur stdDeviation="10"/>
<feColorMatrix type="matrix" values="0 0 0 0 0 0 0 0 0 0 0 0 0 0 0 0 0 0 0.1 0"/>
<feBlend mode="normal" in2="BackgroundImageFix" result="effect1_dropShadow_763_5496"/>
<feBlend mode="normal" in="SourceGraphic" in2="effect1_dropShadow_763_5496" result="shape"/>
</filter>
<clipPath id="clip0_763_5496">
<rect x="-568" y="-404" width="1366" height="1834" fill="white"/>
</clipPath>
</defs>
</svg>
