<svg width="48" height="48" viewBox="0 0 48 48" fill="none" xmlns="http://www.w3.org/2000/svg">
<rect width="48" height="48" fill="#282828"/>
<path d="M-731 -9937C-731 -9938.1 -730.105 -9939 -729 -9939H12957C12958.1 -9939 12959 -9938.1 12959 -9937V5809C12959 5810.1 12958.1 5811 12957 5811H-729C-730.105 5811 -731 5810.1 -731 5809V-9937Z" fill="#D0D0D0"/>
<path d="M-487 -572C-487 -573.105 -486.105 -574 -485 -574H5641C5642.1 -574 5643 -573.105 5643 -572V1529C5643 1530.1 5642.1 1531 5641 1531H-485C-486.104 1531 -487 1530.1 -487 1529V-572Z" fill="#AAAAAA"/>
<g filter="url(#filter0_d_763_5496)">
<g clip-path="url(#clip0_763_5496)">
<rect x="-303" y="-404" width="1366" height="1834" fill="#F6F6F6"/>
<rect x="-23.5" y="-23.5" width="240" height="144.92" rx="7.5" fill="white"/>
<circle cx="24" cy="24" r="24" fill="#40916C"/>
<path d="M22.1053 25.8615V36.2H12V25.8615H22.1053ZM23.3684 11L30.3158 22.6308H16.4211L23.3684 11ZM30.3158 25.2154C33.4737 25.2154 36 27.8 36 31.0308C36 34.2615 33.4737 36.8462 30.3158 36.8462C27.1579 36.8462 24.6316 34.2615 24.6316 31.0308C24.6316 27.8 27.1579 25.2154 30.3158 25.2154Z" fill="white"/>
<rect x="-23.5" y="-23.5" width="240" height="144.92" rx="7.5" stroke="#E3E8EF"/>
</g>
<rect x="-303.5" y="-404.5" width="1367" height="1835" stroke="#E9E9E9"/>
</g>
<path d="M-485 -573H5641V-575H-485V-573ZM5642 -572V1529H5644V-572H5642ZM5641 1530H-485V1532H5641V1530ZM-486 1529V-572H-488V1529H-486ZM-485 1530C-485.552 1530 -486 1529.55 -486 1529H-488C-488 1530.66 -486.657 1532 -485 1532V1530ZM5642 1529C5642 1529.55 5641.55 1530 5641 1530V1532C5642.66 1532 5644 1530.66 5644 1529H5642ZM5641 -573C5641.55 -573 5642 -572.552 5642 -572H5644C5644 -573.657 5642.66 -575 5641 -575V-573ZM-485 -575C-486.657 -575 -488 -573.657 -488 -572H-486C-486 -572.552 -485.552 -573 -485 -573V-575Z" fill="white" fill-opacity="0.1"/>
<path d="M-729 -9938H12957V-9940H-729V-9938ZM12958 -9937V5809H12960V-9937H12958ZM12957 5810H-729V5812H12957V5810ZM-730 5809V-9937H-732V5809H-730ZM-729 5810C-729.552 5810 -730 5809.55 -730 5809H-732C-732 5810.66 -730.657 5812 -729 5812V5810ZM12958 5809C12958 5809.55 12957.6 5810 12957 5810V5812C12958.7 5812 12960 5810.66 12960 5809H12958ZM12957 -9938C12957.6 -9938 12958 -9937.55 12958 -9937H12960C12960 -9938.66 12958.7 -9940 12957 -9940V-9938ZM-729 -9940C-730.657 -9940 -732 -9938.66 -732 -9937H-730C-730 -9937.55 -729.553 -9938 -729 -9938V-9940Z" fill="white" fill-opacity="0.1"/>
<defs>
<filter id="filter0_d_763_5496" x="-324" y="-425" width="1408" height="1876" filterUnits="userSpaceOnUse" color-interpolation-filters="sRGB">
<feFlood flood-opacity="0" result="BackgroundImageFix"/>
<feColorMatrix in="SourceAlpha" type="matrix" values="0 0 0 0 0 0 0 0 0 0 0 0 0 0 0 0 0 0 127 0" result="hardAlpha"/>
<feOffset/>
<feGaussianBlur stdDeviation="10"/>
<feColorMatrix type="matrix" values="0 0 0 0 0 0 0 0 0 0 0 0 0 0 0 0 0 0 0.1 0"/>
<feBlend mode="normal" in2="BackgroundImageFix" result="effect1_dropShadow_763_5496"/>
<feBlend mode="normal" in="SourceGraphic" in2="effect1_dropShadow_763_5496" result="shape"/>
</filter>
<clipPath id="clip0_763_5496">
<rect x="-303" y="-404" width="1366" height="1834" fill="white"/>
</clipPath>
</defs>
</svg>
