<svg viewBox="0 0 24 24" xmlns="http://www.w3.org/2000/svg">
<path d="M17.1351 11.3243C16.6873 11.3243 16.3243 10.9613 16.3243 10.5135C16.3243 10.0657 16.6873 9.7027 17.1351 9.7027L19.2973 9.7027C19.8944 9.7027 20.3784 9.21869 20.3784 8.62162V4.7027C20.3784 4.10564 19.8944 3.62162 19.2973 3.62162L15.3784 3.62162C14.7813 3.62162 14.2973 4.10564 14.2973 4.7027L14.2973 8.62162C14.2973 9.79055 13.0343 10.4062 12.7543 9.27129C12.7029 9.06319 12.6757 8.84558 12.6757 8.62162L12.6757 4.7027C12.6757 3.21004 13.8857 2 15.3784 2L19.2973 2C20.79 2 22 3.21004 22 4.7027V8.62162C22 10.1143 20.79 11.3243 19.2973 11.3243H17.1351Z"/>
<path fill-rule="evenodd" clip-rule="evenodd" d="M2 5.24324C2 3.45205 3.45205 2 5.24324 2H8.08108C9.87227 2 11.3243 3.45205 11.3243 5.24324V8.08108C11.3243 9.87228 9.87227 11.3243 8.08108 11.3243H5.24324C3.45205 11.3243 2 9.87227 2 8.08108V5.24324ZM5.24324 3.62162H8.08108C8.97668 3.62162 9.7027 4.34765 9.7027 5.24324V8.08108C9.7027 8.97668 8.97668 9.7027 8.08108 9.7027H5.24324C4.34765 9.7027 3.62162 8.97668 3.62162 8.08108V5.24324C3.62162 4.34765 4.34765 3.62162 5.24324 3.62162Z" />
<path fill-rule="evenodd" clip-rule="evenodd" d="M22 17.3378C22 19.9127 19.9127 22 17.3378 22C14.763 22 12.6757 19.9127 12.6757 17.3378C12.6757 14.763 14.763 12.6757 17.3378 12.6757C19.9127 12.6757 22 14.763 22 17.3378ZM20.6486 17.3378C20.6486 19.1663 19.1663 20.6486 17.3378 20.6486C15.5093 20.6486 14.027 19.1663 14.027 17.3378C14.027 15.5093 15.5093 14.027 17.3378 14.027C19.1663 14.027 20.6486 15.5093 20.6486 17.3378Z" />
<path d="M7.67568 13.4865C7.67568 13.0387 7.31266 12.6757 6.86486 12.6757H4.7027C3.21004 12.6757 2 13.8857 2 15.3784V19.2973C2 20.79 3.21004 22 4.7027 22H8.62162C10.1143 22 11.3243 20.79 11.3243 19.2973V15.3784C11.3243 15.1544 11.2971 14.9368 11.2457 14.7287C10.9657 13.5938 9.7027 14.2095 9.7027 15.3784V19.2973C9.7027 19.8944 9.21869 20.3784 8.62162 20.3784H4.7027C4.10564 20.3784 3.62162 19.8944 3.62162 19.2973V15.3784C3.62162 14.7813 4.10564 14.2973 4.7027 14.2973H6.86486C7.31266 14.2973 7.67568 13.9343 7.67568 13.4865Z" />
</svg>
