<svg width="24" height="24" viewBox="0 0 24 24" fill="none" xmlns="http://www.w3.org/2000/svg">
<g clip-path="url(#clip0_411_13014)">
<mask id="path-1-outside-1_411_13014" maskUnits="userSpaceOnUse" x="-0.989685" y="1.43994" width="26" height="21" fill="black">
<rect fill="white" x="-0.989685" y="1.43994" width="26" height="21"/>
<path d="M10.048 2.69861C9.53599 2.89061 9.02399 3.33861 8.78932 3.80794C8.62932 4.13861 8.58665 4.45861 8.58665 5.59994C8.58665 6.86927 8.60799 7.01861 8.84265 7.43461C9.25865 8.15994 9.79199 8.45861 10.7627 8.53327L11.5733 8.58661V9.86661V11.1466L7.99999 11.1999C4.04265 11.2639 4.01065 11.2639 3.48799 11.9679C3.08265 12.5226 2.98665 12.9599 2.98665 14.2506V15.4666H2.31465C1.45065 15.4666 0.810653 15.7759 0.37332 16.4053C0.0746531 16.8533 0.0533198 16.9386 0.0213198 18.1226C-0.0320135 19.6906 0.0959865 20.1706 0.682653 20.7573C1.29065 21.3759 1.71732 21.4613 3.67999 21.4186C5.25865 21.3866 5.31199 21.3759 5.81332 21.0666C6.64532 20.5546 6.82665 20.0959 6.82665 18.4853C6.82665 17.5359 6.78399 17.0559 6.66665 16.7679C6.29332 15.9039 5.58932 15.4666 4.53332 15.4666H3.83999V14.1973C3.83999 13.0666 3.86132 12.9066 4.08532 12.5759C4.49065 11.9786 4.75732 11.9359 8.36265 11.9679L11.5733 11.9999V13.7066V15.4133L10.7733 15.4666C9.78132 15.5413 9.29065 15.8079 8.88532 16.5119C8.60799 16.9706 8.58665 17.0986 8.58665 18.2399C8.58665 19.8826 8.66132 20.1919 9.20532 20.7359C9.80265 21.3333 10.24 21.4399 12.0107 21.4399C13.8133 21.4399 14.176 21.3439 14.7733 20.7466C15.3387 20.1813 15.4133 19.8826 15.4133 18.2399C15.4027 17.1413 15.3813 16.9599 15.1467 16.5653C14.7413 15.8399 14.208 15.5413 13.2373 15.4666L12.4267 15.4133V13.7066V11.9999L15.6373 11.9679C19.2427 11.9359 19.5093 11.9786 19.9147 12.5759C20.1387 12.9066 20.16 13.0666 20.16 14.1973V15.4666H19.4667C18.4107 15.4666 17.7067 15.9039 17.3333 16.7679C17.216 17.0559 17.1733 17.5359 17.1733 18.4853C17.1733 20.0959 17.3547 20.5546 18.1867 21.0666C18.688 21.3759 18.7413 21.3866 20.32 21.4186C22.2827 21.4613 22.7093 21.3759 23.3173 20.7573C23.904 20.1706 24.032 19.6906 23.9787 18.1226C23.9467 16.9386 23.936 16.8533 23.6267 16.4159C23.1787 15.7759 22.5387 15.4666 21.6853 15.4666H21.0133V14.3146C21.0133 13.0239 20.896 12.4799 20.5227 11.9679C19.9787 11.2639 19.9467 11.2639 16 11.1999L12.4267 11.1466V9.86661V8.58661L13.2373 8.53327C14.176 8.45861 14.6347 8.21327 15.072 7.54127C15.392 7.05061 15.5307 6.09061 15.424 4.93861C15.328 3.71194 14.8373 3.00794 13.8773 2.67727C13.3973 2.51727 10.5067 2.53861 10.048 2.69861ZM13.952 3.62661C14.464 3.93594 14.6133 4.39461 14.6133 5.59994C14.6133 6.71994 14.496 7.08261 14.016 7.45594C13.7493 7.65861 13.5893 7.67994 11.9893 7.67994H10.24L9.83465 7.31727L9.43999 6.95461L9.40799 5.78127C9.36532 4.42661 9.50399 3.95727 10.048 3.62661C10.3573 3.43461 10.5813 3.41327 12 3.41327C13.4187 3.41327 13.6427 3.43461 13.952 3.62661ZM5.61065 16.6826L5.97332 17.0453V18.3359C5.97332 20.4693 5.79199 20.6186 3.25332 20.5653L1.59999 20.5333L1.25865 20.1813C0.906653 19.8399 0.906653 19.8293 0.874653 18.6559C0.831987 17.2479 0.874653 17.0239 1.30132 16.6186L1.62132 16.3199H3.43465H5.24799L5.61065 16.6826ZM14.0267 16.5546C14.4747 16.8959 14.6133 17.3653 14.6133 18.4533C14.6133 19.5946 14.4533 20.0639 13.952 20.3733C13.6427 20.5653 13.4187 20.5866 12 20.5866C10.5813 20.5866 10.3573 20.5653 10.048 20.3733C9.50399 20.0426 9.36532 19.5733 9.40799 18.2186L9.43999 17.0453L9.83465 16.6826L10.24 16.3199H11.9893C13.6107 16.3199 13.7493 16.3306 14.0267 16.5546ZM22.6133 16.5333C23.0827 16.8639 23.168 17.2266 23.1253 18.6026C23.0933 19.8293 23.0933 19.8399 22.7413 20.1813L22.4 20.5333L20.7467 20.5653C18.208 20.6186 18.0267 20.4693 18.0267 18.3359V17.0453L18.3893 16.6826L18.752 16.3199H20.5333C22.1333 16.3199 22.3467 16.3413 22.6133 16.5333Z"/>
</mask>
<path d="M10.048 2.69861C9.53599 2.89061 9.02399 3.33861 8.78932 3.80794C8.62932 4.13861 8.58665 4.45861 8.58665 5.59994C8.58665 6.86927 8.60799 7.01861 8.84265 7.43461C9.25865 8.15994 9.79199 8.45861 10.7627 8.53327L11.5733 8.58661V9.86661V11.1466L7.99999 11.1999C4.04265 11.2639 4.01065 11.2639 3.48799 11.9679C3.08265 12.5226 2.98665 12.9599 2.98665 14.2506V15.4666H2.31465C1.45065 15.4666 0.810653 15.7759 0.37332 16.4053C0.0746531 16.8533 0.0533198 16.9386 0.0213198 18.1226C-0.0320135 19.6906 0.0959865 20.1706 0.682653 20.7573C1.29065 21.3759 1.71732 21.4613 3.67999 21.4186C5.25865 21.3866 5.31199 21.3759 5.81332 21.0666C6.64532 20.5546 6.82665 20.0959 6.82665 18.4853C6.82665 17.5359 6.78399 17.0559 6.66665 16.7679C6.29332 15.9039 5.58932 15.4666 4.53332 15.4666H3.83999V14.1973C3.83999 13.0666 3.86132 12.9066 4.08532 12.5759C4.49065 11.9786 4.75732 11.9359 8.36265 11.9679L11.5733 11.9999V13.7066V15.4133L10.7733 15.4666C9.78132 15.5413 9.29065 15.8079 8.88532 16.5119C8.60799 16.9706 8.58665 17.0986 8.58665 18.2399C8.58665 19.8826 8.66132 20.1919 9.20532 20.7359C9.80265 21.3333 10.24 21.4399 12.0107 21.4399C13.8133 21.4399 14.176 21.3439 14.7733 20.7466C15.3387 20.1813 15.4133 19.8826 15.4133 18.2399C15.4027 17.1413 15.3813 16.9599 15.1467 16.5653C14.7413 15.8399 14.208 15.5413 13.2373 15.4666L12.4267 15.4133V13.7066V11.9999L15.6373 11.9679C19.2427 11.9359 19.5093 11.9786 19.9147 12.5759C20.1387 12.9066 20.16 13.0666 20.16 14.1973V15.4666H19.4667C18.4107 15.4666 17.7067 15.9039 17.3333 16.7679C17.216 17.0559 17.1733 17.5359 17.1733 18.4853C17.1733 20.0959 17.3547 20.5546 18.1867 21.0666C18.688 21.3759 18.7413 21.3866 20.32 21.4186C22.2827 21.4613 22.7093 21.3759 23.3173 20.7573C23.904 20.1706 24.032 19.6906 23.9787 18.1226C23.9467 16.9386 23.936 16.8533 23.6267 16.4159C23.1787 15.7759 22.5387 15.4666 21.6853 15.4666H21.0133V14.3146C21.0133 13.0239 20.896 12.4799 20.5227 11.9679C19.9787 11.2639 19.9467 11.2639 16 11.1999L12.4267 11.1466V9.86661V8.58661L13.2373 8.53327C14.176 8.45861 14.6347 8.21327 15.072 7.54127C15.392 7.05061 15.5307 6.09061 15.424 4.93861C15.328 3.71194 14.8373 3.00794 13.8773 2.67727C13.3973 2.51727 10.5067 2.53861 10.048 2.69861ZM13.952 3.62661C14.464 3.93594 14.6133 4.39461 14.6133 5.59994C14.6133 6.71994 14.496 7.08261 14.016 7.45594C13.7493 7.65861 13.5893 7.67994 11.9893 7.67994H10.24L9.83465 7.31727L9.43999 6.95461L9.40799 5.78127C9.36532 4.42661 9.50399 3.95727 10.048 3.62661C10.3573 3.43461 10.5813 3.41327 12 3.41327C13.4187 3.41327 13.6427 3.43461 13.952 3.62661ZM5.61065 16.6826L5.97332 17.0453V18.3359C5.97332 20.4693 5.79199 20.6186 3.25332 20.5653L1.59999 20.5333L1.25865 20.1813C0.906653 19.8399 0.906653 19.8293 0.874653 18.6559C0.831987 17.2479 0.874653 17.0239 1.30132 16.6186L1.62132 16.3199H3.43465H5.24799L5.61065 16.6826ZM14.0267 16.5546C14.4747 16.8959 14.6133 17.3653 14.6133 18.4533C14.6133 19.5946 14.4533 20.0639 13.952 20.3733C13.6427 20.5653 13.4187 20.5866 12 20.5866C10.5813 20.5866 10.3573 20.5653 10.048 20.3733C9.50399 20.0426 9.36532 19.5733 9.40799 18.2186L9.43999 17.0453L9.83465 16.6826L10.24 16.3199H11.9893C13.6107 16.3199 13.7493 16.3306 14.0267 16.5546ZM22.6133 16.5333C23.0827 16.8639 23.168 17.2266 23.1253 18.6026C23.0933 19.8293 23.0933 19.8399 22.7413 20.1813L22.4 20.5333L20.7467 20.5653C18.208 20.6186 18.0267 20.4693 18.0267 18.3359V17.0453L18.3893 16.6826L18.752 16.3199H20.5333C22.1333 16.3199 22.3467 16.3413 22.6133 16.5333Z" fill="black"/>
<path d="M10.048 2.69861C9.53599 2.89061 9.02399 3.33861 8.78932 3.80794C8.62932 4.13861 8.58665 4.45861 8.58665 5.59994C8.58665 6.86927 8.60799 7.01861 8.84265 7.43461C9.25865 8.15994 9.79199 8.45861 10.7627 8.53327L11.5733 8.58661V9.86661V11.1466L7.99999 11.1999C4.04265 11.2639 4.01065 11.2639 3.48799 11.9679C3.08265 12.5226 2.98665 12.9599 2.98665 14.2506V15.4666H2.31465C1.45065 15.4666 0.810653 15.7759 0.37332 16.4053C0.0746531 16.8533 0.0533198 16.9386 0.0213198 18.1226C-0.0320135 19.6906 0.0959865 20.1706 0.682653 20.7573C1.29065 21.3759 1.71732 21.4613 3.67999 21.4186C5.25865 21.3866 5.31199 21.3759 5.81332 21.0666C6.64532 20.5546 6.82665 20.0959 6.82665 18.4853C6.82665 17.5359 6.78399 17.0559 6.66665 16.7679C6.29332 15.9039 5.58932 15.4666 4.53332 15.4666H3.83999V14.1973C3.83999 13.0666 3.86132 12.9066 4.08532 12.5759C4.49065 11.9786 4.75732 11.9359 8.36265 11.9679L11.5733 11.9999V13.7066V15.4133L10.7733 15.4666C9.78132 15.5413 9.29065 15.8079 8.88532 16.5119C8.60799 16.9706 8.58665 17.0986 8.58665 18.2399C8.58665 19.8826 8.66132 20.1919 9.20532 20.7359C9.80265 21.3333 10.24 21.4399 12.0107 21.4399C13.8133 21.4399 14.176 21.3439 14.7733 20.7466C15.3387 20.1813 15.4133 19.8826 15.4133 18.2399C15.4027 17.1413 15.3813 16.9599 15.1467 16.5653C14.7413 15.8399 14.208 15.5413 13.2373 15.4666L12.4267 15.4133V13.7066V11.9999L15.6373 11.9679C19.2427 11.9359 19.5093 11.9786 19.9147 12.5759C20.1387 12.9066 20.16 13.0666 20.16 14.1973V15.4666H19.4667C18.4107 15.4666 17.7067 15.9039 17.3333 16.7679C17.216 17.0559 17.1733 17.5359 17.1733 18.4853C17.1733 20.0959 17.3547 20.5546 18.1867 21.0666C18.688 21.3759 18.7413 21.3866 20.32 21.4186C22.2827 21.4613 22.7093 21.3759 23.3173 20.7573C23.904 20.1706 24.032 19.6906 23.9787 18.1226C23.9467 16.9386 23.936 16.8533 23.6267 16.4159C23.1787 15.7759 22.5387 15.4666 21.6853 15.4666H21.0133V14.3146C21.0133 13.0239 20.896 12.4799 20.5227 11.9679C19.9787 11.2639 19.9467 11.2639 16 11.1999L12.4267 11.1466V9.86661V8.58661L13.2373 8.53327C14.176 8.45861 14.6347 8.21327 15.072 7.54127C15.392 7.05061 15.5307 6.09061 15.424 4.93861C15.328 3.71194 14.8373 3.00794 13.8773 2.67727C13.3973 2.51727 10.5067 2.53861 10.048 2.69861ZM13.952 3.62661C14.464 3.93594 14.6133 4.39461 14.6133 5.59994C14.6133 6.71994 14.496 7.08261 14.016 7.45594C13.7493 7.65861 13.5893 7.67994 11.9893 7.67994H10.24L9.83465 7.31727L9.43999 6.95461L9.40799 5.78127C9.36532 4.42661 9.50399 3.95727 10.048 3.62661C10.3573 3.43461 10.5813 3.41327 12 3.41327C13.4187 3.41327 13.6427 3.43461 13.952 3.62661ZM5.61065 16.6826L5.97332 17.0453V18.3359C5.97332 20.4693 5.79199 20.6186 3.25332 20.5653L1.59999 20.5333L1.25865 20.1813C0.906653 19.8399 0.906653 19.8293 0.874653 18.6559C0.831987 17.2479 0.874653 17.0239 1.30132 16.6186L1.62132 16.3199H3.43465H5.24799L5.61065 16.6826ZM14.0267 16.5546C14.4747 16.8959 14.6133 17.3653 14.6133 18.4533C14.6133 19.5946 14.4533 20.0639 13.952 20.3733C13.6427 20.5653 13.4187 20.5866 12 20.5866C10.5813 20.5866 10.3573 20.5653 10.048 20.3733C9.50399 20.0426 9.36532 19.5733 9.40799 18.2186L9.43999 17.0453L9.83465 16.6826L10.24 16.3199H11.9893C13.6107 16.3199 13.7493 16.3306 14.0267 16.5546ZM22.6133 16.5333C23.0827 16.8639 23.168 17.2266 23.1253 18.6026C23.0933 19.8293 23.0933 19.8399 22.7413 20.1813L22.4 20.5333L20.7467 20.5653C18.208 20.6186 18.0267 20.4693 18.0267 18.3359V17.0453L18.3893 16.6826L18.752 16.3199H20.5333C22.1333 16.3199 22.3467 16.3413 22.6133 16.5333Z" stroke="black" stroke-width="0.4" mask="url(#path-1-outside-1_411_13014)"/>
</g>
<defs>
<clipPath id="clip0_411_13014">
<rect width="24" height="24" fill="white"/>
</clipPath>
</defs>
</svg>
