<svg width="48" height="49" viewBox="0 0 48 49" fill="none" xmlns="http://www.w3.org/2000/svg">
<rect width="48" height="49" fill="#282828"/>
<path d="M-733 -10419C-733 -10420.1 -732.105 -10421 -731 -10421H12955C12956.1 -10421 12957 -10420.1 12957 -10419V5327C12957 5328.1 12956.1 5329 12955 5329H-731C-732.105 5329 -733 5328.1 -733 5327V-10419Z" fill="#D0D0D0"/>
<path d="M-489 -1054C-489 -1055.1 -488.105 -1056 -487 -1056H5639C5640.1 -1056 5641 -1055.1 5641 -1054V1047C5641 1048.1 5640.1 1049 5639 1049H-487C-488.104 1049 -489 1048.1 -489 1047V-1054Z" fill="#AAAAAA"/>
<g filter="url(#filter0_d_763_5496)">
<g clip-path="url(#clip0_763_5496)">
<rect x="-305" y="-886" width="1366" height="1834" fill="#F6F6F6"/>
<rect x="-23.5" y="-22.9131" width="173" height="140" rx="7.5" fill="white"/>
<circle cx="24" cy="24.5869" r="24" fill="#40916C"/>
<mask id="mask0_763_5496" style="mask-type:alpha" maskUnits="userSpaceOnUse" x="0" y="0" width="48" height="49">
<circle cx="24" cy="24.5869" r="24" fill="#FF6392"/>
</mask>
<g mask="url(#mask0_763_5496)">
<path fill-rule="evenodd" clip-rule="evenodd" d="M27.1302 8.70424C27.5775 8.64182 27.9906 8.95382 28.0531 9.4011C28.2091 10.5194 27.8135 12.0526 26.3634 13.2781C26.2213 13.3982 26.0699 13.5147 25.9086 13.6274C28.6686 14.0449 30.3511 15.2934 30.958 16.1026L31.0469 16.2212L31.0802 16.3655C31.2349 17.036 31.1841 18.0431 30.6306 19.0416C30.0676 20.0575 29.0121 21.0166 27.2369 21.6252C25.6748 22.1608 24.9928 22.7525 24.7186 23.1696C24.4581 23.5658 24.5454 23.8223 24.5832 23.8895C24.7268 24.1447 24.6932 24.4514 24.5223 24.6678C24.618 25.7241 24.5144 27.0668 23.9309 28.2662C23.1815 29.8064 21.6799 31.0213 19.094 31.1248C17.8148 31.1759 16.7672 30.9198 15.9298 30.4289C15.093 29.9384 14.5111 29.24 14.1201 28.4782C13.4308 27.135 13.3164 25.5637 13.421 24.4041C13.3787 24.2361 13.3982 24.0523 13.4898 23.8895C13.5276 23.8223 13.6149 23.5658 13.3544 23.1696C13.0801 22.7525 12.3982 22.1608 10.8361 21.6252C9.06083 21.0166 8.00542 20.0575 7.44235 19.0416C6.88892 18.0431 6.83804 17.036 6.99277 16.3655L7.02609 16.2212L7.115 16.1026C7.67936 15.3501 9.17372 14.2178 11.5998 13.727C11.3814 13.5868 11.1791 13.4402 10.992 13.288C9.50307 12.0773 9.03573 10.5595 9.14001 9.43837C9.18184 8.9887 9.58029 8.65807 10.03 8.69991C10.4796 8.74174 10.8103 9.14018 10.7684 9.58985C10.717 10.1431 10.9388 11.1369 12.0238 12.0191C13.1152 12.9066 15.1359 13.7195 18.7155 13.7195C22.2979 13.7195 24.2706 12.9055 25.3077 12.029C26.3341 11.1616 26.5109 10.1832 26.4333 9.62712C26.3709 9.17984 26.6829 8.76665 27.1302 8.70424ZM15.3673 27.8381C14.7844 26.7023 14.7127 25.2695 14.8461 24.2688C15.0179 23.7405 14.9631 23.0648 14.5257 22.3995C14.0115 21.6173 12.9996 20.8851 11.2907 20.2992C9.79514 19.7864 9.03988 19.0322 8.66842 18.362C8.33621 17.7627 8.28786 17.1906 8.33318 16.8271C8.90601 16.1919 10.7653 14.8877 14.1007 14.8877C14.1692 14.8877 14.2354 14.8779 14.298 14.8595C15.5088 15.1731 16.968 15.355 18.7155 15.355C20.6742 15.355 22.2629 15.1265 23.5399 14.7385C23.659 14.832 23.8091 14.8877 23.9723 14.8877C27.3077 14.8877 29.167 16.1919 29.7398 16.8271C29.7851 17.1906 29.7368 17.7627 29.4046 18.362C29.0331 19.0322 28.2778 19.7864 26.7822 20.2992C25.0734 20.8851 24.0615 21.6173 23.5473 22.3995C23.2415 22.8645 23.1227 23.3346 23.1375 23.7558C23.0519 23.8986 23.0164 24.0723 23.0504 24.2486C23.2265 25.1643 23.2169 26.5296 22.6703 27.6529C22.1541 28.7139 21.1248 29.6406 19.038 29.7241C17.9808 29.7664 17.208 29.5533 16.6387 29.2196C16.0688 28.8855 15.6578 28.4042 15.3673 27.8381ZM31.0982 35.2139C31.5498 35.2139 31.9159 35.58 31.9159 36.0316V40.9245C35.935 40.6791 39.1978 41.9865 40.639 42.9283C41.7118 43.54 45.2118 44.241 49.3538 40.4515C50.613 39.2994 52.0037 38.8627 53.409 38.9732C54.7803 39.081 56.0938 39.7031 57.2662 40.5296C59.6054 42.1786 61.6149 44.8068 62.7559 46.7086C62.8322 46.8357 62.8725 46.9811 62.8725 47.1293V53.4374H61.237V47.3584C60.1435 45.5838 58.3331 43.2827 56.3239 41.8662C55.2855 41.1342 54.2525 40.68 53.2808 40.6036C52.3432 40.5299 51.3947 40.8009 50.4577 41.6581C45.8372 45.8854 41.5491 45.3526 39.7979 44.3311C39.785 44.3236 39.7724 44.3157 39.7599 44.3075C38.5693 43.5228 35.6032 42.3137 31.9159 42.564V53.4374H30.2804V36.0316C30.2804 35.58 30.6465 35.2139 31.0982 35.2139ZM27.4768 53.4374V42.8071C27.4768 42.3554 27.1107 41.9893 26.6591 41.9893C26.5337 41.9893 26.4149 42.0176 26.3086 42.068V42.0672C23.1427 42.6988 21.4662 42.189 20.5916 41.4992C19.5719 40.6947 19.3636 39.4244 19.4151 38.5319C19.416 38.5162 19.4164 38.5005 19.4164 38.4848V33.228C19.4164 32.7764 19.0503 32.4103 18.5987 32.4103C18.1471 32.4103 17.781 32.7764 17.781 33.228V38.4622C17.7205 39.5977 17.9643 41.5097 19.5788 42.7832C20.1033 43.197 20.7439 43.5206 21.5192 43.728L21.5191 43.7416V53.4374H23.1546V43.9752C23.9456 44.0167 24.8376 43.9668 25.8414 43.8106V53.4374H27.4768ZM67.4283 53.4374V43.5281L67.1989 43.2904C64.8106 40.8169 64.5598 37.3843 64.7349 36.0188L64.7369 36.0035L65.7896 24.3064C65.8301 23.8566 65.4983 23.4591 65.0485 23.4187C64.5987 23.3782 64.2012 23.71 64.1607 24.1598L63.1107 35.8268C62.906 37.4614 63.1707 41.2705 65.7929 44.1804V53.4374H67.4283ZM58.1998 53.4374H56.5643V46.8371L54.6465 44.493C54.3605 44.1435 54.412 43.6283 54.7615 43.3423C55.1111 43.0564 55.6262 43.1079 55.9122 43.4574L58.1998 46.2533V53.4374ZM33.2036 16.7219C35.0927 16.1516 40.4248 15.6308 45.9139 18.4203C51.8417 21.4328 57.6154 19.7535 59.9191 18.452C61.2211 18.0997 63.1709 17.8604 64.8977 18.2229C66.628 18.5862 68.0347 19.5162 68.5014 21.5C69.0372 23.7771 69.1571 26.8745 69.0758 29.8678C68.9949 32.8466 68.7172 35.6553 68.4874 37.3217C68.4257 37.7691 68.7383 38.1818 69.1857 38.2435C69.6331 38.3052 70.0458 37.9926 70.1075 37.5452C70.3449 35.8239 70.628 32.9553 70.7106 29.9122C70.7929 26.8836 70.679 23.6143 70.0934 21.1254C69.4387 18.3429 67.3798 17.0729 65.2337 16.6224C63.127 16.1801 60.8437 16.4919 59.3799 16.9042L59.2791 16.9326L59.1887 16.9855C57.2975 18.0916 52.045 19.7016 46.6549 16.9623C40.7426 13.9578 34.9693 14.4805 32.7309 15.1562C32.2986 15.2868 32.0539 15.743 32.1844 16.1754C32.3149 16.6077 32.7712 16.8524 33.2036 16.7219Z" fill="white"/>
</g>
<rect x="-23.5" y="-22.9131" width="173" height="140" rx="7.5" stroke="#E3E8EF"/>
</g>
<rect x="-305.5" y="-886.5" width="1367" height="1835" stroke="#E9E9E9"/>
</g>
<path d="M-487 -1055H5639V-1057H-487V-1055ZM5640 -1054V1047H5642V-1054H5640ZM5639 1048H-487V1050H5639V1048ZM-488 1047V-1054H-490V1047H-488ZM-487 1048C-487.552 1048 -488 1047.55 -488 1047H-490C-490 1048.66 -488.657 1050 -487 1050V1048ZM5640 1047C5640 1047.55 5639.55 1048 5639 1048V1050C5640.66 1050 5642 1048.66 5642 1047H5640ZM5639 -1055C5639.55 -1055 5640 -1054.55 5640 -1054H5642C5642 -1055.66 5640.66 -1057 5639 -1057V-1055ZM-487 -1057C-488.657 -1057 -490 -1055.66 -490 -1054H-488C-488 -1054.55 -487.552 -1055 -487 -1055V-1057Z" fill="white" fill-opacity="0.1"/>
<path d="M-731 -10420H12955V-10422H-731V-10420ZM12956 -10419V5327H12958V-10419H12956ZM12955 5328H-731V5330H12955V5328ZM-732 5327V-10419H-734V5327H-732ZM-731 5328C-731.552 5328 -732 5327.55 -732 5327H-734C-734 5328.66 -732.657 5330 -731 5330V5328ZM12956 5327C12956 5327.55 12955.6 5328 12955 5328V5330C12956.7 5330 12958 5328.66 12958 5327H12956ZM12955 -10420C12955.6 -10420 12956 -10419.6 12956 -10419H12958C12958 -10420.7 12956.7 -10422 12955 -10422V-10420ZM-731 -10422C-732.657 -10422 -734 -10420.7 -734 -10419H-732C-732 -10419.6 -731.553 -10420 -731 -10420V-10422Z" fill="white" fill-opacity="0.1"/>
<defs>
<filter id="filter0_d_763_5496" x="-326" y="-907" width="1408" height="1876" filterUnits="userSpaceOnUse" color-interpolation-filters="sRGB">
<feFlood flood-opacity="0" result="BackgroundImageFix"/>
<feColorMatrix in="SourceAlpha" type="matrix" values="0 0 0 0 0 0 0 0 0 0 0 0 0 0 0 0 0 0 127 0" result="hardAlpha"/>
<feOffset/>
<feGaussianBlur stdDeviation="10"/>
<feColorMatrix type="matrix" values="0 0 0 0 0 0 0 0 0 0 0 0 0 0 0 0 0 0 0.1 0"/>
<feBlend mode="normal" in2="BackgroundImageFix" result="effect1_dropShadow_763_5496"/>
<feBlend mode="normal" in="SourceGraphic" in2="effect1_dropShadow_763_5496" result="shape"/>
</filter>
<clipPath id="clip0_763_5496">
<rect x="-305" y="-886" width="1366" height="1834" fill="white"/>
</clipPath>
</defs>
</svg>
