<svg viewBox="0 0 24 20" xmlns="http://www.w3.org/2000/svg">
<g clip-path="url(#clip0_411_12996)">
<mask id="path-1-outside-1_411_12996" maskUnits="userSpaceOnUse" x="-1.04181" y="-0.91333" width="26" height="21">
<rect x="-1.04181" y="-0.91333" width="26" height="21"/>
<path d="M22.7048 0.249674C22.8857 0.739273 22.6 1.80487 22.181 2.16007C22.0095 2.29447 21.8952 2.42887 21.9238 2.44807C21.9429 2.47687 22.219 2.43847 22.5333 2.38087C23.181 2.26567 23.781 2.36167 23.9333 2.61127C24.1238 2.91847 23.181 3.84967 22.4286 4.09927C22.1429 4.19527 22.1429 4.20487 22.1524 4.87687C22.1524 5.52007 22.1714 5.57767 22.5333 6.00967C22.8762 6.43207 22.9048 6.52807 22.9048 7.03687C22.9048 7.68967 22.7143 7.92007 22.2571 7.81447C22.0857 7.77607 21.9333 7.80487 21.8286 7.90087C21.7333 7.97767 21.3524 8.06407 20.9333 8.10247C20.1905 8.16967 19.8571 8.08327 19.4286 7.72807C19.3524 7.66087 19.1714 7.58407 19.0286 7.54567C18.7905 7.48807 18.7619 7.51687 18.6762 7.84327C18.6286 8.04487 18.4476 8.74567 18.2762 9.40807C18.1048 10.0705 17.8667 10.8097 17.7524 11.0593C17.4476 11.6737 16.9143 12.0481 16.0762 12.2305C15.8476 12.2785 15.819 12.3457 15.7143 12.9793C15.6571 13.3633 15.5238 14.0257 15.4095 14.4481C15.1238 15.5809 15.1143 15.6769 15.2286 16.2433C15.3238 16.6945 15.4286 16.8673 16 17.4721C16.3714 17.8657 16.6667 18.2401 16.6667 18.3073C16.6667 18.4033 16.4095 18.4321 15.619 18.4321H14.5714V18.1153C14.5714 17.9425 14.5238 17.7505 14.4667 17.6929C14.4095 17.6353 14.3238 17.0497 14.2762 16.3969C14.181 15.1105 14.0286 13.8145 13.9524 13.7473C13.9238 13.7185 13.9048 13.7377 13.9048 13.7857C13.8952 14.1217 13.5905 15.2545 13.4286 15.5233C13.2667 15.7921 13.2381 16.0225 13.2381 16.8385V17.8273L13.619 18.2593C13.819 18.4993 13.9619 18.7201 13.9333 18.7585C13.8476 18.8353 12.4476 18.8257 12.3238 18.7393C11.981 18.5089 11.9143 17.7121 12.1333 16.3681C12.219 15.8497 12.2286 15.5425 12.1714 15.4177C12.1143 15.3121 12.1048 14.8609 12.1333 14.3137C12.181 13.6801 12.1524 13.2001 12.0667 12.7681C11.9429 12.1633 11.9238 12.1441 11.6286 12.1153C11.4571 12.0961 11.0571 12.1537 10.7238 12.2305C9.91428 12.4417 8.75238 12.4225 8.09524 12.2017L7.58095 12.0193L7.03809 12.5089L6.50476 13.0081L6.68571 13.2769C6.86666 13.5265 6.86666 13.8241 6.68571 13.8241C6.64762 13.8241 6.48571 13.6993 6.33333 13.5361C6.1619 13.3537 5.9619 13.2481 5.8 13.2481C5.55238 13.2481 5.53333 13.2769 5.50476 13.6993C5.47619 14.0833 5.44762 14.1601 5.28571 14.1601C5.12381 14.1601 5.09524 14.0833 5.06666 13.7185C5.04762 13.3537 5 13.2577 4.82857 13.2097C4.67619 13.1617 4.5619 13.2193 4.37143 13.4401C4.10476 13.7569 3.80952 13.8241 3.80952 13.5649C3.80952 13.4785 3.90476 13.3057 4.01904 13.1809L4.22857 12.9601L3.89524 12.6721C3.71428 12.5185 3.54285 12.3937 3.50476 12.3841C3.46666 12.3841 3.37143 12.5089 3.29523 12.6625C3.15238 12.9217 3.18095 13.0369 3.88571 15.1009C4.28571 16.2913 4.64762 17.2513 4.67619 17.2225C4.71428 17.2033 4.80952 17.2513 4.88571 17.3281C4.97143 17.4049 5.1619 17.4721 5.32381 17.4721C5.58095 17.4721 5.60952 17.4529 5.52381 17.2993C5.26666 16.8577 4.4 14.3425 4.48571 14.2561C4.62857 14.1121 4.72381 14.2849 5.24762 15.6961C5.69524 16.9345 5.78095 17.0881 6.30476 17.6353C6.71428 18.0769 6.86666 18.2977 6.83809 18.4513C6.80952 18.6625 6.7619 18.6721 5.9619 18.7009C5 18.7297 4.80952 18.6337 4.70476 18.0769C4.64762 17.7601 4.63809 17.7601 4.46666 17.9137C4.21905 18.1345 4.15238 18.0289 4.18095 17.4913C4.2 17.1361 4.06666 16.6273 3.58095 15.2257C3.23809 14.2273 2.94285 13.4017 2.91428 13.3729C2.89524 13.3537 2.7619 13.5745 2.61904 13.8721C2.39047 14.3329 2.35238 14.5153 2.3619 15.2929C2.3619 16.6369 2.60952 17.7985 3.00952 18.4129C3.19047 18.6913 3.31428 18.9601 3.28571 19.0081C3.19047 19.1713 1.73333 19.0561 1.55238 18.8833C1.52381 18.8545 1.47619 18.6337 1.45714 18.3841C1.41904 18.1057 1.3619 17.9521 1.27619 17.9521C1.17142 17.9521 1.14285 17.6641 1.14285 16.4833C1.14285 15.3025 1.10476 14.9089 0.952377 14.4193C0.685711 13.5457 0.714281 13.2385 1.13333 12.2977C1.65714 11.1649 1.67619 10.8385 1.37143 8.73607C0.990473 6.04807 0.971424 5.28967 1.29523 4.46407C1.43809 4.08967 0.999996 4.57927 0.704758 5.11687C0.323805 5.82727 0.266663 7.01767 0.571424 8.16967C0.952377 9.61927 1.06666 10.2145 1.10476 10.8481C1.17142 11.7985 0.828568 12.2977 0.523806 11.7121C0.3619 11.4049 0.371426 10.8481 0.523806 9.84007C0.571424 9.56167 0.514282 9.20647 0.323805 8.54407C0.0285683 7.51687 -0.0380993 6.20167 0.171425 5.50087C0.447615 4.57927 1.45714 3.60967 2.90476 2.88007C3.71428 2.47687 4.22857 2.41927 4.89524 2.67847C5.19047 2.79367 5.9619 2.98567 6.6 3.12007C8.69524 3.54247 10.0762 3.67687 12.3809 3.67687C14.6667 3.66727 15.2095 3.60007 15.1619 3.33127C15.1238 3.08167 15.5238 2.97607 16.4571 2.97607H17.2762L16.8381 2.51527C16.3524 2.01607 16.1905 1.74727 16.1905 1.44007C16.1905 1.06567 16.4667 1.11367 16.9524 1.57447C17.6571 2.24647 17.819 2.27527 18.3524 1.86247C18.7333 1.56487 18.8476 1.52647 19.3238 1.53607C19.619 1.54567 20.0381 1.49767 20.2667 1.43047C20.581 1.34407 20.7714 1.34407 21.0286 1.43047C21.4952 1.56487 21.7524 1.38247 22.1429 0.643272C22.4286 0.0864735 22.6 -0.0287266 22.7048 0.249674ZM19.4762 1.83367C18.6381 1.81447 17.9333 2.48647 17.8762 3.36967C17.8476 3.84007 17.819 3.84967 17.2857 3.60007C16.8571 3.40807 15.5619 3.18727 15.4571 3.29287C15.2857 3.47527 16.6952 4.60807 17.0952 4.60807C17.3429 4.60807 17.8571 5.12647 17.7619 5.28007C17.7143 5.35687 17.619 5.31847 17.4381 5.15527C17.3048 5.03047 16.981 4.84807 16.7238 4.75207C16.4762 4.66567 16.0762 4.40647 15.8476 4.18567L15.4286 3.78247L14.6952 3.91687C14.1429 4.01287 13.4 4.03207 11.8095 3.99367C9.02857 3.93607 6.72381 3.60967 4.85714 3.01447C4.24762 2.82247 4.07619 2.80327 3.7619 2.88967C2.77143 3.16807 2 3.78247 1.6 4.59847C1.30476 5.21287 1.31428 6.12487 1.65714 8.40007C2 10.7233 1.97142 11.3089 1.49523 12.3361C1.09523 13.1713 1.03809 13.7761 1.29523 14.3809C1.4 14.6305 1.46666 15.1777 1.49523 16.1569C1.52381 16.9345 1.59047 17.5969 1.62857 17.6257C1.67619 17.6545 1.71428 17.7793 1.71428 17.9137C1.71428 18.1153 1.75238 18.1441 2.05714 18.1441C2.38095 18.1441 2.4 18.1249 2.34285 17.8945C2.20952 17.3569 2 15.7633 2 15.2641C2.00952 14.4193 2.1619 13.9393 2.79047 12.8737C3.45714 11.7313 4.98095 10.0513 5.45714 9.92647C5.88571 9.82087 5.99047 10.0321 5.60952 10.2337C5.19047 10.4449 4.7619 10.8289 4.18095 11.4913L3.71428 12.0385L3.97142 12.3073C4.32381 12.6817 4.93333 12.9601 5.39047 12.9601C5.93333 12.9505 6.45714 12.6721 6.98095 12.1057L7.44762 11.6065L7.98095 11.8081C8.73333 12.0961 9.70476 12.1537 10.5048 11.9617C10.8667 11.8753 11.3238 11.8081 11.5238 11.8081C11.9238 11.8081 11.9429 11.7697 12.019 10.8961C12.0381 10.7137 12.1048 10.6081 12.1905 10.6081C12.3048 10.6081 12.3238 10.7521 12.3048 11.4721C12.2857 12.0385 12.3238 12.5665 12.4286 13.0081C12.5619 13.5745 12.5714 13.7665 12.4667 14.2849C12.3809 14.7649 12.3809 14.9761 12.4667 15.2449C12.5619 15.5329 12.5524 15.7921 12.4381 16.5985C12.2286 17.9905 12.219 17.9521 12.6286 17.9521H12.9714L12.9048 16.9441C12.8381 15.9553 12.8381 15.9361 13.1333 15.3505C13.2952 15.0241 13.4286 14.6593 13.4286 14.5345C13.4286 14.4193 13.619 13.6993 13.8476 12.9409C14.1429 12.0001 14.2857 11.3569 14.3048 10.8961C14.3238 10.3777 14.3619 10.2241 14.4762 10.2241C14.5905 10.2241 14.619 10.3681 14.6 11.0209C14.5905 11.7889 14.5905 11.8081 14.8286 11.8657C14.9524 11.9041 15.3809 11.9041 15.7619 11.8849C17.1143 11.7985 17.4476 11.3377 18.0952 8.78407C18.3238 7.88167 18.5333 7.11367 18.5714 7.07527C18.6095 7.02727 18.781 7.05607 18.9429 7.14247C19.1048 7.22887 19.2667 7.28647 19.3048 7.27687C19.3429 7.25767 19.5333 7.36327 19.7143 7.49767C20.0095 7.71847 20.5714 7.93927 20.5714 7.83367C20.5714 7.81447 20.5048 7.64167 20.4286 7.44007C20.1524 6.77767 20.5048 6.39367 21.3524 6.44167C22.2 6.48967 22.5048 6.27847 22.1048 5.91367C21.9714 5.79847 21.9048 5.54887 21.8571 5.07847C21.8095 4.60807 21.7524 4.41607 21.6571 4.41607C21.4762 4.41607 21.4857 4.17607 21.6762 3.98407C21.7714 3.88807 21.9238 3.84967 22.0381 3.87847C22.1429 3.90727 22.419 3.84007 22.6381 3.73447C23.0762 3.52327 23.7524 2.83207 23.6667 2.68807C23.5238 2.45767 22.4571 2.68807 22.0952 3.02407C21.9333 3.16807 21.9143 3.16807 21.8571 2.98567C21.8286 2.87047 21.7619 2.78407 21.7238 2.78407C21.6762 2.78407 21.619 2.64967 21.581 2.47687C21.5524 2.30407 21.4286 2.06407 21.3048 1.93927C21.1143 1.72807 21.0476 1.71847 20.5238 1.77607C20.2095 1.81447 19.7333 1.83367 19.4762 1.83367ZM22.3048 6.83527C22.2381 6.90247 22.1905 7.05607 22.1905 7.18087C22.1905 7.54567 22.5143 7.41127 22.5524 7.02727C22.581 6.71047 22.4952 6.64327 22.3048 6.83527ZM20.8571 7.06567C20.8571 7.32487 21.0476 7.58407 21.2476 7.58407C21.4857 7.58407 21.5714 7.37287 21.4286 7.11367C21.3048 6.87367 20.8571 6.83527 20.8571 7.06567ZM14.3143 12.5377C14.2381 12.7489 14.2571 13.2769 14.4 14.5057C14.4952 15.4273 14.6095 16.4545 14.6476 16.8001L14.7143 17.4241L15.0857 17.4529L15.4476 17.4817L15.2476 17.2033C15.1429 17.0497 14.981 16.6369 14.9048 16.2913C14.7619 15.6769 14.7714 15.6385 15.0381 14.5729C15.1905 13.9777 15.3524 13.2193 15.3809 12.8929L15.4476 12.2977L15.0857 12.2401C14.8762 12.2017 14.6667 12.1633 14.619 12.1441C14.4857 12.1057 14.419 12.1921 14.3143 12.5377Z"/>
</mask>
<path d="M22.7048 0.249674C22.8857 0.739273 22.6 1.80487 22.181 2.16007C22.0095 2.29447 21.8952 2.42887 21.9238 2.44807C21.9429 2.47687 22.219 2.43847 22.5333 2.38087C23.181 2.26567 23.781 2.36167 23.9333 2.61127C24.1238 2.91847 23.181 3.84967 22.4286 4.09927C22.1429 4.19527 22.1429 4.20487 22.1524 4.87687C22.1524 5.52007 22.1714 5.57767 22.5333 6.00967C22.8762 6.43207 22.9048 6.52807 22.9048 7.03687C22.9048 7.68967 22.7143 7.92007 22.2571 7.81447C22.0857 7.77607 21.9333 7.80487 21.8286 7.90087C21.7333 7.97767 21.3524 8.06407 20.9333 8.10247C20.1905 8.16967 19.8571 8.08327 19.4286 7.72807C19.3524 7.66087 19.1714 7.58407 19.0286 7.54567C18.7905 7.48807 18.7619 7.51687 18.6762 7.84327C18.6286 8.04487 18.4476 8.74567 18.2762 9.40807C18.1048 10.0705 17.8667 10.8097 17.7524 11.0593C17.4476 11.6737 16.9143 12.0481 16.0762 12.2305C15.8476 12.2785 15.819 12.3457 15.7143 12.9793C15.6571 13.3633 15.5238 14.0257 15.4095 14.4481C15.1238 15.5809 15.1143 15.6769 15.2286 16.2433C15.3238 16.6945 15.4286 16.8673 16 17.4721C16.3714 17.8657 16.6667 18.2401 16.6667 18.3073C16.6667 18.4033 16.4095 18.4321 15.619 18.4321H14.5714V18.1153C14.5714 17.9425 14.5238 17.7505 14.4667 17.6929C14.4095 17.6353 14.3238 17.0497 14.2762 16.3969C14.181 15.1105 14.0286 13.8145 13.9524 13.7473C13.9238 13.7185 13.9048 13.7377 13.9048 13.7857C13.8952 14.1217 13.5905 15.2545 13.4286 15.5233C13.2667 15.7921 13.2381 16.0225 13.2381 16.8385V17.8273L13.619 18.2593C13.819 18.4993 13.9619 18.7201 13.9333 18.7585C13.8476 18.8353 12.4476 18.8257 12.3238 18.7393C11.981 18.5089 11.9143 17.7121 12.1333 16.3681C12.219 15.8497 12.2286 15.5425 12.1714 15.4177C12.1143 15.3121 12.1048 14.8609 12.1333 14.3137C12.181 13.6801 12.1524 13.2001 12.0667 12.7681C11.9429 12.1633 11.9238 12.1441 11.6286 12.1153C11.4571 12.0961 11.0571 12.1537 10.7238 12.2305C9.91428 12.4417 8.75238 12.4225 8.09524 12.2017L7.58095 12.0193L7.03809 12.5089L6.50476 13.0081L6.68571 13.2769C6.86666 13.5265 6.86666 13.8241 6.68571 13.8241C6.64762 13.8241 6.48571 13.6993 6.33333 13.5361C6.1619 13.3537 5.9619 13.2481 5.8 13.2481C5.55238 13.2481 5.53333 13.2769 5.50476 13.6993C5.47619 14.0833 5.44762 14.1601 5.28571 14.1601C5.12381 14.1601 5.09524 14.0833 5.06666 13.7185C5.04762 13.3537 5 13.2577 4.82857 13.2097C4.67619 13.1617 4.5619 13.2193 4.37143 13.4401C4.10476 13.7569 3.80952 13.8241 3.80952 13.5649C3.80952 13.4785 3.90476 13.3057 4.01904 13.1809L4.22857 12.9601L3.89524 12.6721C3.71428 12.5185 3.54285 12.3937 3.50476 12.3841C3.46666 12.3841 3.37143 12.5089 3.29523 12.6625C3.15238 12.9217 3.18095 13.0369 3.88571 15.1009C4.28571 16.2913 4.64762 17.2513 4.67619 17.2225C4.71428 17.2033 4.80952 17.2513 4.88571 17.3281C4.97143 17.4049 5.1619 17.4721 5.32381 17.4721C5.58095 17.4721 5.60952 17.4529 5.52381 17.2993C5.26666 16.8577 4.4 14.3425 4.48571 14.2561C4.62857 14.1121 4.72381 14.2849 5.24762 15.6961C5.69524 16.9345 5.78095 17.0881 6.30476 17.6353C6.71428 18.0769 6.86666 18.2977 6.83809 18.4513C6.80952 18.6625 6.7619 18.6721 5.9619 18.7009C5 18.7297 4.80952 18.6337 4.70476 18.0769C4.64762 17.7601 4.63809 17.7601 4.46666 17.9137C4.21905 18.1345 4.15238 18.0289 4.18095 17.4913C4.2 17.1361 4.06666 16.6273 3.58095 15.2257C3.23809 14.2273 2.94285 13.4017 2.91428 13.3729C2.89524 13.3537 2.7619 13.5745 2.61904 13.8721C2.39047 14.3329 2.35238 14.5153 2.3619 15.2929C2.3619 16.6369 2.60952 17.7985 3.00952 18.4129C3.19047 18.6913 3.31428 18.9601 3.28571 19.0081C3.19047 19.1713 1.73333 19.0561 1.55238 18.8833C1.52381 18.8545 1.47619 18.6337 1.45714 18.3841C1.41904 18.1057 1.3619 17.9521 1.27619 17.9521C1.17142 17.9521 1.14285 17.6641 1.14285 16.4833C1.14285 15.3025 1.10476 14.9089 0.952377 14.4193C0.685711 13.5457 0.714281 13.2385 1.13333 12.2977C1.65714 11.1649 1.67619 10.8385 1.37143 8.73607C0.990473 6.04807 0.971424 5.28967 1.29523 4.46407C1.43809 4.08967 0.999996 4.57927 0.704758 5.11687C0.323805 5.82727 0.266663 7.01767 0.571424 8.16967C0.952377 9.61927 1.06666 10.2145 1.10476 10.8481C1.17142 11.7985 0.828568 12.2977 0.523806 11.7121C0.3619 11.4049 0.371426 10.8481 0.523806 9.84007C0.571424 9.56167 0.514282 9.20647 0.323805 8.54407C0.0285683 7.51687 -0.0380993 6.20167 0.171425 5.50087C0.447615 4.57927 1.45714 3.60967 2.90476 2.88007C3.71428 2.47687 4.22857 2.41927 4.89524 2.67847C5.19047 2.79367 5.9619 2.98567 6.6 3.12007C8.69524 3.54247 10.0762 3.67687 12.3809 3.67687C14.6667 3.66727 15.2095 3.60007 15.1619 3.33127C15.1238 3.08167 15.5238 2.97607 16.4571 2.97607H17.2762L16.8381 2.51527C16.3524 2.01607 16.1905 1.74727 16.1905 1.44007C16.1905 1.06567 16.4667 1.11367 16.9524 1.57447C17.6571 2.24647 17.819 2.27527 18.3524 1.86247C18.7333 1.56487 18.8476 1.52647 19.3238 1.53607C19.619 1.54567 20.0381 1.49767 20.2667 1.43047C20.581 1.34407 20.7714 1.34407 21.0286 1.43047C21.4952 1.56487 21.7524 1.38247 22.1429 0.643272C22.4286 0.0864735 22.6 -0.0287266 22.7048 0.249674ZM19.4762 1.83367C18.6381 1.81447 17.9333 2.48647 17.8762 3.36967C17.8476 3.84007 17.819 3.84967 17.2857 3.60007C16.8571 3.40807 15.5619 3.18727 15.4571 3.29287C15.2857 3.47527 16.6952 4.60807 17.0952 4.60807C17.3429 4.60807 17.8571 5.12647 17.7619 5.28007C17.7143 5.35687 17.619 5.31847 17.4381 5.15527C17.3048 5.03047 16.981 4.84807 16.7238 4.75207C16.4762 4.66567 16.0762 4.40647 15.8476 4.18567L15.4286 3.78247L14.6952 3.91687C14.1429 4.01287 13.4 4.03207 11.8095 3.99367C9.02857 3.93607 6.72381 3.60967 4.85714 3.01447C4.24762 2.82247 4.07619 2.80327 3.7619 2.88967C2.77143 3.16807 2 3.78247 1.6 4.59847C1.30476 5.21287 1.31428 6.12487 1.65714 8.40007C2 10.7233 1.97142 11.3089 1.49523 12.3361C1.09523 13.1713 1.03809 13.7761 1.29523 14.3809C1.4 14.6305 1.46666 15.1777 1.49523 16.1569C1.52381 16.9345 1.59047 17.5969 1.62857 17.6257C1.67619 17.6545 1.71428 17.7793 1.71428 17.9137C1.71428 18.1153 1.75238 18.1441 2.05714 18.1441C2.38095 18.1441 2.4 18.1249 2.34285 17.8945C2.20952 17.3569 2 15.7633 2 15.2641C2.00952 14.4193 2.1619 13.9393 2.79047 12.8737C3.45714 11.7313 4.98095 10.0513 5.45714 9.92647C5.88571 9.82087 5.99047 10.0321 5.60952 10.2337C5.19047 10.4449 4.7619 10.8289 4.18095 11.4913L3.71428 12.0385L3.97142 12.3073C4.32381 12.6817 4.93333 12.9601 5.39047 12.9601C5.93333 12.9505 6.45714 12.6721 6.98095 12.1057L7.44762 11.6065L7.98095 11.8081C8.73333 12.0961 9.70476 12.1537 10.5048 11.9617C10.8667 11.8753 11.3238 11.8081 11.5238 11.8081C11.9238 11.8081 11.9429 11.7697 12.019 10.8961C12.0381 10.7137 12.1048 10.6081 12.1905 10.6081C12.3048 10.6081 12.3238 10.7521 12.3048 11.4721C12.2857 12.0385 12.3238 12.5665 12.4286 13.0081C12.5619 13.5745 12.5714 13.7665 12.4667 14.2849C12.3809 14.7649 12.3809 14.9761 12.4667 15.2449C12.5619 15.5329 12.5524 15.7921 12.4381 16.5985C12.2286 17.9905 12.219 17.9521 12.6286 17.9521H12.9714L12.9048 16.9441C12.8381 15.9553 12.8381 15.9361 13.1333 15.3505C13.2952 15.0241 13.4286 14.6593 13.4286 14.5345C13.4286 14.4193 13.619 13.6993 13.8476 12.9409C14.1429 12.0001 14.2857 11.3569 14.3048 10.8961C14.3238 10.3777 14.3619 10.2241 14.4762 10.2241C14.5905 10.2241 14.619 10.3681 14.6 11.0209C14.5905 11.7889 14.5905 11.8081 14.8286 11.8657C14.9524 11.9041 15.3809 11.9041 15.7619 11.8849C17.1143 11.7985 17.4476 11.3377 18.0952 8.78407C18.3238 7.88167 18.5333 7.11367 18.5714 7.07527C18.6095 7.02727 18.781 7.05607 18.9429 7.14247C19.1048 7.22887 19.2667 7.28647 19.3048 7.27687C19.3429 7.25767 19.5333 7.36327 19.7143 7.49767C20.0095 7.71847 20.5714 7.93927 20.5714 7.83367C20.5714 7.81447 20.5048 7.64167 20.4286 7.44007C20.1524 6.77767 20.5048 6.39367 21.3524 6.44167C22.2 6.48967 22.5048 6.27847 22.1048 5.91367C21.9714 5.79847 21.9048 5.54887 21.8571 5.07847C21.8095 4.60807 21.7524 4.41607 21.6571 4.41607C21.4762 4.41607 21.4857 4.17607 21.6762 3.98407C21.7714 3.88807 21.9238 3.84967 22.0381 3.87847C22.1429 3.90727 22.419 3.84007 22.6381 3.73447C23.0762 3.52327 23.7524 2.83207 23.6667 2.68807C23.5238 2.45767 22.4571 2.68807 22.0952 3.02407C21.9333 3.16807 21.9143 3.16807 21.8571 2.98567C21.8286 2.87047 21.7619 2.78407 21.7238 2.78407C21.6762 2.78407 21.619 2.64967 21.581 2.47687C21.5524 2.30407 21.4286 2.06407 21.3048 1.93927C21.1143 1.72807 21.0476 1.71847 20.5238 1.77607C20.2095 1.81447 19.7333 1.83367 19.4762 1.83367ZM22.3048 6.83527C22.2381 6.90247 22.1905 7.05607 22.1905 7.18087C22.1905 7.54567 22.5143 7.41127 22.5524 7.02727C22.581 6.71047 22.4952 6.64327 22.3048 6.83527ZM20.8571 7.06567C20.8571 7.32487 21.0476 7.58407 21.2476 7.58407C21.4857 7.58407 21.5714 7.37287 21.4286 7.11367C21.3048 6.87367 20.8571 6.83527 20.8571 7.06567ZM14.3143 12.5377C14.2381 12.7489 14.2571 13.2769 14.4 14.5057C14.4952 15.4273 14.6095 16.4545 14.6476 16.8001L14.7143 17.4241L15.0857 17.4529L15.4476 17.4817L15.2476 17.2033C15.1429 17.0497 14.981 16.6369 14.9048 16.2913C14.7619 15.6769 14.7714 15.6385 15.0381 14.5729C15.1905 13.9777 15.3524 13.2193 15.3809 12.8929L15.4476 12.2977L15.0857 12.2401C14.8762 12.2017 14.6667 12.1633 14.619 12.1441C14.4857 12.1057 14.419 12.1921 14.3143 12.5377Z" />
<path d="M22.7048 0.249674C22.8857 0.739273 22.6 1.80487 22.181 2.16007C22.0095 2.29447 21.8952 2.42887 21.9238 2.44807C21.9429 2.47687 22.219 2.43847 22.5333 2.38087C23.181 2.26567 23.781 2.36167 23.9333 2.61127C24.1238 2.91847 23.181 3.84967 22.4286 4.09927C22.1429 4.19527 22.1429 4.20487 22.1524 4.87687C22.1524 5.52007 22.1714 5.57767 22.5333 6.00967C22.8762 6.43207 22.9048 6.52807 22.9048 7.03687C22.9048 7.68967 22.7143 7.92007 22.2571 7.81447C22.0857 7.77607 21.9333 7.80487 21.8286 7.90087C21.7333 7.97767 21.3524 8.06407 20.9333 8.10247C20.1905 8.16967 19.8571 8.08327 19.4286 7.72807C19.3524 7.66087 19.1714 7.58407 19.0286 7.54567C18.7905 7.48807 18.7619 7.51687 18.6762 7.84327C18.6286 8.04487 18.4476 8.74567 18.2762 9.40807C18.1048 10.0705 17.8667 10.8097 17.7524 11.0593C17.4476 11.6737 16.9143 12.0481 16.0762 12.2305C15.8476 12.2785 15.819 12.3457 15.7143 12.9793C15.6571 13.3633 15.5238 14.0257 15.4095 14.4481C15.1238 15.5809 15.1143 15.6769 15.2286 16.2433C15.3238 16.6945 15.4286 16.8673 16 17.4721C16.3714 17.8657 16.6667 18.2401 16.6667 18.3073C16.6667 18.4033 16.4095 18.4321 15.619 18.4321H14.5714V18.1153C14.5714 17.9425 14.5238 17.7505 14.4667 17.6929C14.4095 17.6353 14.3238 17.0497 14.2762 16.3969C14.181 15.1105 14.0286 13.8145 13.9524 13.7473C13.9238 13.7185 13.9048 13.7377 13.9048 13.7857C13.8952 14.1217 13.5905 15.2545 13.4286 15.5233C13.2667 15.7921 13.2381 16.0225 13.2381 16.8385V17.8273L13.619 18.2593C13.819 18.4993 13.9619 18.7201 13.9333 18.7585C13.8476 18.8353 12.4476 18.8257 12.3238 18.7393C11.981 18.5089 11.9143 17.7121 12.1333 16.3681C12.219 15.8497 12.2286 15.5425 12.1714 15.4177C12.1143 15.3121 12.1048 14.8609 12.1333 14.3137C12.181 13.6801 12.1524 13.2001 12.0667 12.7681C11.9429 12.1633 11.9238 12.1441 11.6286 12.1153C11.4571 12.0961 11.0571 12.1537 10.7238 12.2305C9.91428 12.4417 8.75238 12.4225 8.09524 12.2017L7.58095 12.0193L7.03809 12.5089L6.50476 13.0081L6.68571 13.2769C6.86666 13.5265 6.86666 13.8241 6.68571 13.8241C6.64762 13.8241 6.48571 13.6993 6.33333 13.5361C6.1619 13.3537 5.9619 13.2481 5.8 13.2481C5.55238 13.2481 5.53333 13.2769 5.50476 13.6993C5.47619 14.0833 5.44762 14.1601 5.28571 14.1601C5.12381 14.1601 5.09524 14.0833 5.06666 13.7185C5.04762 13.3537 5 13.2577 4.82857 13.2097C4.67619 13.1617 4.5619 13.2193 4.37143 13.4401C4.10476 13.7569 3.80952 13.8241 3.80952 13.5649C3.80952 13.4785 3.90476 13.3057 4.01904 13.1809L4.22857 12.9601L3.89524 12.6721C3.71428 12.5185 3.54285 12.3937 3.50476 12.3841C3.46666 12.3841 3.37143 12.5089 3.29523 12.6625C3.15238 12.9217 3.18095 13.0369 3.88571 15.1009C4.28571 16.2913 4.64762 17.2513 4.67619 17.2225C4.71428 17.2033 4.80952 17.2513 4.88571 17.3281C4.97143 17.4049 5.1619 17.4721 5.32381 17.4721C5.58095 17.4721 5.60952 17.4529 5.52381 17.2993C5.26666 16.8577 4.4 14.3425 4.48571 14.2561C4.62857 14.1121 4.72381 14.2849 5.24762 15.6961C5.69524 16.9345 5.78095 17.0881 6.30476 17.6353C6.71428 18.0769 6.86666 18.2977 6.83809 18.4513C6.80952 18.6625 6.7619 18.6721 5.9619 18.7009C5 18.7297 4.80952 18.6337 4.70476 18.0769C4.64762 17.7601 4.63809 17.7601 4.46666 17.9137C4.21905 18.1345 4.15238 18.0289 4.18095 17.4913C4.2 17.1361 4.06666 16.6273 3.58095 15.2257C3.23809 14.2273 2.94285 13.4017 2.91428 13.3729C2.89524 13.3537 2.7619 13.5745 2.61904 13.8721C2.39047 14.3329 2.35238 14.5153 2.3619 15.2929C2.3619 16.6369 2.60952 17.7985 3.00952 18.4129C3.19047 18.6913 3.31428 18.9601 3.28571 19.0081C3.19047 19.1713 1.73333 19.0561 1.55238 18.8833C1.52381 18.8545 1.47619 18.6337 1.45714 18.3841C1.41904 18.1057 1.3619 17.9521 1.27619 17.9521C1.17142 17.9521 1.14285 17.6641 1.14285 16.4833C1.14285 15.3025 1.10476 14.9089 0.952377 14.4193C0.685711 13.5457 0.714281 13.2385 1.13333 12.2977C1.65714 11.1649 1.67619 10.8385 1.37143 8.73607C0.990473 6.04807 0.971424 5.28967 1.29523 4.46407C1.43809 4.08967 0.999996 4.57927 0.704758 5.11687C0.323805 5.82727 0.266663 7.01767 0.571424 8.16967C0.952377 9.61927 1.06666 10.2145 1.10476 10.8481C1.17142 11.7985 0.828568 12.2977 0.523806 11.7121C0.3619 11.4049 0.371426 10.8481 0.523806 9.84007C0.571424 9.56167 0.514282 9.20647 0.323805 8.54407C0.0285683 7.51687 -0.0380993 6.20167 0.171425 5.50087C0.447615 4.57927 1.45714 3.60967 2.90476 2.88007C3.71428 2.47687 4.22857 2.41927 4.89524 2.67847C5.19047 2.79367 5.9619 2.98567 6.6 3.12007C8.69524 3.54247 10.0762 3.67687 12.3809 3.67687C14.6667 3.66727 15.2095 3.60007 15.1619 3.33127C15.1238 3.08167 15.5238 2.97607 16.4571 2.97607H17.2762L16.8381 2.51527C16.3524 2.01607 16.1905 1.74727 16.1905 1.44007C16.1905 1.06567 16.4667 1.11367 16.9524 1.57447C17.6571 2.24647 17.819 2.27527 18.3524 1.86247C18.7333 1.56487 18.8476 1.52647 19.3238 1.53607C19.619 1.54567 20.0381 1.49767 20.2667 1.43047C20.581 1.34407 20.7714 1.34407 21.0286 1.43047C21.4952 1.56487 21.7524 1.38247 22.1429 0.643272C22.4286 0.0864735 22.6 -0.0287266 22.7048 0.249674ZM19.4762 1.83367C18.6381 1.81447 17.9333 2.48647 17.8762 3.36967C17.8476 3.84007 17.819 3.84967 17.2857 3.60007C16.8571 3.40807 15.5619 3.18727 15.4571 3.29287C15.2857 3.47527 16.6952 4.60807 17.0952 4.60807C17.3429 4.60807 17.8571 5.12647 17.7619 5.28007C17.7143 5.35687 17.619 5.31847 17.4381 5.15527C17.3048 5.03047 16.981 4.84807 16.7238 4.75207C16.4762 4.66567 16.0762 4.40647 15.8476 4.18567L15.4286 3.78247L14.6952 3.91687C14.1429 4.01287 13.4 4.03207 11.8095 3.99367C9.02857 3.93607 6.72381 3.60967 4.85714 3.01447C4.24762 2.82247 4.07619 2.80327 3.7619 2.88967C2.77143 3.16807 2 3.78247 1.6 4.59847C1.30476 5.21287 1.31428 6.12487 1.65714 8.40007C2 10.7233 1.97142 11.3089 1.49523 12.3361C1.09523 13.1713 1.03809 13.7761 1.29523 14.3809C1.4 14.6305 1.46666 15.1777 1.49523 16.1569C1.52381 16.9345 1.59047 17.5969 1.62857 17.6257C1.67619 17.6545 1.71428 17.7793 1.71428 17.9137C1.71428 18.1153 1.75238 18.1441 2.05714 18.1441C2.38095 18.1441 2.4 18.1249 2.34285 17.8945C2.20952 17.3569 2 15.7633 2 15.2641C2.00952 14.4193 2.1619 13.9393 2.79047 12.8737C3.45714 11.7313 4.98095 10.0513 5.45714 9.92647C5.88571 9.82087 5.99047 10.0321 5.60952 10.2337C5.19047 10.4449 4.7619 10.8289 4.18095 11.4913L3.71428 12.0385L3.97142 12.3073C4.32381 12.6817 4.93333 12.9601 5.39047 12.9601C5.93333 12.9505 6.45714 12.6721 6.98095 12.1057L7.44762 11.6065L7.98095 11.8081C8.73333 12.0961 9.70476 12.1537 10.5048 11.9617C10.8667 11.8753 11.3238 11.8081 11.5238 11.8081C11.9238 11.8081 11.9429 11.7697 12.019 10.8961C12.0381 10.7137 12.1048 10.6081 12.1905 10.6081C12.3048 10.6081 12.3238 10.7521 12.3048 11.4721C12.2857 12.0385 12.3238 12.5665 12.4286 13.0081C12.5619 13.5745 12.5714 13.7665 12.4667 14.2849C12.3809 14.7649 12.3809 14.9761 12.4667 15.2449C12.5619 15.5329 12.5524 15.7921 12.4381 16.5985C12.2286 17.9905 12.219 17.9521 12.6286 17.9521H12.9714L12.9048 16.9441C12.8381 15.9553 12.8381 15.9361 13.1333 15.3505C13.2952 15.0241 13.4286 14.6593 13.4286 14.5345C13.4286 14.4193 13.619 13.6993 13.8476 12.9409C14.1429 12.0001 14.2857 11.3569 14.3048 10.8961C14.3238 10.3777 14.3619 10.2241 14.4762 10.2241C14.5905 10.2241 14.619 10.3681 14.6 11.0209C14.5905 11.7889 14.5905 11.8081 14.8286 11.8657C14.9524 11.9041 15.3809 11.9041 15.7619 11.8849C17.1143 11.7985 17.4476 11.3377 18.0952 8.78407C18.3238 7.88167 18.5333 7.11367 18.5714 7.07527C18.6095 7.02727 18.781 7.05607 18.9429 7.14247C19.1048 7.22887 19.2667 7.28647 19.3048 7.27687C19.3429 7.25767 19.5333 7.36327 19.7143 7.49767C20.0095 7.71847 20.5714 7.93927 20.5714 7.83367C20.5714 7.81447 20.5048 7.64167 20.4286 7.44007C20.1524 6.77767 20.5048 6.39367 21.3524 6.44167C22.2 6.48967 22.5048 6.27847 22.1048 5.91367C21.9714 5.79847 21.9048 5.54887 21.8571 5.07847C21.8095 4.60807 21.7524 4.41607 21.6571 4.41607C21.4762 4.41607 21.4857 4.17607 21.6762 3.98407C21.7714 3.88807 21.9238 3.84967 22.0381 3.87847C22.1429 3.90727 22.419 3.84007 22.6381 3.73447C23.0762 3.52327 23.7524 2.83207 23.6667 2.68807C23.5238 2.45767 22.4571 2.68807 22.0952 3.02407C21.9333 3.16807 21.9143 3.16807 21.8571 2.98567C21.8286 2.87047 21.7619 2.78407 21.7238 2.78407C21.6762 2.78407 21.619 2.64967 21.581 2.47687C21.5524 2.30407 21.4286 2.06407 21.3048 1.93927C21.1143 1.72807 21.0476 1.71847 20.5238 1.77607C20.2095 1.81447 19.7333 1.83367 19.4762 1.83367ZM22.3048 6.83527C22.2381 6.90247 22.1905 7.05607 22.1905 7.18087C22.1905 7.54567 22.5143 7.41127 22.5524 7.02727C22.581 6.71047 22.4952 6.64327 22.3048 6.83527ZM20.8571 7.06567C20.8571 7.32487 21.0476 7.58407 21.2476 7.58407C21.4857 7.58407 21.5714 7.37287 21.4286 7.11367C21.3048 6.87367 20.8571 6.83527 20.8571 7.06567ZM14.3143 12.5377C14.2381 12.7489 14.2571 13.2769 14.4 14.5057C14.4952 15.4273 14.6095 16.4545 14.6476 16.8001L14.7143 17.4241L15.0857 17.4529L15.4476 17.4817L15.2476 17.2033C15.1429 17.0497 14.981 16.6369 14.9048 16.2913C14.7619 15.6769 14.7714 15.6385 15.0381 14.5729C15.1905 13.9777 15.3524 13.2193 15.3809 12.8929L15.4476 12.2977L15.0857 12.2401C14.8762 12.2017 14.6667 12.1633 14.619 12.1441C14.4857 12.1057 14.419 12.1921 14.3143 12.5377Z" stroke-width="0.6" mask="url(#path-1-outside-1_411_12996)"/>
<path d="M19.562 4.24207L19.562 4.24207L19.5612 4.2404C19.5059 4.13599 19.4262 4.06334 19.3043 4.02296C19.1959 3.98704 19.0575 3.97815 18.8857 3.97815H18.4476H18.1076L18.3368 4.22927L18.5559 4.46927L18.5559 4.46928L18.557 4.47052C18.7366 4.66288 18.9473 4.75815 19.2095 4.75815C19.2937 4.75815 19.3688 4.75715 19.4276 4.74958C19.4766 4.74327 19.5656 4.72769 19.6211 4.65387C19.6831 4.57143 19.6611 4.47756 19.6459 4.42929C19.6285 4.37445 19.597 4.31018 19.562 4.24207Z" stroke-width="0.3"/>
</g>
<defs>
<clipPath id="clip0_411_12996">
<rect width="24" height="19.2" transform="matrix(-1 0 0 1 24 0)"/>
</clipPath>
</defs>
</svg>
