<svg viewBox="0 0 58 59" fill="none" xmlns="http://www.w3.org/2000/svg">
<circle cx="29" cy="29.5" r="29" fill="#68C9DA"/>
<path d="M18 16C16.8954 16 16 16.8791 16 17.9636C16 19.0481 16.8954 19.9273 18 19.9273H20.4745L24.5331 28.4947C24.6316 28.7026 24.7496 28.8976 24.8844 29.0781C24.7936 29.2005 24.7158 29.3352 24.6538 29.4811L23.0192 33.3329C22.0586 35.5964 23.7525 38.0909 26.25 38.0909H40C41.1046 38.0909 42 37.2118 42 36.1273C42 35.0428 41.1046 34.1636 40 34.1636H27L28.3462 30.9916C28.4171 30.8245 28.4627 30.6532 28.4848 30.4818H34.1461C35.3813 30.4818 36.525 29.8426 37.1556 28.7999L41.4697 21.6661C42.0336 20.7336 41.7208 19.5289 40.7711 18.9752C39.8213 18.4215 38.5942 18.7286 38.0303 19.6611L33.8615 26.5545H28.0255L23.9669 17.9871C23.3927 16.7751 22.1548 16 20.7934 16H18Z" fill="white"/>
<path d="M29 41.0364C29 42.1209 28.1046 43 27 43C25.8954 43 25 42.1209 25 41.0364C25 39.9519 25.8954 39.0727 27 39.0727C28.1046 39.0727 29 39.9519 29 41.0364Z" fill="white"/>
<path d="M38 43C39.1046 43 40 42.1209 40 41.0364C40 39.9519 39.1046 39.0727 38 39.0727C36.8954 39.0727 36 39.9519 36 41.0364C36 42.1209 36.8954 43 38 43Z" fill="white"/>
<path d="M31 16.9818C31.5523 16.9818 32 17.4214 32 17.9636V19.4364H33.5C34.0523 19.4364 34.5 19.8759 34.5 20.4182C34.5 20.9604 34.0523 21.4 33.5 21.4H32V22.8727C32 23.415 31.5523 23.8545 31 23.8545C30.4477 23.8545 30 23.415 30 22.8727V21.4H28.5C27.9477 21.4 27.5 20.9604 27.5 20.4182C27.5 19.8759 27.9477 19.4364 28.5 19.4364H30V17.9636C30 17.4214 30.4477 16.9818 31 16.9818Z" fill="white"/>
</svg>
