<svg viewBox="0 0 58 59" fill="none" xmlns="http://www.w3.org/2000/svg">
<circle cx="29" cy="29.5" r="29" fill="#40916C"/>
<path d="M16.4678 16.9331C15.4763 16.9331 14.6726 17.7407 14.6726 18.7369V20.9917H12.4285C11.4371 20.9917 10.6333 21.7993 10.6333 22.7956C10.6333 23.7918 11.4371 24.5994 12.4285 24.5994H14.6726V26.8542C14.6726 27.8504 15.4763 28.658 16.4678 28.658C17.4593 28.658 18.2631 27.8504 18.2631 26.8542V24.5994H20.5071C21.4986 24.5994 22.3023 23.7918 22.3023 22.7956C22.3023 21.7993 21.4986 20.9917 20.5071 20.9917H18.2631V18.7369C18.2631 17.7407 17.4593 16.9331 16.4678 16.9331Z" fill="white"/>
<path d="M42.4988 31.3637C42.4988 32.36 41.695 33.1676 40.7035 33.1676C39.7121 33.1676 38.9083 32.36 38.9083 31.3637C38.9083 30.3675 39.7121 29.5599 40.7035 29.5599C41.695 29.5599 42.4988 30.3675 42.4988 31.3637Z" fill="white"/>
<path fill-rule="evenodd" clip-rule="evenodd" d="M32.625 29.5599C32.625 27.3184 34.4334 25.5013 36.6643 25.5013H40.5181V25.1706C40.5181 24.6725 40.1163 24.2687 39.6205 24.2687H24.9952C24.0037 24.2687 23.2 23.461 23.2 22.4648C23.2 21.4686 24.0037 20.661 24.9952 20.661H39.6205C42.0992 20.661 44.1086 22.68 44.1086 25.1706V25.5013H44.294C46.5249 25.5013 48.3333 27.3184 48.3333 29.5599V32.7166C48.3333 34.9581 46.5249 36.7752 44.294 36.7752H44.1086V37.5569C44.1086 40.0474 42.0992 42.0664 39.6205 42.0664H19.3463C16.8676 42.0664 14.8582 40.0474 14.8582 37.5569V31.8147C14.8582 30.8185 15.662 30.0109 16.6534 30.0109C17.6449 30.0109 18.4487 30.8185 18.4487 31.8147V37.5569C18.4487 38.055 18.8506 38.4588 19.3463 38.4588H39.6205C40.1163 38.4588 40.5181 38.055 40.5181 37.5569V36.7752H36.6643C34.4334 36.7752 32.625 34.9581 32.625 32.7166V29.5599ZM44.294 34.0695C45.0376 34.0695 45.6404 33.4638 45.6404 32.7166V29.5599C45.6404 28.8127 45.0376 28.207 44.294 28.207H36.6643C35.9206 28.207 35.3178 28.8127 35.3178 29.5599V32.7166C35.3178 33.4638 35.9206 34.0695 36.6643 34.0695H44.294Z" fill="white"/>
</svg>
