<svg width="32" height="32" viewBox="0 0 32 32" xmlns="http://www.w3.org/2000/svg">
<path d="M28 22H30V30H28V22ZM24 18H26V30H24V18ZM20 26H22V30H20V26ZM9 16C7.61553 16 6.26216 16.4105 5.11101 17.1797C3.95987 17.9489 3.06266 19.0421 2.53285 20.3212C2.00303 21.6003 1.86441 23.0078 2.13451 24.3656C2.4046 25.7235 3.07129 26.9708 4.05026 27.9497C5.02922 28.9287 6.2765 29.5954 7.63437 29.8655C8.99224 30.1356 10.3997 29.997 11.6788 29.4672C12.9579 28.9373 14.0511 28.0401 14.8203 26.889C15.5895 25.7378 16 24.3845 16 23C15.9979 21.1441 15.2597 19.3649 13.9474 18.0526C12.6351 16.7403 10.8559 16.0021 9 16ZM13.899 22H10V18.101C10.9598 18.2988 11.8406 18.7735 12.5336 19.4664C13.2265 20.1594 13.7012 21.0402 13.899 22ZM9 28C7.76091 28 6.56594 27.54 5.64679 26.709C4.72763 25.878 4.14976 24.7354 4.02522 23.5025C3.90068 22.2697 4.23834 21.0346 4.97274 20.0366C5.70713 19.0386 6.78594 18.3488 8 18.101V22C8 22.5304 8.21072 23.0391 8.58579 23.4142C8.96086 23.7893 9.46957 24 10 24H13.899C13.6671 25.1285 13.0532 26.1426 12.1608 26.8712C11.2684 27.5998 10.1521 27.9985 9 28ZM22.535 12L26.535 6H30V4H25.465L21.465 10H18V2H16V14C16 14.5304 16.2107 15.0391 16.5858 15.4142C16.9609 15.7893 17.4696 16 18 16H30V14H18V12H22.535Z" />
<path d="M11 8C11.5523 8 12 7.55228 12 7C12 6.44772 11.5523 6 11 6C10.4477 6 10 6.44772 10 7C10 7.55228 10.4477 8 11 8Z"/>
<path d="M9 12C9.55228 12 10 11.5523 10 11C10 10.4477 9.55228 10 9 10C8.44772 10 8 10.4477 8 11C8 11.5523 8.44772 12 9 12Z"/>
<path d="M7 6C7.55228 6 8 5.55228 8 5C8 4.44772 7.55228 4 7 4C6.44772 4 6 4.44772 6 5C6 5.55228 6.44772 6 7 6Z" />
<path d="M5 10C5.55228 10 6 9.55228 6 9C6 8.44772 5.55228 8 5 8C4.44772 8 4 8.44772 4 9C4 9.55228 4.44772 10 5 10Z"/>
<path d="M3 14C3.55228 14 4 13.5523 4 13C4 12.4477 3.55228 12 3 12C2.44772 12 2 12.4477 2 13C2 13.5523 2.44772 14 3 14Z"/>
</svg>
