<svg viewBox="0 0 48 48" fill="none" xmlns="http://www.w3.org/2000/svg">
<circle cx="24" cy="24" r="24" fill="#FFE45E"/>
<mask id="mask0_809_7680" style="mask-type:alpha" maskUnits="userSpaceOnUse" x="0" y="0" width="48" height="48">
<circle cx="24" cy="24" r="24" fill="#FFE45E"/>
</mask>
<g mask="url(#mask0_809_7680)">
<path fill-rule="evenodd" clip-rule="evenodd" d="M21.153 12.6836C21.2364 12.6612 21.3196 12.6402 21.4028 12.6205C21.7793 11.2778 22.6776 9.43806 24.2392 7.99664C25.8993 6.46438 28.2947 5.39987 31.5128 5.85312C34.8224 6.31926 36.7254 8.47723 37.7376 10.8763C38.7386 13.2486 38.9051 15.9185 38.7582 17.6631C38.7284 18.0168 38.4547 18.3012 38.1024 18.3445C37.75 18.3879 37.4156 18.1783 37.301 17.8423C36.9298 16.754 36.3937 15.5024 35.7305 14.3504C35.0628 13.1906 34.2915 12.1763 33.4664 11.5185C32.6501 10.8676 31.85 10.6142 31.0488 10.7997C30.2176 10.9921 29.1939 11.6986 28.0486 13.4065C28.0306 13.4333 28.0112 13.4586 27.9906 13.4823C28.5302 13.7585 29.0261 14.0732 29.4669 14.4109C30.4597 15.1713 31.2376 16.0963 31.586 17.0388C31.7624 17.5158 31.8389 18.0271 31.7426 18.5298C31.644 19.0444 31.3731 19.4996 30.9426 19.8552C30.5144 20.209 30.038 20.4393 29.5415 20.5769C29.5652 20.6179 29.5854 20.6618 29.6015 20.7082L32.3274 28.5714C32.7031 29.6694 34.3578 32.0467 37.906 32.0467H46.8143C47.2285 32.0467 47.5643 32.3824 47.5643 32.7967C47.5643 33.2109 47.2285 33.5467 46.8143 33.5467H37.906C33.5745 33.5467 31.4423 30.6158 30.9087 29.0585L30.9082 29.0569L28.1843 21.1995C28.1316 21.0475 28.1306 20.8901 28.1721 20.7464C27.6788 20.7427 27.1901 20.6786 26.7315 20.5821C25.3493 20.2913 24.0475 19.6698 23.258 19.1811C22.9058 18.9631 22.797 18.5008 23.015 18.1486C23.2331 17.7964 23.6953 17.6877 24.0475 17.9057C24.7252 18.3252 25.8654 18.8671 27.0403 19.1143C28.2379 19.3662 29.2869 19.2774 29.9873 18.6988C30.1594 18.5566 30.239 18.4059 30.2694 18.2475C30.302 18.0772 30.286 17.8483 30.1791 17.5589C29.9609 16.9687 29.4091 16.2561 28.5548 15.6017C26.8529 14.2981 24.2065 13.4185 21.5411 14.1325C16.9706 15.3567 11.8507 17.9811 9.82168 19.1653C9.57915 19.3577 9.34142 19.6011 9.17059 19.8603C8.98892 20.136 8.91612 20.3774 8.92508 20.5706C8.93786 20.8461 9.1833 21.5236 11.179 22.0903H13.7124L13.9005 22.2147C14.8998 22.8756 16.676 23.6865 18.6832 23.9216C20.6749 24.1549 22.8483 23.8191 24.7492 22.2604C25.0695 21.9977 25.5421 22.0445 25.8047 22.3648C26.0674 22.6851 26.0207 23.1576 25.7004 23.4203C23.6928 25.0665 21.4385 25.5623 19.3722 25.4795V33.2159L19.372 33.2299C19.3719 33.2377 19.3716 33.2455 19.3712 33.2533C19.2716 35.2462 19.6281 38.4508 21.0277 41.4966C22.4198 44.5263 24.8255 47.3661 28.8241 48.7518C29.2155 48.8874 29.4228 49.3146 29.2872 49.706C29.1515 50.0974 28.7243 50.3047 28.3329 50.1691C27.2426 49.7912 26.259 49.316 25.3727 48.7652C25.7115 49.4637 26.0461 50.2139 26.3568 50.9969C27.3311 53.4521 28.0988 56.3022 27.9651 58.9308C27.8525 61.1445 27.8204 63.0862 27.8283 64.657H26.3283C26.3204 63.0566 26.3534 61.0895 26.467 58.8546C26.5849 56.5366 25.9028 53.9194 24.9626 51.5501C24.0264 49.1908 22.8629 47.1479 22.0883 46.0029C22.0547 45.9533 22.0279 45.9011 22.0076 45.8474C21.026 44.6845 20.2576 43.4132 19.6647 42.1229C18.1551 38.8376 17.7654 35.3976 17.8722 33.1974V25.3194C15.9844 24.9951 14.3349 24.2583 13.2667 23.5903H11.8957C12.0933 24.6106 12.4613 25.8795 12.9942 26.8348C13.3028 27.3881 13.6279 27.765 13.9414 27.9579C14.0905 28.0496 14.2436 28.1053 14.4137 28.1112V25.5652C14.4137 25.151 14.7494 24.8152 15.1637 24.8152C15.5779 24.8152 15.9137 25.151 15.9137 25.5652V28.7093C15.9137 29.0128 15.7308 29.2863 15.4504 29.4023C14.6128 29.749 13.8229 29.6461 13.1554 29.2354C12.5291 28.8502 12.0498 28.221 11.6842 27.5655C10.9552 26.2586 10.5235 24.5634 10.3394 23.4016C8.48995 22.7919 7.48353 21.8655 7.42669 20.6401C7.3981 20.0238 7.63141 19.47 7.91809 19.035C8.20718 18.5963 8.58483 18.2246 8.94137 17.9495L8.97908 17.9205L9.02018 17.8964C11.0737 16.6926 16.3657 13.9659 21.153 12.6836ZM26.6785 12.9225C25.5686 12.5379 24.3384 12.3264 23.059 12.387C23.4533 11.3522 24.1679 10.1038 25.2566 9.09887C26.615 7.84509 28.5688 6.95328 31.3036 7.33846C33.9468 7.71074 35.4849 9.39556 36.3556 11.4594C36.6404 12.1345 36.8498 12.8432 36.9983 13.5464C36.2896 12.3256 35.4177 11.1558 34.4015 10.3456C33.3611 9.5161 32.1018 9.01622 30.7104 9.33837C29.349 9.65358 28.047 10.7157 26.8028 12.5711C26.7299 12.6798 26.6892 12.8007 26.6785 12.9225Z" fill="white"/>
<path d="M67.3722 64.657V54.8054C67.3722 54.6585 67.33 54.5215 67.257 54.4058C67.2868 54.229 67.2537 54.0409 67.1496 53.8778L64.2418 49.3223C65.0639 47.6375 66.1074 43.8009 65.4806 38.4732C65.2268 36.316 64.1053 34.8456 62.6305 33.869L62.6322 33.8698C66.0033 35.5037 69.187 39.1026 70.3793 46.3806C70.3921 47.0861 70.6171 48.6101 71.7209 49.7895C72.9197 51.0704 74.9636 51.7515 78.2306 50.9209C78.632 50.8189 78.8747 50.4107 78.7726 50.0092C78.6706 49.6078 78.2624 49.3651 77.861 49.4672C74.9445 50.2086 73.5299 49.5273 72.8161 48.7645C72.042 47.9375 71.8787 46.7959 71.8787 46.3163C71.8787 46.2761 71.8755 46.236 71.8691 46.1964C70.6228 38.5038 67.194 34.4139 63.2864 32.52C59.4251 30.6486 55.2387 30.9919 52.5539 31.8746C52.1604 32.0039 51.9463 32.4278 52.0756 32.8213C52.0932 32.8746 52.1161 32.9246 52.1436 32.9709C52.1415 33.0174 52.1436 33.0646 52.1505 33.1123C52.209 33.5224 52.5889 33.8073 52.999 33.7487C54.764 33.4966 57.4385 33.467 59.7185 34.1661C61.9828 34.8604 63.7038 36.2082 63.9908 38.6485C64.6464 44.2203 63.3618 47.917 62.7301 48.9697C62.5838 49.2136 62.588 49.5194 62.7411 49.7591L65.8825 54.6807C65.8757 54.7212 65.8722 54.7629 65.8722 54.8054V64.657H67.3722Z" fill="white"/>
<path fill-rule="evenodd" clip-rule="evenodd" d="M63.1906 64.657C63.1261 63.3564 63.0245 62.051 62.8872 60.8144C62.6974 59.1034 62.437 57.5026 62.1049 56.2176C61.9389 55.5756 61.7507 54.9954 61.5365 54.5128C61.3285 54.044 61.0678 53.6019 60.7254 53.2998C59.9563 52.6212 59.1192 51.307 58.4559 49.7552C57.7975 48.2147 57.3585 46.5524 57.3105 45.2409C57.2954 44.8269 56.9476 44.5036 56.5336 44.5188C56.3178 44.5267 56.1265 44.6251 55.9951 44.7761C49.5559 48.7053 42.6295 46.3928 39.9804 44.7371C39.6291 44.5176 39.1664 44.6243 38.9469 44.9756C38.7929 45.222 38.7994 45.5232 38.9383 45.7569C38.9347 45.8337 38.9429 45.9124 38.9644 45.9906C39.243 47.0066 39.513 48.7046 39.4029 50.4346C39.292 52.1788 38.8041 53.8257 37.6989 54.8953C37.6401 54.9522 37.5926 55.0163 37.5565 55.085C37.2242 55.2595 37.068 55.659 37.206 56.0179L40.5287 64.657H42.1359L38.7812 55.9349C39.6575 55.0706 40.2007 53.9818 40.5214 52.8417C40.5677 53.0985 40.7468 53.3238 41.0105 53.4167C42.672 54.002 45.9311 54.3892 49.231 54.3159C50.4384 54.2891 51.6676 54.2004 52.8443 54.033L56.8044 59.0821L55.6582 64.657H57.1896L58.3437 59.0438C58.3881 58.8279 58.3353 58.6033 58.1992 58.4299L54.514 53.7312C55.8603 53.43 57.1124 52.9925 58.1047 52.3691C58.6038 53.1965 59.1573 53.9167 59.7329 54.4245C59.8359 54.5154 59.9901 54.7262 60.1655 55.1213C60.3348 55.5026 60.4987 55.9975 60.6526 56.593C60.8772 57.4618 61.0714 58.5086 61.2321 59.6616C61.1666 59.7379 61.1154 59.8286 61.0841 59.9308L59.6373 64.657H61.206L61.609 63.3406C61.6399 63.778 61.6665 64.2178 61.6888 64.657H63.1906ZM40.6782 46.801C44.0624 48.3435 50.0891 49.657 55.9385 46.5354C56.139 47.7801 56.5524 49.1182 57.0766 50.3447C57.1772 50.58 57.2828 50.8135 57.393 51.0436C56.5216 51.6147 55.2961 52.0449 53.8516 52.3389C52.4095 52.6325 50.7973 52.7807 49.1977 52.8163C45.9717 52.8879 42.9217 52.4996 41.5089 52.0019C41.1969 51.892 40.8608 52.0008 40.6681 52.2481C40.7913 51.6735 40.864 51.0936 40.8999 50.5299C40.9856 49.1841 40.8659 47.8654 40.6782 46.801Z" fill="white"/>
<path d="M37.46 64.657C34.458 57.3275 30.0153 46.4393 28.3332 42.164C28.2203 41.8772 27.9435 41.6886 27.6353 41.6886C27.1606 41.6886 26.8208 41.5292 26.5524 41.275C26.2671 41.0049 26.0337 40.5981 25.8602 40.0787C25.5106 39.0322 25.4707 37.7307 25.5524 36.8483C25.5906 36.4359 25.2872 36.0706 24.8747 36.0324C24.4623 35.9942 24.097 36.2976 24.0588 36.71C23.9658 37.7142 23.9993 39.2423 24.4375 40.554C24.6578 41.2135 24.9969 41.8679 25.521 42.3642C25.948 42.7685 26.4782 43.0482 27.1089 43.1481C27.9985 45.3968 29.4885 49.0829 31.1188 53.0926C30.9648 53.23 30.8678 53.43 30.8678 53.6526V64.657H32.3678V56.1607C33.569 59.1079 34.7829 62.0777 35.8391 64.657H37.46Z" fill="white"/>
</g>
</svg>
