<svg viewBox="0 0 48 48" fill="none" xmlns="http://www.w3.org/2000/svg">
<circle cx="24" cy="24" r="24" fill="#00ADD6"/>
<mask id="mask0_809_7658" style="mask-type:alpha" maskUnits="userSpaceOnUse" x="0" y="0" width="48" height="48">
<circle cx="24" cy="24" r="24" fill="#00ADD6"/>
</mask>
<g mask="url(#mask0_809_7658)">
<path d="M18.6832 9.69208C18.6994 9.2209 18.8658 8.49608 19.292 7.90928C19.6935 7.35636 20.3425 6.89569 21.4422 6.89569C22.542 6.89569 23.191 7.35636 23.5925 7.90928C24.0187 8.49608 24.1851 9.2209 24.2013 9.69208C24.215 10.0911 24.5481 10.4035 24.9453 10.3897C25.2088 10.3806 25.4343 10.2302 25.5523 10.0135C25.912 9.72082 26.4712 9.40625 27.0967 9.30802C27.7698 9.20233 28.5529 9.33763 29.3306 10.1189C30.1082 10.9001 30.2429 11.6869 30.1377 12.3632C30.026 13.0809 29.6335 13.7116 29.3133 14.0563C29.0422 14.3482 29.0579 14.8057 29.3484 15.0781C29.639 15.3506 30.0943 15.3348 30.3655 15.0429C30.8369 14.5355 31.3943 13.6496 31.5597 12.5865C31.7315 11.4819 31.4704 10.2238 30.3483 9.09642C29.2262 7.96907 27.9739 7.70674 26.8745 7.87938C26.3325 7.96449 25.8367 8.15293 25.4142 8.38015C25.2747 7.93987 25.0626 7.48025 24.7552 7.05697C24.0993 6.15386 23.0292 5.44971 21.4422 5.44971C19.8553 5.44971 18.7852 6.15386 18.1293 7.05697C17.8156 7.48888 17.6012 7.95861 17.4619 8.40704C17.0288 8.16786 16.5155 7.96783 15.9523 7.87938C14.8529 7.70674 13.6006 7.96907 12.4784 9.09642C11.3563 10.2238 11.0952 11.4819 11.2671 12.5865C11.4325 13.6496 11.9898 14.5355 12.4612 15.0429C12.7324 15.3348 13.1878 15.3506 13.4783 15.0781C13.7689 14.8057 13.7846 14.3482 13.5134 14.0563C13.1932 13.7116 12.8007 13.0809 12.6891 12.3632C12.5839 11.6869 12.7185 10.9001 13.4962 10.1189C14.2738 9.33763 15.0569 9.20233 15.73 9.30802C16.4444 9.4202 17.0722 9.81451 17.4152 10.1362L17.4208 10.1414C17.5472 10.2875 17.7314 10.3825 17.9392 10.3897C18.3364 10.4035 18.6695 10.0911 18.6832 9.69208Z" fill="white"/>
<path d="M41.0965 9.17755C45.5821 8.51805 46.9206 11.6269 46.7569 12.7506C46.7051 13.106 46.9209 13.4457 47.2636 13.5482C47.6062 13.6507 47.9718 13.485 48.122 13.159C48.4867 12.3677 49.575 11.5711 51.1802 11.2793C52.7485 10.9943 54.6919 11.2228 56.5791 12.3387C57.9366 13.1414 58.894 14.3451 59.3969 15.5748C59.9063 16.8205 59.9184 18.0046 59.5339 18.808C59.4176 19.0509 59.4456 19.3387 59.6064 19.5545C59.7672 19.7703 60.0341 19.8783 60.2989 19.8347C61.4181 19.6504 62.3427 19.751 63.1166 20.2612C63.9017 20.7788 64.6588 21.8011 65.2517 23.7371C65.9202 25.9199 65.9864 27.3941 65.6366 28.4092C65.3054 29.3706 64.549 30.06 63.1771 30.5562C63.0479 30.6029 62.9401 30.6829 62.86 30.7832C62.7006 30.8297 62.5564 30.9315 62.4585 31.0821C62.2412 31.4164 62.3348 31.8644 62.6675 32.0828C63.7554 32.7966 64.2811 33.4952 64.4971 34.1098C64.7101 34.7153 64.6553 35.3323 64.3985 35.9589C63.8654 37.2598 62.5106 38.466 61.364 39.1764L61.022 39.3883V55.3362H62.4613V40.186C63.6578 39.3791 65.0895 38.0709 65.7294 36.5094C66.0904 35.6286 66.2095 34.6385 65.8542 33.6281C65.6024 32.9118 65.1292 32.2341 64.418 31.603C65.6571 31.0104 66.5609 30.1471 66.9967 28.8822C67.498 27.4271 67.3243 25.5876 66.6273 23.3119C65.9826 21.2066 65.0805 19.8264 63.9062 19.0522C63.0541 18.4905 62.1247 18.291 61.1793 18.304C61.3486 17.261 61.1702 16.1062 60.7282 15.0253C60.1116 13.5177 58.9501 12.0629 57.3091 11.0926C55.1184 9.79719 52.824 9.51106 50.924 9.85642C49.7774 10.0648 48.7265 10.5158 47.9399 11.1529C47.2001 9.18674 44.923 7.15356 40.8881 7.7468C38.3677 8.11737 36.7854 8.70886 35.8217 9.6034C34.8173 10.5358 34.6013 11.6864 34.5176 12.8009C34.4877 13.199 34.7847 13.5462 35.1811 13.5762C35.5774 13.6063 35.9229 13.3079 35.9528 12.9097C36.029 11.8954 36.2067 11.2148 36.7985 10.6654C37.431 10.0783 38.6473 9.53764 41.0965 9.17755Z" fill="white"/>
<path d="M49.1481 55.3362H50.5874V46.2988C50.5874 45.8995 50.2652 45.5758 49.8677 45.5758C49.4703 45.5758 49.1481 45.8995 49.1481 46.2988V55.3362Z" fill="white"/>
<path d="M54.4254 55.3362H55.8647V41.4788C55.8647 41.318 55.8113 41.1619 55.7131 41.0349L54.0339 38.866C53.7899 38.5508 53.3378 38.494 53.0241 38.7391C52.7104 38.9843 52.6539 39.4385 52.8979 39.7537L54.4254 41.7269V55.3362Z" fill="white"/>
<path d="M30.9174 55.3362H29.4781V41.7198C29.4781 41.3205 29.8003 40.9968 30.1978 40.9968C30.5952 40.9968 30.9174 41.3205 30.9174 41.7198V55.3362Z" fill="white"/>
<path d="M25.6401 55.3362H24.2008V46.5398C24.2008 46.1405 24.523 45.8168 24.9205 45.8168C25.3179 45.8168 25.6401 46.1405 25.6401 46.5398V55.3362Z" fill="white"/>
<path d="M10.4783 17.6034C10.8004 17.3695 10.8726 16.9175 10.6397 16.5939C10.4069 16.2704 9.95698 16.1977 9.63492 16.4317C9.07512 16.8384 8.35836 17.5999 7.99229 18.6111C7.61195 19.6617 7.627 20.9469 8.51202 22.2702C9.39704 23.5936 10.5756 24.0933 11.6875 24.1366C12.2334 24.1578 12.7539 24.0697 13.2106 23.9295C13.0719 25.6693 13.2329 27.833 14.0925 29.7287C14.6396 30.9353 15.4763 32.0458 16.7074 32.8514C17.9395 33.6577 19.5207 34.1284 21.5074 34.1284C23.4942 34.1284 25.0799 33.6577 26.3201 32.8529C27.559 32.049 28.4085 30.9408 28.9706 29.7357C29.8575 27.8341 30.0447 25.6613 29.9255 23.9175C30.3914 24.0646 30.9258 24.1584 31.487 24.1366C32.5989 24.0933 33.7775 23.5936 34.6625 22.2702C35.5475 20.9469 35.5626 19.6617 35.1822 18.6111C34.8161 17.5999 34.0994 16.8384 33.5396 16.4317C33.2175 16.1977 32.7676 16.2704 32.5347 16.5939C32.3019 16.9175 32.3741 17.3695 32.6962 17.6034C33.0765 17.8797 33.5825 18.4227 33.8296 19.1054C34.0625 19.7486 34.0811 20.5467 33.4678 21.4638C32.8545 22.3809 32.112 22.6651 31.4312 22.6917C30.7087 22.7198 30.0171 22.4543 29.6188 22.205C29.4972 22.129 29.3619 22.0937 29.2286 22.0957C29.1402 22.0758 29.0466 22.0725 28.9518 22.0887C28.5599 22.1554 28.2961 22.5286 28.3624 22.9223C28.6454 24.6001 28.6153 27.0896 27.6673 29.1222C27.199 30.1263 26.5133 31.0062 25.5392 31.6383C24.5665 32.2695 23.2616 32.6824 21.5074 32.6824C19.753 32.6824 18.4551 32.2694 17.4929 31.6398C16.5296 31.0094 15.8568 30.1317 15.4023 29.1292C14.4816 27.0989 14.4834 24.6103 14.7883 22.9313C14.8596 22.5385 14.6005 22.1619 14.2095 22.0903C14.1117 22.0723 14.0149 22.0752 13.9236 22.0957C13.7976 22.0978 13.6705 22.1332 13.5557 22.205C13.1574 22.4543 12.4658 22.7198 11.7433 22.6917C11.0625 22.6651 10.32 22.3809 9.70667 21.4638C9.09335 20.5467 9.11201 19.7486 9.34487 19.1054C9.592 18.4227 10.098 17.8797 10.4783 17.6034Z" fill="white"/>
<path d="M14.116 31.4769C14.1819 31.0831 13.9177 30.7102 13.5257 30.644C13.1338 30.5777 12.7626 30.8432 12.6967 31.237C12.3152 33.5155 12.5301 36.9398 14.4585 39.8189C16.4169 42.743 20.0533 44.9733 26.2398 44.9733C26.6372 44.9733 26.9594 44.6496 26.9594 44.2503C26.9594 43.851 26.6372 43.5273 26.2398 43.5273C20.4324 43.5273 17.2922 41.4598 15.6526 39.0117C13.9827 36.5185 13.7779 33.4961 14.116 31.4769Z" fill="white"/>
<path d="M31.8769 43.8888C31.4795 43.8888 31.1573 44.2125 31.1573 44.6118C31.1573 45.0111 31.4795 45.3348 31.8769 45.3348H51.1871C51.5845 45.3348 51.9067 45.0111 51.9067 44.6118C51.9067 44.2125 51.5845 43.8888 51.1871 43.8888H31.8769Z" fill="white"/>
</g>
</svg>
