<svg viewBox="0 0 48 48" fill="none" xmlns="http://www.w3.org/2000/svg">
<circle cx="24" cy="24" r="24" fill="#FF6392"/>
<mask id="mask0_809_7634" style="mask-type:alpha" maskUnits="userSpaceOnUse" x="0" y="0" width="48" height="48">
<circle cx="24" cy="24" r="24" fill="#FF6392"/>
</mask>
<g mask="url(#mask0_809_7634)">
<path fill-rule="evenodd" clip-rule="evenodd" d="M27.1302 8.11781C27.5775 8.0554 27.9906 8.3674 28.0531 8.81468C28.2091 9.93302 27.8135 11.4661 26.3634 12.6917C26.2213 12.8117 26.0699 12.9283 25.9086 13.0409C28.6686 13.4585 30.3511 14.707 30.958 15.5162L31.0469 15.6347L31.0802 15.7791C31.2349 16.4496 31.1841 17.4567 30.6306 18.4552C30.0676 19.471 29.0121 20.4301 27.2369 21.0388C25.6748 21.5744 24.9928 22.166 24.7186 22.5832C24.4581 22.9794 24.5454 23.2358 24.5832 23.303C24.7268 23.5583 24.6932 23.865 24.5223 24.0814C24.618 25.1377 24.5144 26.4804 23.9309 27.6798C23.1815 29.2199 21.6799 30.4349 19.094 30.5383C17.8148 30.5895 16.7672 30.3334 15.9298 29.8425C15.093 29.352 14.5111 28.6535 14.1201 27.8918C13.4308 26.5486 13.3164 24.9773 13.421 23.8177C13.3787 23.6497 13.3982 23.4659 13.4898 23.303C13.5276 23.2358 13.6149 22.9794 13.3544 22.5832C13.0801 22.166 12.3982 21.5744 10.8361 21.0388C9.06083 20.4301 8.00542 19.471 7.44235 18.4552C6.88892 17.4567 6.83804 16.4496 6.99277 15.7791L7.02609 15.6347L7.115 15.5162C7.67936 14.7637 9.17372 13.6314 11.5998 13.1406C11.3814 13.0004 11.1791 12.8537 10.992 12.7016C9.50307 11.4909 9.03573 9.97304 9.14001 8.85195C9.18184 8.40227 9.58029 8.07165 10.03 8.11348C10.4796 8.15531 10.8103 8.55375 10.7684 9.00343C10.717 9.55672 10.9388 10.5505 12.0238 11.4327C13.1152 12.3202 15.1359 13.1331 18.7155 13.1331C22.2979 13.1331 24.2706 12.3191 25.3077 11.4426C26.3341 10.5752 26.5109 9.59673 26.4333 9.04069C26.3709 8.59341 26.6829 8.18022 27.1302 8.11781ZM15.3673 27.2517C14.7844 26.1158 14.7127 24.6831 14.8461 23.6824C15.0179 23.1541 14.9631 22.4784 14.5257 21.8131C14.0115 21.0309 12.9996 20.2986 11.2907 19.7128C9.79514 19.2 9.03988 18.4458 8.66842 17.7756C8.33621 17.1762 8.28786 16.6041 8.33318 16.2407C8.90601 15.6055 10.7653 14.3013 14.1007 14.3013C14.1692 14.3013 14.2354 14.2915 14.298 14.2731C15.5088 14.5867 16.968 14.7686 18.7155 14.7686C20.6742 14.7686 22.2629 14.54 23.5399 14.152C23.659 14.2455 23.8091 14.3013 23.9723 14.3013C27.3077 14.3013 29.167 15.6055 29.7398 16.2407C29.7851 16.6041 29.7368 17.1762 29.4046 17.7756C29.0331 18.4458 28.2778 19.2 26.7822 19.7128C25.0734 20.2986 24.0615 21.0309 23.5473 21.8131C23.2415 22.2781 23.1227 22.7481 23.1375 23.1694C23.0519 23.3122 23.0164 23.4858 23.0504 23.6622C23.2265 24.5779 23.2169 25.9431 22.6703 27.0665C22.1541 28.1275 21.1248 29.0542 19.038 29.1376C17.9808 29.1799 17.208 28.9668 16.6387 28.6332C16.0688 28.2991 15.6578 27.8178 15.3673 27.2517ZM31.0982 34.6275C31.5498 34.6275 31.9159 34.9936 31.9159 35.4452V40.3381C35.935 40.0927 39.1978 41.4001 40.639 42.3418C41.7118 42.9536 45.2118 43.6546 49.3538 39.865C50.613 38.713 52.0037 38.2763 53.409 38.3868C54.7803 38.4946 56.0938 39.1166 57.2662 39.9431C59.6054 41.5922 61.6149 44.2204 62.7559 46.1222C62.8322 46.2492 62.8725 46.3947 62.8725 46.5429V52.851H61.237V46.772C60.1435 44.9974 58.3331 42.6963 56.3239 41.2798C55.2855 40.5478 54.2525 40.0936 53.2808 40.0172C52.3432 39.9435 51.3947 40.2145 50.4577 41.0717C45.8372 45.2989 41.5491 44.7662 39.7979 43.7447C39.785 43.7372 39.7724 43.7293 39.7599 43.7211C38.5693 42.9364 35.6032 41.7272 31.9159 41.9775V52.851H30.2804V35.4452C30.2804 34.9936 30.6465 34.6275 31.0982 34.6275ZM27.4768 52.851V42.2206C27.4768 41.769 27.1107 41.4029 26.6591 41.4029C26.5337 41.4029 26.4149 41.4311 26.3086 41.4816V41.4808C23.1427 42.1124 21.4662 41.6026 20.5916 40.9128C19.5719 40.1083 19.3636 38.838 19.4151 37.9455C19.416 37.9298 19.4164 37.9141 19.4164 37.8984V32.6416C19.4164 32.19 19.0503 31.8239 18.5987 31.8239C18.1471 31.8239 17.781 32.19 17.781 32.6416V37.8758C17.7205 39.0112 17.9643 40.9233 19.5788 42.1968C20.1033 42.6106 20.7439 42.9342 21.5192 43.1416L21.5191 43.1552V52.851H23.1546V43.3888C23.9456 43.4303 24.8376 43.3804 25.8414 43.2242V52.851H27.4768ZM67.4283 52.851V42.9416L67.1989 42.704C64.8106 40.2305 64.5598 36.7979 64.7349 35.4324L64.7369 35.4171L65.7896 23.72C65.8301 23.2702 65.4983 22.8727 65.0485 22.8322C64.5987 22.7918 64.2012 23.1236 64.1607 23.5734L63.1107 35.2404C62.906 36.875 63.1707 40.6841 65.7929 43.594V52.851H67.4283ZM58.1998 52.851H56.5643V46.2507L54.6465 43.9066C54.3605 43.5571 54.412 43.0419 54.7615 42.7559C55.1111 42.4699 55.6262 42.5215 55.9122 42.871L58.1998 45.6669V52.851ZM33.2036 16.1355C35.0927 15.5651 40.4248 15.0443 45.9139 17.8339C51.8417 20.8463 57.6154 19.1671 59.9191 17.8655C61.2211 17.5133 63.1709 17.274 64.8977 17.6365C66.628 17.9998 68.0347 18.9298 68.5014 20.9135C69.0372 23.1907 69.1571 26.288 69.0758 29.2814C68.9949 32.2601 68.7172 35.0688 68.4874 36.7353C68.4257 37.1827 68.7383 37.5954 69.1857 37.6571C69.6331 37.7188 70.0458 37.4061 70.1075 36.9588C70.3449 35.2375 70.628 32.3689 70.7106 29.3258C70.7929 26.2971 70.679 23.0279 70.0934 20.5389C69.4387 17.7565 67.3798 16.4865 65.2337 16.0359C63.127 15.5937 60.8437 15.9055 59.3799 16.3178L59.2791 16.3462L59.1887 16.399C57.2975 17.5052 52.045 19.1151 46.6549 16.3759C40.7426 13.3713 34.9693 13.8941 32.7309 14.5698C32.2986 14.7003 32.0539 15.1566 32.1844 15.589C32.3149 16.0213 32.7712 16.266 33.2036 16.1355Z" fill="white"/>
</g>
</svg>
