<svg width="10" height="11" viewBox="0 0 10 11" fill="none" xmlns="http://www.w3.org/2000/svg">
<path d="M1 2.77778H1.88889M1.88889 2.77778H9M1.88889 2.77778V9C1.88889 9.23575 1.98254 9.46184 2.14924 9.62854C2.31594 9.79524 2.54203 9.88889 2.77778 9.88889H7.22222C7.45797 9.88889 7.68406 9.79524 7.85076 9.62854C8.01746 9.46184 8.11111 9.23575 8.11111 9V2.77778H1.88889ZM3.22222 2.77778V1.88889C3.22222 1.65314 3.31587 1.42705 3.48257 1.26035C3.64927 1.09365 3.87536 1 4.11111 1H5.88889C6.12464 1 6.35073 1.09365 6.51743 1.26035C6.68413 1.42705 6.77778 1.65314 6.77778 1.88889V2.77778M4.11111 5V7.66667M5.88889 5V7.66667" stroke="white" stroke-linecap="round" stroke-linejoin="round"/>
</svg>
