<svg width="24" height="13" viewBox="0 0 24 13" fill="none" xmlns="http://www.w3.org/2000/svg">
<path fill-rule="evenodd" clip-rule="evenodd" d="M15.806 6.64267C15.806 8.81249 14.047 10.5715 11.8772 10.5715C9.7074 10.5715 7.94841 8.81249 7.94841 6.64267C7.94841 4.47285 9.7074 2.71386 11.8772 2.71386C14.047 2.71386 15.806 4.47285 15.806 6.64267ZM14.6835 6.64267C14.6835 8.19254 13.4271 9.44896 11.8772 9.44896C10.3273 9.44896 9.07093 8.19254 9.07093 6.64267C9.07093 5.09279 10.3273 3.83637 11.8772 3.83637C13.4271 3.83637 14.6835 5.09279 14.6835 6.64267Z" />
<path fill-rule="evenodd" clip-rule="evenodd" d="M0 6.22456L2.22052 8.44508C7.62709 13.8516 16.3929 13.8516 21.7994 8.44508L23.4691 6.77544L21.2485 4.55492C15.842 -0.851641 7.0762 -0.851641 1.66963 4.55492L0 6.22456ZM1.58748 6.22456L2.46337 5.34866C7.43157 0.380468 15.4866 0.380468 20.4548 5.34866L21.8816 6.77544L21.0057 7.65134C16.0375 12.6195 7.98245 12.6195 3.01426 7.65134L1.58748 6.22456Z"/>
</svg>
