<svg width="56" height="54" viewBox="0 0 56 54" fill="none" xmlns="http://www.w3.org/2000/svg">
<rect width="56" height="54" fill="#282828"/>
<path d="M-1077 -9730C-1077 -9731.1 -1076.1 -9732 -1075 -9732H12611C12612.1 -9732 12613 -9731.1 12613 -9730V6016C12613 6017.11 12612.1 6018 12611 6018H-1075C-1076.1 6018 -1077 6017.1 -1077 6016V-9730Z" fill="#D0D0D0"/>
<path d="M-833 -365C-833 -366.105 -832.105 -367 -831 -367H5295C5296.1 -367 5297 -366.105 5297 -365V1736C5297 1737.1 5296.1 1738 5295 1738H-831C-832.104 1738 -833 1737.1 -833 1736V-365Z" fill="#AAAAAA"/>
<g filter="url(#filter0_d_763_5496)">
<g clip-path="url(#clip0_763_5496)">
<rect x="-649" y="-197" width="1366" height="1834" fill="#F6F6F6"/>
<rect x="-42" y="-8" width="140" height="101" rx="8" fill="white"/>
<g clip-path="url(#clip1_763_5496)">
<mask id="path-8-outside-1_763_5496" maskUnits="userSpaceOnUse" x="-0.549805" y="11.0361" width="57" height="32" fill="black">
<rect fill="white" x="-0.549805" y="11.0361" width="57" height="32"/>
<path d="M46.3823 12.1681C46.9445 12.3601 46.7245 13.0081 45.6978 14.0881C43.2778 16.6801 41.2489 22.8961 40.0023 31.5601C39.8801 32.4961 39.8801 32.4961 40.8823 30.8401C43.0334 27.2881 46.3334 25.0081 49.6334 24.7681C51.0267 24.6721 51.3445 24.7201 51.3445 25.0081C51.3445 25.2001 50.4401 26.2801 49.3156 27.3841C47.2134 29.5201 45.5756 32.1121 44.9889 34.2961C44.6223 35.6401 44.6223 38.4961 44.9645 39.7921L45.2578 40.8001H50.2445C55.2556 40.8001 55.8667 40.8961 55.2556 41.6401C54.7912 42.1681 1.20894 42.1681 0.744493 41.6401C0.133382 40.9201 0.744496 40.8001 4.99783 40.8001H9.25116L9.54449 39.6481C10.7667 34.9201 9.64227 30.2641 6.56227 27.4801C5.75561 26.7601 4.99783 26.1601 4.87561 26.1601C4.72894 26.1601 4.65561 25.9201 4.70449 25.6081C4.77783 25.1281 4.8756 25.0801 6.24449 25.1521C8.86005 25.2961 11.4512 26.8081 13.1378 29.2081C13.6267 29.9041 14.0667 30.4321 14.1156 30.3841C14.3112 30.1921 13.4312 25.6321 12.8445 23.8081C12.0378 21.3361 11.2556 19.5841 10.0334 17.5921C9.47116 16.7281 9.08005 15.8401 9.12894 15.6241C9.22672 15.1201 10.1067 15.2161 11.3778 15.8641C14.3356 17.3761 16.8289 20.6401 18.9556 25.7521L19.7378 27.6241L20.0556 25.8721C20.4467 23.6641 21.5712 20.5681 22.4512 19.3201C23.2578 18.1921 24.1378 18.0001 24.0156 18.9601C23.6978 21.6481 23.7223 24.4321 24.0645 26.9521C24.6267 30.9361 24.7978 31.1761 25.1645 28.7761C25.5312 26.3521 26.5089 23.2801 27.1201 22.5361C27.7312 21.7921 28.3667 22.0801 28.3667 23.1121C28.3667 24.0721 29.1245 27.0721 29.8823 29.1121L30.4201 30.5761L30.6401 29.6401C30.9089 28.3441 30.4445 23.5681 29.8334 21.3841C29.2712 19.4401 28.5623 17.9041 27.8289 17.1121C27.0956 16.3441 27.3401 15.7201 28.3912 15.7441C31.1534 15.8161 33.9889 18.9601 35.2112 23.3521L35.6267 24.8401L36.0423 23.4001C37.1912 19.4641 39.0245 16.1041 41.0778 14.3041C42.5934 12.9601 45.4534 11.8321 46.3823 12.1681ZM41.0534 16.0561C39.8556 17.3761 38.2912 20.2321 37.5578 22.4401C37.3378 23.1121 36.8978 24.7921 36.5801 26.1601C36.1156 28.2481 35.9445 28.7041 35.5289 28.7521C35.1134 28.8241 35.0156 28.5841 34.7467 26.8321C34.0867 22.6561 32.3756 18.9601 30.5423 17.8081C30.1023 17.5441 29.6867 17.3281 29.6623 17.3761C29.6134 17.4241 29.8334 18.0241 30.1512 18.7441C31.3734 21.4801 31.6667 23.2801 31.6667 28.2241C31.6667 31.7521 31.5934 32.9041 31.3245 33.1921C31.1534 33.4321 30.8845 33.6001 30.7623 33.6001C30.4201 33.6001 28.9778 30.4081 28.2445 27.9601C27.2423 24.6241 27.2912 24.6721 26.8267 26.4241C26.46 27.8641 26.1423 30.0241 25.7267 33.9601C25.5801 35.4241 25.4823 35.6401 25.0667 35.6401C24.6512 35.6401 24.5045 35.3041 24.0401 33.2401C23.3312 30.2161 22.5001 24.7441 22.5001 23.1601C22.4756 22.2721 22.4267 22.0561 22.2556 22.3681C21.7912 23.1361 21.0089 26.9761 20.8378 29.2561C20.6912 31.2961 20.6178 31.5601 20.2023 31.5601C19.8112 31.5601 19.5423 31.0321 18.8089 28.8241C17.0978 23.8321 14.6045 19.5841 12.4045 17.9281C11.9156 17.5681 11.5001 17.2801 11.4512 17.2801C11.4023 17.2801 11.7689 18.0961 12.2578 19.1041C14.14 22.8721 15.2156 27.2641 15.2645 31.3201C15.2889 33.8161 15.2645 33.9601 14.7756 34.0321C14.3845 34.0801 14.2134 33.8881 13.9201 33.0721C13.4801 31.7041 11.4512 28.7761 10.4734 28.0321C9.54449 27.3361 7.58894 26.3281 7.58894 26.5441C7.58894 26.6161 7.98005 27.1201 8.4445 27.6721C10.1067 29.5921 11.2556 32.7841 11.2556 35.6401C11.2556 36.7921 10.8889 39.5041 10.6201 40.3681C10.4978 40.7761 11.4023 40.8001 27.0956 40.8001H43.7178L43.5956 37.9681C43.4734 35.4001 43.5223 35.0161 44.0845 33.3361C44.8667 31.0561 46.0401 29.0881 47.6778 27.2881L48.9489 25.8961L47.7023 26.3761C44.3045 27.6481 41.6889 30.7681 40.1001 35.5201C39.2201 38.0641 39.0489 38.3521 38.5601 37.9681C38.1689 37.6321 38.2178 36.5041 38.9023 31.2001C39.9045 23.5681 41.4934 18.1441 43.7912 14.4961L44.3534 13.6081L43.3023 14.1841C42.7156 14.4961 41.6889 15.3361 41.0534 16.0561Z"/>
</mask>
<path d="M46.3823 12.1681C46.9445 12.3601 46.7245 13.0081 45.6978 14.0881C43.2778 16.6801 41.2489 22.8961 40.0023 31.5601C39.8801 32.4961 39.8801 32.4961 40.8823 30.8401C43.0334 27.2881 46.3334 25.0081 49.6334 24.7681C51.0267 24.6721 51.3445 24.7201 51.3445 25.0081C51.3445 25.2001 50.4401 26.2801 49.3156 27.3841C47.2134 29.5201 45.5756 32.1121 44.9889 34.2961C44.6223 35.6401 44.6223 38.4961 44.9645 39.7921L45.2578 40.8001H50.2445C55.2556 40.8001 55.8667 40.8961 55.2556 41.6401C54.7912 42.1681 1.20894 42.1681 0.744493 41.6401C0.133382 40.9201 0.744496 40.8001 4.99783 40.8001H9.25116L9.54449 39.6481C10.7667 34.9201 9.64227 30.2641 6.56227 27.4801C5.75561 26.7601 4.99783 26.1601 4.87561 26.1601C4.72894 26.1601 4.65561 25.9201 4.70449 25.6081C4.77783 25.1281 4.8756 25.0801 6.24449 25.1521C8.86005 25.2961 11.4512 26.8081 13.1378 29.2081C13.6267 29.9041 14.0667 30.4321 14.1156 30.3841C14.3112 30.1921 13.4312 25.6321 12.8445 23.8081C12.0378 21.3361 11.2556 19.5841 10.0334 17.5921C9.47116 16.7281 9.08005 15.8401 9.12894 15.6241C9.22672 15.1201 10.1067 15.2161 11.3778 15.8641C14.3356 17.3761 16.8289 20.6401 18.9556 25.7521L19.7378 27.6241L20.0556 25.8721C20.4467 23.6641 21.5712 20.5681 22.4512 19.3201C23.2578 18.1921 24.1378 18.0001 24.0156 18.9601C23.6978 21.6481 23.7223 24.4321 24.0645 26.9521C24.6267 30.9361 24.7978 31.1761 25.1645 28.7761C25.5312 26.3521 26.5089 23.2801 27.1201 22.5361C27.7312 21.7921 28.3667 22.0801 28.3667 23.1121C28.3667 24.0721 29.1245 27.0721 29.8823 29.1121L30.4201 30.5761L30.6401 29.6401C30.9089 28.3441 30.4445 23.5681 29.8334 21.3841C29.2712 19.4401 28.5623 17.9041 27.8289 17.1121C27.0956 16.3441 27.3401 15.7201 28.3912 15.7441C31.1534 15.8161 33.9889 18.9601 35.2112 23.3521L35.6267 24.8401L36.0423 23.4001C37.1912 19.4641 39.0245 16.1041 41.0778 14.3041C42.5934 12.9601 45.4534 11.8321 46.3823 12.1681ZM41.0534 16.0561C39.8556 17.3761 38.2912 20.2321 37.5578 22.4401C37.3378 23.1121 36.8978 24.7921 36.5801 26.1601C36.1156 28.2481 35.9445 28.7041 35.5289 28.7521C35.1134 28.8241 35.0156 28.5841 34.7467 26.8321C34.0867 22.6561 32.3756 18.9601 30.5423 17.8081C30.1023 17.5441 29.6867 17.3281 29.6623 17.3761C29.6134 17.4241 29.8334 18.0241 30.1512 18.7441C31.3734 21.4801 31.6667 23.2801 31.6667 28.2241C31.6667 31.7521 31.5934 32.9041 31.3245 33.1921C31.1534 33.4321 30.8845 33.6001 30.7623 33.6001C30.4201 33.6001 28.9778 30.4081 28.2445 27.9601C27.2423 24.6241 27.2912 24.6721 26.8267 26.4241C26.46 27.8641 26.1423 30.0241 25.7267 33.9601C25.5801 35.4241 25.4823 35.6401 25.0667 35.6401C24.6512 35.6401 24.5045 35.3041 24.0401 33.2401C23.3312 30.2161 22.5001 24.7441 22.5001 23.1601C22.4756 22.2721 22.4267 22.0561 22.2556 22.3681C21.7912 23.1361 21.0089 26.9761 20.8378 29.2561C20.6912 31.2961 20.6178 31.5601 20.2023 31.5601C19.8112 31.5601 19.5423 31.0321 18.8089 28.8241C17.0978 23.8321 14.6045 19.5841 12.4045 17.9281C11.9156 17.5681 11.5001 17.2801 11.4512 17.2801C11.4023 17.2801 11.7689 18.0961 12.2578 19.1041C14.14 22.8721 15.2156 27.2641 15.2645 31.3201C15.2889 33.8161 15.2645 33.9601 14.7756 34.0321C14.3845 34.0801 14.2134 33.8881 13.9201 33.0721C13.4801 31.7041 11.4512 28.7761 10.4734 28.0321C9.54449 27.3361 7.58894 26.3281 7.58894 26.5441C7.58894 26.6161 7.98005 27.1201 8.4445 27.6721C10.1067 29.5921 11.2556 32.7841 11.2556 35.6401C11.2556 36.7921 10.8889 39.5041 10.6201 40.3681C10.4978 40.7761 11.4023 40.8001 27.0956 40.8001H43.7178L43.5956 37.9681C43.4734 35.4001 43.5223 35.0161 44.0845 33.3361C44.8667 31.0561 46.0401 29.0881 47.6778 27.2881L48.9489 25.8961L47.7023 26.3761C44.3045 27.6481 41.6889 30.7681 40.1001 35.5201C39.2201 38.0641 39.0489 38.3521 38.5601 37.9681C38.1689 37.6321 38.2178 36.5041 38.9023 31.2001C39.9045 23.5681 41.4934 18.1441 43.7912 14.4961L44.3534 13.6081L43.3023 14.1841C42.7156 14.4961 41.6889 15.3361 41.0534 16.0561Z" fill="#40916C"/>
<path d="M46.3823 12.1681C46.9445 12.3601 46.7245 13.0081 45.6978 14.0881C43.2778 16.6801 41.2489 22.8961 40.0023 31.5601C39.8801 32.4961 39.8801 32.4961 40.8823 30.8401C43.0334 27.2881 46.3334 25.0081 49.6334 24.7681C51.0267 24.6721 51.3445 24.7201 51.3445 25.0081C51.3445 25.2001 50.4401 26.2801 49.3156 27.3841C47.2134 29.5201 45.5756 32.1121 44.9889 34.2961C44.6223 35.6401 44.6223 38.4961 44.9645 39.7921L45.2578 40.8001H50.2445C55.2556 40.8001 55.8667 40.8961 55.2556 41.6401C54.7912 42.1681 1.20894 42.1681 0.744493 41.6401C0.133382 40.9201 0.744496 40.8001 4.99783 40.8001H9.25116L9.54449 39.6481C10.7667 34.9201 9.64227 30.2641 6.56227 27.4801C5.75561 26.7601 4.99783 26.1601 4.87561 26.1601C4.72894 26.1601 4.65561 25.9201 4.70449 25.6081C4.77783 25.1281 4.8756 25.0801 6.24449 25.1521C8.86005 25.2961 11.4512 26.8081 13.1378 29.2081C13.6267 29.9041 14.0667 30.4321 14.1156 30.3841C14.3112 30.1921 13.4312 25.6321 12.8445 23.8081C12.0378 21.3361 11.2556 19.5841 10.0334 17.5921C9.47116 16.7281 9.08005 15.8401 9.12894 15.6241C9.22672 15.1201 10.1067 15.2161 11.3778 15.8641C14.3356 17.3761 16.8289 20.6401 18.9556 25.7521L19.7378 27.6241L20.0556 25.8721C20.4467 23.6641 21.5712 20.5681 22.4512 19.3201C23.2578 18.1921 24.1378 18.0001 24.0156 18.9601C23.6978 21.6481 23.7223 24.4321 24.0645 26.9521C24.6267 30.9361 24.7978 31.1761 25.1645 28.7761C25.5312 26.3521 26.5089 23.2801 27.1201 22.5361C27.7312 21.7921 28.3667 22.0801 28.3667 23.1121C28.3667 24.0721 29.1245 27.0721 29.8823 29.1121L30.4201 30.5761L30.6401 29.6401C30.9089 28.3441 30.4445 23.5681 29.8334 21.3841C29.2712 19.4401 28.5623 17.9041 27.8289 17.1121C27.0956 16.3441 27.3401 15.7201 28.3912 15.7441C31.1534 15.8161 33.9889 18.9601 35.2112 23.3521L35.6267 24.8401L36.0423 23.4001C37.1912 19.4641 39.0245 16.1041 41.0778 14.3041C42.5934 12.9601 45.4534 11.8321 46.3823 12.1681ZM41.0534 16.0561C39.8556 17.3761 38.2912 20.2321 37.5578 22.4401C37.3378 23.1121 36.8978 24.7921 36.5801 26.1601C36.1156 28.2481 35.9445 28.7041 35.5289 28.7521C35.1134 28.8241 35.0156 28.5841 34.7467 26.8321C34.0867 22.6561 32.3756 18.9601 30.5423 17.8081C30.1023 17.5441 29.6867 17.3281 29.6623 17.3761C29.6134 17.4241 29.8334 18.0241 30.1512 18.7441C31.3734 21.4801 31.6667 23.2801 31.6667 28.2241C31.6667 31.7521 31.5934 32.9041 31.3245 33.1921C31.1534 33.4321 30.8845 33.6001 30.7623 33.6001C30.4201 33.6001 28.9778 30.4081 28.2445 27.9601C27.2423 24.6241 27.2912 24.6721 26.8267 26.4241C26.46 27.8641 26.1423 30.0241 25.7267 33.9601C25.5801 35.4241 25.4823 35.6401 25.0667 35.6401C24.6512 35.6401 24.5045 35.3041 24.0401 33.2401C23.3312 30.2161 22.5001 24.7441 22.5001 23.1601C22.4756 22.2721 22.4267 22.0561 22.2556 22.3681C21.7912 23.1361 21.0089 26.9761 20.8378 29.2561C20.6912 31.2961 20.6178 31.5601 20.2023 31.5601C19.8112 31.5601 19.5423 31.0321 18.8089 28.8241C17.0978 23.8321 14.6045 19.5841 12.4045 17.9281C11.9156 17.5681 11.5001 17.2801 11.4512 17.2801C11.4023 17.2801 11.7689 18.0961 12.2578 19.1041C14.14 22.8721 15.2156 27.2641 15.2645 31.3201C15.2889 33.8161 15.2645 33.9601 14.7756 34.0321C14.3845 34.0801 14.2134 33.8881 13.9201 33.0721C13.4801 31.7041 11.4512 28.7761 10.4734 28.0321C9.54449 27.3361 7.58894 26.3281 7.58894 26.5441C7.58894 26.6161 7.98005 27.1201 8.4445 27.6721C10.1067 29.5921 11.2556 32.7841 11.2556 35.6401C11.2556 36.7921 10.8889 39.5041 10.6201 40.3681C10.4978 40.7761 11.4023 40.8001 27.0956 40.8001H43.7178L43.5956 37.9681C43.4734 35.4001 43.5223 35.0161 44.0845 33.3361C44.8667 31.0561 46.0401 29.0881 47.6778 27.2881L48.9489 25.8961L47.7023 26.3761C44.3045 27.6481 41.6889 30.7681 40.1001 35.5201C39.2201 38.0641 39.0489 38.3521 38.5601 37.9681C38.1689 37.6321 38.2178 36.5041 38.9023 31.2001C39.9045 23.5681 41.4934 18.1441 43.7912 14.4961L44.3534 13.6081L43.3023 14.1841C42.7156 14.4961 41.6889 15.3361 41.0534 16.0561Z" stroke="#40916C" stroke-width="0.4" mask="url(#path-8-outside-1_763_5496)"/>
</g>
</g>
<rect x="-649.5" y="-197.5" width="1367" height="1835" stroke="#E9E9E9"/>
</g>
<path d="M-831 -366H5295V-368H-831V-366ZM5296 -365V1736H5298V-365H5296ZM5295 1737H-831V1739H5295V1737ZM-832 1736V-365H-834V1736H-832ZM-831 1737C-831.552 1737 -832 1736.55 -832 1736H-834C-834 1737.66 -832.657 1739 -831 1739V1737ZM5296 1736C5296 1736.55 5295.55 1737 5295 1737V1739C5296.66 1739 5298 1737.66 5298 1736H5296ZM5295 -366C5295.55 -366 5296 -365.552 5296 -365H5298C5298 -366.657 5296.66 -368 5295 -368V-366ZM-831 -368C-832.657 -368 -834 -366.657 -834 -365H-832C-832 -365.552 -831.552 -366 -831 -366V-368Z" fill="white" fill-opacity="0.1"/>
<path d="M-1075 -9731H12611V-9733H-1075V-9731ZM12612 -9730V6016H12614V-9730H12612ZM12611 6017H-1075V6019H12611V6017ZM-1076 6016V-9730H-1078V6016H-1076ZM-1075 6017C-1075.55 6017 -1076 6016.55 -1076 6016H-1078C-1078 6017.66 -1076.66 6019 -1075 6019V6017ZM12612 6016C12612 6016.55 12611.6 6017 12611 6017V6019C12612.7 6019 12614 6017.66 12614 6016H12612ZM12611 -9731C12611.6 -9731 12612 -9730.55 12612 -9730H12614C12614 -9731.66 12612.7 -9733 12611 -9733V-9731ZM-1075 -9733C-1076.66 -9733 -1078 -9731.66 -1078 -9730H-1076C-1076 -9730.55 -1075.55 -9731 -1075 -9731V-9733Z" fill="white" fill-opacity="0.1"/>
<defs>
<filter id="filter0_d_763_5496" x="-670" y="-218" width="1408" height="1876" filterUnits="userSpaceOnUse" color-interpolation-filters="sRGB">
<feFlood flood-opacity="0" result="BackgroundImageFix"/>
<feColorMatrix in="SourceAlpha" type="matrix" values="0 0 0 0 0 0 0 0 0 0 0 0 0 0 0 0 0 0 127 0" result="hardAlpha"/>
<feOffset/>
<feGaussianBlur stdDeviation="10"/>
<feColorMatrix type="matrix" values="0 0 0 0 0 0 0 0 0 0 0 0 0 0 0 0 0 0 0.1 0"/>
<feBlend mode="normal" in2="BackgroundImageFix" result="effect1_dropShadow_763_5496"/>
<feBlend mode="normal" in="SourceGraphic" in2="effect1_dropShadow_763_5496" result="shape"/>
</filter>
<clipPath id="clip0_763_5496">
<rect x="-649" y="-197" width="1366" height="1834" fill="white"/>
</clipPath>
<clipPath id="clip1_763_5496">
<rect width="55" height="54" fill="white" transform="matrix(-1 0 0 1 55.5 0)"/>
</clipPath>
</defs>
</svg>
