<svg width="48" height="49" viewBox="0 0 48 49" fill="none" xmlns="http://www.w3.org/2000/svg">
<rect width="48" height="49" fill="#282828"/>
<path d="M-1165 -10419C-1165 -10420.1 -1164.1 -10421 -1163 -10421H12523C12524.1 -10421 12525 -10420.1 12525 -10419V5327C12525 5328.1 12524.1 5329 12523 5329H-1163C-1164.1 5329 -1165 5328.1 -1165 5327V-10419Z" fill="#D0D0D0"/>
<path d="M-921 -1054C-921 -1055.1 -920.105 -1056 -919 -1056H5207C5208.1 -1056 5209 -1055.1 5209 -1054V1047C5209 1048.1 5208.1 1049 5207 1049H-919C-920.104 1049 -921 1048.1 -921 1047V-1054Z" fill="#AAAAAA"/>
<g filter="url(#filter0_d_763_5496)">
<g clip-path="url(#clip0_763_5496)">
<rect x="-737" y="-886" width="1366" height="1834" fill="#F6F6F6"/>
<rect x="-23.5" y="-22.9131" width="230" height="140" rx="7.5" fill="white"/>
<circle cx="24" cy="24.5869" r="24" fill="#40916C"/>
<mask id="mask0_763_5496" style="mask-type:alpha" maskUnits="userSpaceOnUse" x="0" y="0" width="48" height="49">
<circle cx="24" cy="24.5869" r="24" fill="#FFE45E"/>
</mask>
<g mask="url(#mask0_763_5496)">
<path fill-rule="evenodd" clip-rule="evenodd" d="M21.1535 13.2707C21.2368 13.2484 21.3201 13.2274 21.4033 13.2076C21.7798 11.8649 22.6781 10.0252 24.2397 8.58379C25.8998 7.05154 28.2952 5.98703 31.5133 6.44027C34.8229 6.90641 36.7259 9.06439 37.7381 11.4634C38.739 13.8357 38.9056 16.5057 38.7587 18.2502C38.7289 18.604 38.4552 18.8884 38.1028 18.9317C37.7505 18.975 37.4161 18.7654 37.3015 18.4294C36.9303 17.3411 36.3942 16.0896 35.731 14.9376C35.0633 13.7778 34.292 12.7635 33.4669 12.1056C32.6506 11.4548 31.8505 11.2014 31.0493 11.3869C30.2181 11.5793 29.1944 12.2858 28.0491 13.9937C28.0311 14.0205 28.0117 14.0457 27.9911 14.0694C28.5307 14.3456 29.0266 14.6604 29.4674 14.998C30.4602 15.7585 31.2381 16.6834 31.5865 17.626C31.7628 18.103 31.8394 18.6142 31.7431 19.1169C31.6445 19.6315 31.3736 20.0868 30.9431 20.4424C30.5148 20.7962 30.0385 21.0264 29.542 21.1641C29.5657 21.2051 29.5859 21.2489 29.602 21.2954L32.3279 29.1585C32.7036 30.2566 34.3583 32.6338 37.9065 32.6338H46.8148C47.229 32.6338 47.5648 32.9696 47.5648 33.3838C47.5648 33.798 47.229 34.1338 46.8148 34.1338H37.9065C33.575 34.1338 31.4428 31.203 30.9092 29.6456L30.9087 29.6441L28.1848 21.7867C28.1321 21.6347 28.1311 21.4772 28.1726 21.3335C27.6793 21.3299 27.1906 21.2658 26.732 21.1693C25.3498 20.8785 24.048 20.257 23.2585 19.7682C22.9063 19.5502 22.7975 19.088 23.0155 18.7358C23.2336 18.3836 23.6958 18.2748 24.048 18.4928C24.7257 18.9124 25.8659 19.4542 27.0408 19.7014C28.2384 19.9534 29.2874 19.8645 29.9878 19.2859C30.1599 19.1438 30.2395 18.9931 30.2699 18.8347C30.3025 18.6643 30.2865 18.4354 30.1796 18.146C29.9614 17.5558 29.4096 16.8432 28.5553 16.1888C26.8534 14.8853 24.207 14.0057 21.5416 14.7196C16.9711 15.9439 11.8512 18.5683 9.82217 19.7525C9.57964 19.9449 9.3419 20.1883 9.17107 20.4475C8.98941 20.7232 8.91661 20.9646 8.92557 21.1578C8.93835 21.4333 9.18378 22.1107 11.1795 22.6775H13.7128L13.901 22.8019C14.9003 23.4627 16.6765 24.2737 18.6837 24.5088C20.6754 24.7421 22.8488 24.4063 24.7497 22.8475C25.07 22.5849 25.5426 22.6316 25.8052 22.9519C26.0679 23.2722 26.0211 23.7448 25.7008 24.0074C23.6933 25.6536 21.439 26.1494 19.3727 26.0667V33.803L19.3725 33.8171C19.3724 33.8249 19.3721 33.8327 19.3717 33.8405C19.2721 35.8333 19.6286 39.038 21.0282 42.0838C22.4203 45.1134 24.826 47.9533 28.8246 49.3389C29.2159 49.4745 29.4233 49.9018 29.2877 50.2932C29.152 50.6845 28.7248 50.8919 28.3334 50.7562C27.2431 50.3784 26.2595 49.9031 25.3732 49.3524C25.712 50.0509 26.0466 50.801 26.3573 51.584C27.3316 54.0392 28.0992 56.8893 27.9656 59.518C27.853 61.7317 27.8209 63.6734 27.8288 65.2441H26.3288C26.3209 63.6438 26.3539 61.6766 26.4675 59.4418C26.5854 57.1237 25.9033 54.5066 24.9631 52.1373C24.0269 49.778 22.8634 47.7351 22.0888 46.5901C22.0552 46.5404 22.0284 46.4882 22.0081 46.4345C21.0265 45.2717 20.2581 44.0003 19.6652 42.7101C18.1556 39.4247 17.7659 35.9847 17.8727 33.7846V25.9066C15.9849 25.5823 14.3354 24.8454 13.2671 24.1775H11.8962C12.0938 25.1978 12.4618 26.4667 12.9947 27.422C13.3033 27.9752 13.6284 28.3521 13.9419 28.545C14.091 28.6368 14.2441 28.6925 14.4141 28.6984V26.1524C14.4141 25.7382 14.7499 25.4024 15.1641 25.4024C15.5784 25.4024 15.9141 25.7382 15.9141 26.1524V29.2965C15.9141 29.5999 15.7313 29.8735 15.4509 29.9895C14.6133 30.3361 13.8234 30.2333 13.1559 29.8226C12.5296 29.4373 12.0503 28.8081 11.6847 28.1527C10.9557 26.8457 10.5239 25.1506 10.3399 23.9887C8.49044 23.3791 7.48402 22.4526 7.42718 21.2273C7.39859 20.6109 7.6319 20.0571 7.91858 19.6221C8.20767 19.1834 8.58532 18.8117 8.94185 18.5367L8.97957 18.5076L9.02067 18.4835C11.0742 17.2797 16.3662 14.553 21.1535 13.2707ZM26.679 13.5096C25.5691 13.1251 24.3389 12.9135 23.0595 12.9742C23.4538 11.9393 24.1684 10.6909 25.2571 9.68602C26.6154 8.43225 28.5693 7.54043 31.3041 7.92561C33.9473 8.2979 35.4853 9.98272 36.3561 12.0465C36.6409 12.7216 36.8503 13.4303 36.9988 14.1336C36.2901 12.9128 35.4182 11.743 34.402 10.9328C33.3616 10.1033 32.1023 9.60338 30.7109 9.92553C29.3495 10.2407 28.0475 11.3028 26.8032 13.1582C26.7303 13.267 26.6897 13.3878 26.679 13.5096Z" fill="white"/>
<path d="M67.3727 65.2441V55.3926C67.3727 55.2457 67.3304 55.1087 67.2575 54.993C67.2873 54.8161 67.2541 54.6281 67.1501 54.465L64.2423 49.9095C65.0644 48.2247 66.1078 44.3881 65.4811 39.0604C65.2273 36.9031 64.1058 35.4327 62.631 34.4562L62.6327 34.457C66.0038 36.0908 69.1875 39.6898 70.3798 46.9678C70.3925 47.6733 70.6176 49.1973 71.7214 50.3767C72.9202 51.6576 74.9641 52.3387 78.231 51.5081C78.6325 51.406 78.8752 50.9978 78.7731 50.5964C78.6711 50.195 78.2629 49.9523 77.8614 50.0543C74.945 50.7958 73.5304 50.1144 72.8165 49.3517C72.0425 48.5247 71.8792 47.3831 71.8792 46.9035C71.8792 46.8633 71.876 46.8232 71.8696 46.7835C70.6233 39.091 67.1945 35.001 63.2869 33.1072C59.4256 31.2357 55.2391 31.5791 52.5544 32.4617C52.1609 32.5911 51.9468 33.015 52.0761 33.4085C52.0936 33.4618 52.1166 33.5118 52.1441 33.5581C52.142 33.6045 52.1441 33.6518 52.1509 33.6995C52.2095 34.1095 52.5894 34.3945 52.9995 34.3359C54.7644 34.0837 57.4389 34.0542 59.719 34.7533C61.9833 35.4475 63.7042 36.7953 63.9913 39.2356C64.6468 44.8075 63.3623 48.5041 62.7306 49.5569C62.5843 49.8008 62.5885 50.1065 62.7416 50.3463L65.883 55.2678C65.8762 55.3084 65.8727 55.3501 65.8727 55.3926V65.2441H67.3727Z" fill="white"/>
<path fill-rule="evenodd" clip-rule="evenodd" d="M63.1911 65.2441C63.1266 63.9436 63.025 62.6382 62.8877 61.4015C62.6979 59.6906 62.4375 58.0898 62.1053 56.8047C61.9394 56.1628 61.7512 55.5826 61.537 55.1C61.329 54.6312 61.0683 54.1891 60.7259 53.8869C59.9568 53.2084 59.1197 51.8941 58.4564 50.3423C57.798 48.8019 57.359 47.1395 57.311 45.828C57.2959 45.4141 56.948 45.0908 56.5341 45.1059C56.3182 45.1138 56.127 45.2122 55.9956 45.3633C49.5564 49.2925 42.63 46.9799 39.9809 45.3242C39.6296 45.1047 39.1669 45.2115 38.9474 45.5627C38.7934 45.8091 38.7999 46.1103 38.9388 46.344C38.9352 46.4209 38.9434 46.4996 38.9649 46.5778C39.2434 47.5938 39.5135 49.2918 39.4034 51.0218C39.2924 52.766 38.8046 54.4129 37.6994 55.4824C37.6406 55.5393 37.5931 55.6035 37.557 55.6721C37.2247 55.8466 37.0685 56.2462 37.2065 56.605L40.5292 65.2441H42.1363L38.7817 56.522C39.658 55.6577 40.2011 54.569 40.5219 53.4289C40.5682 53.6857 40.7473 53.911 41.011 54.0039C42.6725 54.5892 45.9316 54.9764 49.2315 54.9031C50.4388 54.8762 51.6681 54.7876 52.8448 54.6202L56.8049 59.6693L55.6587 65.2441H57.1901L58.3442 59.6309C58.3886 59.415 58.3357 59.1905 58.1997 59.017L54.5145 54.3184C55.8608 54.0172 57.1129 53.5796 58.1052 52.9562C58.6042 53.7837 59.1578 54.5038 59.7334 55.0117C59.8364 55.1026 59.9906 55.3133 60.166 55.7085C60.3352 56.0898 60.4992 56.5847 60.6531 57.1801C60.8777 58.049 61.0718 59.0957 61.2326 60.2488C61.167 60.325 61.1159 60.4157 61.0845 60.518L59.6378 65.2441H61.2065L61.6095 63.9278C61.6403 64.3651 61.667 64.8049 61.6892 65.2441H63.1911ZM40.6787 47.3882C44.0629 48.9307 50.0896 50.2441 55.939 47.1226C56.1395 48.3672 56.5529 49.7053 57.0771 50.9319C57.1777 51.1671 57.2833 51.4007 57.3935 51.6307C56.5221 52.2018 55.2966 52.6321 53.8521 52.9261C52.41 53.2196 50.7978 53.3679 49.1981 53.4034C45.9722 53.4751 42.9222 53.0868 41.5094 52.5891C41.1973 52.4792 40.8613 52.5879 40.6685 52.8353C40.7918 52.2607 40.8645 51.6808 40.9004 51.117C40.986 49.7712 40.8664 48.4526 40.6787 47.3882Z" fill="white"/>
<path d="M37.4605 65.2441C34.4585 57.9147 30.0158 47.0265 28.3337 42.7511C28.2208 42.4643 27.944 42.2757 27.6358 42.2757C27.1611 42.2757 26.8213 42.1164 26.5528 41.8621C26.2676 41.5921 26.0342 41.1853 25.8607 40.6658C25.5111 39.6194 25.4712 38.3178 25.5529 37.4355C25.5911 37.0231 25.2877 36.6577 24.8752 36.6195C24.4628 36.5814 24.0975 36.8848 24.0593 37.2972C23.9663 38.3013 23.9998 39.8295 24.4379 41.1411C24.6583 41.8007 24.9974 42.455 25.5215 42.9513C25.9485 43.3556 26.4787 43.6353 27.1094 43.7352C27.999 45.984 29.4889 49.67 31.1193 53.6798C30.9653 53.8172 30.8683 54.0171 30.8683 54.2397V65.2441H32.3683V56.7479C33.5695 59.6951 34.7834 62.6649 35.8395 65.2441H37.4605Z" fill="white"/>
</g>
<rect x="-23.5" y="-22.9131" width="230" height="140" rx="7.5" stroke="#E3E8EF"/>
</g>
<rect x="-737.5" y="-886.5" width="1367" height="1835" stroke="#E9E9E9"/>
</g>
<path d="M-919 -1055H5207V-1057H-919V-1055ZM5208 -1054V1047H5210V-1054H5208ZM5207 1048H-919V1050H5207V1048ZM-920 1047V-1054H-922V1047H-920ZM-919 1048C-919.552 1048 -920 1047.55 -920 1047H-922C-922 1048.66 -920.657 1050 -919 1050V1048ZM5208 1047C5208 1047.55 5207.55 1048 5207 1048V1050C5208.66 1050 5210 1048.66 5210 1047H5208ZM5207 -1055C5207.55 -1055 5208 -1054.55 5208 -1054H5210C5210 -1055.66 5208.66 -1057 5207 -1057V-1055ZM-919 -1057C-920.657 -1057 -922 -1055.66 -922 -1054H-920C-920 -1054.55 -919.552 -1055 -919 -1055V-1057Z" fill="white" fill-opacity="0.1"/>
<path d="M-1163 -10420H12523V-10422H-1163V-10420ZM12524 -10419V5327H12526V-10419H12524ZM12523 5328H-1163V5330H12523V5328ZM-1164 5327V-10419H-1166V5327H-1164ZM-1163 5328C-1163.55 5328 -1164 5327.55 -1164 5327H-1166C-1166 5328.66 -1164.66 5330 -1163 5330V5328ZM12524 5327C12524 5327.55 12523.6 5328 12523 5328V5330C12524.7 5330 12526 5328.66 12526 5327H12524ZM12523 -10420C12523.6 -10420 12524 -10419.6 12524 -10419H12526C12526 -10420.7 12524.7 -10422 12523 -10422V-10420ZM-1163 -10422C-1164.66 -10422 -1166 -10420.7 -1166 -10419H-1164C-1164 -10419.6 -1163.55 -10420 -1163 -10420V-10422Z" fill="white" fill-opacity="0.1"/>
<defs>
<filter id="filter0_d_763_5496" x="-758" y="-907" width="1408" height="1876" filterUnits="userSpaceOnUse" color-interpolation-filters="sRGB">
<feFlood flood-opacity="0" result="BackgroundImageFix"/>
<feColorMatrix in="SourceAlpha" type="matrix" values="0 0 0 0 0 0 0 0 0 0 0 0 0 0 0 0 0 0 127 0" result="hardAlpha"/>
<feOffset/>
<feGaussianBlur stdDeviation="10"/>
<feColorMatrix type="matrix" values="0 0 0 0 0 0 0 0 0 0 0 0 0 0 0 0 0 0 0.1 0"/>
<feBlend mode="normal" in2="BackgroundImageFix" result="effect1_dropShadow_763_5496"/>
<feBlend mode="normal" in="SourceGraphic" in2="effect1_dropShadow_763_5496" result="shape"/>
</filter>
<clipPath id="clip0_763_5496">
<rect x="-737" y="-886" width="1366" height="1834" fill="white"/>
</clipPath>
</defs>
</svg>
