<svg width="24" height="24" viewBox="0 0 24 24" fill="none" xmlns="http://www.w3.org/2000/svg">
<mask id="path-1-outside-1_411_13000" maskUnits="userSpaceOnUse" x="0.0571136" y="1.84009" width="24" height="21" fill="black">
<rect fill="white" x="0.0571136" y="1.84009" width="24" height="21"/>
<path d="M15.72 2.34009C14.748 2.55609 14.364 2.72409 14.46 2.88009C14.508 2.96409 14.796 2.97609 15.228 2.92809C16.62 2.77209 17.892 3.28809 18.36 4.20009L18.6 4.68009H17.964C17.508 4.68009 17.22 4.75209 17.028 4.90809C16.872 5.02809 16.56 5.22009 16.344 5.32809C16.128 5.43609 15.984 5.58009 16.02 5.65209C16.068 5.71209 16.38 5.90409 16.716 6.07209C17.064 6.25209 17.364 6.40809 17.388 6.43209C17.496 6.52809 16.5 7.46409 16.08 7.68009C15.84 7.80009 15.144 7.99209 14.52 8.10009C13.896 8.19609 12.924 8.40009 12.36 8.54409C11.064 8.88009 10.14 8.85609 8.71201 8.47209C8.10001 8.30409 7.29601 8.16009 6.93601 8.16009C6.13201 8.16009 5.02801 8.43609 4.36801 8.80809C3.90001 9.07209 3.84001 9.07209 3.49201 8.91609C2.90401 8.62809 2.29201 7.87209 2.20801 7.32009C2.16001 7.04409 2.06401 6.84009 1.96801 6.84009C1.74001 6.84009 1.52401 7.75209 1.60801 8.38809C1.68001 8.89209 1.66801 8.91609 1.51201 8.71209C1.41601 8.59209 1.24801 8.52009 1.15201 8.55609C0.864005 8.66409 1.26001 9.51609 1.95601 10.2721C2.46001 10.8241 2.54401 11.0041 2.65201 11.6641C2.79601 12.6121 3.16801 13.7761 3.56401 14.5561C3.93601 15.3121 3.88801 15.9001 3.39601 16.5121C2.68801 17.4121 2.68801 17.3881 2.92801 18.5641C3.03601 19.1401 3.16801 19.9921 3.21601 20.4601L3.30001 21.3001L4.17601 21.3361C5.22001 21.3721 5.35201 21.2281 4.88401 20.5441C3.91201 19.1401 4.16401 17.7961 5.70001 16.3201L6.50401 15.5401L6.26401 16.0321C6.12001 16.3081 5.88001 16.6801 5.72401 16.8721C5.19601 17.4961 5.12401 17.7241 5.29201 18.2161C5.37601 18.4561 5.52001 19.2481 5.62801 19.9801L5.83201 21.3001L6.61201 21.3361C7.72801 21.3841 7.84801 21.2041 7.24801 20.3881C6.43201 19.2721 6.61201 18.0361 7.78801 16.7641L8.28001 16.2241L10.056 16.1641C11.148 16.1281 12.036 16.0441 12.396 15.9241L12.96 15.7441V16.1641C12.96 16.4041 13.02 17.0761 13.104 17.6641C13.212 18.4801 13.212 19.0441 13.104 20.1121C12.984 21.1681 12.984 21.5521 13.092 21.6721C13.2 21.8041 13.596 21.8401 14.7 21.8401C15.516 21.8401 16.26 21.8041 16.368 21.7681C16.74 21.6241 16.464 20.7241 15.948 20.3521C15.72 20.1961 15.696 20.1001 15.756 19.5601C15.792 19.2241 16.02 18.3721 16.248 17.6641C16.476 16.9561 16.716 16.0561 16.788 15.6601C16.86 15.2641 17.052 14.7001 17.22 14.4001C17.976 13.0441 18.492 11.8321 18.888 10.5001C19.236 9.36009 19.404 8.98809 19.68 8.72409C20.124 8.32809 20.64 8.28009 20.64 8.64009C20.64 9.20409 21.684 10.7641 21.912 10.5361C21.948 10.5001 21.984 10.0441 21.996 9.54009C22.02 8.77209 22.056 8.58009 22.26 8.42409C22.632 8.12409 22.92 7.65609 22.92 7.36809C22.92 7.22409 22.74 6.96009 22.512 6.76809C22.296 6.57609 21.876 6.07209 21.588 5.64009C21.3 5.22009 20.88 4.74009 20.652 4.59609C20.424 4.44009 20.148 4.11609 20.04 3.86409C19.776 3.30009 19.152 2.71209 18.552 2.46009C17.904 2.18409 16.644 2.13609 15.72 2.34009ZM18.6 2.91609C19.068 3.15609 19.932 4.11609 19.788 4.24809C19.764 4.27209 19.536 4.32009 19.296 4.36809C18.948 4.42809 18.84 4.41609 18.84 4.28409C18.84 3.97209 17.952 3.08409 17.34 2.79609L16.74 2.50809L17.4 2.58009C17.76 2.61609 18.3 2.77209 18.6 2.91609ZM20.424 4.88409C20.952 5.19609 21.876 6.66009 21.804 7.06809C21.768 7.23609 21.816 7.54809 21.9 7.76409C22.032 8.08809 22.032 8.17209 21.9 8.28009C21.804 8.36409 21.696 8.61609 21.648 8.86809C21.516 9.62409 21.396 9.70809 21.192 9.21609C21.084 8.96409 21 8.60409 21 8.40009C21 8.05209 20.976 8.04009 20.496 8.04009C19.932 8.04009 19.296 8.36409 19.092 8.74809C19.02 8.88009 18.768 9.61209 18.528 10.3921C17.784 12.8761 16.704 14.7241 15.9 14.9281C15.696 14.9761 15.588 15.1081 15.54 15.3361C15.372 16.1881 14.952 17.5081 14.652 18.1681C13.968 19.6201 13.896 20.2561 14.34 20.7841C14.82 21.3481 14.748 21.5041 14.016 21.4561L13.38 21.4201L13.44 20.7001C13.524 19.6441 13.5 17.7481 13.368 16.4401C13.248 15.1681 13.32 15.2281 12.24 15.5401C10.752 15.9721 8.52001 15.9001 6.97201 15.3601L6.32401 15.1201L5.42401 16.0561C4.32001 17.1961 3.96001 17.9041 3.96001 18.9121C3.96001 19.5001 4.03201 19.7881 4.30801 20.3281L4.66801 21.0001H4.15201H3.63601L3.55201 20.1601C3.51601 19.6921 3.39601 18.9121 3.28801 18.4321L3.08401 17.5321L3.40801 17.1481C3.88801 16.5841 4.20001 15.9001 4.20001 15.4441C4.20001 15.2161 4.02001 14.6401 3.79201 14.1481C3.32401 13.1281 3.16801 12.6121 3.01201 11.4961C2.90401 10.7641 2.85601 10.6561 2.35201 10.1641C1.72801 9.57609 1.65601 9.37209 2.10001 9.45609C2.43601 9.51609 2.48401 9.36009 2.23201 8.96409C2.13601 8.82009 2.02801 8.50809 1.98001 8.28009L1.89601 7.86009L2.19601 8.29209C2.49601 8.71209 3.21601 9.26409 3.67201 9.40809C3.82801 9.45609 4.11601 9.38409 4.45201 9.19209C5.11201 8.82009 6.24001 8.52009 6.96001 8.52009C7.26001 8.52009 7.95601 8.65209 8.53201 8.80809C10.236 9.27609 10.812 9.30009 12.276 8.95209C12.972 8.78409 14.052 8.55609 14.664 8.44809C15.276 8.34009 15.972 8.17209 16.2 8.06409C16.656 7.84809 17.64 6.92409 17.868 6.50409C18 6.26409 17.964 6.21609 17.328 5.94009L16.644 5.64009L17.052 5.32809C17.4 5.06409 17.556 5.02809 18.048 5.07609C18.492 5.11209 18.744 5.07609 19.008 4.90809C19.476 4.62009 19.956 4.62009 20.424 4.88409ZM22.56 7.32009C22.56 7.38009 22.524 7.50009 22.488 7.60809C22.38 7.87209 22.2 7.72809 22.2 7.38009C22.2 7.16409 22.248 7.10409 22.38 7.15209C22.476 7.20009 22.56 7.27209 22.56 7.32009ZM16.308 16.0321C16.236 16.4881 16.008 17.2921 15.816 17.8201C15.624 18.3481 15.432 19.1161 15.396 19.5241C15.324 20.2561 15.336 20.2801 15.768 20.7601C16.008 21.0241 16.2 21.3001 16.2 21.3601C16.2 21.4321 15.96 21.4801 15.66 21.4801C15.144 21.4801 15.132 21.4681 15.036 21.0241C14.988 20.7841 14.952 20.0881 14.952 19.5001C14.952 18.5881 15.012 18.2521 15.336 17.3401C15.54 16.7401 15.78 16.0321 15.84 15.7561C15.924 15.4441 16.044 15.2401 16.176 15.2161C16.284 15.1801 16.392 15.1801 16.416 15.1921C16.44 15.2041 16.392 15.5881 16.308 16.0321ZM7.78801 16.0321C7.81201 16.0561 7.63201 16.3081 7.39201 16.5961C6.27601 17.9641 6.06001 19.3921 6.82801 20.4601L7.21201 21.0001H6.68401H6.15601L6.07201 20.3641C6.02401 20.0281 5.90401 19.2721 5.79601 18.6961L5.60401 17.6641L6.02401 17.0761C6.26401 16.7641 6.54001 16.3321 6.64801 16.1161C6.82801 15.7561 6.85201 15.7441 7.28401 15.8761C7.53601 15.9481 7.76401 16.0201 7.78801 16.0321ZM14.484 20.2441C14.448 20.3641 14.424 20.2921 14.424 20.1001C14.424 19.8961 14.448 19.8121 14.484 19.8841C14.508 19.9681 14.508 20.1361 14.484 20.2441Z"/>
</mask>
<path d="M15.72 2.34009C14.748 2.55609 14.364 2.72409 14.46 2.88009C14.508 2.96409 14.796 2.97609 15.228 2.92809C16.62 2.77209 17.892 3.28809 18.36 4.20009L18.6 4.68009H17.964C17.508 4.68009 17.22 4.75209 17.028 4.90809C16.872 5.02809 16.56 5.22009 16.344 5.32809C16.128 5.43609 15.984 5.58009 16.02 5.65209C16.068 5.71209 16.38 5.90409 16.716 6.07209C17.064 6.25209 17.364 6.40809 17.388 6.43209C17.496 6.52809 16.5 7.46409 16.08 7.68009C15.84 7.80009 15.144 7.99209 14.52 8.10009C13.896 8.19609 12.924 8.40009 12.36 8.54409C11.064 8.88009 10.14 8.85609 8.71201 8.47209C8.10001 8.30409 7.29601 8.16009 6.93601 8.16009C6.13201 8.16009 5.02801 8.43609 4.36801 8.80809C3.90001 9.07209 3.84001 9.07209 3.49201 8.91609C2.90401 8.62809 2.29201 7.87209 2.20801 7.32009C2.16001 7.04409 2.06401 6.84009 1.96801 6.84009C1.74001 6.84009 1.52401 7.75209 1.60801 8.38809C1.68001 8.89209 1.66801 8.91609 1.51201 8.71209C1.41601 8.59209 1.24801 8.52009 1.15201 8.55609C0.864005 8.66409 1.26001 9.51609 1.95601 10.2721C2.46001 10.8241 2.54401 11.0041 2.65201 11.6641C2.79601 12.6121 3.16801 13.7761 3.56401 14.5561C3.93601 15.3121 3.88801 15.9001 3.39601 16.5121C2.68801 17.4121 2.68801 17.3881 2.92801 18.5641C3.03601 19.1401 3.16801 19.9921 3.21601 20.4601L3.30001 21.3001L4.17601 21.3361C5.22001 21.3721 5.35201 21.2281 4.88401 20.5441C3.91201 19.1401 4.16401 17.7961 5.70001 16.3201L6.50401 15.5401L6.26401 16.0321C6.12001 16.3081 5.88001 16.6801 5.72401 16.8721C5.19601 17.4961 5.12401 17.7241 5.29201 18.2161C5.37601 18.4561 5.52001 19.2481 5.62801 19.9801L5.83201 21.3001L6.61201 21.3361C7.72801 21.3841 7.84801 21.2041 7.24801 20.3881C6.43201 19.2721 6.61201 18.0361 7.78801 16.7641L8.28001 16.2241L10.056 16.1641C11.148 16.1281 12.036 16.0441 12.396 15.9241L12.96 15.7441V16.1641C12.96 16.4041 13.02 17.0761 13.104 17.6641C13.212 18.4801 13.212 19.0441 13.104 20.1121C12.984 21.1681 12.984 21.5521 13.092 21.6721C13.2 21.8041 13.596 21.8401 14.7 21.8401C15.516 21.8401 16.26 21.8041 16.368 21.7681C16.74 21.6241 16.464 20.7241 15.948 20.3521C15.72 20.1961 15.696 20.1001 15.756 19.5601C15.792 19.2241 16.02 18.3721 16.248 17.6641C16.476 16.9561 16.716 16.0561 16.788 15.6601C16.86 15.2641 17.052 14.7001 17.22 14.4001C17.976 13.0441 18.492 11.8321 18.888 10.5001C19.236 9.36009 19.404 8.98809 19.68 8.72409C20.124 8.32809 20.64 8.28009 20.64 8.64009C20.64 9.20409 21.684 10.7641 21.912 10.5361C21.948 10.5001 21.984 10.0441 21.996 9.54009C22.02 8.77209 22.056 8.58009 22.26 8.42409C22.632 8.12409 22.92 7.65609 22.92 7.36809C22.92 7.22409 22.74 6.96009 22.512 6.76809C22.296 6.57609 21.876 6.07209 21.588 5.64009C21.3 5.22009 20.88 4.74009 20.652 4.59609C20.424 4.44009 20.148 4.11609 20.04 3.86409C19.776 3.30009 19.152 2.71209 18.552 2.46009C17.904 2.18409 16.644 2.13609 15.72 2.34009ZM18.6 2.91609C19.068 3.15609 19.932 4.11609 19.788 4.24809C19.764 4.27209 19.536 4.32009 19.296 4.36809C18.948 4.42809 18.84 4.41609 18.84 4.28409C18.84 3.97209 17.952 3.08409 17.34 2.79609L16.74 2.50809L17.4 2.58009C17.76 2.61609 18.3 2.77209 18.6 2.91609ZM20.424 4.88409C20.952 5.19609 21.876 6.66009 21.804 7.06809C21.768 7.23609 21.816 7.54809 21.9 7.76409C22.032 8.08809 22.032 8.17209 21.9 8.28009C21.804 8.36409 21.696 8.61609 21.648 8.86809C21.516 9.62409 21.396 9.70809 21.192 9.21609C21.084 8.96409 21 8.60409 21 8.40009C21 8.05209 20.976 8.04009 20.496 8.04009C19.932 8.04009 19.296 8.36409 19.092 8.74809C19.02 8.88009 18.768 9.61209 18.528 10.3921C17.784 12.8761 16.704 14.7241 15.9 14.9281C15.696 14.9761 15.588 15.1081 15.54 15.3361C15.372 16.1881 14.952 17.5081 14.652 18.1681C13.968 19.6201 13.896 20.2561 14.34 20.7841C14.82 21.3481 14.748 21.5041 14.016 21.4561L13.38 21.4201L13.44 20.7001C13.524 19.6441 13.5 17.7481 13.368 16.4401C13.248 15.1681 13.32 15.2281 12.24 15.5401C10.752 15.9721 8.52001 15.9001 6.97201 15.3601L6.32401 15.1201L5.42401 16.0561C4.32001 17.1961 3.96001 17.9041 3.96001 18.9121C3.96001 19.5001 4.03201 19.7881 4.30801 20.3281L4.66801 21.0001H4.15201H3.63601L3.55201 20.1601C3.51601 19.6921 3.39601 18.9121 3.28801 18.4321L3.08401 17.5321L3.40801 17.1481C3.88801 16.5841 4.20001 15.9001 4.20001 15.4441C4.20001 15.2161 4.02001 14.6401 3.79201 14.1481C3.32401 13.1281 3.16801 12.6121 3.01201 11.4961C2.90401 10.7641 2.85601 10.6561 2.35201 10.1641C1.72801 9.57609 1.65601 9.37209 2.10001 9.45609C2.43601 9.51609 2.48401 9.36009 2.23201 8.96409C2.13601 8.82009 2.02801 8.50809 1.98001 8.28009L1.89601 7.86009L2.19601 8.29209C2.49601 8.71209 3.21601 9.26409 3.67201 9.40809C3.82801 9.45609 4.11601 9.38409 4.45201 9.19209C5.11201 8.82009 6.24001 8.52009 6.96001 8.52009C7.26001 8.52009 7.95601 8.65209 8.53201 8.80809C10.236 9.27609 10.812 9.30009 12.276 8.95209C12.972 8.78409 14.052 8.55609 14.664 8.44809C15.276 8.34009 15.972 8.17209 16.2 8.06409C16.656 7.84809 17.64 6.92409 17.868 6.50409C18 6.26409 17.964 6.21609 17.328 5.94009L16.644 5.64009L17.052 5.32809C17.4 5.06409 17.556 5.02809 18.048 5.07609C18.492 5.11209 18.744 5.07609 19.008 4.90809C19.476 4.62009 19.956 4.62009 20.424 4.88409ZM22.56 7.32009C22.56 7.38009 22.524 7.50009 22.488 7.60809C22.38 7.87209 22.2 7.72809 22.2 7.38009C22.2 7.16409 22.248 7.10409 22.38 7.15209C22.476 7.20009 22.56 7.27209 22.56 7.32009ZM16.308 16.0321C16.236 16.4881 16.008 17.2921 15.816 17.8201C15.624 18.3481 15.432 19.1161 15.396 19.5241C15.324 20.2561 15.336 20.2801 15.768 20.7601C16.008 21.0241 16.2 21.3001 16.2 21.3601C16.2 21.4321 15.96 21.4801 15.66 21.4801C15.144 21.4801 15.132 21.4681 15.036 21.0241C14.988 20.7841 14.952 20.0881 14.952 19.5001C14.952 18.5881 15.012 18.2521 15.336 17.3401C15.54 16.7401 15.78 16.0321 15.84 15.7561C15.924 15.4441 16.044 15.2401 16.176 15.2161C16.284 15.1801 16.392 15.1801 16.416 15.1921C16.44 15.2041 16.392 15.5881 16.308 16.0321ZM7.78801 16.0321C7.81201 16.0561 7.63201 16.3081 7.39201 16.5961C6.27601 17.9641 6.06001 19.3921 6.82801 20.4601L7.21201 21.0001H6.68401H6.15601L6.07201 20.3641C6.02401 20.0281 5.90401 19.2721 5.79601 18.6961L5.60401 17.6641L6.02401 17.0761C6.26401 16.7641 6.54001 16.3321 6.64801 16.1161C6.82801 15.7561 6.85201 15.7441 7.28401 15.8761C7.53601 15.9481 7.76401 16.0201 7.78801 16.0321ZM14.484 20.2441C14.448 20.3641 14.424 20.2921 14.424 20.1001C14.424 19.8961 14.448 19.8121 14.484 19.8841C14.508 19.9681 14.508 20.1361 14.484 20.2441Z" fill="black"/>
<path d="M15.72 2.34009C14.748 2.55609 14.364 2.72409 14.46 2.88009C14.508 2.96409 14.796 2.97609 15.228 2.92809C16.62 2.77209 17.892 3.28809 18.36 4.20009L18.6 4.68009H17.964C17.508 4.68009 17.22 4.75209 17.028 4.90809C16.872 5.02809 16.56 5.22009 16.344 5.32809C16.128 5.43609 15.984 5.58009 16.02 5.65209C16.068 5.71209 16.38 5.90409 16.716 6.07209C17.064 6.25209 17.364 6.40809 17.388 6.43209C17.496 6.52809 16.5 7.46409 16.08 7.68009C15.84 7.80009 15.144 7.99209 14.52 8.10009C13.896 8.19609 12.924 8.40009 12.36 8.54409C11.064 8.88009 10.14 8.85609 8.71201 8.47209C8.10001 8.30409 7.29601 8.16009 6.93601 8.16009C6.13201 8.16009 5.02801 8.43609 4.36801 8.80809C3.90001 9.07209 3.84001 9.07209 3.49201 8.91609C2.90401 8.62809 2.29201 7.87209 2.20801 7.32009C2.16001 7.04409 2.06401 6.84009 1.96801 6.84009C1.74001 6.84009 1.52401 7.75209 1.60801 8.38809C1.68001 8.89209 1.66801 8.91609 1.51201 8.71209C1.41601 8.59209 1.24801 8.52009 1.15201 8.55609C0.864005 8.66409 1.26001 9.51609 1.95601 10.2721C2.46001 10.8241 2.54401 11.0041 2.65201 11.6641C2.79601 12.6121 3.16801 13.7761 3.56401 14.5561C3.93601 15.3121 3.88801 15.9001 3.39601 16.5121C2.68801 17.4121 2.68801 17.3881 2.92801 18.5641C3.03601 19.1401 3.16801 19.9921 3.21601 20.4601L3.30001 21.3001L4.17601 21.3361C5.22001 21.3721 5.35201 21.2281 4.88401 20.5441C3.91201 19.1401 4.16401 17.7961 5.70001 16.3201L6.50401 15.5401L6.26401 16.0321C6.12001 16.3081 5.88001 16.6801 5.72401 16.8721C5.19601 17.4961 5.12401 17.7241 5.29201 18.2161C5.37601 18.4561 5.52001 19.2481 5.62801 19.9801L5.83201 21.3001L6.61201 21.3361C7.72801 21.3841 7.84801 21.2041 7.24801 20.3881C6.43201 19.2721 6.61201 18.0361 7.78801 16.7641L8.28001 16.2241L10.056 16.1641C11.148 16.1281 12.036 16.0441 12.396 15.9241L12.96 15.7441V16.1641C12.96 16.4041 13.02 17.0761 13.104 17.6641C13.212 18.4801 13.212 19.0441 13.104 20.1121C12.984 21.1681 12.984 21.5521 13.092 21.6721C13.2 21.8041 13.596 21.8401 14.7 21.8401C15.516 21.8401 16.26 21.8041 16.368 21.7681C16.74 21.6241 16.464 20.7241 15.948 20.3521C15.72 20.1961 15.696 20.1001 15.756 19.5601C15.792 19.2241 16.02 18.3721 16.248 17.6641C16.476 16.9561 16.716 16.0561 16.788 15.6601C16.86 15.2641 17.052 14.7001 17.22 14.4001C17.976 13.0441 18.492 11.8321 18.888 10.5001C19.236 9.36009 19.404 8.98809 19.68 8.72409C20.124 8.32809 20.64 8.28009 20.64 8.64009C20.64 9.20409 21.684 10.7641 21.912 10.5361C21.948 10.5001 21.984 10.0441 21.996 9.54009C22.02 8.77209 22.056 8.58009 22.26 8.42409C22.632 8.12409 22.92 7.65609 22.92 7.36809C22.92 7.22409 22.74 6.96009 22.512 6.76809C22.296 6.57609 21.876 6.07209 21.588 5.64009C21.3 5.22009 20.88 4.74009 20.652 4.59609C20.424 4.44009 20.148 4.11609 20.04 3.86409C19.776 3.30009 19.152 2.71209 18.552 2.46009C17.904 2.18409 16.644 2.13609 15.72 2.34009ZM18.6 2.91609C19.068 3.15609 19.932 4.11609 19.788 4.24809C19.764 4.27209 19.536 4.32009 19.296 4.36809C18.948 4.42809 18.84 4.41609 18.84 4.28409C18.84 3.97209 17.952 3.08409 17.34 2.79609L16.74 2.50809L17.4 2.58009C17.76 2.61609 18.3 2.77209 18.6 2.91609ZM20.424 4.88409C20.952 5.19609 21.876 6.66009 21.804 7.06809C21.768 7.23609 21.816 7.54809 21.9 7.76409C22.032 8.08809 22.032 8.17209 21.9 8.28009C21.804 8.36409 21.696 8.61609 21.648 8.86809C21.516 9.62409 21.396 9.70809 21.192 9.21609C21.084 8.96409 21 8.60409 21 8.40009C21 8.05209 20.976 8.04009 20.496 8.04009C19.932 8.04009 19.296 8.36409 19.092 8.74809C19.02 8.88009 18.768 9.61209 18.528 10.3921C17.784 12.8761 16.704 14.7241 15.9 14.9281C15.696 14.9761 15.588 15.1081 15.54 15.3361C15.372 16.1881 14.952 17.5081 14.652 18.1681C13.968 19.6201 13.896 20.2561 14.34 20.7841C14.82 21.3481 14.748 21.5041 14.016 21.4561L13.38 21.4201L13.44 20.7001C13.524 19.6441 13.5 17.7481 13.368 16.4401C13.248 15.1681 13.32 15.2281 12.24 15.5401C10.752 15.9721 8.52001 15.9001 6.97201 15.3601L6.32401 15.1201L5.42401 16.0561C4.32001 17.1961 3.96001 17.9041 3.96001 18.9121C3.96001 19.5001 4.03201 19.7881 4.30801 20.3281L4.66801 21.0001H4.15201H3.63601L3.55201 20.1601C3.51601 19.6921 3.39601 18.9121 3.28801 18.4321L3.08401 17.5321L3.40801 17.1481C3.88801 16.5841 4.20001 15.9001 4.20001 15.4441C4.20001 15.2161 4.02001 14.6401 3.79201 14.1481C3.32401 13.1281 3.16801 12.6121 3.01201 11.4961C2.90401 10.7641 2.85601 10.6561 2.35201 10.1641C1.72801 9.57609 1.65601 9.37209 2.10001 9.45609C2.43601 9.51609 2.48401 9.36009 2.23201 8.96409C2.13601 8.82009 2.02801 8.50809 1.98001 8.28009L1.89601 7.86009L2.19601 8.29209C2.49601 8.71209 3.21601 9.26409 3.67201 9.40809C3.82801 9.45609 4.11601 9.38409 4.45201 9.19209C5.11201 8.82009 6.24001 8.52009 6.96001 8.52009C7.26001 8.52009 7.95601 8.65209 8.53201 8.80809C10.236 9.27609 10.812 9.30009 12.276 8.95209C12.972 8.78409 14.052 8.55609 14.664 8.44809C15.276 8.34009 15.972 8.17209 16.2 8.06409C16.656 7.84809 17.64 6.92409 17.868 6.50409C18 6.26409 17.964 6.21609 17.328 5.94009L16.644 5.64009L17.052 5.32809C17.4 5.06409 17.556 5.02809 18.048 5.07609C18.492 5.11209 18.744 5.07609 19.008 4.90809C19.476 4.62009 19.956 4.62009 20.424 4.88409ZM22.56 7.32009C22.56 7.38009 22.524 7.50009 22.488 7.60809C22.38 7.87209 22.2 7.72809 22.2 7.38009C22.2 7.16409 22.248 7.10409 22.38 7.15209C22.476 7.20009 22.56 7.27209 22.56 7.32009ZM16.308 16.0321C16.236 16.4881 16.008 17.2921 15.816 17.8201C15.624 18.3481 15.432 19.1161 15.396 19.5241C15.324 20.2561 15.336 20.2801 15.768 20.7601C16.008 21.0241 16.2 21.3001 16.2 21.3601C16.2 21.4321 15.96 21.4801 15.66 21.4801C15.144 21.4801 15.132 21.4681 15.036 21.0241C14.988 20.7841 14.952 20.0881 14.952 19.5001C14.952 18.5881 15.012 18.2521 15.336 17.3401C15.54 16.7401 15.78 16.0321 15.84 15.7561C15.924 15.4441 16.044 15.2401 16.176 15.2161C16.284 15.1801 16.392 15.1801 16.416 15.1921C16.44 15.2041 16.392 15.5881 16.308 16.0321ZM7.78801 16.0321C7.81201 16.0561 7.63201 16.3081 7.39201 16.5961C6.27601 17.9641 6.06001 19.3921 6.82801 20.4601L7.21201 21.0001H6.68401H6.15601L6.07201 20.3641C6.02401 20.0281 5.90401 19.2721 5.79601 18.6961L5.60401 17.6641L6.02401 17.0761C6.26401 16.7641 6.54001 16.3321 6.64801 16.1161C6.82801 15.7561 6.85201 15.7441 7.28401 15.8761C7.53601 15.9481 7.76401 16.0201 7.78801 16.0321ZM14.484 20.2441C14.448 20.3641 14.424 20.2921 14.424 20.1001C14.424 19.8961 14.448 19.8121 14.484 19.8841C14.508 19.9681 14.508 20.1361 14.484 20.2441Z" stroke="black" stroke-width="0.6" mask="url(#path-1-outside-1_411_13000)"/>
<path d="M19.9099 6.25026C19.846 6.18631 19.8113 6.10006 19.7988 6.0185C19.7862 5.9371 19.7934 5.84599 19.8293 5.76304C19.9094 5.55813 20.1091 5.49171 20.2772 5.52267C20.4437 5.55334 20.6066 5.68158 20.6435 5.88867C20.6838 6.09548 20.5501 6.25418 20.4062 6.32301C20.2612 6.39238 20.0562 6.39649 19.9099 6.25026Z" fill="black" stroke="black" stroke-width="0.3"/>
</svg>
