<svg width="24" height="24" viewBox="0 0 24 24" fill="none" xmlns="http://www.w3.org/2000/svg">
<g clip-path="url(#clip0_411_12993)">
<path d="M8.67042 10.6675L8.75687 10.3523C9.0269 9.36396 9.47603 8.51234 10.0143 7.90182C10.5513 7.29276 11.1861 6.91433 11.8267 6.89732L11.827 6.89731C12.0655 6.89176 12.2682 6.9594 12.3369 7.13234C12.4039 7.30067 12.3132 7.49688 12.1482 7.67311C11.8447 8.00728 11.5406 8.67057 11.2963 9.53089C11.1653 10.008 11.0487 10.7744 10.9795 11.4962C10.945 11.8564 10.9226 12.2036 10.916 12.4957C10.9093 12.7896 10.919 13.0199 10.9457 13.1521L10.9651 13.236L11.0846 12.9047L11.0847 12.9044C11.2486 12.4551 11.4129 11.8986 11.5363 11.4012C11.6606 10.8997 11.74 10.4712 11.74 10.272C11.74 10.0334 11.8112 9.83145 11.9697 9.75736C12.1382 9.67855 12.3207 9.7782 12.4618 9.95317C12.538 10.0476 12.6191 10.2063 12.6996 10.3987C12.7812 10.5938 12.8656 10.8323 12.9462 11.0931C13.1074 11.6144 13.2554 12.2301 13.3363 12.7746M8.67042 10.6675L15.8542 11.4073M8.67042 10.6675L8.58688 10.3727L8.5868 10.3724C8.08303 8.61458 7.27606 7.10078 6.36015 6.28288C6.01861 5.97446 5.5305 5.69437 5.07771 5.51C4.85083 5.41761 4.62968 5.34797 4.43716 5.31107C4.24954 5.27511 4.07308 5.26694 3.945 5.31378M8.67042 10.6675L22.1653 11.3813L22.2642 11.3661C22.2642 11.3662 22.2642 11.3663 22.2642 11.3664C22.2763 11.445 22.2747 11.5223 22.2557 11.585C22.2395 11.6383 22.1966 11.717 22.1074 11.7258C22.1067 11.7261 22.106 11.7265 22.1053 11.7269C22.095 11.7324 22.0797 11.7418 22.059 11.7559C22.018 11.7838 21.963 11.8254 21.8971 11.878C21.766 11.983 21.5971 12.1281 21.4223 12.287C20.1113 13.494 19.6238 15.5225 20.1503 17.5967L20.1504 17.597L20.2594 18.0333H22.0373C22.9607 18.0333 23.5035 18.0461 23.781 18.1019C23.8514 18.1161 23.912 18.1342 23.9596 18.1596C24.0076 18.1851 24.0525 18.2235 24.0718 18.2819C24.091 18.34 24.0774 18.3958 24.0573 18.4401C24.0372 18.4843 24.0056 18.5281 23.9702 18.5706L23.9702 18.5706L23.969 18.572C23.9513 18.5924 23.9298 18.6015 23.9224 18.6046C23.9117 18.609 23.9007 18.6121 23.8911 18.6145C23.8717 18.6193 23.8479 18.6234 23.8214 18.627C23.7679 18.6343 23.6939 18.6412 23.602 18.6476C23.4177 18.6606 23.1546 18.6726 22.8247 18.6836C22.1646 18.7056 21.233 18.7239 20.121 18.7386C17.8967 18.7679 14.9483 18.7826 12 18.7826C9.05175 18.7826 6.10328 18.7679 3.87902 18.7386C2.76699 18.7239 1.83544 18.7056 1.17529 18.6836C0.845394 18.6726 0.582267 18.6606 0.39796 18.6476C0.306072 18.6412 0.23207 18.6343 0.17859 18.627C0.152141 18.6234 0.128282 18.6193 0.108874 18.6145C0.0993042 18.6121 0.0883181 18.609 0.0776252 18.6046C0.0702258 18.6015 0.0486662 18.5924 0.0309876 18.572L0.0309446 18.572L0.0288286 18.5694C-0.00624888 18.5259 -0.0382032 18.4805 -0.0576417 18.4348C-0.0773985 18.3883 -0.0892422 18.3292 -0.0635623 18.2694C-0.0387158 18.2114 0.0117044 18.1756 0.063432 18.1521C0.115906 18.1283 0.183136 18.1109 0.263285 18.0974C0.580406 18.0436 1.2044 18.0333 2.29334 18.0333H4.39391L4.50084 17.659C4.57208 17.3834 4.60933 16.9328 4.608 16.4722C4.60668 16.0111 4.56672 15.5546 4.49007 15.2685L4.48998 15.2681C4.23967 14.319 3.53654 13.1818 2.62734 12.2407C2.38043 11.9938 2.15724 11.7491 1.99518 11.5546C1.91424 11.4575 1.84746 11.3716 1.80039 11.3035C1.77698 11.2696 1.75718 11.2382 1.74283 11.2111C1.73566 11.1975 1.72896 11.1833 1.72385 11.1692C1.71925 11.1564 1.71334 11.1369 1.71334 11.1146C1.71334 11.0625 1.72866 11.0056 1.77933 10.9621C1.82367 10.924 1.8831 10.9072 1.94436 10.8983C2.06764 10.8805 2.26555 10.887 2.567 10.9082L2.56739 10.9082C4.04848 11.0179 5.51419 12.0571 6.46462 13.6555L6.46464 13.6555C6.54057 13.7833 6.60292 13.8882 6.65398 13.9725C6.38373 12.08 6.03091 10.456 5.61677 9.16244C5.19691 7.85106 4.71704 6.88911 4.2039 6.32917C3.97892 6.08806 3.83016 5.88316 3.77349 5.7193C3.74479 5.6363 3.73504 5.55043 3.76592 5.47282C3.79803 5.3921 3.86531 5.34169 3.945 5.31378M13.3363 12.7746C13.3362 12.7745 13.3362 12.7745 13.3362 12.7744L13.2373 12.7893L13.3363 12.7746ZM13.3363 12.7746C13.365 12.9664 13.3905 13.1165 13.4141 13.2246M13.4141 13.2246C13.4292 13.1605 13.4455 13.0807 13.4629 12.9844C13.5065 12.7444 13.5569 12.4076 13.6182 11.9653M13.4141 13.2246C13.4234 13.2674 13.4324 13.3036 13.4412 13.3332C13.4488 13.3588 13.4555 13.3768 13.461 13.3887C13.4644 13.3961 13.4663 13.3989 13.4663 13.3989C13.4663 13.3989 13.4648 13.3968 13.4614 13.3938C13.4568 13.3897 13.4468 13.3821 13.4309 13.3783C13.4137 13.3741 13.3966 13.376 13.3825 13.3816C13.3689 13.3871 13.3614 13.3946 13.3588 13.3977M13.4141 13.2246C13.4103 13.2405 13.4067 13.2554 13.403 13.2694C13.384 13.343 13.3689 13.3812 13.3598 13.3962C13.3594 13.3968 13.3591 13.3973 13.3588 13.3977M13.6182 11.9653C13.7664 10.8539 13.7771 9.62511 13.6394 8.43862M13.6182 11.9653C13.6182 11.9651 13.6183 11.965 13.6183 11.9649L13.7173 11.9786M13.6182 11.9653C13.6182 11.9653 13.6182 11.9654 13.6182 11.9654L13.7173 11.9786M13.6394 8.43862C13.625 8.32289 13.636 8.21553 13.6941 8.14012C13.7593 8.05542 13.859 8.04014 13.9504 8.06116C14.0388 8.08149 14.1324 8.1367 14.2234 8.21386C14.3157 8.29219 14.4112 8.39822 14.5032 8.52915L14.5036 8.5297C14.7032 8.81812 14.9254 9.31087 15.1181 9.84889C15.3115 10.3888 15.4786 10.9838 15.5652 11.4814L15.5651 11.4811L15.4667 11.4986M13.6394 8.43862C13.6394 8.43846 13.6394 8.4383 13.6393 8.43815L13.7387 8.42662M13.6394 8.43862C13.6394 8.43875 13.6394 8.43889 13.6394 8.43902L13.7387 8.42662M15.4667 11.4986L15.5652 11.4815L15.6434 11.9209M15.4667 11.4986L15.5726 12.0936M15.4667 11.4986C15.296 10.5173 14.8053 9.14128 14.4213 8.58662C14.0693 8.08528 13.6853 7.99995 13.7387 8.42662M15.6434 11.9209L15.8541 11.4075C15.8541 11.4074 15.8541 11.4074 15.8542 11.4073M15.6434 11.9209L15.5726 12.0936M15.6434 11.9209L15.6762 12.1046L15.9467 11.4453L15.5726 12.0936M15.8542 11.4073C16.7854 9.12751 17.8852 7.65024 19.2072 6.96192L19.2073 6.96187M15.8542 11.4073L19.2073 6.96187M15.5726 12.0936L13.7173 11.9786M13.7387 8.42662C13.8773 9.62128 13.8667 10.8586 13.7173 11.9786M13.3588 13.3977C13.358 13.3987 13.3577 13.3992 13.3577 13.3992L13.3588 13.3977ZM3.945 5.31378C3.9447 5.3139 3.9444 5.31401 3.9441 5.31412L3.97867 5.40795L3.94582 5.3135C3.94555 5.31359 3.94527 5.31369 3.945 5.31378ZM19.2073 6.96187C19.4888 6.81567 19.7364 6.72652 19.9251 6.70588C20.0191 6.6956 20.1089 6.70107 20.1827 6.73456C20.2617 6.77046 20.3154 6.83576 20.3326 6.92366L19.2073 6.96187ZM6.22843 7.20144L6.22934 7.20247C6.7404 7.77611 7.41716 9.03197 7.73419 10.004C7.82878 10.2984 8.01987 11.041 8.1584 11.6484C8.2592 12.1099 8.33011 12.401 8.40029 12.5793C8.43552 12.6687 8.47412 12.7395 8.52348 12.79C8.57569 12.8434 8.6351 12.8694 8.70003 12.8776C8.75248 12.8866 8.81641 12.8896 8.87712 12.8554C8.93779 12.8212 8.97493 12.7612 9.00218 12.6931C9.05549 12.5598 9.09692 12.3249 9.15484 11.9405M6.22843 7.20144L9.056 11.9253M6.22843 7.20144C5.95672 6.88792 5.51778 6.52336 5.27504 6.39188L5.27504 6.39189L5.27393 6.39127L5.15332 6.32395M6.22843 7.20144L5.15332 6.32395M9.15484 11.9405C9.15485 11.9404 9.15487 11.9403 9.15489 11.9402L9.056 11.9253M9.15484 11.9405C9.15483 11.9405 9.15483 11.9406 9.15482 11.9406L9.056 11.9253M9.15484 11.9405C9.29761 11.0205 9.5539 10.1548 9.8723 9.45749C10.1921 8.75702 10.5685 8.23996 10.9437 7.99938M9.056 11.9253C9.344 10.0693 10.0907 8.42662 10.8907 7.91462M10.9437 7.99938C10.9434 7.99957 10.9431 7.99976 10.9428 7.99995L10.8907 7.91462M10.9437 7.99938C10.944 7.9992 10.9443 7.99902 10.9446 7.99885L10.8907 7.91462M10.9437 7.99938L10.8907 7.91462M11.1965 7.78489C11.1989 7.78792 11.2015 7.79069 11.2041 7.79322C11.22 7.80865 11.2381 7.81514 11.2488 7.81754C11.2527 7.81841 11.2563 7.81894 11.2595 7.81925C11.2587 7.8217 11.258 7.82418 11.2572 7.8267C11.2419 7.83315 11.2215 7.84279 11.1961 7.85572C11.1761 7.86591 11.154 7.87763 11.1304 7.89059C11.1315 7.88745 11.1326 7.88435 11.1337 7.88128C11.1527 7.82768 11.1658 7.7859 11.1728 7.7576C11.173 7.75681 11.1731 7.75604 11.1733 7.75529C11.1756 7.75418 11.1778 7.7531 11.18 7.75204C11.1811 7.75619 11.1828 7.76141 11.1855 7.76719C11.1881 7.77274 11.1917 7.7788 11.1965 7.78489ZM11.1965 7.78489C11.1987 7.78771 11.2012 7.79054 11.204 7.79333L11.1925 7.78185L11.1852 7.76734C11.1886 7.77399 11.1924 7.77981 11.1965 7.78489ZM5.15332 6.32395L5.19427 6.38982L5.19439 6.39002C6.20831 8.02955 6.90391 10.4571 7.34185 13.8538L7.34188 13.854C7.49109 15.0318 7.57166 15.7505 7.59322 16.1938C7.60397 16.4149 7.60045 16.5738 7.58133 16.6894C7.56206 16.806 7.52489 16.8912 7.45785 16.9499L7.45792 16.9499L7.45447 16.9527C7.40091 16.9956 7.3263 17.0464 7.23794 17.0348C7.1468 17.0227 7.08402 16.9511 7.03479 16.8709C6.98289 16.7864 6.92815 16.6622 6.86359 16.4933C6.79852 16.323 6.72132 16.1015 6.62531 15.8188L6.62499 15.8178C5.93727 13.7229 4.81188 12.367 3.36704 11.8161L3.36704 11.8161L3.36616 11.8157L3.21432 11.7562L3.48779 12.0612L3.48791 12.0613C4.21146 12.8713 4.73039 13.7577 5.07611 14.784L5.07634 14.7847C5.19922 15.1587 5.26892 15.3967 5.29945 15.6868C5.32971 15.9743 5.32117 16.3098 5.29457 16.8791C5.29457 16.8792 5.29456 16.8792 5.29456 16.8793L5.24566 18.0333H12.3947C15.8195 18.0333 17.6284 18.0306 18.5747 18.0053C19.0502 17.9926 19.3001 17.9743 19.4271 17.9496C19.4502 17.9451 19.4669 17.9408 19.4786 17.9372C19.4197 17.7271 19.354 17.343 19.3022 16.9517C19.2474 16.5375 19.2067 16.1028 19.2067 15.84C19.2067 14.5496 19.7147 13.1077 20.4567 12.2344C20.5362 12.1381 20.6104 12.0456 20.6709 11.9671C20.6123 11.9945 20.5463 12.0275 20.4758 12.0645C20.2146 12.2017 19.9055 12.388 19.709 12.5379C19.5096 12.6926 19.1894 13.0881 18.8909 13.5305C18.593 13.9721 18.3307 14.4394 18.2394 14.7287L18.2394 14.7287L18.2383 14.7319C18.175 14.9113 18.119 15.0413 18.0486 15.1218C18.0108 15.165 17.9668 15.1966 17.9138 15.2138C17.8621 15.2305 17.8095 15.2309 17.7583 15.2245L17.7583 15.2245L17.7558 15.2242C17.7021 15.2161 17.6339 15.2034 17.5788 15.1537C17.5231 15.1033 17.4968 15.0306 17.4815 14.944C17.4515 14.7737 17.4521 14.468 17.4573 13.919L17.4573 13.9188C17.4789 12.101 17.9517 10.1347 18.7793 8.44715C18.8717 8.25295 18.9539 8.07532 19.0155 7.93684C18.969 7.97074 18.9184 8.00814 18.8658 8.04762C18.4012 8.40394 17.8972 9.04664 17.4146 9.88325C16.9331 10.718 16.4771 11.7384 16.1056 12.8421C15.9461 13.3311 15.8347 13.6423 15.7401 13.8313C15.6929 13.9258 15.6459 13.9983 15.5929 14.0477C15.5361 14.1007 15.473 14.1266 15.4027 14.1266C15.3476 14.1266 15.2829 14.118 15.2269 14.0702C15.1743 14.0253 15.1445 13.9585 15.1235 13.8808C15.0817 13.7265 15.0573 13.4589 15.0256 13.0099M5.15332 6.32395L14.5 10.296C14.5 10.2955 14.5 10.2951 14.5 10.2946C14.501 10.2565 14.5022 10.2215 14.5034 10.1894C14.528 10.2612 14.5544 10.3479 14.5819 10.4477C14.6428 10.6686 14.7063 10.9432 14.766 11.2397C14.8855 11.8332 14.9887 12.5087 15.0256 13.0099M15.0256 13.0099C15.0256 13.0099 15.0256 13.0099 15.0256 13.01L15.1253 13.0026L15.0256 13.0097C15.0256 13.0097 15.0256 13.0098 15.0256 13.0099ZM10.9696 8.29078C10.4284 9.5248 10.3 10.3407 10.3 12.544C10.3 13.3276 10.308 13.8508 10.3309 14.1946C10.3423 14.3663 10.3577 14.4969 10.3787 14.5945C10.3984 14.6859 10.4257 14.7619 10.4709 14.8142C10.515 14.8758 10.57 14.9274 10.6223 14.9643C10.6493 14.9833 10.6771 14.9996 10.704 15.0115C10.729 15.0225 10.7612 15.0333 10.7947 15.0333C10.8402 15.0333 10.8745 15.0085 10.8918 14.9942C10.9125 14.977 10.9321 14.9551 10.9503 14.932C10.987 14.8852 11.0279 14.8206 11.0713 14.7439C11.1587 14.5898 11.2629 14.375 11.3715 14.1282C11.5889 13.6344 11.8279 13.0036 11.9893 12.4548C12.004 12.4049 12.0182 12.3567 12.0319 12.3102C12.1201 12.0109 12.1874 11.7825 12.2412 11.6156C12.2703 11.5253 12.2948 11.455 12.316 11.4023C12.3385 11.4735 12.3641 11.5719 12.3967 11.6979C12.4026 11.7206 12.4087 11.7442 12.4151 11.7687C12.5731 12.4009 12.7112 13.3542 12.8925 15.1034C12.9241 15.424 12.9514 15.6262 12.9989 15.7471C13.024 15.8111 13.0592 15.8648 13.1143 15.8995C13.1684 15.9334 13.2275 15.94 13.28 15.94C13.3408 15.94 13.4037 15.9268 13.4613 15.8797C13.5147 15.8361 13.5538 15.771 13.5882 15.6894C13.6564 15.5273 13.7249 15.2507 13.8256 14.7952L10.9696 8.29078ZM10.9696 8.29078C10.9696 8.29081 10.9696 8.29083 10.9696 8.29086L11.0613 8.33062L10.9698 8.29045C10.9697 8.29056 10.9697 8.29067 10.9696 8.29078ZM18.1725 13.1382C18.1668 13.1821 18.162 13.2225 18.1581 13.2591L19.84 7.81862L19.9257 7.87022C19.9254 7.87059 19.9252 7.87096 19.925 7.87133C19.3967 8.74852 19.0585 9.5197 18.7086 10.6117C18.5824 11.0113 18.4234 11.7157 18.3063 12.3333C18.2478 12.6416 18.2001 12.9262 18.1725 13.1382ZM19.4882 17.9695L19.584 17.9413L19.4884 17.9705L19.4882 17.9695Z" fill="black" stroke="black" stroke-width="0.2"/>
</g>
<defs>
<clipPath id="clip0_411_12993">
<rect width="24" height="24" fill="white"/>
</clipPath>
</defs>
</svg>
