<svg viewBox="0 0 24 24" xmlns="http://www.w3.org/2000/svg">
<path d="M21.7839 0.0952159C20.8325 0.338388 19.8379 0.930457 18.6379 1.97715L17.8703 2.64323H16.9947C16.0433 2.64323 15.3622 2.82297 14.6812 3.2353L14.2595 3.49962L13.7622 3.06614C12.919 2.33663 11.7298 2.2309 10.9298 2.8124C10.2595 3.30931 0.464941 12.9516 0.259536 13.3322C0.118995 13.5754 0.0649414 13.9137 0.0649414 14.3895C0.0649414 15.0239 0.0973738 15.1296 0.454131 15.6054C1.01629 16.3454 7.98927 23.1014 8.40008 23.3023C8.919 23.556 10.0109 23.5243 10.4866 23.2494C10.9622 22.9745 20.7136 13.4379 21.1785 12.8036C21.4703 12.3913 21.5136 12.2538 21.5136 11.6406C21.5136 10.9005 21.3406 10.4987 20.7785 9.90667L20.4866 9.61064L20.7785 9.11372C21.2001 8.3842 21.4271 7.4961 21.3947 6.72429L21.3731 6.05821L22.0433 5.27583C23.2109 3.9331 24.0001 2.38949 24.0001 1.46967C24.0001 1.00447 23.7406 0.496979 23.4163 0.285525C23.0812 0.0634989 22.2595 -0.0316564 21.7839 0.0952159ZM22.919 1.11019C23.2758 1.5331 22.519 3.36218 21.5352 4.44059L21.0163 5.01152L20.7785 4.6309C20.5406 4.26085 19.5676 3.31989 19.1893 3.10843C18.9839 2.99213 18.9947 2.96041 19.3514 2.59037C20.4758 1.4168 22.4758 0.592133 22.919 1.11019ZM12.7893 3.49962C12.919 3.56306 13.3082 3.88024 13.6433 4.20799L14.2595 4.78949L14.7136 4.3983C14.9622 4.17627 15.373 3.90138 15.6325 3.78508C16.1298 3.57363 17.1893 3.40447 17.1893 3.54191C17.1893 3.5842 17.0812 3.80623 16.9514 4.03883C16.7785 4.34544 16.5731 4.5146 16.1947 4.67319C15.9136 4.78949 15.492 5.08553 15.2649 5.3287C13.4379 7.2635 15.892 10.1921 18.2379 8.88112C19.7514 8.03531 19.8379 5.91019 18.4109 4.93751C18.1731 4.77892 17.9352 4.65204 17.8595 4.65204C17.6974 4.65204 17.6974 4.59918 17.8812 4.23971C18.1731 3.7005 18.292 3.66878 18.8217 4.00711C19.9676 4.71548 20.4866 5.69874 20.4109 7.06262C20.3785 7.94015 20.1622 8.44764 19.546 9.20887L19.2001 9.63178L19.7514 10.1816C20.4974 10.9322 20.6487 11.186 20.6487 11.6617C20.6487 12.0424 20.519 12.1904 18.1947 14.5481C14.9298 17.8679 10.119 22.4459 9.77305 22.5622C9.07035 22.7842 8.88656 22.6573 5.91359 19.7921C4.36764 18.3014 2.6271 16.5675 2.04332 15.9437C1.01629 14.8547 0.97305 14.7913 0.97305 14.3261C0.97305 13.882 1.0271 13.7763 1.53521 13.2371C2.7244 11.9578 11.1028 3.77451 11.4055 3.5842C11.7622 3.36218 12.4325 3.31989 12.7893 3.49962ZM17.8812 5.65645C18.4758 6.1005 18.6703 7.00975 18.3028 7.62297C18.0433 8.04588 17.2866 8.39478 16.8217 8.3102C15.7839 8.11989 15.2433 6.95689 15.8163 6.13222C16.1839 5.59301 16.3244 5.61416 16.3244 6.16394C16.3244 6.94632 17.0271 7.58068 17.4055 7.13663C17.5028 7.02033 17.492 6.88288 17.3514 6.51284C17.0379 5.70931 17.3298 5.24412 17.8812 5.65645Z" />
<path d="M8.15139 12.4758L7.51355 12.7824L7.28652 12.5709C7.01625 12.3172 6.61625 12.3383 6.44328 12.6026C6.35679 12.7401 6.38923 12.8564 6.58382 13.1207L6.84328 13.459L6.55139 14.0088C5.74058 15.5947 6.75679 16.5885 8.35679 15.7639L8.95139 15.4573L9.23247 15.7427C9.38382 15.9013 9.51355 16.0811 9.51355 16.1445C9.51355 16.3348 8.88652 16.5251 8.4649 16.4617C7.78382 16.3454 7.53517 16.8211 8.0649 17.2229C8.50814 17.5612 9.27571 17.4767 9.97841 17.0009L10.2703 16.7894L10.6054 17.0643C10.9946 17.3815 11.0595 17.3921 11.2865 17.17C11.5244 16.948 11.5027 16.7154 11.2325 16.43L11.0054 16.1868L11.2865 15.637C11.5568 15.0978 11.6541 14.4 11.5027 14.0088C11.4054 13.7762 10.8865 13.533 10.4865 13.533C10.1081 13.533 9.44869 13.7762 9.15679 14.03C8.97301 14.1991 8.94058 14.1885 8.61625 13.8608L8.27031 13.5225L8.54058 13.3004C8.75679 13.1313 8.89733 13.0996 9.28652 13.1524C9.82706 13.2264 10.0541 13.0996 10.0541 12.7295C10.0541 12.4335 9.58923 12.1586 9.10274 12.1586C8.92977 12.1586 8.49733 12.296 8.15139 12.4758ZM7.92436 14.4634C8.24869 14.7912 8.22706 14.8546 7.68652 15.0766C7.1676 15.2881 7.04869 15.1401 7.29733 14.5903C7.40544 14.3577 7.52436 14.1674 7.5676 14.1674C7.60004 14.1674 7.7622 14.3048 7.92436 14.4634ZM10.6487 14.4846C10.7352 14.6115 10.519 15.2987 10.3676 15.3938C10.2271 15.4784 9.72977 15.0344 9.72977 14.8335C9.72977 14.7489 9.89193 14.622 10.0865 14.5374C10.5081 14.3577 10.5622 14.3471 10.6487 14.4846Z" />
</svg>
