<svg width="24" height="25" viewBox="0 0 24 25" fill="none" xmlns="http://www.w3.org/2000/svg">
<g clip-path="url(#clip0_411_12985)">
<path d="M14.6546 3.28801L14.654 3.28842L14.2644 3.53981L13.7955 3.11909L13.7954 3.11896C12.9377 2.35508 11.7221 2.23976 10.8998 2.85506L10.8994 2.85534C10.8127 2.92151 10.5838 3.13515 10.2525 3.45525C9.91986 3.77661 9.48129 4.20802 8.97337 4.71239C7.9575 5.72116 6.66379 7.02222 5.38465 8.3195C4.10552 9.61677 2.84085 10.9104 1.88307 11.9042C1.4042 12.4011 1.00191 12.8232 0.712835 13.1334C0.56833 13.2885 0.451893 13.4158 0.368258 13.5107C0.326467 13.5581 0.292591 13.5977 0.267398 13.6287C0.243575 13.6581 0.224722 13.6831 0.215494 13.7005C0.068639 13.9625 0.0148499 14.3215 0.0148499 14.8127C0.0148499 15.1382 0.0226203 15.3361 0.0779016 15.5145C0.133363 15.6935 0.235518 15.8492 0.413624 16.0938L0.413806 16.094C0.556886 16.2879 1.10127 16.8685 1.83909 17.6295C2.57853 18.3921 3.5159 19.3395 4.44846 20.2695C5.38102 21.1995 6.30895 22.1123 7.02951 22.8055C7.38975 23.1521 7.69838 23.4441 7.92991 23.6559C8.04565 23.7618 8.14242 23.848 8.21691 23.9111C8.25413 23.9426 8.28613 23.9686 8.31234 23.9886C8.33776 24.008 8.36018 24.0235 8.3775 24.0323C8.64763 24.1682 9.05993 24.2254 9.46081 24.2144C9.86145 24.2035 10.2634 24.1241 10.512 23.9762C10.5469 23.9554 10.6169 23.8966 10.7132 23.8102C10.8114 23.7221 10.9411 23.6015 11.0978 23.453C11.4112 23.1559 11.8332 22.7464 12.3274 22.2612C13.316 21.2906 14.5942 20.0164 15.8719 18.7307C17.1497 17.445 18.4272 16.1476 19.4144 15.1308C19.908 14.6225 20.3291 14.1841 20.6414 13.8523C20.9522 13.5222 21.1585 13.2943 21.2191 13.2091L21.2196 13.2085C21.3659 12.9957 21.4538 12.8485 21.5035 12.6727C21.5529 12.4979 21.5635 12.2984 21.5635 11.9829C21.5635 11.5982 21.5198 11.2972 21.403 11.0143C21.2862 10.7317 21.0981 10.4709 20.8151 10.1641L20.8145 10.1634L20.5484 9.88565L20.8218 9.40653L20.822 9.40623C21.2478 8.64778 21.4774 7.72447 21.4445 6.92007C21.4445 6.92005 21.4445 6.92003 21.4445 6.92001L21.4235 6.25377L22.0814 5.46325C22.0815 5.46321 22.0815 5.46318 22.0815 5.46315C22.6676 4.76928 23.159 4.0232 23.5042 3.33098C23.8487 2.64008 24.05 1.99782 24.05 1.51287C24.05 1.26487 23.9829 1.00714 23.8747 0.783644C23.7667 0.560633 23.6157 0.367659 23.4442 0.252491C23.2667 0.131464 22.9679 0.0486546 22.6586 0.0116196C22.3482 -0.0255489 22.0169 -0.0178375 21.7707 0.0497379C21.7706 0.0497532 21.7706 0.0497665 21.7705 0.0497818L21.7838 0.0979977C20.8324 0.34832 19.8378 0.957804 18.6378 2.03529L14.6546 3.28801ZM14.6546 3.28801C15.3447 2.85791 16.0353 2.67096 16.9946 2.67096H17.8512L18.6044 1.99808L14.6546 3.28801ZM20.7784 4.76708C20.5405 4.38615 19.5676 3.41751 19.1892 3.19984M20.7784 4.76708L22.9189 1.14283C22.4757 0.609528 20.4757 1.45845 19.3513 2.66654C18.9946 3.04746 18.9838 3.08012 19.1892 3.19984M20.7784 4.76708L20.989 5.11413L20.7784 4.76708ZM19.1892 3.19984L19.2144 3.15664C19.2143 3.15659 19.2142 3.15654 19.2141 3.1565C19.1618 3.12598 19.1315 3.10539 19.1155 3.08691C19.1085 3.07876 19.106 3.07285 19.105 3.06836C19.1041 3.06391 19.1038 3.05707 19.1073 3.04575C19.1149 3.02063 19.1375 2.98369 19.1853 2.92544C19.232 2.86842 19.2985 2.79613 19.3878 2.70071L19.3879 2.7006C19.9448 2.10227 20.7198 1.59183 21.4101 1.29766C21.7554 1.15054 22.0767 1.05869 22.337 1.03584C22.6001 1.01275 22.7859 1.06117 22.8803 1.17459M19.1892 3.19984L22.8803 1.17459M22.8803 1.17459C22.9167 1.21901 22.9417 1.28565 22.9526 1.3756C22.9634 1.46521 22.9597 1.57417 22.942 1.69904C22.9066 1.94875 22.8162 2.25552 22.6833 2.58527C22.4176 3.24475 21.9852 3.98789 21.4977 4.53802L21.4976 4.53808L21.0237 5.07487L22.8803 1.17459ZM12.7662 3.64692L12.7667 3.6472C12.8253 3.67672 12.9506 3.7706 13.1068 3.90321C13.2612 4.0343 13.4412 4.19932 13.6078 4.36697L13.6084 4.36761L14.2246 4.9662L14.2579 4.99854L14.2926 4.96774L14.7467 4.56505L14.7473 4.56446C14.9928 4.33885 15.399 4.05927 15.6529 3.942C15.8962 3.8356 16.2805 3.73859 16.6053 3.6859C16.7677 3.65955 16.9126 3.64471 17.0158 3.64488C17.068 3.64496 17.1059 3.64892 17.1292 3.65543C17.1318 3.65615 17.1341 3.65686 17.136 3.65755C17.1334 3.66646 17.1293 3.67815 17.1237 3.69257C17.1121 3.7224 17.095 3.76142 17.0736 3.80719C17.0309 3.89857 16.9719 4.01464 16.9074 4.13369C16.8233 4.28724 16.7322 4.4046 16.6174 4.50333C16.5022 4.60235 16.3611 4.6843 16.1748 4.76471C15.8866 4.88752 15.4594 5.19652 15.228 5.45164C14.295 6.46879 14.4564 7.74855 15.1477 8.59839C15.8389 9.44815 17.0651 9.87463 18.2628 9.18565C19.8083 8.2965 19.8961 6.06385 18.4395 5.04178L18.4391 5.04148C18.3191 4.95909 18.1986 4.88462 18.098 4.83052C18.0478 4.80351 18.0018 4.78117 17.9628 4.76544C17.9258 4.75053 17.8889 4.73885 17.8594 4.73885C17.8186 4.73885 17.8001 4.7348 17.7925 4.73068C17.792 4.7304 17.7917 4.73018 17.7914 4.73002C17.7913 4.72963 17.7911 4.72885 17.7909 4.72758C17.7907 4.72631 17.7905 4.72462 17.7904 4.72241C17.7904 4.72103 17.7904 4.71944 17.7905 4.71764C17.7914 4.69695 17.8006 4.66232 17.8236 4.60571C17.8462 4.55049 17.8798 4.47927 17.9256 4.38715C17.9983 4.24893 18.0585 4.14664 18.1157 4.07504C18.1728 4.00364 18.2231 3.96756 18.2746 3.95434C18.3261 3.94111 18.3879 3.94841 18.4731 3.98359C18.5586 4.01889 18.662 4.07986 18.7941 4.16673L18.7948 4.16714C19.3616 4.52783 19.771 4.9569 20.0297 5.4672C20.2885 5.97757 20.3983 6.57254 20.3609 7.26763L20.3608 7.26853C20.3448 7.71634 20.2832 8.0668 20.1508 8.40151C20.0182 8.73658 19.8134 9.0587 19.5068 9.4486L12.7662 3.64692ZM12.7662 3.64692C12.5988 3.56014 12.3522 3.52487 12.1005 3.54087C11.8491 3.55686 11.6015 3.6234 11.4326 3.73158C11.4267 3.73538 11.412 3.74706 11.3868 3.76919C11.3625 3.79046 11.3308 3.81938 11.2918 3.85563C11.2138 3.92809 11.108 4.029 10.9779 4.15475C10.7177 4.40621 10.3611 4.75633 9.93786 5.17521C9.09137 6.01296 7.97863 7.12536 6.83815 8.27285C4.5566 10.5684 2.16581 13.0025 1.57223 13.6599L1.572 13.6601C1.31687 13.9388 1.18153 14.0997 1.1082 14.246C1.03664 14.3888 1.02296 14.5205 1.02296 14.7474C1.02296 14.8671 1.02578 14.9561 1.04458 15.0412C1.06315 15.1252 1.09789 15.2078 1.16501 15.3121C1.30128 15.5239 1.56501 15.8166 2.0801 16.3788L2.08022 16.379C2.66307 17.0201 4.40281 18.8042 5.94871 20.3387C7.43671 21.815 8.22259 22.5815 8.72426 22.9515C8.9745 23.1361 9.14858 23.2177 9.29949 23.242C9.44939 23.2662 9.58284 23.235 9.75693 23.1784C9.76189 23.1766 9.77279 23.1712 9.79111 23.1593C9.80899 23.1477 9.8314 23.1317 9.85838 23.1111C9.91228 23.0701 9.98245 23.0124 10.0676 22.9391C10.2379 22.7928 10.4664 22.586 10.7416 22.3302C11.2918 21.8186 12.0273 21.1118 12.8542 20.3018C14.5079 18.6818 16.5264 16.6497 18.1584 14.9414L18.1585 14.9414M12.7662 3.64692L18.1585 14.9414M18.1585 14.9414C19.3214 13.727 19.9332 13.0839 20.2547 12.6952C20.4155 12.5009 20.5008 12.3734 20.5465 12.2724C20.591 12.1738 20.5986 12.0985 20.5986 12.0047C20.5986 11.7669 20.5623 11.5883 20.4366 11.3743M18.1585 14.9414L20.4366 11.3743M20.4366 11.3743C20.3089 11.157 20.0886 10.9024 19.7155 10.5159L20.4366 11.3743ZM19.1608 9.88394L19.5066 9.4488L19.7154 10.5157L19.1642 9.94994L19.1335 9.91841L19.1608 9.88394ZM17.8506 5.86244L17.8506 5.86242C17.7169 5.75955 17.6056 5.71673 17.5207 5.71514C17.4394 5.71362 17.3773 5.74952 17.3347 5.82007C17.2904 5.89334 17.2664 6.00624 17.2742 6.15536C17.282 6.30364 17.3211 6.48351 17.3981 6.68665L17.3982 6.68707C17.4685 6.87758 17.5087 7.01386 17.5174 7.11927C17.5265 7.22882 17.5017 7.30722 17.4442 7.37804L17.4439 7.37839C17.3396 7.50442 17.2092 7.5569 17.0729 7.546C16.9391 7.5353 16.8057 7.46423 16.689 7.35596C16.4555 7.1394 16.2743 6.76136 16.2743 6.34521C16.2743 6.20466 16.2655 6.10241 16.2482 6.03584C16.2396 6.00249 16.2297 5.98189 16.2208 5.97025C16.2128 5.95989 16.2074 5.95862 16.2039 5.95833C16.1983 5.95786 16.1859 5.95948 16.1644 5.97249C16.1433 5.98529 16.1175 6.00669 16.0866 6.03864C16.025 6.1025 15.9493 6.20219 15.8579 6.34017L15.8576 6.34053C15.3066 7.15694 15.8251 8.31555 16.8308 8.50545C17.0486 8.54624 17.3427 8.4827 17.6177 8.35164C17.8921 8.22083 18.1366 8.02794 18.2596 7.82185C18.6139 7.21317 18.426 6.3048 17.8506 5.86244ZM17.4054 7.34651C17.5027 7.22679 17.4919 7.0853 17.3513 6.70437L16.3243 6.34521C16.3243 7.1506 17.027 7.80362 17.4054 7.34651Z" fill="black" stroke="black" stroke-width="0.1"/>
<path d="M8.3439 13.9235L8.65167 14.2333L8.65167 14.2333L8.65224 14.2339C8.73351 14.3185 8.79502 14.381 8.84483 14.4252C8.89541 14.4701 8.92913 14.4917 8.95453 14.4999C8.97565 14.5067 8.99302 14.505 9.01673 14.4923C9.04391 14.4778 9.07584 14.4505 9.12234 14.4064L9.12233 14.4064L9.12339 14.4054C9.27577 14.2691 9.51994 14.1386 9.77128 14.0423C10.0226 13.9461 10.2886 13.8812 10.4865 13.8812C10.6956 13.8812 10.9328 13.9463 11.1298 14.0412C11.2286 14.0888 11.3187 14.1447 11.3911 14.205C11.4629 14.2648 11.5204 14.3316 11.549 14.4021L11.549 14.4021L11.5495 14.4033C11.6292 14.6155 11.642 14.905 11.6023 15.2083C11.5624 15.5127 11.469 15.8362 11.3314 16.1189L11.3312 16.1193L11.0653 16.6547L11.2692 16.8794C11.2693 16.8795 11.2693 16.8795 11.2693 16.8796C11.4075 17.0298 11.4891 17.1734 11.4998 17.3149C11.5107 17.4593 11.4472 17.5899 11.3215 17.7108C11.2107 17.8223 11.1204 17.8978 10.9988 17.8783C10.9414 17.869 10.8825 17.8394 10.8161 17.7947C10.7494 17.7497 10.6705 17.6862 10.5732 17.6046L10.5731 17.6045L10.2683 17.3472L10.0082 17.5411L10.0083 17.5411L10.0069 17.542C9.29709 18.0368 8.50308 18.1375 8.034 17.7689C7.76216 17.5567 7.66868 17.3066 7.76623 17.1151C7.86237 16.9263 8.12474 16.8355 8.473 16.8966C8.67434 16.9277 8.92837 16.8965 9.13239 16.8329C9.23436 16.8011 9.32081 16.7621 9.38062 16.7211C9.4437 16.6777 9.46349 16.6418 9.46349 16.6194C9.46349 16.6194 9.46349 16.6191 9.46341 16.6184L9.46295 16.6155C9.46244 16.613 9.46156 16.6096 9.46014 16.6053C9.45728 16.5966 9.45269 16.5857 9.44612 16.5726C9.43299 16.5463 9.41341 16.514 9.38848 16.4777C9.33878 16.4053 9.2702 16.3202 9.196 16.2401L8.94135 15.9739L8.38018 16.2718L8.38017 16.2718C7.57218 16.7005 6.89034 16.667 6.51457 16.2901C6.13936 15.9139 6.09726 15.2228 6.50655 14.3987L6.50654 14.3987L6.50689 14.398L6.78447 13.8598L6.54366 13.5366L6.54366 13.5366L6.54309 13.5358C6.44568 13.3996 6.38392 13.2952 6.35975 13.2039C6.33418 13.1073 6.35119 13.0281 6.40056 12.9473L6.40055 12.9473L6.40102 12.9466C6.59505 12.6414 7.03399 12.6272 7.32121 12.9048L7.52276 13.0981L8.12845 12.7983C8.30394 12.7045 8.50081 12.622 8.67585 12.5628C8.84919 12.5042 9.00731 12.4663 9.10268 12.4663C9.35495 12.4663 9.60188 12.5395 9.78697 12.6533C9.96972 12.7656 10.104 12.9258 10.104 13.104C10.104 13.3045 10.0435 13.4536 9.89768 13.5366C9.75803 13.616 9.55163 13.6272 9.27948 13.5889L8.3439 13.9235ZM8.3439 13.9235L8.57234 13.7303L8.3439 13.9235ZM10.6069 14.9383L10.6069 14.9383L10.606 14.9368C10.5849 14.9023 10.57 14.8846 10.5557 14.875C10.544 14.8671 10.5284 14.862 10.4985 14.8652C10.4666 14.8686 10.4226 14.8809 10.3577 14.9054C10.2934 14.9297 10.2122 14.9646 10.1067 15.0108C10.0128 15.0529 9.92786 15.1049 9.86725 15.1558C9.83687 15.1813 9.8139 15.2054 9.79893 15.2266C9.78341 15.2486 9.77971 15.2629 9.77971 15.2699C9.77971 15.3053 9.80282 15.3618 9.85072 15.431C9.89699 15.4979 9.96087 15.5689 10.0296 15.6315C10.0985 15.6943 10.1702 15.7467 10.2313 15.7778C10.262 15.7935 10.2879 15.8027 10.3081 15.8061C10.3287 15.8096 10.3379 15.8062 10.3412 15.8042L10.3675 15.8467L10.3404 15.8047C10.3513 15.7977 10.3668 15.7821 10.3856 15.7551C10.4039 15.7289 10.4232 15.6951 10.4426 15.6555C10.4813 15.5763 10.5189 15.4773 10.5494 15.3765C10.5799 15.2756 10.6028 15.1748 10.6128 15.0922C10.6179 15.0509 10.6195 15.0155 10.6177 14.9876C10.6158 14.9582 10.6104 14.9436 10.6069 14.9383ZM7.68646 15.5202L7.66699 15.4741C7.80219 15.417 7.90198 15.3712 7.97166 15.3296C8.04296 15.2871 8.07297 15.2544 8.08285 15.2279C8.09121 15.2055 8.08911 15.1756 8.05738 15.124C8.02544 15.072 7.96963 15.0083 7.88853 14.9239C7.80821 14.843 7.72822 14.7679 7.66467 14.7133C7.63276 14.6858 7.60571 14.6642 7.58524 14.6496C7.57958 14.6456 7.57471 14.6424 7.5706 14.6398C7.56767 14.6427 7.56423 14.6464 7.56026 14.6511C7.54377 14.6703 7.52303 14.6998 7.49929 14.7383C7.4521 14.8149 7.39636 14.9216 7.34294 15.0399C7.28148 15.1798 7.24416 15.2911 7.22947 15.3757C7.21441 15.4625 7.22517 15.5095 7.24349 15.533C7.25975 15.5539 7.29372 15.5704 7.36712 15.5636C7.4398 15.5568 7.53899 15.5278 7.66712 15.4741L7.68646 15.5202Z" fill="black" stroke="black" stroke-width="0.1"/>
</g>
<defs>
<clipPath id="clip0_411_12985">
<rect width="24" height="24.7059" fill="white"/>
</clipPath>
</defs>
</svg>
