<svg viewBox="0 0 23 29" xmlns="http://www.w3.org/2000/svg">
<path fill-rule="evenodd" clip-rule="evenodd" d="M5.71453 0C5.95908 0 6.15733 0.197177 6.15733 0.440406C6.15733 0.683636 5.95908 0.880812 5.71453 0.880812H3.67604C3.05315 0.880812 2.54819 1.38305 2.54819 2.00258C2.54819 2.62212 3.05315 3.12435 3.67604 3.12435H15.556C16.1789 3.12435 16.6839 2.62212 16.6839 2.00258C16.6839 1.38305 16.1789 0.880812 15.556 0.880812H8.10392C7.85937 0.880812 7.66112 0.683636 7.66112 0.440406C7.66112 0.197177 7.85937 0 8.10392 0H15.556C16.668 0 17.5695 0.896586 17.5695 2.00258C17.5695 2.86353 17.0232 3.59758 16.2566 3.88059H17.1795L17.194 3.88153C17.57 3.906 18.0824 4.08832 18.5014 4.52784C18.9296 4.97699 19.2319 5.66381 19.2319 6.64582V9.50336L19.2319 9.50771C19.2264 9.78444 19.2117 10.1143 19.173 10.4699H19.6917C20.6791 10.4699 21.4795 11.266 21.4795 12.2481C21.4795 12.7476 21.2724 13.1991 20.939 13.5221C20.7562 13.6992 20.592 13.9101 20.586 14.1639C20.5696 14.853 20.7606 15.9052 21.5989 16.7106C22.249 17.3354 22.6041 17.9158 22.7924 18.4312C22.9348 18.8213 22.9758 19.1588 22.9873 19.4215C22.9874 19.4249 22.9902 19.4276 22.9936 19.4276C22.9972 19.4276 23 19.4304 23 19.4339V22.8759C23 23.1191 22.8018 23.3163 22.5572 23.3163C22.3127 23.3163 22.1144 23.1191 22.1144 22.8759V20.0964C22.1144 20.0941 22.1125 20.0922 22.1102 20.0922C22.1079 20.0922 22.1061 20.0904 22.1061 20.0881V19.935C22.1061 19.8221 21.9901 19.7463 21.8851 19.7892C21.6019 19.905 21.2626 20.0287 20.9201 20.0882C20.2664 20.2017 19.5228 20.1125 18.8012 19.4943C18.3135 19.0765 17.6432 18.9408 16.9985 18.9915C16.6798 19.0166 16.3824 19.0865 16.1397 19.1792C15.8895 19.2748 15.7286 19.3825 15.6533 19.4622L15.4842 19.6412C15.4771 19.6487 15.4732 19.6586 15.4733 19.6688C15.4735 19.6895 15.4737 19.7088 15.4737 19.7266C15.4737 19.7568 15.4714 19.7871 15.469 19.8174C15.4667 19.8476 15.4643 19.8779 15.4643 19.9082V27.2384C15.4643 27.7248 15.8608 28.1192 16.3499 28.1192H21.2288C21.7179 28.1192 22.1144 27.7248 22.1144 27.2384V25.2524C22.1144 25.0091 22.3127 24.8119 22.5572 24.8119C22.8018 24.8119 23 25.0091 23 25.2524V27.2384C23 28.2113 22.207 29 21.2288 29H16.3499C15.3717 29 14.5787 28.2113 14.5787 27.2384V19.4343L14.5787 19.4329C14.5787 19.43 14.5812 19.4276 14.5841 19.4276C14.5871 19.4276 14.5894 19.4254 14.5896 19.4225C14.6054 19.0104 14.7043 18.3184 15.2468 17.6436C15.3091 17.5661 15.3706 17.4911 15.4308 17.4175L15.431 17.4173C15.762 17.0131 16.0578 16.6521 16.2672 16.1615C16.4653 15.6973 16.5902 15.0983 16.5243 14.2353C16.2672 14.2958 15.9893 14.3296 15.6896 14.3334V14.4262C15.6896 15.3744 14.7064 15.9444 13.9041 15.5875L13.3812 15.8476C13.0204 16.027 12.6226 16.1203 12.2193 16.1203H8.92794C8.4682 16.1203 8.01325 16.0275 7.59068 15.8473L6.82664 15.5217C5.92541 15.8167 4.97439 15.1887 4.90031 14.2456C4.00927 14.1778 3.21016 13.8592 2.53147 13.411V26.0637C2.53147 27.1988 3.45661 28.119 4.59783 28.119H13.6847C13.9292 28.119 14.1274 28.3161 14.1274 28.5593C14.1274 28.8025 14.3257 28.9997 14.5702 28.9997H14.6526L14.6424 28.9998L14.6342 28.9998H4.59783C2.96751 28.9998 1.64588 27.6853 1.64588 26.0637V12.6947C1.5902 12.6403 1.53585 12.5852 1.48288 12.5295C0.5897 11.5908 0.0180299 10.4114 8.63211e-05 9.5077L0 9.50335V6.64581C0 5.6638 0.302303 4.97698 0.730529 4.52783C1.14957 4.08831 1.66194 3.90599 2.03799 3.88152L2.05243 3.88058H2.97541C2.20884 3.59756 1.66261 2.86352 1.66261 2.00258C1.66261 0.896586 2.56405 0 3.67604 0H5.71453ZM16.2234 13.399C15.9584 13.0889 15.7985 12.6871 15.7985 12.2481C15.7985 11.266 16.5989 10.4699 17.5864 10.4699H18.2816C18.3236 10.122 18.3404 9.78746 18.3464 9.49463V6.64582C18.3464 5.85252 18.1073 5.39454 17.8588 5.13392C17.6075 4.87028 17.3161 4.77586 17.1485 4.76141H15.7834C16.0621 5.54712 16.645 6.14028 17.104 6.46989C17.3716 6.66211 17.5778 6.97951 17.5778 7.35729V7.92218C17.5833 7.96184 17.5861 8.00234 17.5861 8.0435V9.56404C17.5861 9.80727 17.3879 10.0044 17.1433 10.0044C16.8988 10.0044 16.7005 9.80727 16.7005 9.56404V8.14556C16.6951 8.11791 16.6922 8.08934 16.6922 8.0601V8.0435C16.6876 8.0435 16.6839 8.03979 16.6839 8.03521V7.3091C16.6706 7.26906 16.6405 7.22345 16.5856 7.18401C15.8762 6.67458 14.8156 5.56918 14.7394 4.00516H4.49262C4.41643 5.56918 3.35581 6.67458 2.64643 7.18401C2.59161 7.22338 2.56147 7.26891 2.54819 7.3089V8.03518C2.54819 8.03977 2.54444 8.0435 2.53983 8.0435L2.53979 8.0601C2.53979 8.08932 2.53693 8.11789 2.53147 8.14552V12.3084C3.19017 12.8703 4.00296 13.2802 4.91551 13.3629C5.06168 12.4946 5.98985 11.9672 6.81833 12.2895L7.47256 11.9177C7.93467 11.6551 8.45769 11.5169 8.98993 11.5169H12.1307C12.6269 11.5169 13.112 11.663 13.5248 11.9367L14.0016 12.2529C14.7891 11.9755 15.6896 12.5449 15.6896 13.4477V13.4525C15.8835 13.4494 16.0609 13.4308 16.2234 13.399ZM1.64588 8.0435V11.3451C1.15603 10.6644 0.896401 9.96892 0.885586 9.49436V6.64581C0.885586 5.85251 1.12465 5.39453 1.37313 5.13391C1.62448 4.87027 1.91582 4.77585 2.08341 4.7614H3.44862C3.16995 5.54712 2.587 6.14028 2.12802 6.46989C1.86035 6.66211 1.6542 6.97951 1.6542 7.35729V7.92224C1.64872 7.96188 1.64588 8.00236 1.64588 8.0435ZM7.91193 12.6825L7.09607 13.1461C6.93364 13.2385 6.73422 13.2385 6.57179 13.1461C6.21954 12.946 5.78127 13.1989 5.78127 13.6024V14.1271C5.78127 14.5475 6.21347 14.831 6.60199 14.6653C6.7501 14.6022 6.91776 14.6022 7.06587 14.6653L7.93953 15.0378C8.25187 15.1709 8.58813 15.2395 8.92794 15.2395H12.2193C12.4851 15.2395 12.7473 15.178 12.9851 15.0597L13.7525 14.6781C13.8891 14.6102 14.053 14.6284 14.1712 14.7245C14.4242 14.9304 14.8041 14.7514 14.8041 14.4262V13.4477C14.8041 13.1352 14.4476 12.9547 14.1935 13.1385C14.0634 13.2326 13.8881 13.2362 13.7542 13.1474L13.0336 12.6696C12.7662 12.4923 12.4521 12.3977 12.1307 12.3977H8.98993C8.61181 12.3977 8.24023 12.4959 7.91193 12.6825ZM17.4101 14.2071C17.4785 15.1697 17.3407 15.9006 17.0823 16.5058C16.8196 17.1212 16.4354 17.5882 16.1037 17.9913C16.0468 18.0605 15.9914 18.1278 15.9385 18.1937C15.8952 18.2475 15.856 18.3013 15.8204 18.3548C15.8196 18.356 15.8208 18.3575 15.8222 18.357C16.147 18.2329 16.528 18.1449 16.9288 18.1134C17.7231 18.051 18.6563 18.2077 19.3792 18.8269C19.8681 19.2458 20.3312 19.2963 20.7677 19.2205C21.1109 19.1609 21.4023 19.0363 21.6992 18.9094C21.7729 18.8779 21.8469 18.8462 21.9221 18.8154C21.9551 18.8019 21.9722 18.7653 21.96 18.7319C21.8235 18.3581 21.5497 17.8881 20.9836 17.3441C19.8843 16.2878 19.663 14.9227 19.7053 14.0403C19.7057 14.0326 19.6994 14.0263 19.6917 14.0263H17.5864C17.4869 14.0263 17.4031 14.1084 17.4101 14.2071ZM20.0134 13.0868C19.9968 13.0931 19.9787 13.094 19.9614 13.0903L19.9044 13.0779C19.884 13.0734 19.8638 13.0863 19.8594 13.1066C19.8561 13.1214 19.8442 13.1329 19.8291 13.1352C19.7843 13.142 19.7384 13.1455 19.6917 13.1455H17.5864C17.088 13.1455 16.6841 12.7437 16.6841 12.2481C16.6841 11.7525 17.088 11.3507 17.5864 11.3507H19.6917C20.19 11.3507 20.594 11.7525 20.594 12.2481C20.594 12.631 20.3528 12.9579 20.0134 13.0868Z" />
</svg>
