<svg width="25" height="25" viewBox="0 0 25 25" fill="none" xmlns="http://www.w3.org/2000/svg">
<path d="M15.4999 19.5C15.4999 20.2957 15.1838 21.0587 14.6212 21.6213C14.0586 22.1839 13.2955 22.5 12.4999 22.5C11.7042 22.5 10.9412 22.1839 10.3785 21.6213C9.81594 21.0587 9.49987 20.2957 9.49987 19.5M13.2209 5.50302L11.7549 5.50002C8.41087 5.49202 5.50787 8.20902 5.48487 11.5V15.29C5.48487 16.08 5.38487 16.851 4.95387 17.508L4.66687 17.946C4.22987 18.61 4.69987 19.5 5.48487 19.5H19.5149C20.2999 19.5 20.7689 18.61 20.3329 17.946L20.0459 17.508C19.6159 16.851 19.5149 16.079 19.5149 15.289V11.501C19.4749 8.20902 16.5649 5.51102 13.2209 5.50302V5.50302Z" stroke="#214A37" stroke-width="2" stroke-linecap="round" stroke-linejoin="round"/>
<path d="M12.5 2.5C13.0304 2.5 13.5391 2.71071 13.9142 3.08579C14.2893 3.46086 14.5 3.96957 14.5 4.5V5.5H10.5V4.5C10.5 3.96957 10.7107 3.46086 11.0858 3.08579C11.4609 2.71071 11.9696 2.5 12.5 2.5Z" stroke="#214A37" stroke-width="2" stroke-linecap="round" stroke-linejoin="round"/>
</svg>
