<svg width="24" height="23" viewBox="0 0 24 23" fill="none" xmlns="http://www.w3.org/2000/svg">
<g clip-path="url(#clip0_411_13009)">
<path d="M6.69539 3.18957L6.6951 3.18969C6.44134 3.29764 6.18138 3.4048 6.11625 3.42849L6.11459 3.42909L6.1146 3.42912C6.04774 3.45614 5.72924 3.59022 5.41072 3.7243L5.40727 3.72576L5.40708 3.72584C5.08471 3.86311 4.6958 4.02728 4.54104 4.09198C4.40816 4.14523 4.1837 4.23982 4.00169 4.31653C3.97102 4.32945 3.94156 4.34187 3.91394 4.3535L3.91371 4.3536C3.82653 4.39081 3.71489 4.43804 3.60271 4.4855C3.47244 4.5406 3.34143 4.59603 3.24707 4.63647C3.24704 4.63648 3.24701 4.6365 3.24697 4.63651L3.26667 4.68247C2.67734 4.93033 2.30934 5.10815 2.12 5.22939L6.69539 3.18957ZM6.69539 3.18957C7.59132 2.81511 8.07685 2.61296 8.28773 2.52666L8.28895 2.52615C8.40854 2.47673 8.87593 2.28355 9.32744 2.09571C10.0582 1.79121 10.3863 1.65646 11.221 1.31429C12.441 0.81321 13.2168 0.499779 13.7319 0.303517C14.246 0.107603 14.5032 0.0272121 14.6842 -0.00605202L6.69539 3.18957ZM19.5003 4.53576L19.5003 4.53609C19.5285 4.67595 19.54 4.92463 19.5353 5.18133C19.5307 5.43766 19.5101 5.69516 19.4764 5.85203L19.4764 5.85219C19.3077 6.65099 18.9524 7.31063 18.3776 7.89936C17.8958 8.39138 17.5371 8.57611 14.7276 9.73361L14.7276 9.73363C13.9771 10.0434 13.3181 10.3093 12.8444 10.4951C12.6075 10.588 12.4173 10.6607 12.2853 10.7088C12.2192 10.7329 12.1682 10.7506 12.1335 10.7616C12.1281 10.7633 12.1232 10.7648 12.1188 10.7661C12.1165 10.761 12.1139 10.7552 12.1111 10.7488C12.0967 10.7161 12.076 10.6681 12.049 10.6044C11.9951 10.4771 11.9162 10.2879 11.8115 10.0352C11.6022 9.52981 11.2903 8.77084 10.8703 7.74579L19.5003 4.53576ZM19.5003 4.53576C19.4108 4.07587 19.0877 3.24322 18.8207 2.78121C18.3712 2.00558 17.6796 1.44161 16.7535 1.10308C16.5615 1.03303 16.4471 0.994408 16.3268 0.968609C16.2065 0.942785 16.0789 0.929505 15.8602 0.911991C15.4708 0.882546 15.3881 0.882556 15.015 0.914643L15.0149 0.914645C15.0103 0.915038 15.0058 0.915421 15.0014 0.915796C14.9301 0.921849 14.8788 0.926197 14.793 0.948163C14.7004 0.971882 14.5673 1.01623 14.33 1.10592C13.8557 1.28515 12.9725 1.64248 11.1788 2.36872L11.1787 2.36874C10.3147 2.71766 9.77163 2.93846 9.44465 3.07538C9.28103 3.14389 9.17217 3.19112 9.10442 3.22278C9.07888 3.23471 9.05984 3.24413 9.04619 3.25141C9.04829 3.25697 9.05066 3.2632 9.0533 3.27007C9.06616 3.30359 9.08499 3.35173 9.10876 3.41195C9.15629 3.53234 9.22342 3.70054 9.30174 3.89567C9.45837 4.2859 9.65967 4.78356 9.8383 5.22127L9.83835 5.2214C9.8915 5.35266 9.96645 5.53533 10.0278 5.68488C10.0495 5.73777 10.0695 5.78653 10.0863 5.8274L10.0863 5.82752C10.209 6.12924 10.3076 6.37168 10.5556 6.97783L10.5557 6.97816M19.5003 4.53576L10.5557 6.97816M10.5557 6.97816C10.6049 7.10068 10.6731 7.26621 10.7386 7.42497M10.5557 6.97816L10.7386 7.42497M10.7386 7.42497C10.787 7.54226 10.8338 7.65585 10.8703 7.74565L10.7386 7.42497ZM0.610757 11.7059L0.656003 11.6846L14.7719 -0.0118885C14.812 -0.0129166 14.8636 -0.0132942 14.9234 -0.0131254C15.0429 -0.0127878 15.1959 -0.010253 15.3556 -0.00620556C15.6745 0.00187397 16.0227 0.0160437 16.1859 0.0310326L16.1861 0.0310478C16.7024 0.080205 17.0204 0.176541 17.5399 0.44032C18.1323 0.739606 18.7436 1.22628 19.1219 1.70401C19.7814 2.53352 20.3316 3.91953 20.4258 4.99332L20.4258 4.9934C20.4691 5.49593 20.3723 6.30848 20.2073 6.78937C19.9703 7.48579 19.6012 8.09559 19.1054 8.61284L19.1053 8.61294C18.8061 8.92341 18.5634 9.1354 18.2178 9.34345C17.8736 9.55065 17.4285 9.75327 16.726 10.0469C16.3385 10.2089 16.0859 10.3156 15.4583 10.5805L15.2994 10.6476L15.2993 10.6477C15.1445 10.7124 14.6778 10.9064 14.259 11.0789C14.0563 11.1623 13.8351 11.2542 13.6391 11.3356C13.431 11.422 13.2513 11.4966 13.1523 11.5369C11.4601 12.2404 11.3964 12.2664 9.33823 13.1075L9.24558 13.1453L9.24556 13.1454C7.98651 13.659 6.28404 14.3439 6.14129 14.3912C5.86836 14.4831 5.3807 14.5231 4.77223 14.5096L4.77211 14.5096C4.38751 14.5002 4.12527 14.4819 3.8825 14.4332C3.63932 14.3844 3.41773 14.3055 3.11389 14.177C2.41528 13.8827 1.77954 13.4007 1.26544 12.778C1.00344 12.4614 0.841343 12.1962 0.610758 11.7059C0.610757 11.7059 0.610757 11.7059 0.610757 11.7059ZM8.20164 3.83637L8.20159 3.83624C8.17891 3.77963 8.16126 3.73717 8.14617 3.70539C8.13075 3.67291 8.11976 3.65551 8.1115 3.64633C8.10776 3.64216 8.10557 3.64085 8.10496 3.64052L8.10493 3.6405C8.10463 3.64034 8.10447 3.64026 8.10368 3.64021C8.10016 3.63997 8.09181 3.641 8.07105 3.64887L8.07043 3.64909C7.93826 3.69716 6.39282 4.31901 5.75224 4.58058L5.75221 4.58059C4.22462 5.20332 3.42807 5.53051 2.94605 5.7673C2.46763 6.00231 2.30254 6.14645 2.03758 6.40482C1.48232 6.9472 1.11078 7.62811 0.926086 8.43848L0.926081 8.4385C0.847537 8.78237 0.829057 9.39542 0.886657 9.74469C0.941775 10.0721 1.08887 10.5261 1.26885 10.9599C1.44898 11.3941 1.65971 11.8023 1.83982 12.0397C2.15959 12.4607 2.7927 12.9542 3.34077 13.2045L3.34079 13.2045C3.63393 13.3385 3.83942 13.4146 4.07724 13.456C4.31608 13.4975 4.58985 13.5044 5.02034 13.4963C5.54089 13.4855 5.63007 13.4746 5.78473 13.4259C5.95646 13.3698 7.09474 12.9104 7.79396 12.6165L7.79409 12.6165C7.96206 12.5464 8.42597 12.3525 8.82052 12.1855L8.82072 12.1854C9.79361 11.7788 10.372 11.5284 11.0009 11.251C11.0398 11.2332 11.075 11.2132 11.0998 11.196C11.1071 11.1909 11.1131 11.1864 11.1177 11.1826C11.1139 11.172 11.1088 11.1581 11.1023 11.1408C11.0865 11.0988 11.0633 11.038 11.0334 10.9607C10.9737 10.8062 10.8877 10.586 10.7829 10.3186C10.5731 9.78386 10.2878 9.06069 9.98551 8.29692C9.38088 6.76941 8.70836 5.07985 8.43641 4.41048C8.35899 4.22436 8.25497 3.96838 8.20164 3.83637Z" fill="black" stroke="black" stroke-width="0.1"/>
<path d="M11.256 4.99499C11.0453 4.75252 11.032 4.39688 11.232 4.21099C11.3813 4.07089 11.92 3.81225 13.0667 3.3273M11.256 4.99499L11.2936 4.96204C11.2936 4.96206 11.2937 4.96209 11.2937 4.96212M11.256 4.99499L11.2938 4.9622C11.2937 4.96217 11.2937 4.96214 11.2937 4.96212M11.256 4.99499C11.4827 5.25363 11.6453 5.26171 12.1867 5.04079C13.3813 4.55315 15.2373 3.76106 15.6933 3.54283M11.2937 4.96212C11.0953 4.73371 11.0914 4.40995 11.2661 4.24761L11.2662 4.24745C11.2992 4.2165 11.3568 4.17638 11.4454 4.12533C11.5333 4.07466 11.6492 4.01464 11.797 3.94352C12.0926 3.80127 12.513 3.61576 13.0862 3.37335M11.2937 4.96212C11.4031 5.0869 11.4888 5.14202 11.6058 5.14779C11.7299 5.1539 11.8961 5.10539 12.1678 4.9945C13.3626 4.50681 15.2173 3.71524 15.6718 3.49773L15.6933 3.54283M13.0862 3.37335C13.0861 3.37336 13.0861 3.37337 13.0861 3.37338L13.0667 3.3273M13.0862 3.37335L13.0667 3.3273M13.0862 3.37335C14.5435 2.75963 15.2687 2.44611 15.4495 2.35339L15.4505 2.3529L15.4504 2.35289C15.5062 2.32275 15.5407 2.30819 15.5813 2.30085C15.6234 2.29321 15.6749 2.29283 15.7658 2.29689L15.7665 2.29692C15.8559 2.29961 15.9058 2.30431 15.9443 2.31499C15.9811 2.32516 16.0102 2.34148 16.0565 2.37398C16.2044 2.4794 16.2967 2.66537 16.2967 2.87468C16.2967 2.92205 16.2929 2.97063 16.2863 3.01239C16.2795 3.05554 16.2705 3.08661 16.2624 3.10203L16.2623 3.10213C16.2529 3.12034 16.2333 3.14472 16.2009 3.17458C16.1691 3.20394 16.1272 3.23652 16.0759 3.27149C15.9732 3.34141 15.8355 3.419 15.6717 3.49777L15.6933 3.54283M13.0667 3.3273C14.5253 2.71303 15.248 2.4005 15.4267 2.3089L15.6933 3.54283M15.5193 1.28222L15.5196 1.28217C15.8038 1.21742 16.2076 1.27335 16.4786 1.41022L16.4786 1.41022L16.4791 1.41051C16.567 1.45633 16.6679 1.53212 16.7601 1.61669C16.8524 1.70131 16.9388 1.79732 16.9964 1.88532C17.3762 2.46084 17.3488 3.14999 16.9218 3.6871L16.9217 3.68721C16.8642 3.75922 16.8088 3.82042 16.72 3.88692C16.6322 3.9527 16.5128 4.02271 16.3279 4.11465C15.9586 4.29834 15.3189 4.57385 14.1263 5.08138C13.2556 5.45531 12.462 5.79433 12.3587 5.83828C12.2744 5.87613 12.2187 5.89868 12.1442 5.91054C12.0718 5.92207 11.9828 5.92329 11.832 5.92329C11.424 5.92329 11.2194 5.8882 11.0112 5.77735C10.7958 5.66297 10.6485 5.52807 10.5134 5.33033L10.5134 5.33033L10.513 5.32975C10.3063 5.01786 10.2209 4.64738 10.2704 4.2718L10.2705 4.27156C10.306 4.01187 10.3563 3.87288 10.4805 3.67764L10.4805 3.67757C10.5898 3.5064 10.6799 3.39663 10.8713 3.27377C11.0589 3.15343 11.3448 3.0198 11.8436 2.7967L11.8437 2.79666C12.6135 2.45431 13.4612 2.09243 14.1513 1.80803C14.4963 1.66584 14.8021 1.54293 15.0391 1.45148C15.2745 1.36067 15.4458 1.29936 15.5193 1.28222ZM11.864 2.84235C10.864 3.28958 10.736 3.3704 10.5227 3.70448C10.4027 3.89307 10.3547 4.02509 10.32 4.27834C10.272 4.64205 10.3547 5.00038 10.5547 5.30213L11.864 2.84235Z" fill="black" stroke="black" stroke-width="0.1"/>
<path d="M13.0793 12.3041L13.0793 12.3041C12.1777 12.5149 11.518 12.7424 10.8445 13.0758L10.8444 13.0759C9.90534 13.5421 9.21222 14.1159 8.76082 14.8068L8.76081 14.8068C8.63315 15.0023 8.5456 15.1621 8.4861 15.3233C8.42647 15.4849 8.39578 15.6458 8.37952 15.8429M13.0793 12.3041L8.42934 15.8471M13.0793 12.3041C13.463 12.2147 14.34 12.0769 14.716 12.047M13.0793 12.3041L23.9871 19.3056M8.37952 15.8429C8.37952 15.843 8.37952 15.843 8.37951 15.843L8.42934 15.8471M8.37952 15.8429C8.37952 15.8429 8.37953 15.8429 8.37953 15.8428L8.42934 15.8471M8.37952 15.8429C8.33135 16.3973 8.29135 17.6193 8.28601 18.5653L8.28601 18.5654L8.28334 19.4976L8.28331 19.5094L8.28853 19.5199L8.4404 19.8268L8.48534 19.8049L8.33334 19.4977L8.33601 18.5656C8.34134 17.6199 8.38134 16.3995 8.42934 15.8471M23.9871 19.3056L23.9871 19.3053C24.0166 19.189 24.0335 19.1123 24.0408 19.0258C24.0481 18.94 24.046 18.846 24.0393 18.6954C24.0312 18.5082 24.0071 18.2212 23.9856 18.0579C23.903 17.4284 23.8365 16.7669 23.8099 16.3078C23.7831 15.8174 23.7186 15.4529 23.5734 15.1241C23.4283 14.7952 23.2042 14.506 22.8649 14.1631C22.2425 13.5343 21.5209 13.0998 20.4758 12.718L20.4758 12.718C19.6879 12.431 18.4384 12.1472 17.6314 12.0713L17.6311 12.0713C17.4326 12.0536 16.7956 12.0401 16.1648 12.0347C15.5342 12.0294 14.9028 12.032 14.716 12.047M23.9871 19.3056C23.9496 19.449 23.8874 19.6383 23.8425 19.7295M23.9871 19.3056L23.8425 19.7295M14.716 12.047L14.72 12.0969M14.716 12.047C14.716 12.047 14.716 12.047 14.7161 12.047L14.72 12.0969M14.72 12.0969C14.3467 12.1265 13.472 12.2639 13.0907 12.3528L23.76 16.3105C23.7067 15.3353 23.504 14.8799 22.8293 14.1983C22.2133 13.576 21.4987 13.1449 20.4587 12.765C19.6747 12.4794 18.4293 12.1965 17.6267 12.1211C17.2347 12.0861 15.088 12.0672 14.72 12.0969ZM9.94668 14.7291L9.98114 14.7653C9.71049 15.0228 9.55689 15.2308 9.40771 15.5402L9.40768 15.5403L9.29024 15.7827L9.29533 16.0428L9.29534 16.043C9.29796 16.1981 9.31507 16.3907 9.33854 16.5614C9.36231 16.7342 9.3917 16.8774 9.41685 16.938L9.41694 16.9382C9.47497 17.0797 9.60637 17.2651 9.77996 17.4556C9.95276 17.6451 10.1641 17.836 10.3784 17.9887L10.3786 17.9889C10.8327 18.317 11.5296 18.6706 12.1554 18.8956C12.1555 18.8957 12.1555 18.8957 12.1556 18.8957L12.3033 18.9477L12.4785 18.7898C12.9629 18.3515 17.1169 14.3486 17.8125 13.6485C17.9563 13.5033 18.0871 13.367 18.1819 13.2642C18.2294 13.2127 18.2674 13.1701 18.2934 13.139C18.302 13.1288 18.309 13.1202 18.3144 13.1131C18.3085 13.1099 18.3006 13.1068 18.2914 13.105L18.2911 13.1049C18.0358 13.0517 17.4306 12.9792 17.0107 12.955C16.784 12.943 16.339 12.9349 15.9231 12.9329C15.5055 12.9309 15.1233 12.935 15.0189 12.9467L15.0187 12.9467C14.5433 12.9977 13.8596 13.1079 13.2768 13.2262C11.9947 13.4917 10.6683 14.1136 9.98108 14.7653L9.94668 14.7291ZM9.94668 14.7291C9.67201 14.9904 9.51468 15.2032 9.36268 15.5185L9.24001 15.7717M9.94668 14.7291L9.24001 15.7717M9.24001 15.7717L9.24534 16.0438L9.24001 15.7717ZM22.2337 14.8504C22.2337 14.8504 22.2338 14.8504 22.2338 14.8505L22.2693 14.8153C22.5893 15.1413 22.7893 15.4322 22.872 15.7017C22.928 15.8822 22.9067 16.6123 22.84 16.7847M22.2337 14.8504C22.5514 15.174 22.745 15.4581 22.8242 15.7163L22.8243 15.7165C22.8362 15.7549 22.8452 15.8287 22.8501 15.9253C22.8548 16.0202 22.8553 16.1324 22.852 16.2447C22.8487 16.3571 22.8416 16.4688 22.8313 16.5627C22.8208 16.6583 22.8074 16.7303 22.7934 16.7667M22.2337 14.8504C21.6703 14.2812 20.8915 13.8401 19.8376 13.4914C19.7474 13.4619 19.6613 13.4352 19.5956 13.4158C19.5626 13.4061 19.5351 13.3983 19.5148 13.3931C19.5047 13.3904 19.4967 13.3885 19.4911 13.3872C19.491 13.3872 19.4909 13.3872 19.4908 13.3872C19.4897 13.3877 19.4883 13.3885 19.4866 13.3894C19.4777 13.3944 19.4647 13.403 19.4466 13.4165C19.4106 13.4434 19.3589 13.4865 19.2864 13.5505C19.1418 13.6781 18.9184 13.8857 18.581 14.205L18.581 14.2051C17.4799 15.2434 16.1715 16.5074 15.1434 17.5168C14.6293 18.0216 14.1854 18.4625 13.8727 18.7797C13.7162 18.9384 13.5929 19.0658 13.51 19.1547C13.4771 19.19 13.4509 19.2188 13.4317 19.2409C13.4484 19.2453 13.4682 19.2501 13.4909 19.2552C13.5619 19.2714 13.6578 19.2905 13.7653 19.3101C13.9803 19.3494 14.2392 19.3903 14.4325 19.4131L14.4267 19.4627L14.4325 19.4131C15.9258 19.5876 17.3682 19.5204 18.7974 19.2118C19.8399 18.985 20.7357 18.6413 21.4229 18.2195C22.1105 17.7974 22.5854 17.2997 22.7934 16.7667M22.2337 14.8504L22.84 16.7847M22.7934 16.7667C22.7934 16.7666 22.7934 16.7666 22.7934 16.7665L22.84 16.7847M22.7934 16.7667L22.84 16.7847M9.12534 18.6033C9.13334 18.4093 9.14934 18.2315 9.16268 18.2072M9.12534 18.6033L9.17532 18.6048C9.17532 18.6049 9.17532 18.605 9.17531 18.6051M9.12534 18.6033L9.1753 18.6053C9.17531 18.6052 9.17531 18.6052 9.17531 18.6051M9.12534 18.6033L9.17531 18.6051M9.16268 18.2072L9.20726 18.2299C9.20725 18.2299 9.20709 18.2301 9.20677 18.2305C9.20661 18.2307 9.20643 18.2309 9.2062 18.2312C9.20403 18.2336 9.19844 18.2388 9.1888 18.2398C9.18608 18.24 9.1845 18.2397 9.18449 18.2398C9.18447 18.2399 9.18902 18.241 9.20027 18.2476C9.20129 18.2482 9.20233 18.2488 9.20339 18.2495M9.16268 18.2072C9.18401 18.1668 9.22134 18.1884 9.42668 18.3635L9.16268 18.2072ZM9.17531 18.6051C9.17929 18.5088 9.18523 18.4169 9.1918 18.3462C9.19509 18.3108 9.19848 18.2813 9.20178 18.2596C9.20233 18.2559 9.20287 18.2526 9.20339 18.2495M9.17531 18.6051C9.16606 18.9167 9.18631 19.1295 9.25699 19.3127C9.32749 19.4954 9.45015 19.6537 9.65594 19.8523C10.0154 20.1943 10.4789 20.4796 11.1552 20.761L11.1554 20.761C12.1363 21.1735 13.5575 21.4958 14.7769 21.5844C15.3052 21.6219 16.9028 21.6219 17.4365 21.5844L17.4365 21.5843C19.0502 21.4715 20.765 21.0148 21.7967 20.4296L21.7967 20.4295C22.4294 20.0712 22.8464 19.6762 23.0537 19.247C23.0953 19.1601 23.1143 19.1174 23.1239 19.0659C23.1337 19.0131 23.1341 18.9493 23.1314 18.8203C23.1261 18.6733 23.1075 18.4468 23.0867 18.3176C23.0762 18.2527 23.0637 18.1914 23.0524 18.145C23.049 18.1308 23.0456 18.1182 23.0426 18.1075C23.036 18.1128 23.0287 18.1194 23.0213 18.1274C23.0211 18.1276 23.0209 18.1278 23.0207 18.128L22.984 18.0941M9.17531 18.6051L22.6667 18.3958C22.8053 18.2692 22.9493 18.1345 22.984 18.0941M9.20339 18.2495C9.23689 18.27 9.29348 18.3156 9.39418 18.4015M9.20339 18.2495C9.20444 18.2433 9.20542 18.2383 9.20631 18.2344C9.20726 18.2303 9.20783 18.2286 9.20781 18.2286L9.39418 18.4015M9.39418 18.4015C10.3212 19.1942 11.358 19.6957 12.7879 20.0528M9.39418 18.4015L12.7879 20.0528M22.984 18.0941C23.0213 18.0537 23.0613 18.0348 23.072 18.0456C23.0853 18.0591 23.1147 18.1776 23.136 18.3096C23.1573 18.4416 23.176 18.6706 23.1813 18.8188L22.984 18.0941ZM12.7879 20.0528L12.788 20.0528C13.8402 20.3125 15.2448 20.4666 16.2551 20.4314L16.2533 20.3814L12.7879 20.0528ZM23.8425 19.7295C23.5376 20.3862 22.8613 21.0233 21.9969 21.4843L23.8425 19.7295ZM8.77429 20.3642C8.66762 20.2315 8.5298 20.0101 8.44046 19.8269L21.9969 21.4844C20.0869 22.5061 17.1427 22.9429 14.3331 22.6269C13.0534 22.4837 11.8882 22.1992 10.9312 21.8105C9.9751 21.4223 9.22307 20.9285 8.77429 20.3642Z" fill="black" stroke="black" stroke-width="0.1"/>
</g>
<defs>
<clipPath id="clip0_411_13009">
<rect width="24" height="22.6849" fill="white"/>
</clipPath>
</defs>
</svg>
