<svg width="24" height="25" viewBox="0 0 24 25" xmlns="http://www.w3.org/2000/svg">
<g clip-path="url(#clip0_174_2803)">
<path d="M20.9999 20.179L18.0209 17.191C19.3649 15.5071 20.0133 13.3726 19.8329 11.2256C19.6525 9.07869 18.657 7.08227 17.0508 5.64628C15.4446 4.2103 13.3496 3.44371 11.1959 3.50391C9.04225 3.56411 6.99334 4.44653 5.46987 5.97C3.94641 7.49347 3.06398 9.54237 3.00378 11.696C2.94358 13.8497 3.71017 15.9447 5.14616 17.5509C6.58215 19.1571 8.57857 20.1526 10.7255 20.333C12.8725 20.5134 15.007 19.865 16.6909 18.521L19.6699 21.5L20.9999 20.179ZM11.4439 18.502C10.1469 18.502 8.87893 18.1174 7.80047 17.3968C6.72202 16.6762 5.88146 15.652 5.3851 14.4537C4.88874 13.2553 4.75887 11.9368 5.01191 10.6646C5.26496 9.3925 5.88954 8.22397 6.8067 7.30682C7.72385 6.38967 8.89237 5.76508 10.1645 5.51204C11.4366 5.25899 12.7552 5.38886 13.9535 5.88522C15.1519 6.38158 16.1761 7.22214 16.8967 8.3006C17.6173 9.37905 18.0019 10.647 18.0019 11.944C18.0019 13.6833 17.311 15.3514 16.0811 16.5812C14.8512 17.8111 13.1832 18.502 11.4439 18.502Z"/>
</g>
<defs>
<clipPath id="clip0_174_2803">
<rect width="24" height="24" transform="translate(0 0.5)"/>
</clipPath>
</defs>
</svg>
