<svg width="48" height="49" viewBox="0 0 48 49" fill="none" xmlns="http://www.w3.org/2000/svg">
<rect width="48" height="49" fill="#282828"/>
<path d="M-931 -10419C-931 -10420.1 -930.105 -10421 -929 -10421H12757C12758.1 -10421 12759 -10420.1 12759 -10419V5327C12759 5328.1 12758.1 5329 12757 5329H-929C-930.105 5329 -931 5328.1 -931 5327V-10419Z" fill="#D0D0D0"/>
<path d="M-687 -1054C-687 -1055.1 -686.105 -1056 -685 -1056H5441C5442.1 -1056 5443 -1055.1 5443 -1054V1047C5443 1048.1 5442.1 1049 5441 1049H-685C-686.104 1049 -687 1048.1 -687 1047V-1054Z" fill="#AAAAAA"/>
<g filter="url(#filter0_d_763_5496)">
<g clip-path="url(#clip0_763_5496)">
<rect x="-503" y="-886" width="1366" height="1834" fill="#F6F6F6"/>
<rect x="-23.5" y="-22.9131" width="209" height="140" rx="7.5" fill="white"/>
<circle cx="24" cy="24.5869" r="24" fill="#40916C"/>
<mask id="mask0_763_5496" style="mask-type:alpha" maskUnits="userSpaceOnUse" x="0" y="0" width="48" height="49">
<circle cx="24" cy="24.5869" r="24" fill="#00ADD6"/>
</mask>
<g mask="url(#mask0_763_5496)">
<path d="M18.6832 10.2795C18.6994 9.8083 18.8658 9.08348 19.292 8.49668C19.6935 7.94376 20.3425 7.48309 21.4422 7.48309C22.542 7.48309 23.191 7.94376 23.5925 8.49668C24.0187 9.08348 24.1851 9.8083 24.2013 10.2795C24.215 10.6785 24.5481 10.9909 24.9453 10.9771C25.2088 10.968 25.4343 10.8176 25.5523 10.6009C25.912 10.3082 26.4712 9.99365 27.0967 9.89543C27.7698 9.78973 28.5529 9.92503 29.3306 10.7063C30.1082 11.4875 30.2429 12.2743 30.1377 12.9506C30.026 13.6683 29.6335 14.299 29.3133 14.6437C29.0422 14.9356 29.0579 15.3931 29.3484 15.6655C29.639 15.938 30.0943 15.9222 30.3655 15.6303C30.8369 15.1229 31.3943 14.237 31.5597 13.1739C31.7315 12.0693 31.4704 10.8112 30.3483 9.68382C29.2262 8.55647 27.9739 8.29415 26.8745 8.46679C26.3325 8.5519 25.8367 8.74033 25.4142 8.96755C25.2747 8.52727 25.0626 8.06766 24.7552 7.64437C24.0993 6.74126 23.0292 6.03711 21.4422 6.03711C19.8553 6.03711 18.7852 6.74126 18.1293 7.64437C17.8156 8.07628 17.6012 8.54601 17.4619 8.99444C17.0288 8.75526 16.5155 8.55523 15.9523 8.46679C14.8529 8.29415 13.6006 8.55647 12.4784 9.68382C11.3563 10.8112 11.0952 12.0693 11.2671 13.1739C11.4325 14.237 11.9898 15.1229 12.4612 15.6303C12.7324 15.9222 13.1878 15.938 13.4783 15.6655C13.7689 15.3931 13.7846 14.9356 13.5134 14.6437C13.1932 14.299 12.8007 13.6683 12.6891 12.9506C12.5839 12.2743 12.7185 11.4875 13.4962 10.7063C14.2738 9.92503 15.0569 9.78973 15.73 9.89543C16.4444 10.0076 17.0722 10.4019 17.4152 10.7236L17.4208 10.7288C17.5472 10.8749 17.7314 10.9699 17.9392 10.9771C18.3364 10.9909 18.6695 10.6785 18.6832 10.2795Z" fill="white"/>
<path d="M41.0965 9.76495C45.5821 9.10545 46.9206 12.2143 46.7569 13.338C46.7051 13.6934 46.9209 14.0331 47.2636 14.1356C47.6062 14.2381 47.9718 14.0724 48.122 13.7464C48.4867 12.9551 49.575 12.1585 51.1802 11.8667C52.7485 11.5817 54.6919 11.8102 56.5791 12.9261C57.9366 13.7288 58.894 14.9325 59.3969 16.1622C59.9063 17.4079 59.9184 18.592 59.5339 19.3954C59.4176 19.6383 59.4456 19.9261 59.6064 20.1419C59.7672 20.3577 60.0341 20.4657 60.2989 20.4221C61.4181 20.2378 62.3427 20.3384 63.1166 20.8486C63.9017 21.3662 64.6588 22.3885 65.2517 24.3245C65.9202 26.5073 65.9864 27.9815 65.6366 28.9966C65.3054 29.958 64.549 30.6474 63.1771 31.1436C63.0479 31.1903 62.9401 31.2703 62.86 31.3706C62.7006 31.4171 62.5564 31.5189 62.4585 31.6695C62.2412 32.0038 62.3348 32.4518 62.6675 32.6702C63.7554 33.384 64.2811 34.0826 64.4971 34.6972C64.7101 35.3027 64.6553 35.9198 64.3985 36.5463C63.8654 37.8472 62.5106 39.0534 61.364 39.7638L61.022 39.9757V55.9236H62.4613V40.7734C63.6578 39.9665 65.0895 38.6583 65.7294 37.0968C66.0904 36.216 66.2095 35.2259 65.8542 34.2155C65.6024 33.4992 65.1292 32.8215 64.418 32.1904C65.6571 31.5978 66.5609 30.7345 66.9967 29.4696C67.498 28.0145 67.3243 26.175 66.6273 23.8993C65.9826 21.794 65.0805 20.4138 63.9062 19.6396C63.0541 19.0779 62.1247 18.8784 61.1793 18.8914C61.3486 17.8484 61.1702 16.6936 60.7282 15.6127C60.1116 14.1051 58.9501 12.6503 57.3091 11.68C55.1184 10.3846 52.824 10.0985 50.924 10.4438C49.7774 10.6522 48.7265 11.1032 47.9399 11.7403C47.2001 9.77415 44.923 7.74096 40.8881 8.3342C38.3677 8.70477 36.7854 9.29626 35.8217 10.1908C34.8173 11.1232 34.6013 12.2738 34.5176 13.3883C34.4877 13.7864 34.7847 14.1336 35.1811 14.1636C35.5774 14.1937 35.9229 13.8953 35.9528 13.4971C36.029 12.4828 36.2067 11.8022 36.7985 11.2528C37.431 10.6657 38.6473 10.125 41.0965 9.76495Z" fill="white"/>
<path d="M49.1481 55.9236H50.5874V46.8862C50.5874 46.4869 50.2652 46.1632 49.8677 46.1632C49.4703 46.1632 49.1481 46.4869 49.1481 46.8862V55.9236Z" fill="white"/>
<path d="M54.4254 55.9236H55.8647V42.0662C55.8647 41.9054 55.8113 41.7493 55.7131 41.6223L54.0339 39.4534C53.7899 39.1382 53.3378 39.0814 53.0241 39.3265C52.7104 39.5717 52.6539 40.0259 52.8979 40.3411L54.4254 42.3143V55.9236Z" fill="white"/>
<path d="M30.9174 55.9236H29.4781V42.3072C29.4781 41.9079 29.8003 41.5842 30.1978 41.5842C30.5952 41.5842 30.9174 41.9079 30.9174 42.3072V55.9236Z" fill="white"/>
<path d="M25.6401 55.9236H24.2008V47.1272C24.2008 46.7279 24.523 46.4042 24.9205 46.4042C25.3179 46.4042 25.6401 46.7279 25.6401 47.1272V55.9236Z" fill="white"/>
<path d="M10.4783 18.1908C10.8004 17.9569 10.8726 17.5049 10.6397 17.1813C10.4069 16.8578 9.95698 16.7851 9.63492 17.0191C9.07512 17.4258 8.35836 18.1873 7.99229 19.1985C7.61195 20.2491 7.627 21.5343 8.51202 22.8576C9.39704 24.181 10.5756 24.6807 11.6875 24.724C12.2334 24.7452 12.7539 24.6571 13.2106 24.5169C13.0719 26.2567 13.2329 28.4204 14.0925 30.3161C14.6396 31.5227 15.4763 32.6332 16.7074 33.4388C17.9395 34.2451 19.5207 34.7158 21.5074 34.7158C23.4942 34.7158 25.0799 34.2451 26.3201 33.4403C27.559 32.6364 28.4085 31.5282 28.9706 30.3231C29.8575 28.4215 30.0447 26.2487 29.9255 24.5049C30.3914 24.652 30.9258 24.7458 31.487 24.724C32.5989 24.6807 33.7775 24.181 34.6625 22.8576C35.5475 21.5343 35.5626 20.2491 35.1822 19.1985C34.8161 18.1873 34.0994 17.4258 33.5396 17.0191C33.2175 16.7851 32.7676 16.8578 32.5347 17.1813C32.3019 17.5049 32.3741 17.9569 32.6962 18.1908C33.0765 18.4671 33.5825 19.0101 33.8296 19.6928C34.0625 20.336 34.0811 21.1341 33.4678 22.0512C32.8545 22.9683 32.112 23.2525 31.4312 23.2791C30.7087 23.3072 30.0171 23.0417 29.6188 22.7924C29.4972 22.7164 29.3619 22.6811 29.2286 22.6831C29.1402 22.6632 29.0466 22.6599 28.9518 22.6761C28.5599 22.7428 28.2961 23.116 28.3624 23.5097C28.6454 25.1875 28.6153 27.677 27.6673 29.7096C27.199 30.7137 26.5133 31.5936 25.5392 32.2257C24.5665 32.8569 23.2616 33.2698 21.5074 33.2698C19.753 33.2698 18.4551 32.8568 17.4929 32.2272C16.5296 31.5968 15.8568 30.7191 15.4023 29.7166C14.4816 27.6863 14.4834 25.1977 14.7883 23.5187C14.8596 23.1259 14.6005 22.7493 14.2095 22.6777C14.1117 22.6597 14.0149 22.6626 13.9236 22.6831C13.7976 22.6852 13.6705 22.7206 13.5557 22.7924C13.1574 23.0417 12.4658 23.3072 11.7433 23.2791C11.0625 23.2525 10.32 22.9683 9.70667 22.0512C9.09335 21.1341 9.11201 20.336 9.34487 19.6928C9.592 19.0101 10.098 18.4671 10.4783 18.1908Z" fill="white"/>
<path d="M14.116 32.0643C14.1819 31.6705 13.9177 31.2976 13.5257 31.2314C13.1338 31.1651 12.7626 31.4306 12.6967 31.8244C12.3152 34.1029 12.5301 37.5272 14.4585 40.4063C16.4169 43.3304 20.0533 45.5607 26.2398 45.5607C26.6372 45.5607 26.9594 45.237 26.9594 44.8377C26.9594 44.4384 26.6372 44.1147 26.2398 44.1147C20.4324 44.1147 17.2922 42.0472 15.6526 39.5991C13.9827 37.1059 13.7779 34.0835 14.116 32.0643Z" fill="white"/>
<path d="M31.8769 44.4762C31.4795 44.4762 31.1573 44.7999 31.1573 45.1992C31.1573 45.5985 31.4795 45.9222 31.8769 45.9222H51.1871C51.5845 45.9222 51.9067 45.5985 51.9067 45.1992C51.9067 44.7999 51.5845 44.4762 51.1871 44.4762H31.8769Z" fill="white"/>
</g>
<rect x="-23.5" y="-22.9131" width="209" height="140" rx="7.5" stroke="#E3E8EF"/>
</g>
<rect x="-503.5" y="-886.5" width="1367" height="1835" stroke="#E9E9E9"/>
</g>
<path d="M-685 -1055H5441V-1057H-685V-1055ZM5442 -1054V1047H5444V-1054H5442ZM5441 1048H-685V1050H5441V1048ZM-686 1047V-1054H-688V1047H-686ZM-685 1048C-685.552 1048 -686 1047.55 -686 1047H-688C-688 1048.66 -686.657 1050 -685 1050V1048ZM5442 1047C5442 1047.55 5441.55 1048 5441 1048V1050C5442.66 1050 5444 1048.66 5444 1047H5442ZM5441 -1055C5441.55 -1055 5442 -1054.55 5442 -1054H5444C5444 -1055.66 5442.66 -1057 5441 -1057V-1055ZM-685 -1057C-686.657 -1057 -688 -1055.66 -688 -1054H-686C-686 -1054.55 -685.552 -1055 -685 -1055V-1057Z" fill="white" fill-opacity="0.1"/>
<path d="M-929 -10420H12757V-10422H-929V-10420ZM12758 -10419V5327H12760V-10419H12758ZM12757 5328H-929V5330H12757V5328ZM-930 5327V-10419H-932V5327H-930ZM-929 5328C-929.552 5328 -930 5327.55 -930 5327H-932C-932 5328.66 -930.657 5330 -929 5330V5328ZM12758 5327C12758 5327.55 12757.6 5328 12757 5328V5330C12758.7 5330 12760 5328.66 12760 5327H12758ZM12757 -10420C12757.6 -10420 12758 -10419.6 12758 -10419H12760C12760 -10420.7 12758.7 -10422 12757 -10422V-10420ZM-929 -10422C-930.657 -10422 -932 -10420.7 -932 -10419H-930C-930 -10419.6 -929.553 -10420 -929 -10420V-10422Z" fill="white" fill-opacity="0.1"/>
<defs>
<filter id="filter0_d_763_5496" x="-524" y="-907" width="1408" height="1876" filterUnits="userSpaceOnUse" color-interpolation-filters="sRGB">
<feFlood flood-opacity="0" result="BackgroundImageFix"/>
<feColorMatrix in="SourceAlpha" type="matrix" values="0 0 0 0 0 0 0 0 0 0 0 0 0 0 0 0 0 0 127 0" result="hardAlpha"/>
<feOffset/>
<feGaussianBlur stdDeviation="10"/>
<feColorMatrix type="matrix" values="0 0 0 0 0 0 0 0 0 0 0 0 0 0 0 0 0 0 0.1 0"/>
<feBlend mode="normal" in2="BackgroundImageFix" result="effect1_dropShadow_763_5496"/>
<feBlend mode="normal" in="SourceGraphic" in2="effect1_dropShadow_763_5496" result="shape"/>
</filter>
<clipPath id="clip0_763_5496">
<rect x="-503" y="-886" width="1366" height="1834" fill="white"/>
</clipPath>
</defs>
</svg>
