<svg width="24" height="24" viewBox="0 0 24 24" fill="none" xmlns="http://www.w3.org/2000/svg">
<g clip-path="url(#clip0_411_13004)">
<mask id="path-1-outside-1_411_13004" maskUnits="userSpaceOnUse" x="-0.98143" y="2.57446" width="26" height="19" fill="black">
<rect fill="white" x="-0.98143" y="2.57446" width="26" height="19"/>
<path d="M7.328 3.63735C7.11467 3.75469 6.88 3.93602 6.80534 4.04269C6.69867 4.22402 6.58134 4.23469 5.86667 4.19202C5.14134 4.13869 4.97067 4.16002 4.46934 4.39469C4.14934 4.54402 3.75467 4.78936 3.584 4.96002C3.328 5.20535 3.21067 5.23736 2.89067 5.18402C1.90934 5.00269 1.664 4.99202 1.39734 5.12002C0.512004 5.52536 0.352004 5.63202 0.17067 5.97336C0.021337 6.26136 -0.010663 6.45335 0.0426703 6.77336C0.128004 7.23202 0.640004 7.78669 0.97067 7.78669C1.152 7.78669 1.13067 7.85069 0.81067 8.30936C0.149337 9.28002 0.0640037 10.3467 0.576004 11.36C0.789337 11.7654 0.821337 11.9574 0.77867 12.48C0.704004 13.2694 0.87467 13.888 1.32267 14.5174C1.664 14.976 1.90934 15.136 3.2 15.7227C3.41334 15.8294 3.47734 15.9467 3.53067 16.384C3.616 17.0454 3.86134 17.5254 4.33067 17.9627L4.68267 18.2934L4.71467 19.4134L4.74667 20.5334L5.54667 20.5654C6.57067 20.608 6.61334 20.5547 6.61334 19.1787C6.61334 17.7174 6.816 17.8454 6.848 19.328L6.88 20.5334L7.65867 20.5654C8.14934 20.5867 8.50134 20.544 8.59734 20.4694C8.704 20.384 8.74667 20.064 8.74667 19.264V18.1867L9.12 17.888C9.472 17.6107 9.51467 17.6 9.97334 17.7174C10.5493 17.8667 11.4773 17.792 11.9147 17.568C12.2133 17.408 12.2347 17.4187 12.6613 17.824L13.1093 18.24L13.1413 19.392L13.1733 20.5334L13.952 20.5654C14.4427 20.5867 14.7947 20.544 14.8907 20.4694C14.9973 20.384 15.04 20.064 15.04 19.2427C15.04 17.728 15.2427 17.8027 15.2747 19.3387L15.3067 20.5334L16.1493 20.5654C16.7573 20.5867 17.024 20.5547 17.0773 20.4587C17.1307 20.384 17.1733 19.84 17.1733 19.2427V18.176L17.504 17.9307C17.856 17.664 18.2293 16.96 18.24 16.5334C18.2507 16.352 18.3893 16.1707 18.6987 15.936C19.2533 15.5307 19.7227 14.688 19.808 13.952C19.84 13.6427 19.9573 13.2694 20.0533 13.12C20.512 12.4694 20.5333 11.488 20.1173 10.9334C20.0213 10.816 19.9467 10.6134 19.9467 10.4747C19.9467 10.2507 19.9787 10.24 20.864 10.24C21.376 10.24 21.9733 10.1867 22.1973 10.112C22.7413 9.95202 23.4133 9.37602 23.712 8.81069C24.032 8.19202 24.032 7.06136 23.712 6.44269C23.264 5.58935 22.336 5.01336 21.4187 5.01336C21.0987 5.01336 21.0133 4.96002 20.9067 4.69335C20.6293 4.01069 19.7867 3.59469 19.168 3.82936C18.9333 3.92535 18.816 3.90402 18.6133 3.77602C17.9947 3.37069 17.0347 3.40269 16.3947 3.86135C16 4.14935 15.36 4.12802 14.8693 3.82936C14.3253 3.49869 13.6427 3.45602 13.0987 3.72269L12.64 3.94669L12.1173 3.68002C11.488 3.36002 10.4747 3.31735 9.824 3.58402C9.44 3.73335 9.376 3.73335 9.07734 3.58402C8.64 3.34935 7.81867 3.38136 7.328 3.63735ZM8.992 4.37335C9.14134 4.49069 9.30134 4.58669 9.35467 4.58669C9.408 4.58669 9.632 4.49069 9.86667 4.37335C10.4213 4.09602 11.2853 4.09602 11.84 4.37335C12.064 4.49069 12.2773 4.62935 12.32 4.69335C12.4373 4.87469 12.768 4.81069 13.184 4.53336C13.6853 4.19202 14.048 4.19202 14.5493 4.53336C14.7733 4.68269 15.0507 4.80002 15.1787 4.78936C15.6907 4.74669 15.7547 4.78936 15.7013 5.14135C15.6693 5.37602 15.7013 5.51469 15.84 5.61069C16.0853 5.79202 16.4267 5.62136 16.4267 5.32269C16.4267 4.92802 16.7467 4.46935 17.1413 4.30935C17.6 4.10669 18.0267 4.19202 18.3467 4.54402C18.6347 4.83202 18.8373 4.86402 19.136 4.64002C19.4347 4.41602 19.7333 4.43736 20.0213 4.71469C20.32 4.99202 20.3413 5.45069 20.064 5.69602C19.84 5.89869 19.552 5.93069 19.0507 5.80269C18.784 5.73869 18.6987 5.78135 18.4427 6.08002C18.272 6.27202 18.1333 6.44269 18.1333 6.45335C18.1333 6.47469 18.2293 6.68802 18.3467 6.94402C18.592 7.48802 18.6133 8.01069 18.432 8.68269C18.3253 9.08802 18.3253 9.19469 18.4747 9.35469C18.56 9.46136 18.6667 9.68536 18.7093 9.85602C18.752 10.0267 18.8693 10.176 18.9867 10.208C19.1467 10.2507 19.2 10.3574 19.2 10.6134C19.2 10.8054 19.296 11.072 19.4027 11.2214C19.808 11.7334 19.776 12.3414 19.3067 12.8534C19.1787 12.992 19.104 13.2907 19.072 13.7387C18.9867 14.9867 18.144 15.776 16.8533 15.7867C15.968 15.7974 15.4453 16.0427 15.36 16.48C15.2 17.248 14.752 17.632 14.0373 17.632C13.4933 17.632 13.088 17.3867 12.8533 16.896C12.6507 16.4587 12.512 16.448 11.7653 16.8107C10.9867 17.1947 10.112 17.1307 9.41867 16.64C8.94934 16.32 8.93867 16.3094 7.98934 16.384L7.02934 16.4587L6.82667 16.8534C6.57067 17.3654 6.144 17.632 5.6 17.632C4.768 17.632 4.26667 17.056 4.26667 16.1174C4.26667 15.6374 4.23467 15.5627 3.88267 15.2747C3.66934 15.0934 3.33867 14.9227 3.14667 14.8907C2.624 14.784 1.97334 14.2614 1.71734 13.7387C1.48267 13.2374 1.41867 12.4694 1.58934 12.0214C1.67467 11.8187 1.64267 11.68 1.45067 11.4027C1.14134 10.944 0.960004 10.4107 0.960004 9.98402C0.960004 9.56802 1.32267 8.77869 1.65334 8.42669C1.84534 8.22402 1.92 8.01069 1.94134 7.62669L1.97334 7.09336H1.504C1.03467 7.08269 0.74667 6.86936 0.74667 6.51735C0.74667 6.27202 1.07734 5.97336 1.344 5.97336C1.48267 5.97336 1.62134 5.92002 1.65334 5.86669C1.73867 5.72802 2.16534 5.72802 2.304 5.86669C2.368 5.93069 2.688 6.00535 3.01867 6.03736C3.59467 6.08002 3.62667 6.06936 3.89334 5.71735C4.448 4.98135 5.6 4.70402 6.48534 5.07735C6.86934 5.23736 6.89067 5.22669 7.04 5.00269C7.488 4.35202 7.76534 4.16002 8.24534 4.16002C8.55467 4.16002 8.81067 4.23469 8.992 4.37335ZM22.2507 5.96269C23.3067 6.60269 23.5627 7.94669 22.8053 8.81069C22.272 9.41869 22.0267 9.49336 20.6507 9.49336H19.424L19.264 9.19469C19.1573 8.99202 19.1467 8.83202 19.2213 8.64002C19.328 8.36269 19.2853 7.27469 19.1467 6.84802C19.072 6.63469 19.104 6.61335 19.5307 6.61335C20.0427 6.61335 20.608 6.32536 20.8 5.98402C20.96 5.68536 21.7813 5.67469 22.2507 5.96269ZM17.4933 16.608C17.4933 16.8534 17.0133 17.4187 16.6933 17.5574C16.2773 17.728 16.1173 17.7387 15.9147 17.6214C15.808 17.5467 15.8187 17.4507 15.9573 17.1094C16.0533 16.8854 16.1813 16.6614 16.256 16.6187C16.416 16.512 17.4933 16.512 17.4933 16.608ZM8.74667 17.1627C8.74667 17.4294 7.92534 17.7494 7.50934 17.6427C7.104 17.536 7.41334 17.1947 7.94667 17.1414C8.18134 17.12 8.45867 17.0987 8.56534 17.088C8.66134 17.0774 8.74667 17.1094 8.74667 17.1627ZM5.84534 19.1254C5.87734 19.8294 5.86667 19.84 5.6 19.84C5.344 19.84 5.33334 19.8187 5.33334 19.168C5.33334 18.432 5.36534 18.3574 5.632 18.3894C5.78134 18.4107 5.824 18.56 5.84534 19.1254ZM8 19.1574C8 19.7654 7.97867 19.84 7.78667 19.84C7.59467 19.84 7.57334 19.7654 7.57334 19.104C7.57334 18.4214 7.584 18.368 7.78667 18.4214C7.968 18.4747 8 18.5707 8 19.1574ZM14.2933 19.1574C14.2933 19.7974 14.272 19.84 14.0587 19.84C13.824 19.84 13.8133 19.808 13.8453 19.104C13.8773 18.4427 13.8987 18.3787 14.0907 18.4214C14.2613 18.4747 14.2933 18.5814 14.2933 19.1574ZM16.4267 19.1574C16.4267 19.7654 16.4053 19.84 16.2133 19.84C16.0213 19.84 16 19.7654 16 19.104C16 18.4214 16.0107 18.368 16.2133 18.4214C16.3947 18.4747 16.4267 18.5707 16.4267 19.1574Z"/>
</mask>
<path d="M7.328 3.63735C7.11467 3.75469 6.88 3.93602 6.80534 4.04269C6.69867 4.22402 6.58134 4.23469 5.86667 4.19202C5.14134 4.13869 4.97067 4.16002 4.46934 4.39469C4.14934 4.54402 3.75467 4.78936 3.584 4.96002C3.328 5.20535 3.21067 5.23736 2.89067 5.18402C1.90934 5.00269 1.664 4.99202 1.39734 5.12002C0.512004 5.52536 0.352004 5.63202 0.17067 5.97336C0.021337 6.26136 -0.010663 6.45335 0.0426703 6.77336C0.128004 7.23202 0.640004 7.78669 0.97067 7.78669C1.152 7.78669 1.13067 7.85069 0.81067 8.30936C0.149337 9.28002 0.0640037 10.3467 0.576004 11.36C0.789337 11.7654 0.821337 11.9574 0.77867 12.48C0.704004 13.2694 0.87467 13.888 1.32267 14.5174C1.664 14.976 1.90934 15.136 3.2 15.7227C3.41334 15.8294 3.47734 15.9467 3.53067 16.384C3.616 17.0454 3.86134 17.5254 4.33067 17.9627L4.68267 18.2934L4.71467 19.4134L4.74667 20.5334L5.54667 20.5654C6.57067 20.608 6.61334 20.5547 6.61334 19.1787C6.61334 17.7174 6.816 17.8454 6.848 19.328L6.88 20.5334L7.65867 20.5654C8.14934 20.5867 8.50134 20.544 8.59734 20.4694C8.704 20.384 8.74667 20.064 8.74667 19.264V18.1867L9.12 17.888C9.472 17.6107 9.51467 17.6 9.97334 17.7174C10.5493 17.8667 11.4773 17.792 11.9147 17.568C12.2133 17.408 12.2347 17.4187 12.6613 17.824L13.1093 18.24L13.1413 19.392L13.1733 20.5334L13.952 20.5654C14.4427 20.5867 14.7947 20.544 14.8907 20.4694C14.9973 20.384 15.04 20.064 15.04 19.2427C15.04 17.728 15.2427 17.8027 15.2747 19.3387L15.3067 20.5334L16.1493 20.5654C16.7573 20.5867 17.024 20.5547 17.0773 20.4587C17.1307 20.384 17.1733 19.84 17.1733 19.2427V18.176L17.504 17.9307C17.856 17.664 18.2293 16.96 18.24 16.5334C18.2507 16.352 18.3893 16.1707 18.6987 15.936C19.2533 15.5307 19.7227 14.688 19.808 13.952C19.84 13.6427 19.9573 13.2694 20.0533 13.12C20.512 12.4694 20.5333 11.488 20.1173 10.9334C20.0213 10.816 19.9467 10.6134 19.9467 10.4747C19.9467 10.2507 19.9787 10.24 20.864 10.24C21.376 10.24 21.9733 10.1867 22.1973 10.112C22.7413 9.95202 23.4133 9.37602 23.712 8.81069C24.032 8.19202 24.032 7.06136 23.712 6.44269C23.264 5.58935 22.336 5.01336 21.4187 5.01336C21.0987 5.01336 21.0133 4.96002 20.9067 4.69335C20.6293 4.01069 19.7867 3.59469 19.168 3.82936C18.9333 3.92535 18.816 3.90402 18.6133 3.77602C17.9947 3.37069 17.0347 3.40269 16.3947 3.86135C16 4.14935 15.36 4.12802 14.8693 3.82936C14.3253 3.49869 13.6427 3.45602 13.0987 3.72269L12.64 3.94669L12.1173 3.68002C11.488 3.36002 10.4747 3.31735 9.824 3.58402C9.44 3.73335 9.376 3.73335 9.07734 3.58402C8.64 3.34935 7.81867 3.38136 7.328 3.63735ZM8.992 4.37335C9.14134 4.49069 9.30134 4.58669 9.35467 4.58669C9.408 4.58669 9.632 4.49069 9.86667 4.37335C10.4213 4.09602 11.2853 4.09602 11.84 4.37335C12.064 4.49069 12.2773 4.62935 12.32 4.69335C12.4373 4.87469 12.768 4.81069 13.184 4.53336C13.6853 4.19202 14.048 4.19202 14.5493 4.53336C14.7733 4.68269 15.0507 4.80002 15.1787 4.78936C15.6907 4.74669 15.7547 4.78936 15.7013 5.14135C15.6693 5.37602 15.7013 5.51469 15.84 5.61069C16.0853 5.79202 16.4267 5.62136 16.4267 5.32269C16.4267 4.92802 16.7467 4.46935 17.1413 4.30935C17.6 4.10669 18.0267 4.19202 18.3467 4.54402C18.6347 4.83202 18.8373 4.86402 19.136 4.64002C19.4347 4.41602 19.7333 4.43736 20.0213 4.71469C20.32 4.99202 20.3413 5.45069 20.064 5.69602C19.84 5.89869 19.552 5.93069 19.0507 5.80269C18.784 5.73869 18.6987 5.78135 18.4427 6.08002C18.272 6.27202 18.1333 6.44269 18.1333 6.45335C18.1333 6.47469 18.2293 6.68802 18.3467 6.94402C18.592 7.48802 18.6133 8.01069 18.432 8.68269C18.3253 9.08802 18.3253 9.19469 18.4747 9.35469C18.56 9.46136 18.6667 9.68536 18.7093 9.85602C18.752 10.0267 18.8693 10.176 18.9867 10.208C19.1467 10.2507 19.2 10.3574 19.2 10.6134C19.2 10.8054 19.296 11.072 19.4027 11.2214C19.808 11.7334 19.776 12.3414 19.3067 12.8534C19.1787 12.992 19.104 13.2907 19.072 13.7387C18.9867 14.9867 18.144 15.776 16.8533 15.7867C15.968 15.7974 15.4453 16.0427 15.36 16.48C15.2 17.248 14.752 17.632 14.0373 17.632C13.4933 17.632 13.088 17.3867 12.8533 16.896C12.6507 16.4587 12.512 16.448 11.7653 16.8107C10.9867 17.1947 10.112 17.1307 9.41867 16.64C8.94934 16.32 8.93867 16.3094 7.98934 16.384L7.02934 16.4587L6.82667 16.8534C6.57067 17.3654 6.144 17.632 5.6 17.632C4.768 17.632 4.26667 17.056 4.26667 16.1174C4.26667 15.6374 4.23467 15.5627 3.88267 15.2747C3.66934 15.0934 3.33867 14.9227 3.14667 14.8907C2.624 14.784 1.97334 14.2614 1.71734 13.7387C1.48267 13.2374 1.41867 12.4694 1.58934 12.0214C1.67467 11.8187 1.64267 11.68 1.45067 11.4027C1.14134 10.944 0.960004 10.4107 0.960004 9.98402C0.960004 9.56802 1.32267 8.77869 1.65334 8.42669C1.84534 8.22402 1.92 8.01069 1.94134 7.62669L1.97334 7.09336H1.504C1.03467 7.08269 0.74667 6.86936 0.74667 6.51735C0.74667 6.27202 1.07734 5.97336 1.344 5.97336C1.48267 5.97336 1.62134 5.92002 1.65334 5.86669C1.73867 5.72802 2.16534 5.72802 2.304 5.86669C2.368 5.93069 2.688 6.00535 3.01867 6.03736C3.59467 6.08002 3.62667 6.06936 3.89334 5.71735C4.448 4.98135 5.6 4.70402 6.48534 5.07735C6.86934 5.23736 6.89067 5.22669 7.04 5.00269C7.488 4.35202 7.76534 4.16002 8.24534 4.16002C8.55467 4.16002 8.81067 4.23469 8.992 4.37335ZM22.2507 5.96269C23.3067 6.60269 23.5627 7.94669 22.8053 8.81069C22.272 9.41869 22.0267 9.49336 20.6507 9.49336H19.424L19.264 9.19469C19.1573 8.99202 19.1467 8.83202 19.2213 8.64002C19.328 8.36269 19.2853 7.27469 19.1467 6.84802C19.072 6.63469 19.104 6.61335 19.5307 6.61335C20.0427 6.61335 20.608 6.32536 20.8 5.98402C20.96 5.68536 21.7813 5.67469 22.2507 5.96269ZM17.4933 16.608C17.4933 16.8534 17.0133 17.4187 16.6933 17.5574C16.2773 17.728 16.1173 17.7387 15.9147 17.6214C15.808 17.5467 15.8187 17.4507 15.9573 17.1094C16.0533 16.8854 16.1813 16.6614 16.256 16.6187C16.416 16.512 17.4933 16.512 17.4933 16.608ZM8.74667 17.1627C8.74667 17.4294 7.92534 17.7494 7.50934 17.6427C7.104 17.536 7.41334 17.1947 7.94667 17.1414C8.18134 17.12 8.45867 17.0987 8.56534 17.088C8.66134 17.0774 8.74667 17.1094 8.74667 17.1627ZM5.84534 19.1254C5.87734 19.8294 5.86667 19.84 5.6 19.84C5.344 19.84 5.33334 19.8187 5.33334 19.168C5.33334 18.432 5.36534 18.3574 5.632 18.3894C5.78134 18.4107 5.824 18.56 5.84534 19.1254ZM8 19.1574C8 19.7654 7.97867 19.84 7.78667 19.84C7.59467 19.84 7.57334 19.7654 7.57334 19.104C7.57334 18.4214 7.584 18.368 7.78667 18.4214C7.968 18.4747 8 18.5707 8 19.1574ZM14.2933 19.1574C14.2933 19.7974 14.272 19.84 14.0587 19.84C13.824 19.84 13.8133 19.808 13.8453 19.104C13.8773 18.4427 13.8987 18.3787 14.0907 18.4214C14.2613 18.4747 14.2933 18.5814 14.2933 19.1574ZM16.4267 19.1574C16.4267 19.7654 16.4053 19.84 16.2133 19.84C16.0213 19.84 16 19.7654 16 19.104C16 18.4214 16.0107 18.368 16.2133 18.4214C16.3947 18.4747 16.4267 18.5707 16.4267 19.1574Z" fill="black"/>
<path d="M7.328 3.63735C7.11467 3.75469 6.88 3.93602 6.80534 4.04269C6.69867 4.22402 6.58134 4.23469 5.86667 4.19202C5.14134 4.13869 4.97067 4.16002 4.46934 4.39469C4.14934 4.54402 3.75467 4.78936 3.584 4.96002C3.328 5.20535 3.21067 5.23736 2.89067 5.18402C1.90934 5.00269 1.664 4.99202 1.39734 5.12002C0.512004 5.52536 0.352004 5.63202 0.17067 5.97336C0.021337 6.26136 -0.010663 6.45335 0.0426703 6.77336C0.128004 7.23202 0.640004 7.78669 0.97067 7.78669C1.152 7.78669 1.13067 7.85069 0.81067 8.30936C0.149337 9.28002 0.0640037 10.3467 0.576004 11.36C0.789337 11.7654 0.821337 11.9574 0.77867 12.48C0.704004 13.2694 0.87467 13.888 1.32267 14.5174C1.664 14.976 1.90934 15.136 3.2 15.7227C3.41334 15.8294 3.47734 15.9467 3.53067 16.384C3.616 17.0454 3.86134 17.5254 4.33067 17.9627L4.68267 18.2934L4.71467 19.4134L4.74667 20.5334L5.54667 20.5654C6.57067 20.608 6.61334 20.5547 6.61334 19.1787C6.61334 17.7174 6.816 17.8454 6.848 19.328L6.88 20.5334L7.65867 20.5654C8.14934 20.5867 8.50134 20.544 8.59734 20.4694C8.704 20.384 8.74667 20.064 8.74667 19.264V18.1867L9.12 17.888C9.472 17.6107 9.51467 17.6 9.97334 17.7174C10.5493 17.8667 11.4773 17.792 11.9147 17.568C12.2133 17.408 12.2347 17.4187 12.6613 17.824L13.1093 18.24L13.1413 19.392L13.1733 20.5334L13.952 20.5654C14.4427 20.5867 14.7947 20.544 14.8907 20.4694C14.9973 20.384 15.04 20.064 15.04 19.2427C15.04 17.728 15.2427 17.8027 15.2747 19.3387L15.3067 20.5334L16.1493 20.5654C16.7573 20.5867 17.024 20.5547 17.0773 20.4587C17.1307 20.384 17.1733 19.84 17.1733 19.2427V18.176L17.504 17.9307C17.856 17.664 18.2293 16.96 18.24 16.5334C18.2507 16.352 18.3893 16.1707 18.6987 15.936C19.2533 15.5307 19.7227 14.688 19.808 13.952C19.84 13.6427 19.9573 13.2694 20.0533 13.12C20.512 12.4694 20.5333 11.488 20.1173 10.9334C20.0213 10.816 19.9467 10.6134 19.9467 10.4747C19.9467 10.2507 19.9787 10.24 20.864 10.24C21.376 10.24 21.9733 10.1867 22.1973 10.112C22.7413 9.95202 23.4133 9.37602 23.712 8.81069C24.032 8.19202 24.032 7.06136 23.712 6.44269C23.264 5.58935 22.336 5.01336 21.4187 5.01336C21.0987 5.01336 21.0133 4.96002 20.9067 4.69335C20.6293 4.01069 19.7867 3.59469 19.168 3.82936C18.9333 3.92535 18.816 3.90402 18.6133 3.77602C17.9947 3.37069 17.0347 3.40269 16.3947 3.86135C16 4.14935 15.36 4.12802 14.8693 3.82936C14.3253 3.49869 13.6427 3.45602 13.0987 3.72269L12.64 3.94669L12.1173 3.68002C11.488 3.36002 10.4747 3.31735 9.824 3.58402C9.44 3.73335 9.376 3.73335 9.07734 3.58402C8.64 3.34935 7.81867 3.38136 7.328 3.63735ZM8.992 4.37335C9.14134 4.49069 9.30134 4.58669 9.35467 4.58669C9.408 4.58669 9.632 4.49069 9.86667 4.37335C10.4213 4.09602 11.2853 4.09602 11.84 4.37335C12.064 4.49069 12.2773 4.62935 12.32 4.69335C12.4373 4.87469 12.768 4.81069 13.184 4.53336C13.6853 4.19202 14.048 4.19202 14.5493 4.53336C14.7733 4.68269 15.0507 4.80002 15.1787 4.78936C15.6907 4.74669 15.7547 4.78936 15.7013 5.14135C15.6693 5.37602 15.7013 5.51469 15.84 5.61069C16.0853 5.79202 16.4267 5.62136 16.4267 5.32269C16.4267 4.92802 16.7467 4.46935 17.1413 4.30935C17.6 4.10669 18.0267 4.19202 18.3467 4.54402C18.6347 4.83202 18.8373 4.86402 19.136 4.64002C19.4347 4.41602 19.7333 4.43736 20.0213 4.71469C20.32 4.99202 20.3413 5.45069 20.064 5.69602C19.84 5.89869 19.552 5.93069 19.0507 5.80269C18.784 5.73869 18.6987 5.78135 18.4427 6.08002C18.272 6.27202 18.1333 6.44269 18.1333 6.45335C18.1333 6.47469 18.2293 6.68802 18.3467 6.94402C18.592 7.48802 18.6133 8.01069 18.432 8.68269C18.3253 9.08802 18.3253 9.19469 18.4747 9.35469C18.56 9.46136 18.6667 9.68536 18.7093 9.85602C18.752 10.0267 18.8693 10.176 18.9867 10.208C19.1467 10.2507 19.2 10.3574 19.2 10.6134C19.2 10.8054 19.296 11.072 19.4027 11.2214C19.808 11.7334 19.776 12.3414 19.3067 12.8534C19.1787 12.992 19.104 13.2907 19.072 13.7387C18.9867 14.9867 18.144 15.776 16.8533 15.7867C15.968 15.7974 15.4453 16.0427 15.36 16.48C15.2 17.248 14.752 17.632 14.0373 17.632C13.4933 17.632 13.088 17.3867 12.8533 16.896C12.6507 16.4587 12.512 16.448 11.7653 16.8107C10.9867 17.1947 10.112 17.1307 9.41867 16.64C8.94934 16.32 8.93867 16.3094 7.98934 16.384L7.02934 16.4587L6.82667 16.8534C6.57067 17.3654 6.144 17.632 5.6 17.632C4.768 17.632 4.26667 17.056 4.26667 16.1174C4.26667 15.6374 4.23467 15.5627 3.88267 15.2747C3.66934 15.0934 3.33867 14.9227 3.14667 14.8907C2.624 14.784 1.97334 14.2614 1.71734 13.7387C1.48267 13.2374 1.41867 12.4694 1.58934 12.0214C1.67467 11.8187 1.64267 11.68 1.45067 11.4027C1.14134 10.944 0.960004 10.4107 0.960004 9.98402C0.960004 9.56802 1.32267 8.77869 1.65334 8.42669C1.84534 8.22402 1.92 8.01069 1.94134 7.62669L1.97334 7.09336H1.504C1.03467 7.08269 0.74667 6.86936 0.74667 6.51735C0.74667 6.27202 1.07734 5.97336 1.344 5.97336C1.48267 5.97336 1.62134 5.92002 1.65334 5.86669C1.73867 5.72802 2.16534 5.72802 2.304 5.86669C2.368 5.93069 2.688 6.00535 3.01867 6.03736C3.59467 6.08002 3.62667 6.06936 3.89334 5.71735C4.448 4.98135 5.6 4.70402 6.48534 5.07735C6.86934 5.23736 6.89067 5.22669 7.04 5.00269C7.488 4.35202 7.76534 4.16002 8.24534 4.16002C8.55467 4.16002 8.81067 4.23469 8.992 4.37335ZM22.2507 5.96269C23.3067 6.60269 23.5627 7.94669 22.8053 8.81069C22.272 9.41869 22.0267 9.49336 20.6507 9.49336H19.424L19.264 9.19469C19.1573 8.99202 19.1467 8.83202 19.2213 8.64002C19.328 8.36269 19.2853 7.27469 19.1467 6.84802C19.072 6.63469 19.104 6.61335 19.5307 6.61335C20.0427 6.61335 20.608 6.32536 20.8 5.98402C20.96 5.68536 21.7813 5.67469 22.2507 5.96269ZM17.4933 16.608C17.4933 16.8534 17.0133 17.4187 16.6933 17.5574C16.2773 17.728 16.1173 17.7387 15.9147 17.6214C15.808 17.5467 15.8187 17.4507 15.9573 17.1094C16.0533 16.8854 16.1813 16.6614 16.256 16.6187C16.416 16.512 17.4933 16.512 17.4933 16.608ZM8.74667 17.1627C8.74667 17.4294 7.92534 17.7494 7.50934 17.6427C7.104 17.536 7.41334 17.1947 7.94667 17.1414C8.18134 17.12 8.45867 17.0987 8.56534 17.088C8.66134 17.0774 8.74667 17.1094 8.74667 17.1627ZM5.84534 19.1254C5.87734 19.8294 5.86667 19.84 5.6 19.84C5.344 19.84 5.33334 19.8187 5.33334 19.168C5.33334 18.432 5.36534 18.3574 5.632 18.3894C5.78134 18.4107 5.824 18.56 5.84534 19.1254ZM8 19.1574C8 19.7654 7.97867 19.84 7.78667 19.84C7.59467 19.84 7.57334 19.7654 7.57334 19.104C7.57334 18.4214 7.584 18.368 7.78667 18.4214C7.968 18.4747 8 18.5707 8 19.1574ZM14.2933 19.1574C14.2933 19.7974 14.272 19.84 14.0587 19.84C13.824 19.84 13.8133 19.808 13.8453 19.104C13.8773 18.4427 13.8987 18.3787 14.0907 18.4214C14.2613 18.4747 14.2933 18.5814 14.2933 19.1574ZM16.4267 19.1574C16.4267 19.7654 16.4053 19.84 16.2133 19.84C16.0213 19.84 16 19.7654 16 19.104C16 18.4214 16.0107 18.368 16.2133 18.4214C16.3947 18.4747 16.4267 18.5707 16.4267 19.1574Z" stroke="black" stroke-width="0.2" mask="url(#path-1-outside-1_411_13004)"/>
<path d="M17.4595 8.988C17.3891 9.00076 17.31 8.98765 17.2394 8.95827C17.169 8.92893 17.1022 8.88126 17.0583 8.81894C17.0079 8.75221 16.974 8.63564 16.9515 8.50367C16.9285 8.36832 16.916 8.2073 16.914 8.04474C16.912 7.88212 16.9204 7.71667 16.9396 7.57235C16.9585 7.43034 16.9885 7.30347 17.0326 7.22049C17.1066 7.06145 17.2564 6.98776 17.4257 7.01195C17.4814 7.0199 17.5352 7.03023 17.5786 7.0607C17.6246 7.09304 17.6516 7.14231 17.6685 7.21078C17.6852 7.27818 17.6936 7.37031 17.6981 7.49616C17.7027 7.62271 17.7033 7.78695 17.7033 8.00012C17.7033 8.40306 17.6983 8.6362 17.6689 8.77203C17.6539 8.84108 17.6312 8.89274 17.5933 8.92884C17.5551 8.96517 17.508 8.97942 17.4595 8.988ZM17.4595 8.988C17.4594 8.98801 17.4594 8.98802 17.4594 8.98802L17.4507 8.93878L17.4596 8.98798C17.4596 8.98798 17.4595 8.98799 17.4595 8.988Z" fill="black" stroke="black" stroke-width="0.1"/>
<path d="M20.4834 7.25675C20.3797 7.36045 20.2587 7.39948 20.157 7.35044C20.0574 7.30243 20.0033 7.18238 20.0033 7.0294C20.0033 6.95573 20.025 6.89102 20.0713 6.84471C20.1176 6.7984 20.1823 6.77673 20.256 6.77673C20.409 6.77673 20.529 6.83078 20.577 6.93035C20.6261 7.03208 20.5871 7.15306 20.4834 7.25675Z" fill="black" stroke="black" stroke-width="0.1"/>
</g>
<defs>
<clipPath id="clip0_411_13004">
<rect width="24" height="24" fill="white"/>
</clipPath>
</defs>
</svg>
