<svg width="24" height="24" viewBox="0 0 24 24" fill="none" xmlns="http://www.w3.org/2000/svg">
<g clip-path="url(#clip0_411_12989)">
<mask id="path-1-outside-1_411_12989" maskUnits="userSpaceOnUse" x="-0.976562" y="-1.0083" width="26" height="26" fill="black">
<rect fill="white" x="-0.976562" y="-1.0083" width="26" height="26"/>
<path d="M13.575 0.0936928C13.2656 0.215569 13.0031 0.478067 12.8906 0.782755C12.8063 1.00776 12.7969 1.15307 12.7969 2.19838C12.7969 3.32338 12.8016 3.36557 12.9047 3.56713C13.0219 3.78275 13.2984 3.98432 13.4906 3.98432C13.5891 3.98432 13.5938 3.99838 13.5938 4.46713C13.5938 4.88901 13.5797 4.964 13.5 5.05307C13.3922 5.16557 13.3734 5.17025 12.8016 5.24525C11.9391 5.35775 11.1469 5.92025 10.7344 6.70307C10.3922 7.36869 10.4062 6.96088 10.4062 14.2593V20.8124H9.22969H8.05781L8.325 20.4749C8.64375 20.0624 8.91563 19.5328 9.05625 19.0453C9.14531 18.7406 9.16406 18.5671 9.16406 17.9999C9.15938 17.1937 9.10313 16.9312 8.76562 16.2421C8.09063 14.8593 6.73594 14.0156 5.20312 14.0156C3.4125 14.0156 1.85156 15.1968 1.35469 16.9312C1.22813 17.3765 1.18594 18.2203 1.26562 18.6703C1.37344 19.2937 1.69688 20.0203 2.04375 20.4374C2.10938 20.5078 2.14219 20.5828 2.12344 20.5921C2.1 20.6062 1.875 20.6718 1.61719 20.7374C1.35938 20.8078 1.04531 20.9109 0.914063 20.9718C0.6 21.1171 0.3 21.4171 0.15 21.7406C0.0421875 21.9656 0.0234375 22.0687 0.0234375 22.4062C0.028125 22.8984 0.16875 23.2218 0.515625 23.5499C0.8625 23.8734 1.11094 23.9718 1.59375 23.9671C1.94531 23.9671 2.17031 23.9156 3.49219 23.5593L4.99219 23.1515L5.0625 23.2593C5.23594 23.5171 5.41875 23.6812 5.70938 23.8218L6.02344 23.9765H8.41406H10.8047L11.0719 23.8406L11.3391 23.7046L11.6344 23.8406L11.9297 23.9765L17.0109 23.9906C20.3016 23.9953 22.1813 23.9859 22.35 23.9531C23.1516 23.8078 23.8031 23.1609 23.9531 22.364C23.9813 22.2046 24 19.5374 24 14.9062C24 7.93588 23.9953 7.69213 23.9109 7.34994C23.7984 6.914 23.6297 6.56713 23.3766 6.25775C22.9031 5.6765 22.2094 5.29682 21.5016 5.2265C21.075 5.18432 21.0141 5.16557 20.9062 5.05307C20.8266 4.964 20.8125 4.88901 20.8125 4.46713C20.8125 4.00776 20.8172 3.98432 20.9109 3.98432C21.075 3.98432 21.3703 3.78744 21.4828 3.60932C21.5813 3.44994 21.5859 3.40307 21.5859 2.20307C21.5859 1.26557 21.5719 0.914005 21.5203 0.778069C21.4219 0.496819 21.1266 0.206192 20.8313 0.0936928C20.5828 0.00463104 20.4844 -5.72205e-05 17.1891 -5.72205e-05C13.9641 0.00463104 13.7953 0.0093174 13.575 0.0936928ZM14.3906 1.99213V3.18744H13.9922H13.5938V2.16557C13.5938 1.07807 13.6172 0.965569 13.8281 0.857756C13.8938 0.824944 14.0438 0.796818 14.1703 0.796818H14.3906V1.99213ZM15.9844 1.99213V3.18744H15.5859H15.1875V1.99213V0.796818H15.5859H15.9844V1.99213ZM20.6813 0.928068C20.7844 1.03119 20.7891 1.064 20.8031 2.10932L20.8172 3.18744H18.8016H16.7812V1.99213V0.79213L18.6797 0.806192L20.5734 0.820255L20.6813 0.928068ZM20.0156 4.59369C20.0438 5.23588 20.0906 5.36713 20.3625 5.639C20.5828 5.85932 20.8219 5.95775 21.2531 6.00463C21.9094 6.07963 22.2797 6.24838 22.6594 6.6515C23.0156 7.03588 23.2031 7.54682 23.2031 8.13744V8.39057H17.2031H11.2031V8.09525C11.2031 7.52807 11.3906 7.03588 11.7563 6.64682C12.1266 6.24838 12.5016 6.07963 13.1531 6.00463C13.5984 5.95775 13.8328 5.85932 14.0672 5.61557C14.3109 5.36244 14.3906 5.09525 14.3906 4.52338C14.3906 4.26088 14.4047 4.03119 14.4234 4.01713C14.4375 3.99838 15.6984 3.98901 17.2219 3.99369L19.9922 4.00776L20.0156 4.59369ZM23.2031 14.3906V19.5937H17.2031H11.2031V14.3906V9.18744H17.2031H23.2031V14.3906ZM5.57812 17.2921V19.7671L5.2875 19.7953C5.12344 19.8093 4.94531 19.8374 4.88906 19.8562L4.78125 19.8843V17.3812C4.78125 16.0031 4.79531 14.8593 4.81406 14.8453C4.82812 14.8265 5.01094 14.8124 5.2125 14.8124H5.57812V17.2921ZM3.96563 20.0953C3.95625 20.1046 3.74063 20.1703 3.4875 20.2359L3.02813 20.3578L2.80313 20.1046C2.68125 19.964 2.49375 19.6874 2.39062 19.4906C1.90313 18.5624 1.88906 17.5546 2.34375 16.6171C2.6625 15.9656 3.07031 15.539 3.70781 15.1874L3.96094 15.0515L3.975 17.564C3.97969 18.9468 3.975 20.0859 3.96563 20.0953ZM7.26094 15.5765C8.78906 16.8656 8.74688 19.2843 7.18125 20.4937C6.9375 20.6812 6.91875 20.6906 6.87188 20.6015C6.84375 20.5546 6.73125 20.414 6.62344 20.2968L6.42188 20.0765V17.5593V15.0421L6.69844 15.1874C6.84844 15.2671 7.10156 15.4453 7.26094 15.5765ZM23.2031 21.2812C23.2031 22.0546 23.1891 22.2046 23.1094 22.4156C22.9875 22.7343 22.7297 22.9921 22.4203 23.1093C22.1766 23.2031 22.05 23.2031 17.2453 23.2031C12.4828 23.2031 11.9625 23.189 11.8828 23.0624C11.8734 23.0484 11.8922 22.9312 11.9297 22.8046C12.0188 22.514 12.0188 22.2515 11.9297 21.9515C11.8453 21.6749 11.55 21.2578 11.3438 21.1265C11.2078 21.0421 11.2031 21.0234 11.2031 20.714V20.3906H17.2031H23.2031V21.2812ZM5.80781 20.6437C6.06094 20.7749 6.06094 20.8312 5.8125 20.9203C5.34844 21.0843 4.9125 21.6234 4.84219 22.1249L4.80469 22.3734L4.48125 22.4624C4.30313 22.5093 4.14844 22.5421 4.13906 22.5281C4.11094 22.4999 3.7125 21.0281 3.72656 21.0093C3.73125 20.9999 4.07344 20.9062 4.48125 20.7937C5.28281 20.5734 5.60156 20.5406 5.80781 20.6437ZM2.99531 21.4078C3.01875 21.5062 3.10781 21.8296 3.18281 22.1249C3.2625 22.4203 3.32813 22.6874 3.32813 22.7156C3.32813 22.7437 2.95312 22.8656 2.49844 22.9874C1.8375 23.1656 1.63125 23.2031 1.4625 23.1796C1.09688 23.1234 0.796875 22.7578 0.796875 22.364C0.796875 22.1718 0.979688 21.8531 1.15313 21.7453C1.29844 21.6562 2.67656 21.2484 2.86875 21.239C2.925 21.2343 2.9625 21.2906 2.99531 21.4078ZM8.01563 22.4062V23.2031H7.13906C6.37969 23.2031 6.22969 23.189 6.06563 23.114C5.81719 23.0015 5.6625 22.7812 5.63438 22.4953C5.60625 22.2046 5.64375 22.0734 5.79844 21.8859C6.00938 21.6374 6.11719 21.614 7.11563 21.6093H8.01563V22.4062ZM10.7812 21.7171C11.2594 21.9703 11.3391 22.6031 10.9406 22.9781C10.7203 23.1796 10.5938 23.2031 9.675 23.2031H8.8125V22.4062V21.6093H9.69375C10.5281 21.6093 10.5891 21.614 10.7812 21.7171Z"/>
</mask>
<path d="M13.575 0.0936928C13.2656 0.215569 13.0031 0.478067 12.8906 0.782755C12.8063 1.00776 12.7969 1.15307 12.7969 2.19838C12.7969 3.32338 12.8016 3.36557 12.9047 3.56713C13.0219 3.78275 13.2984 3.98432 13.4906 3.98432C13.5891 3.98432 13.5938 3.99838 13.5938 4.46713C13.5938 4.88901 13.5797 4.964 13.5 5.05307C13.3922 5.16557 13.3734 5.17025 12.8016 5.24525C11.9391 5.35775 11.1469 5.92025 10.7344 6.70307C10.3922 7.36869 10.4062 6.96088 10.4062 14.2593V20.8124H9.22969H8.05781L8.325 20.4749C8.64375 20.0624 8.91563 19.5328 9.05625 19.0453C9.14531 18.7406 9.16406 18.5671 9.16406 17.9999C9.15938 17.1937 9.10313 16.9312 8.76562 16.2421C8.09063 14.8593 6.73594 14.0156 5.20312 14.0156C3.4125 14.0156 1.85156 15.1968 1.35469 16.9312C1.22813 17.3765 1.18594 18.2203 1.26562 18.6703C1.37344 19.2937 1.69688 20.0203 2.04375 20.4374C2.10938 20.5078 2.14219 20.5828 2.12344 20.5921C2.1 20.6062 1.875 20.6718 1.61719 20.7374C1.35938 20.8078 1.04531 20.9109 0.914063 20.9718C0.6 21.1171 0.3 21.4171 0.15 21.7406C0.0421875 21.9656 0.0234375 22.0687 0.0234375 22.4062C0.028125 22.8984 0.16875 23.2218 0.515625 23.5499C0.8625 23.8734 1.11094 23.9718 1.59375 23.9671C1.94531 23.9671 2.17031 23.9156 3.49219 23.5593L4.99219 23.1515L5.0625 23.2593C5.23594 23.5171 5.41875 23.6812 5.70938 23.8218L6.02344 23.9765H8.41406H10.8047L11.0719 23.8406L11.3391 23.7046L11.6344 23.8406L11.9297 23.9765L17.0109 23.9906C20.3016 23.9953 22.1813 23.9859 22.35 23.9531C23.1516 23.8078 23.8031 23.1609 23.9531 22.364C23.9813 22.2046 24 19.5374 24 14.9062C24 7.93588 23.9953 7.69213 23.9109 7.34994C23.7984 6.914 23.6297 6.56713 23.3766 6.25775C22.9031 5.6765 22.2094 5.29682 21.5016 5.2265C21.075 5.18432 21.0141 5.16557 20.9062 5.05307C20.8266 4.964 20.8125 4.88901 20.8125 4.46713C20.8125 4.00776 20.8172 3.98432 20.9109 3.98432C21.075 3.98432 21.3703 3.78744 21.4828 3.60932C21.5813 3.44994 21.5859 3.40307 21.5859 2.20307C21.5859 1.26557 21.5719 0.914005 21.5203 0.778069C21.4219 0.496819 21.1266 0.206192 20.8313 0.0936928C20.5828 0.00463104 20.4844 -5.72205e-05 17.1891 -5.72205e-05C13.9641 0.00463104 13.7953 0.0093174 13.575 0.0936928ZM14.3906 1.99213V3.18744H13.9922H13.5938V2.16557C13.5938 1.07807 13.6172 0.965569 13.8281 0.857756C13.8938 0.824944 14.0438 0.796818 14.1703 0.796818H14.3906V1.99213ZM15.9844 1.99213V3.18744H15.5859H15.1875V1.99213V0.796818H15.5859H15.9844V1.99213ZM20.6813 0.928068C20.7844 1.03119 20.7891 1.064 20.8031 2.10932L20.8172 3.18744H18.8016H16.7812V1.99213V0.79213L18.6797 0.806192L20.5734 0.820255L20.6813 0.928068ZM20.0156 4.59369C20.0438 5.23588 20.0906 5.36713 20.3625 5.639C20.5828 5.85932 20.8219 5.95775 21.2531 6.00463C21.9094 6.07963 22.2797 6.24838 22.6594 6.6515C23.0156 7.03588 23.2031 7.54682 23.2031 8.13744V8.39057H17.2031H11.2031V8.09525C11.2031 7.52807 11.3906 7.03588 11.7563 6.64682C12.1266 6.24838 12.5016 6.07963 13.1531 6.00463C13.5984 5.95775 13.8328 5.85932 14.0672 5.61557C14.3109 5.36244 14.3906 5.09525 14.3906 4.52338C14.3906 4.26088 14.4047 4.03119 14.4234 4.01713C14.4375 3.99838 15.6984 3.98901 17.2219 3.99369L19.9922 4.00776L20.0156 4.59369ZM23.2031 14.3906V19.5937H17.2031H11.2031V14.3906V9.18744H17.2031H23.2031V14.3906ZM5.57812 17.2921V19.7671L5.2875 19.7953C5.12344 19.8093 4.94531 19.8374 4.88906 19.8562L4.78125 19.8843V17.3812C4.78125 16.0031 4.79531 14.8593 4.81406 14.8453C4.82812 14.8265 5.01094 14.8124 5.2125 14.8124H5.57812V17.2921ZM3.96563 20.0953C3.95625 20.1046 3.74063 20.1703 3.4875 20.2359L3.02813 20.3578L2.80313 20.1046C2.68125 19.964 2.49375 19.6874 2.39062 19.4906C1.90313 18.5624 1.88906 17.5546 2.34375 16.6171C2.6625 15.9656 3.07031 15.539 3.70781 15.1874L3.96094 15.0515L3.975 17.564C3.97969 18.9468 3.975 20.0859 3.96563 20.0953ZM7.26094 15.5765C8.78906 16.8656 8.74688 19.2843 7.18125 20.4937C6.9375 20.6812 6.91875 20.6906 6.87188 20.6015C6.84375 20.5546 6.73125 20.414 6.62344 20.2968L6.42188 20.0765V17.5593V15.0421L6.69844 15.1874C6.84844 15.2671 7.10156 15.4453 7.26094 15.5765ZM23.2031 21.2812C23.2031 22.0546 23.1891 22.2046 23.1094 22.4156C22.9875 22.7343 22.7297 22.9921 22.4203 23.1093C22.1766 23.2031 22.05 23.2031 17.2453 23.2031C12.4828 23.2031 11.9625 23.189 11.8828 23.0624C11.8734 23.0484 11.8922 22.9312 11.9297 22.8046C12.0188 22.514 12.0188 22.2515 11.9297 21.9515C11.8453 21.6749 11.55 21.2578 11.3438 21.1265C11.2078 21.0421 11.2031 21.0234 11.2031 20.714V20.3906H17.2031H23.2031V21.2812ZM5.80781 20.6437C6.06094 20.7749 6.06094 20.8312 5.8125 20.9203C5.34844 21.0843 4.9125 21.6234 4.84219 22.1249L4.80469 22.3734L4.48125 22.4624C4.30313 22.5093 4.14844 22.5421 4.13906 22.5281C4.11094 22.4999 3.7125 21.0281 3.72656 21.0093C3.73125 20.9999 4.07344 20.9062 4.48125 20.7937C5.28281 20.5734 5.60156 20.5406 5.80781 20.6437ZM2.99531 21.4078C3.01875 21.5062 3.10781 21.8296 3.18281 22.1249C3.2625 22.4203 3.32813 22.6874 3.32813 22.7156C3.32813 22.7437 2.95312 22.8656 2.49844 22.9874C1.8375 23.1656 1.63125 23.2031 1.4625 23.1796C1.09688 23.1234 0.796875 22.7578 0.796875 22.364C0.796875 22.1718 0.979688 21.8531 1.15313 21.7453C1.29844 21.6562 2.67656 21.2484 2.86875 21.239C2.925 21.2343 2.9625 21.2906 2.99531 21.4078ZM8.01563 22.4062V23.2031H7.13906C6.37969 23.2031 6.22969 23.189 6.06563 23.114C5.81719 23.0015 5.6625 22.7812 5.63438 22.4953C5.60625 22.2046 5.64375 22.0734 5.79844 21.8859C6.00938 21.6374 6.11719 21.614 7.11563 21.6093H8.01563V22.4062ZM10.7812 21.7171C11.2594 21.9703 11.3391 22.6031 10.9406 22.9781C10.7203 23.1796 10.5938 23.2031 9.675 23.2031H8.8125V22.4062V21.6093H9.69375C10.5281 21.6093 10.5891 21.614 10.7812 21.7171Z" fill="black"/>
<path d="M13.575 0.0936928C13.2656 0.215569 13.0031 0.478067 12.8906 0.782755C12.8063 1.00776 12.7969 1.15307 12.7969 2.19838C12.7969 3.32338 12.8016 3.36557 12.9047 3.56713C13.0219 3.78275 13.2984 3.98432 13.4906 3.98432C13.5891 3.98432 13.5938 3.99838 13.5938 4.46713C13.5938 4.88901 13.5797 4.964 13.5 5.05307C13.3922 5.16557 13.3734 5.17025 12.8016 5.24525C11.9391 5.35775 11.1469 5.92025 10.7344 6.70307C10.3922 7.36869 10.4062 6.96088 10.4062 14.2593V20.8124H9.22969H8.05781L8.325 20.4749C8.64375 20.0624 8.91563 19.5328 9.05625 19.0453C9.14531 18.7406 9.16406 18.5671 9.16406 17.9999C9.15938 17.1937 9.10313 16.9312 8.76562 16.2421C8.09063 14.8593 6.73594 14.0156 5.20312 14.0156C3.4125 14.0156 1.85156 15.1968 1.35469 16.9312C1.22813 17.3765 1.18594 18.2203 1.26562 18.6703C1.37344 19.2937 1.69688 20.0203 2.04375 20.4374C2.10938 20.5078 2.14219 20.5828 2.12344 20.5921C2.1 20.6062 1.875 20.6718 1.61719 20.7374C1.35938 20.8078 1.04531 20.9109 0.914063 20.9718C0.6 21.1171 0.3 21.4171 0.15 21.7406C0.0421875 21.9656 0.0234375 22.0687 0.0234375 22.4062C0.028125 22.8984 0.16875 23.2218 0.515625 23.5499C0.8625 23.8734 1.11094 23.9718 1.59375 23.9671C1.94531 23.9671 2.17031 23.9156 3.49219 23.5593L4.99219 23.1515L5.0625 23.2593C5.23594 23.5171 5.41875 23.6812 5.70938 23.8218L6.02344 23.9765H8.41406H10.8047L11.0719 23.8406L11.3391 23.7046L11.6344 23.8406L11.9297 23.9765L17.0109 23.9906C20.3016 23.9953 22.1813 23.9859 22.35 23.9531C23.1516 23.8078 23.8031 23.1609 23.9531 22.364C23.9813 22.2046 24 19.5374 24 14.9062C24 7.93588 23.9953 7.69213 23.9109 7.34994C23.7984 6.914 23.6297 6.56713 23.3766 6.25775C22.9031 5.6765 22.2094 5.29682 21.5016 5.2265C21.075 5.18432 21.0141 5.16557 20.9062 5.05307C20.8266 4.964 20.8125 4.88901 20.8125 4.46713C20.8125 4.00776 20.8172 3.98432 20.9109 3.98432C21.075 3.98432 21.3703 3.78744 21.4828 3.60932C21.5813 3.44994 21.5859 3.40307 21.5859 2.20307C21.5859 1.26557 21.5719 0.914005 21.5203 0.778069C21.4219 0.496819 21.1266 0.206192 20.8313 0.0936928C20.5828 0.00463104 20.4844 -5.72205e-05 17.1891 -5.72205e-05C13.9641 0.00463104 13.7953 0.0093174 13.575 0.0936928ZM14.3906 1.99213V3.18744H13.9922H13.5938V2.16557C13.5938 1.07807 13.6172 0.965569 13.8281 0.857756C13.8938 0.824944 14.0438 0.796818 14.1703 0.796818H14.3906V1.99213ZM15.9844 1.99213V3.18744H15.5859H15.1875V1.99213V0.796818H15.5859H15.9844V1.99213ZM20.6813 0.928068C20.7844 1.03119 20.7891 1.064 20.8031 2.10932L20.8172 3.18744H18.8016H16.7812V1.99213V0.79213L18.6797 0.806192L20.5734 0.820255L20.6813 0.928068ZM20.0156 4.59369C20.0438 5.23588 20.0906 5.36713 20.3625 5.639C20.5828 5.85932 20.8219 5.95775 21.2531 6.00463C21.9094 6.07963 22.2797 6.24838 22.6594 6.6515C23.0156 7.03588 23.2031 7.54682 23.2031 8.13744V8.39057H17.2031H11.2031V8.09525C11.2031 7.52807 11.3906 7.03588 11.7563 6.64682C12.1266 6.24838 12.5016 6.07963 13.1531 6.00463C13.5984 5.95775 13.8328 5.85932 14.0672 5.61557C14.3109 5.36244 14.3906 5.09525 14.3906 4.52338C14.3906 4.26088 14.4047 4.03119 14.4234 4.01713C14.4375 3.99838 15.6984 3.98901 17.2219 3.99369L19.9922 4.00776L20.0156 4.59369ZM23.2031 14.3906V19.5937H17.2031H11.2031V14.3906V9.18744H17.2031H23.2031V14.3906ZM5.57812 17.2921V19.7671L5.2875 19.7953C5.12344 19.8093 4.94531 19.8374 4.88906 19.8562L4.78125 19.8843V17.3812C4.78125 16.0031 4.79531 14.8593 4.81406 14.8453C4.82812 14.8265 5.01094 14.8124 5.2125 14.8124H5.57812V17.2921ZM3.96563 20.0953C3.95625 20.1046 3.74063 20.1703 3.4875 20.2359L3.02813 20.3578L2.80313 20.1046C2.68125 19.964 2.49375 19.6874 2.39062 19.4906C1.90313 18.5624 1.88906 17.5546 2.34375 16.6171C2.6625 15.9656 3.07031 15.539 3.70781 15.1874L3.96094 15.0515L3.975 17.564C3.97969 18.9468 3.975 20.0859 3.96563 20.0953ZM7.26094 15.5765C8.78906 16.8656 8.74688 19.2843 7.18125 20.4937C6.9375 20.6812 6.91875 20.6906 6.87188 20.6015C6.84375 20.5546 6.73125 20.414 6.62344 20.2968L6.42188 20.0765V17.5593V15.0421L6.69844 15.1874C6.84844 15.2671 7.10156 15.4453 7.26094 15.5765ZM23.2031 21.2812C23.2031 22.0546 23.1891 22.2046 23.1094 22.4156C22.9875 22.7343 22.7297 22.9921 22.4203 23.1093C22.1766 23.2031 22.05 23.2031 17.2453 23.2031C12.4828 23.2031 11.9625 23.189 11.8828 23.0624C11.8734 23.0484 11.8922 22.9312 11.9297 22.8046C12.0188 22.514 12.0188 22.2515 11.9297 21.9515C11.8453 21.6749 11.55 21.2578 11.3438 21.1265C11.2078 21.0421 11.2031 21.0234 11.2031 20.714V20.3906H17.2031H23.2031V21.2812ZM5.80781 20.6437C6.06094 20.7749 6.06094 20.8312 5.8125 20.9203C5.34844 21.0843 4.9125 21.6234 4.84219 22.1249L4.80469 22.3734L4.48125 22.4624C4.30313 22.5093 4.14844 22.5421 4.13906 22.5281C4.11094 22.4999 3.7125 21.0281 3.72656 21.0093C3.73125 20.9999 4.07344 20.9062 4.48125 20.7937C5.28281 20.5734 5.60156 20.5406 5.80781 20.6437ZM2.99531 21.4078C3.01875 21.5062 3.10781 21.8296 3.18281 22.1249C3.2625 22.4203 3.32813 22.6874 3.32813 22.7156C3.32813 22.7437 2.95312 22.8656 2.49844 22.9874C1.8375 23.1656 1.63125 23.2031 1.4625 23.1796C1.09688 23.1234 0.796875 22.7578 0.796875 22.364C0.796875 22.1718 0.979688 21.8531 1.15313 21.7453C1.29844 21.6562 2.67656 21.2484 2.86875 21.239C2.925 21.2343 2.9625 21.2906 2.99531 21.4078ZM8.01563 22.4062V23.2031H7.13906C6.37969 23.2031 6.22969 23.189 6.06563 23.114C5.81719 23.0015 5.6625 22.7812 5.63438 22.4953C5.60625 22.2046 5.64375 22.0734 5.79844 21.8859C6.00938 21.6374 6.11719 21.614 7.11563 21.6093H8.01563V22.4062ZM10.7812 21.7171C11.2594 21.9703 11.3391 22.6031 10.9406 22.9781C10.7203 23.1796 10.5938 23.2031 9.675 23.2031H8.8125V22.4062V21.6093H9.69375C10.5281 21.6093 10.5891 21.614 10.7812 21.7171Z" stroke="black" stroke-width="0.2" mask="url(#path-1-outside-1_411_12989)"/>
<path d="M13.6453 16.9358L13.5973 16.9498C13.5917 16.9306 13.5875 16.8995 13.5839 16.8611C13.5801 16.8213 13.5767 16.7695 13.5735 16.7064C13.5671 16.58 13.5616 16.4065 13.5572 16.1886C13.5484 15.7528 13.5437 15.1383 13.5437 14.3671L13.5438 14.367C13.5461 13.2869 13.5484 12.6836 13.5596 12.3311C13.5707 11.982 13.5902 11.8701 13.6328 11.7818C13.646 11.753 13.6782 11.7079 13.7194 11.6552C13.7625 11.6001 13.8195 11.5315 13.8858 11.4544C14.0185 11.3 14.1899 11.1098 14.3651 10.9211C14.5403 10.7325 14.7196 10.545 14.8681 10.396C14.9424 10.3215 15.0092 10.2564 15.0641 10.2055C15.1178 10.1557 15.1626 10.1172 15.1923 10.0975C15.26 10.0509 15.3829 10.0023 15.4694 9.97828L15.4694 9.97824L20.6813 17.0343M13.6453 16.9358L13.5971 16.9491C13.619 17.0283 13.6805 17.1246 13.7955 17.2636C13.9116 17.4041 14.0874 17.5939 14.3452 17.8611C14.7196 18.2542 15.1065 18.6273 15.1943 18.6956L15.1959 18.6969L15.1959 18.6968L15.36 18.814L15.3729 18.8232L15.3887 18.8233L17.1043 18.8374C17.1043 18.8374 17.1043 18.8374 17.1043 18.8374C17.6506 18.8421 18.0952 18.8409 18.4163 18.835C18.5769 18.8321 18.7069 18.828 18.8034 18.8228C18.8975 18.8178 18.9655 18.8115 18.9975 18.8028L18.9985 18.8026L18.9985 18.8025C19.038 18.7909 19.0913 18.757 19.1499 18.7135C19.2107 18.6685 19.2834 18.6083 19.3636 18.5378C19.5241 18.3968 19.7164 18.2125 19.9053 18.0209C20.0943 17.8293 20.2804 17.6299 20.4283 17.4583C20.5022 17.3726 20.5669 17.2934 20.6178 17.2254C20.668 17.1584 20.7068 17.0995 20.7268 17.0548M13.6453 16.9358C13.6125 16.8233 13.5938 15.9093 13.5938 14.3671C13.5984 12.2061 13.6031 11.9577 13.6781 11.803C13.7578 11.6249 15.0141 10.2749 15.2203 10.139C15.2813 10.0968 15.3984 10.0499 15.4828 10.0265M13.6453 16.9358C13.6828 17.0718 13.8656 17.2921 14.3813 17.8265C14.7563 18.2202 15.1406 18.5905 15.225 18.6561L15.3891 18.7733L17.1047 18.7874C18.1969 18.7968 18.8813 18.7827 18.9844 18.7546L15.4828 10.0265M20.7268 17.0548C20.7269 17.0548 20.7269 17.0547 20.7269 17.0547L20.6813 17.0343M20.7268 17.0548C20.7268 17.0549 20.7268 17.0549 20.7268 17.0549L20.6813 17.0343M20.7268 17.0548C21.1131 16.2037 20.4712 15.264 19.5234 15.264C19.3521 15.264 19.1735 15.2921 19.0736 15.3447L19.0735 15.3448C19.0486 15.3579 19.0135 15.384 18.9735 15.4169C18.9325 15.4506 18.8832 15.4939 18.8292 15.5438C18.721 15.6437 18.5925 15.7711 18.4698 15.9032L18.47 15.903L18.5063 15.9374M20.6813 17.0343C21.0516 16.2186 20.4375 15.314 19.5234 15.314C19.3547 15.314 19.1859 15.3421 19.0969 15.389C19.0172 15.4311 18.75 15.6749 18.5063 15.9374M18.5063 15.9374L18.4696 15.9034L18.0395 16.3561M18.5063 15.9374L18.0609 16.4061M15.4828 10.0265C15.5625 10.0077 16.3828 9.99364 17.2969 9.99833C18.7688 10.0077 18.9797 10.0171 19.1063 10.0874M15.4828 10.0265L19.1063 10.0874M18.0703 12.4218L18.4688 12.8249C18.9234 13.2843 19.2141 13.453 19.5656 13.453C19.9078 13.453 20.1422 13.364 20.3906 13.139M18.0703 12.4218V12.4718H18.0494M18.0703 12.4218L18.0348 12.4569L18.0494 12.4718M18.0703 12.4218H17.2078H16.3406M18.0494 12.4718L18.4332 12.86L18.4332 12.8601C18.8899 13.3215 19.193 13.503 19.5656 13.503C19.7412 13.503 19.8916 13.4802 20.0311 13.4271C20.1705 13.374 20.2964 13.2918 20.424 13.1762M18.0494 12.4718H17.2078H16.3609M20.424 13.1762C20.4239 13.1762 20.4239 13.1763 20.4238 13.1764L20.3906 13.139M20.424 13.1762C20.4241 13.1761 20.4241 13.1761 20.4242 13.176L20.3906 13.139M20.424 13.1762C20.5509 13.0636 20.6418 12.9586 20.7103 12.8351C20.7787 12.7119 20.8234 12.573 20.8614 12.3948M20.3906 13.139C20.6391 12.9186 20.7375 12.7358 20.8125 12.3843M20.8125 12.3843L20.8614 12.3948M20.8125 12.3843C20.9063 11.9483 20.85 11.8499 20.0063 10.9593M20.8125 12.3843L20.8614 12.3947C20.8614 12.3947 20.8614 12.3948 20.8614 12.3948M20.8614 12.3948C20.8849 12.2852 20.9004 12.1916 20.8946 12.0998C20.8888 12.0066 20.8614 11.9183 20.8044 11.8176C20.6929 11.6206 20.4625 11.3682 20.0426 10.9249C20.0426 10.9249 20.0426 10.9249 20.0425 10.9249L20.0063 10.9593M20.0063 10.9593C19.5938 10.5233 19.1859 10.1296 19.1063 10.0874M20.0063 10.9593L19.1063 10.0874M19.1063 10.0874L19.1305 10.0437C19.1304 10.0436 19.1303 10.0435 19.1301 10.0435C19.13 10.0434 19.1298 10.0433 19.1296 10.0432L19.1063 10.0874ZM16.3609 12.4718L16.3755 12.4576L16.3406 12.4218M16.3609 12.4718L16.1974 12.631L16.0344 12.7897M16.3609 12.4718H16.3406V12.4218M16.3406 12.4218L16.1625 12.5952L15.9844 12.7686M16.0344 12.7897V12.7686H15.9844M16.0344 12.7897V14.3999V16.012M16.0344 12.7897L16.0193 12.8045L15.9844 12.7686M15.9844 12.7686V14.3999V16.0311M16.0344 16.012L16.0215 15.9977L15.9844 16.0311M16.0344 16.012L16.1903 16.1852L16.3441 16.3561M16.0344 16.012V16.0311H15.9844M15.9844 16.0311L16.1531 16.2186L16.3219 16.4061M16.3441 16.3561H16.3219V16.4061M16.3441 16.3561H17.1938H18.0395M16.3441 16.3561L16.359 16.3727L16.3219 16.4061M16.3219 16.4061H17.1938H18.0609M18.0395 16.3561L18.0247 16.3717L18.0609 16.4061M18.0395 16.3561H18.0609V16.4061M20.0109 12.2999C19.9547 12.4921 19.7625 12.6561 19.5844 12.6561C19.4672 12.6561 19.3547 12.5718 18.9422 12.1686C18.6516 11.8874 18.3797 11.6624 18.3 11.639C18.225 11.6202 17.7094 11.6015 17.1563 11.6015C16.3078 11.6015 16.125 11.6155 16.0078 11.6765C15.7641 11.8124 15.2953 12.3374 15.2391 12.5436V16.2749L15.1911 16.289C15.191 16.2888 15.191 16.2886 15.1909 16.2885C15.1852 16.2686 15.1808 16.2379 15.177 16.2014C15.1731 16.1634 15.1695 16.1153 15.1663 16.0588C15.1597 15.9458 15.1544 15.7978 15.1502 15.6265C15.1417 15.284 15.1378 14.8475 15.1381 14.411C15.1384 13.9745 15.1429 13.5377 15.1515 13.1946C15.1558 13.0231 15.1611 12.8747 15.1674 12.7614C15.1706 12.7047 15.174 12.6564 15.1777 12.6182C15.1813 12.5811 15.1855 12.5504 15.1908 12.5306L15.1908 12.5305C15.2073 12.4701 15.2514 12.3927 15.3075 12.3118C15.3646 12.2294 15.4374 12.1386 15.5158 12.0505C15.6711 11.8757 15.8538 11.7051 15.9835 11.6328L15.9834 11.6328L15.9847 11.6321C16.0528 11.5967 16.1363 11.5775 16.3045 11.5662C16.4728 11.5549 16.7323 11.5515 17.1563 11.5515C17.4333 11.5515 17.7011 11.5561 17.9091 11.5632C18.0131 11.5667 18.1024 11.5708 18.1707 11.5753C18.2367 11.5796 18.2881 11.5844 18.3121 11.5904L18.3121 11.5904L18.3141 11.591C18.3428 11.5994 18.3809 11.6226 18.4217 11.6511C18.4645 11.6809 18.5161 11.7209 18.5738 11.7686C18.6893 11.8639 18.8309 11.9914 18.977 12.1327L18.9771 12.1329C19.1838 12.3348 19.3128 12.4544 19.4042 12.5237C19.4947 12.5923 19.5415 12.6061 19.5844 12.6061C19.6586 12.6061 19.7402 12.5715 19.8112 12.5118C19.8818 12.4525 19.9377 12.3717 19.9628 12.2864M20.0109 12.2999L19.9626 12.287C19.9627 12.2868 19.9627 12.2866 19.9628 12.2864M20.0109 12.2999L19.963 12.2858C19.9629 12.286 19.9628 12.2862 19.9628 12.2864M20.0109 12.2999C20.0484 12.1593 20.0297 12.1311 19.3969 11.4655L18.7149 17.9499H17.2031H15.6959L15.0684 17.3132L14.4406 16.6763V14.414V12.1464L15.0644 11.4906L15.0645 11.4905L15.6872 10.8311H17.2031H18.7193L19.3606 11.5C19.3607 11.5 19.3607 11.5 19.3607 11.5C19.6784 11.8342 19.8383 12.0046 19.915 12.1092C19.953 12.161 19.9665 12.1914 19.9707 12.2133C19.9747 12.234 19.9718 12.2524 19.9628 12.2864" fill="black" stroke="black" stroke-width="0.1"/>
</g>
<defs>
<clipPath id="clip0_411_12989">
<rect width="24" height="24" fill="white"/>
</clipPath>
</defs>
</svg>
