<svg width="36" height="35" viewBox="0 0 36 35" fill="none" xmlns="http://www.w3.org/2000/svg">
<rect width="36" height="35" fill="#282828"/>
<path d="M-923 -9738C-923 -9739.1 -922.105 -9740 -921 -9740H12765C12766.1 -9740 12767 -9739.1 12767 -9738V6008C12767 6009.1 12766.1 6010 12765 6010H-921C-922.105 6010 -923 6009.1 -923 6008V-9738Z" fill="#D0D0D0"/>
<path d="M-679 -373C-679 -374.105 -678.105 -375 -677 -375H5449C5450.1 -375 5451 -374.105 5451 -373V1728C5451 1729.1 5450.1 1730 5449 1730H-677C-678.104 1730 -679 1729.1 -679 1728V-373Z" fill="#AAAAAA"/>
<g filter="url(#filter0_d_763_5496)">
<g clip-path="url(#clip0_763_5496)">
<rect x="-495" y="-205" width="1366" height="1834" fill="#F6F6F6"/>
<rect x="-52" y="-16" width="140" height="101" rx="8" fill="white"/>
<g clip-path="url(#clip1_763_5496)">
<mask id="path-8-outside-1_763_5496" maskUnits="userSpaceOnUse" x="-0.964844" y="-1.01221" width="38" height="37" fill="black">
<rect fill="white" x="-0.964844" y="-1.01221" width="38" height="37"/>
<path d="M20.3625 0.136535C19.8984 0.314269 19.5047 0.697082 19.3359 1.14142C19.2094 1.46954 19.1953 1.68146 19.1953 3.20587C19.1953 4.8465 19.2023 4.90802 19.357 5.20196C19.5328 5.51642 19.9477 5.81036 20.2359 5.81036C20.3836 5.81036 20.3906 5.83087 20.3906 6.51446C20.3906 7.1297 20.3695 7.23907 20.25 7.36895C20.0883 7.53302 20.0602 7.53985 19.2023 7.64923C17.9086 7.81329 16.7203 8.6336 16.1016 9.7752C15.5883 10.7459 15.6094 10.1512 15.6094 20.7947V30.3514H13.8445H12.0867L12.4875 29.8592C12.9656 29.2576 13.3734 28.4852 13.5844 27.7742C13.718 27.3299 13.7461 27.077 13.7461 26.2498C13.7391 25.074 13.6547 24.6912 13.1484 23.6863C12.1359 21.6697 10.1039 20.4393 7.80469 20.4393C5.11875 20.4393 2.77734 22.1619 2.03203 24.6912C1.84219 25.3406 1.77891 26.5711 1.89844 27.2274C2.06016 28.1365 2.54531 29.1961 3.06562 29.8045C3.16406 29.907 3.21328 30.0164 3.18516 30.0301C3.15 30.0506 2.8125 30.1463 2.42578 30.242C2.03906 30.3445 1.56797 30.4949 1.37109 30.5838C0.9 30.7957 0.45 31.2332 0.225 31.7049C0.0632812 32.033 0.0351562 32.1834 0.0351562 32.6756C0.0421875 33.3934 0.253125 33.865 0.773437 34.3436C1.29375 34.8152 1.66641 34.9588 2.39062 34.952C2.91797 34.952 3.25547 34.8768 5.23828 34.3572L7.48828 33.7625L7.59375 33.9197C7.85391 34.2957 8.12812 34.535 8.56406 34.74L9.03516 34.9656H12.6211H16.207L16.6078 34.7674L17.0086 34.5692L17.4516 34.7674L17.8945 34.9656L25.5164 34.9861C30.4523 34.993 33.2719 34.9793 33.525 34.9315C34.7273 34.7195 35.7047 33.7762 35.9297 32.6141C35.9719 32.3817 36 28.492 36 21.7381C36 11.5731 35.993 11.2176 35.8664 10.7186C35.6977 10.0828 35.4445 9.57696 35.0648 9.12579C34.3547 8.27813 33.3141 7.72442 32.2523 7.62188C31.6125 7.56036 31.5211 7.53302 31.3594 7.36895C31.2398 7.23907 31.2187 7.1297 31.2187 6.51446C31.2187 5.84454 31.2258 5.81036 31.3664 5.81036C31.6125 5.81036 32.0555 5.52325 32.2242 5.26349C32.3719 5.03107 32.3789 4.96271 32.3789 3.21271C32.3789 1.84552 32.3578 1.33282 32.2805 1.13458C32.1328 0.724425 31.6898 0.300597 31.2469 0.136535C30.8742 0.00665188 30.7266 -0.000184059 25.7836 -0.000184059C20.9461 0.00665188 20.693 0.0134878 20.3625 0.136535ZM21.5859 2.90509V4.64825H20.9883H20.3906V3.15802C20.3906 1.57208 20.4258 1.40802 20.7422 1.25079C20.8406 1.20294 21.0656 1.16193 21.2555 1.16193H21.5859V2.90509ZM23.9766 2.90509V4.64825H23.3789H22.7812V2.90509V1.16193H23.3789H23.9766V2.90509ZM31.0219 1.35333C31.1766 1.50372 31.1836 1.55157 31.2047 3.07599L31.2258 4.64825H28.2023H25.1719V2.90509V1.15509L28.0195 1.1756L30.8602 1.19611L31.0219 1.35333ZM30.0234 6.69903C30.0656 7.63556 30.1359 7.82696 30.5437 8.22345C30.8742 8.54474 31.2328 8.68829 31.8797 8.75665C32.8641 8.86603 33.4195 9.11212 33.9891 9.70001C34.5234 10.2606 34.8047 11.0057 34.8047 11.867V12.2361H25.8047H16.8047V11.8055C16.8047 10.9783 17.0859 10.2606 17.6344 9.69317C18.1898 9.11212 18.7523 8.86603 19.7297 8.75665C20.3977 8.68829 20.7492 8.54474 21.1008 8.18927C21.4664 7.82013 21.5859 7.43048 21.5859 6.5965C21.5859 6.21368 21.607 5.87872 21.6352 5.85821C21.6562 5.83087 23.5477 5.8172 25.8328 5.82403L29.9883 5.84454L30.0234 6.69903ZM34.8047 20.9861V28.574H25.8047H16.8047V20.9861V13.3983H25.8047H34.8047V20.9861ZM8.36719 25.2176V28.827L7.93125 28.868C7.68516 28.8885 7.41797 28.9295 7.33359 28.9568L7.17187 28.9979V25.3475C7.17187 23.3377 7.19297 21.6697 7.22109 21.6492C7.24219 21.6219 7.51641 21.6014 7.81875 21.6014H8.36719V25.2176ZM5.94844 29.3055C5.93437 29.3192 5.61094 29.4149 5.23125 29.5106L4.54219 29.6883L4.20469 29.3192C4.02187 29.1141 3.74062 28.7108 3.58594 28.4236C2.85469 27.0701 2.83359 25.6004 3.51562 24.2332C3.99375 23.283 4.60547 22.6609 5.56172 22.1483L5.94141 21.95L5.9625 25.6141C5.96953 27.6307 5.9625 29.2918 5.94844 29.3055ZM10.8914 22.7156C13.1836 24.5955 13.1203 28.1229 10.7719 29.8865C10.4062 30.16 10.3781 30.1736 10.3078 30.0438C10.2656 29.9754 10.0969 29.7703 9.93516 29.5994L9.63281 29.2781V25.6072V21.9363L10.0477 22.1483C10.2727 22.2645 10.6523 22.5242 10.8914 22.7156ZM34.8047 31.035C34.8047 32.1629 34.7836 32.3817 34.6641 32.6893C34.4812 33.1541 34.0945 33.5301 33.6305 33.701C33.2648 33.8377 33.075 33.8377 25.868 33.8377C18.7242 33.8377 17.9437 33.8172 17.8242 33.6326C17.8102 33.6121 17.8383 33.4412 17.8945 33.2567C18.0281 32.8328 18.0281 32.45 17.8945 32.0125C17.768 31.6092 17.325 31.0008 17.0156 30.8094C16.8117 30.6863 16.8047 30.659 16.8047 30.2078V29.7361H25.8047H34.8047V31.035ZM8.71172 30.1053C9.09141 30.2967 9.09141 30.3787 8.71875 30.5086C8.02266 30.7479 7.36875 31.534 7.26328 32.2654L7.20703 32.6277L6.72187 32.7576C6.45469 32.826 6.22266 32.8738 6.20859 32.8533C6.16641 32.8123 5.56875 30.6658 5.58984 30.6385C5.59687 30.6248 6.11016 30.4881 6.72187 30.324C7.92422 30.0027 8.40234 29.9549 8.71172 30.1053ZM4.49297 31.2195C4.52812 31.3631 4.66172 31.8348 4.77422 32.2654C4.89375 32.6961 4.99219 33.0858 4.99219 33.1268C4.99219 33.1678 4.42969 33.3455 3.74766 33.5233C2.75625 33.783 2.44687 33.8377 2.19375 33.8035C1.64531 33.7215 1.19531 33.1883 1.19531 32.6141C1.19531 32.3338 1.46953 31.869 1.72969 31.7117C1.94766 31.5818 4.01484 30.9871 4.30312 30.9734C4.3875 30.9666 4.44375 31.0486 4.49297 31.2195ZM12.0234 32.6756V33.8377H10.7086C9.56953 33.8377 9.34453 33.8172 9.09844 33.7078C8.72578 33.5438 8.49375 33.2225 8.45156 32.8055C8.40937 32.3817 8.46562 32.1902 8.69766 31.9168C9.01406 31.5545 9.17578 31.5203 10.6734 31.5135H12.0234V32.6756ZM16.1719 31.6707C16.8891 32.0399 17.0086 32.9627 16.4109 33.5096C16.0805 33.8035 15.8906 33.8377 14.5125 33.8377H13.2187V32.6756V31.5135H14.5406C15.7922 31.5135 15.8836 31.5203 16.1719 31.6707Z"/>
</mask>
<path d="M20.3625 0.136535C19.8984 0.314269 19.5047 0.697082 19.3359 1.14142C19.2094 1.46954 19.1953 1.68146 19.1953 3.20587C19.1953 4.8465 19.2023 4.90802 19.357 5.20196C19.5328 5.51642 19.9477 5.81036 20.2359 5.81036C20.3836 5.81036 20.3906 5.83087 20.3906 6.51446C20.3906 7.1297 20.3695 7.23907 20.25 7.36895C20.0883 7.53302 20.0602 7.53985 19.2023 7.64923C17.9086 7.81329 16.7203 8.6336 16.1016 9.7752C15.5883 10.7459 15.6094 10.1512 15.6094 20.7947V30.3514H13.8445H12.0867L12.4875 29.8592C12.9656 29.2576 13.3734 28.4852 13.5844 27.7742C13.718 27.3299 13.7461 27.077 13.7461 26.2498C13.7391 25.074 13.6547 24.6912 13.1484 23.6863C12.1359 21.6697 10.1039 20.4393 7.80469 20.4393C5.11875 20.4393 2.77734 22.1619 2.03203 24.6912C1.84219 25.3406 1.77891 26.5711 1.89844 27.2274C2.06016 28.1365 2.54531 29.1961 3.06562 29.8045C3.16406 29.907 3.21328 30.0164 3.18516 30.0301C3.15 30.0506 2.8125 30.1463 2.42578 30.242C2.03906 30.3445 1.56797 30.4949 1.37109 30.5838C0.9 30.7957 0.45 31.2332 0.225 31.7049C0.0632812 32.033 0.0351562 32.1834 0.0351562 32.6756C0.0421875 33.3934 0.253125 33.865 0.773437 34.3436C1.29375 34.8152 1.66641 34.9588 2.39062 34.952C2.91797 34.952 3.25547 34.8768 5.23828 34.3572L7.48828 33.7625L7.59375 33.9197C7.85391 34.2957 8.12812 34.535 8.56406 34.74L9.03516 34.9656H12.6211H16.207L16.6078 34.7674L17.0086 34.5692L17.4516 34.7674L17.8945 34.9656L25.5164 34.9861C30.4523 34.993 33.2719 34.9793 33.525 34.9315C34.7273 34.7195 35.7047 33.7762 35.9297 32.6141C35.9719 32.3817 36 28.492 36 21.7381C36 11.5731 35.993 11.2176 35.8664 10.7186C35.6977 10.0828 35.4445 9.57696 35.0648 9.12579C34.3547 8.27813 33.3141 7.72442 32.2523 7.62188C31.6125 7.56036 31.5211 7.53302 31.3594 7.36895C31.2398 7.23907 31.2187 7.1297 31.2187 6.51446C31.2187 5.84454 31.2258 5.81036 31.3664 5.81036C31.6125 5.81036 32.0555 5.52325 32.2242 5.26349C32.3719 5.03107 32.3789 4.96271 32.3789 3.21271C32.3789 1.84552 32.3578 1.33282 32.2805 1.13458C32.1328 0.724425 31.6898 0.300597 31.2469 0.136535C30.8742 0.00665188 30.7266 -0.000184059 25.7836 -0.000184059C20.9461 0.00665188 20.693 0.0134878 20.3625 0.136535ZM21.5859 2.90509V4.64825H20.9883H20.3906V3.15802C20.3906 1.57208 20.4258 1.40802 20.7422 1.25079C20.8406 1.20294 21.0656 1.16193 21.2555 1.16193H21.5859V2.90509ZM23.9766 2.90509V4.64825H23.3789H22.7812V2.90509V1.16193H23.3789H23.9766V2.90509ZM31.0219 1.35333C31.1766 1.50372 31.1836 1.55157 31.2047 3.07599L31.2258 4.64825H28.2023H25.1719V2.90509V1.15509L28.0195 1.1756L30.8602 1.19611L31.0219 1.35333ZM30.0234 6.69903C30.0656 7.63556 30.1359 7.82696 30.5437 8.22345C30.8742 8.54474 31.2328 8.68829 31.8797 8.75665C32.8641 8.86603 33.4195 9.11212 33.9891 9.70001C34.5234 10.2606 34.8047 11.0057 34.8047 11.867V12.2361H25.8047H16.8047V11.8055C16.8047 10.9783 17.0859 10.2606 17.6344 9.69317C18.1898 9.11212 18.7523 8.86603 19.7297 8.75665C20.3977 8.68829 20.7492 8.54474 21.1008 8.18927C21.4664 7.82013 21.5859 7.43048 21.5859 6.5965C21.5859 6.21368 21.607 5.87872 21.6352 5.85821C21.6562 5.83087 23.5477 5.8172 25.8328 5.82403L29.9883 5.84454L30.0234 6.69903ZM34.8047 20.9861V28.574H25.8047H16.8047V20.9861V13.3983H25.8047H34.8047V20.9861ZM8.36719 25.2176V28.827L7.93125 28.868C7.68516 28.8885 7.41797 28.9295 7.33359 28.9568L7.17187 28.9979V25.3475C7.17187 23.3377 7.19297 21.6697 7.22109 21.6492C7.24219 21.6219 7.51641 21.6014 7.81875 21.6014H8.36719V25.2176ZM5.94844 29.3055C5.93437 29.3192 5.61094 29.4149 5.23125 29.5106L4.54219 29.6883L4.20469 29.3192C4.02187 29.1141 3.74062 28.7108 3.58594 28.4236C2.85469 27.0701 2.83359 25.6004 3.51562 24.2332C3.99375 23.283 4.60547 22.6609 5.56172 22.1483L5.94141 21.95L5.9625 25.6141C5.96953 27.6307 5.9625 29.2918 5.94844 29.3055ZM10.8914 22.7156C13.1836 24.5955 13.1203 28.1229 10.7719 29.8865C10.4062 30.16 10.3781 30.1736 10.3078 30.0438C10.2656 29.9754 10.0969 29.7703 9.93516 29.5994L9.63281 29.2781V25.6072V21.9363L10.0477 22.1483C10.2727 22.2645 10.6523 22.5242 10.8914 22.7156ZM34.8047 31.035C34.8047 32.1629 34.7836 32.3817 34.6641 32.6893C34.4812 33.1541 34.0945 33.5301 33.6305 33.701C33.2648 33.8377 33.075 33.8377 25.868 33.8377C18.7242 33.8377 17.9437 33.8172 17.8242 33.6326C17.8102 33.6121 17.8383 33.4412 17.8945 33.2567C18.0281 32.8328 18.0281 32.45 17.8945 32.0125C17.768 31.6092 17.325 31.0008 17.0156 30.8094C16.8117 30.6863 16.8047 30.659 16.8047 30.2078V29.7361H25.8047H34.8047V31.035ZM8.71172 30.1053C9.09141 30.2967 9.09141 30.3787 8.71875 30.5086C8.02266 30.7479 7.36875 31.534 7.26328 32.2654L7.20703 32.6277L6.72187 32.7576C6.45469 32.826 6.22266 32.8738 6.20859 32.8533C6.16641 32.8123 5.56875 30.6658 5.58984 30.6385C5.59687 30.6248 6.11016 30.4881 6.72187 30.324C7.92422 30.0027 8.40234 29.9549 8.71172 30.1053ZM4.49297 31.2195C4.52812 31.3631 4.66172 31.8348 4.77422 32.2654C4.89375 32.6961 4.99219 33.0858 4.99219 33.1268C4.99219 33.1678 4.42969 33.3455 3.74766 33.5233C2.75625 33.783 2.44687 33.8377 2.19375 33.8035C1.64531 33.7215 1.19531 33.1883 1.19531 32.6141C1.19531 32.3338 1.46953 31.869 1.72969 31.7117C1.94766 31.5818 4.01484 30.9871 4.30312 30.9734C4.3875 30.9666 4.44375 31.0486 4.49297 31.2195ZM12.0234 32.6756V33.8377H10.7086C9.56953 33.8377 9.34453 33.8172 9.09844 33.7078C8.72578 33.5438 8.49375 33.2225 8.45156 32.8055C8.40937 32.3817 8.46562 32.1902 8.69766 31.9168C9.01406 31.5545 9.17578 31.5203 10.6734 31.5135H12.0234V32.6756ZM16.1719 31.6707C16.8891 32.0399 17.0086 32.9627 16.4109 33.5096C16.0805 33.8035 15.8906 33.8377 14.5125 33.8377H13.2187V32.6756V31.5135H14.5406C15.7922 31.5135 15.8836 31.5203 16.1719 31.6707Z" fill="#40916C"/>
<path d="M20.3625 0.136535C19.8984 0.314269 19.5047 0.697082 19.3359 1.14142C19.2094 1.46954 19.1953 1.68146 19.1953 3.20587C19.1953 4.8465 19.2023 4.90802 19.357 5.20196C19.5328 5.51642 19.9477 5.81036 20.2359 5.81036C20.3836 5.81036 20.3906 5.83087 20.3906 6.51446C20.3906 7.1297 20.3695 7.23907 20.25 7.36895C20.0883 7.53302 20.0602 7.53985 19.2023 7.64923C17.9086 7.81329 16.7203 8.6336 16.1016 9.7752C15.5883 10.7459 15.6094 10.1512 15.6094 20.7947V30.3514H13.8445H12.0867L12.4875 29.8592C12.9656 29.2576 13.3734 28.4852 13.5844 27.7742C13.718 27.3299 13.7461 27.077 13.7461 26.2498C13.7391 25.074 13.6547 24.6912 13.1484 23.6863C12.1359 21.6697 10.1039 20.4393 7.80469 20.4393C5.11875 20.4393 2.77734 22.1619 2.03203 24.6912C1.84219 25.3406 1.77891 26.5711 1.89844 27.2274C2.06016 28.1365 2.54531 29.1961 3.06562 29.8045C3.16406 29.907 3.21328 30.0164 3.18516 30.0301C3.15 30.0506 2.8125 30.1463 2.42578 30.242C2.03906 30.3445 1.56797 30.4949 1.37109 30.5838C0.9 30.7957 0.45 31.2332 0.225 31.7049C0.0632812 32.033 0.0351562 32.1834 0.0351562 32.6756C0.0421875 33.3934 0.253125 33.865 0.773437 34.3436C1.29375 34.8152 1.66641 34.9588 2.39062 34.952C2.91797 34.952 3.25547 34.8768 5.23828 34.3572L7.48828 33.7625L7.59375 33.9197C7.85391 34.2957 8.12812 34.535 8.56406 34.74L9.03516 34.9656H12.6211H16.207L16.6078 34.7674L17.0086 34.5692L17.4516 34.7674L17.8945 34.9656L25.5164 34.9861C30.4523 34.993 33.2719 34.9793 33.525 34.9315C34.7273 34.7195 35.7047 33.7762 35.9297 32.6141C35.9719 32.3817 36 28.492 36 21.7381C36 11.5731 35.993 11.2176 35.8664 10.7186C35.6977 10.0828 35.4445 9.57696 35.0648 9.12579C34.3547 8.27813 33.3141 7.72442 32.2523 7.62188C31.6125 7.56036 31.5211 7.53302 31.3594 7.36895C31.2398 7.23907 31.2187 7.1297 31.2187 6.51446C31.2187 5.84454 31.2258 5.81036 31.3664 5.81036C31.6125 5.81036 32.0555 5.52325 32.2242 5.26349C32.3719 5.03107 32.3789 4.96271 32.3789 3.21271C32.3789 1.84552 32.3578 1.33282 32.2805 1.13458C32.1328 0.724425 31.6898 0.300597 31.2469 0.136535C30.8742 0.00665188 30.7266 -0.000184059 25.7836 -0.000184059C20.9461 0.00665188 20.693 0.0134878 20.3625 0.136535ZM21.5859 2.90509V4.64825H20.9883H20.3906V3.15802C20.3906 1.57208 20.4258 1.40802 20.7422 1.25079C20.8406 1.20294 21.0656 1.16193 21.2555 1.16193H21.5859V2.90509ZM23.9766 2.90509V4.64825H23.3789H22.7812V2.90509V1.16193H23.3789H23.9766V2.90509ZM31.0219 1.35333C31.1766 1.50372 31.1836 1.55157 31.2047 3.07599L31.2258 4.64825H28.2023H25.1719V2.90509V1.15509L28.0195 1.1756L30.8602 1.19611L31.0219 1.35333ZM30.0234 6.69903C30.0656 7.63556 30.1359 7.82696 30.5437 8.22345C30.8742 8.54474 31.2328 8.68829 31.8797 8.75665C32.8641 8.86603 33.4195 9.11212 33.9891 9.70001C34.5234 10.2606 34.8047 11.0057 34.8047 11.867V12.2361H25.8047H16.8047V11.8055C16.8047 10.9783 17.0859 10.2606 17.6344 9.69317C18.1898 9.11212 18.7523 8.86603 19.7297 8.75665C20.3977 8.68829 20.7492 8.54474 21.1008 8.18927C21.4664 7.82013 21.5859 7.43048 21.5859 6.5965C21.5859 6.21368 21.607 5.87872 21.6352 5.85821C21.6562 5.83087 23.5477 5.8172 25.8328 5.82403L29.9883 5.84454L30.0234 6.69903ZM34.8047 20.9861V28.574H25.8047H16.8047V20.9861V13.3983H25.8047H34.8047V20.9861ZM8.36719 25.2176V28.827L7.93125 28.868C7.68516 28.8885 7.41797 28.9295 7.33359 28.9568L7.17187 28.9979V25.3475C7.17187 23.3377 7.19297 21.6697 7.22109 21.6492C7.24219 21.6219 7.51641 21.6014 7.81875 21.6014H8.36719V25.2176ZM5.94844 29.3055C5.93437 29.3192 5.61094 29.4149 5.23125 29.5106L4.54219 29.6883L4.20469 29.3192C4.02187 29.1141 3.74062 28.7108 3.58594 28.4236C2.85469 27.0701 2.83359 25.6004 3.51562 24.2332C3.99375 23.283 4.60547 22.6609 5.56172 22.1483L5.94141 21.95L5.9625 25.6141C5.96953 27.6307 5.9625 29.2918 5.94844 29.3055ZM10.8914 22.7156C13.1836 24.5955 13.1203 28.1229 10.7719 29.8865C10.4062 30.16 10.3781 30.1736 10.3078 30.0438C10.2656 29.9754 10.0969 29.7703 9.93516 29.5994L9.63281 29.2781V25.6072V21.9363L10.0477 22.1483C10.2727 22.2645 10.6523 22.5242 10.8914 22.7156ZM34.8047 31.035C34.8047 32.1629 34.7836 32.3817 34.6641 32.6893C34.4812 33.1541 34.0945 33.5301 33.6305 33.701C33.2648 33.8377 33.075 33.8377 25.868 33.8377C18.7242 33.8377 17.9437 33.8172 17.8242 33.6326C17.8102 33.6121 17.8383 33.4412 17.8945 33.2567C18.0281 32.8328 18.0281 32.45 17.8945 32.0125C17.768 31.6092 17.325 31.0008 17.0156 30.8094C16.8117 30.6863 16.8047 30.659 16.8047 30.2078V29.7361H25.8047H34.8047V31.035ZM8.71172 30.1053C9.09141 30.2967 9.09141 30.3787 8.71875 30.5086C8.02266 30.7479 7.36875 31.534 7.26328 32.2654L7.20703 32.6277L6.72187 32.7576C6.45469 32.826 6.22266 32.8738 6.20859 32.8533C6.16641 32.8123 5.56875 30.6658 5.58984 30.6385C5.59687 30.6248 6.11016 30.4881 6.72187 30.324C7.92422 30.0027 8.40234 29.9549 8.71172 30.1053ZM4.49297 31.2195C4.52812 31.3631 4.66172 31.8348 4.77422 32.2654C4.89375 32.6961 4.99219 33.0858 4.99219 33.1268C4.99219 33.1678 4.42969 33.3455 3.74766 33.5233C2.75625 33.783 2.44687 33.8377 2.19375 33.8035C1.64531 33.7215 1.19531 33.1883 1.19531 32.6141C1.19531 32.3338 1.46953 31.869 1.72969 31.7117C1.94766 31.5818 4.01484 30.9871 4.30312 30.9734C4.3875 30.9666 4.44375 31.0486 4.49297 31.2195ZM12.0234 32.6756V33.8377H10.7086C9.56953 33.8377 9.34453 33.8172 9.09844 33.7078C8.72578 33.5438 8.49375 33.2225 8.45156 32.8055C8.40937 32.3817 8.46562 32.1902 8.69766 31.9168C9.01406 31.5545 9.17578 31.5203 10.6734 31.5135H12.0234V32.6756ZM16.1719 31.6707C16.8891 32.0399 17.0086 32.9627 16.4109 33.5096C16.0805 33.8035 15.8906 33.8377 14.5125 33.8377H13.2187V32.6756V31.5135H14.5406C15.7922 31.5135 15.8836 31.5203 16.1719 31.6707Z" stroke="#40916C" stroke-width="0.4" mask="url(#path-8-outside-1_763_5496)"/>
<mask id="path-9-outside-2_763_5496" maskUnits="userSpaceOnUse" x="19.3906" y="14.4023" width="12" height="14" fill="black">
<rect fill="white" x="19.3906" y="14.4023" width="12" height="14"/>
<path d="M23.2242 14.6218C23.0977 14.6559 22.9219 14.7243 22.8305 14.7858C22.5211 14.9841 20.6367 16.9528 20.5172 17.2126C20.4047 17.4382 20.3977 17.8005 20.3906 20.9518C20.3906 23.2009 20.4188 24.5339 20.468 24.6979C20.5242 24.8962 20.7984 25.2175 21.5719 25.9968C22.1344 26.571 22.7109 27.111 22.8375 27.2067L23.0836 27.3776L25.657 27.3981C27.2953 27.4118 28.3219 27.3913 28.4766 27.3503C28.8352 27.2477 30.8109 25.2995 31.0219 24.8415C31.5773 23.652 30.6563 22.3327 29.2852 22.3327C29.032 22.3327 28.7789 22.3737 28.6453 22.4421C28.5258 22.5036 28.125 22.8591 27.7594 23.2419L27.0914 23.9255H25.7906H24.4828L24.2297 23.652L23.9766 23.3786V20.9997V18.6208L24.2438 18.3679L24.5109 18.1149H25.8117H27.1055L27.7031 18.7028C28.3852 19.3727 28.8211 19.6188 29.3484 19.6188C29.8617 19.6188 30.2133 19.4889 30.5859 19.1608C30.9586 18.8395 31.1063 18.5729 31.2188 18.0602C31.3594 17.4245 31.275 17.2809 30.0094 15.9821C29.3906 15.3464 28.7789 14.7721 28.6594 14.7106C28.4695 14.6081 28.1531 14.5944 25.9453 14.5807C24.5742 14.5739 23.3438 14.5944 23.2242 14.6218ZM29.0953 16.7204C30.0445 17.6911 30.0727 17.7321 30.0164 17.9372C29.932 18.2175 29.6438 18.4567 29.3766 18.4567C29.2008 18.4567 29.032 18.3337 28.4133 17.7458C27.9773 17.3356 27.5695 17.0075 27.45 16.9733C27.3375 16.946 26.5641 16.9186 25.7344 16.9186C24.4617 16.9186 24.1875 16.9391 24.0117 17.028C23.6461 17.2263 22.943 17.9919 22.8586 18.2927C22.7602 18.6481 22.7531 23.3854 22.8586 23.7341C22.95 24.0622 23.6391 24.7936 24.0117 24.9577C24.2578 25.0671 24.4969 25.0876 25.7977 25.0876C27.6469 25.0876 27.6117 25.1013 28.5328 24.1305C29.1234 23.5153 29.2078 23.4538 29.3766 23.4948C29.8406 23.6042 30.0938 23.9528 29.9531 24.2946C29.9109 24.404 29.482 24.8825 28.9898 25.3679L28.1039 26.2497H25.8047H23.5125L22.5492 25.2995L21.5859 24.3493V21.0202V17.6843L22.5422 16.7067L23.4984 15.7223H25.8047H28.1109L29.0953 16.7204Z"/>
</mask>
<path d="M23.2242 14.6218C23.0977 14.6559 22.9219 14.7243 22.8305 14.7858C22.5211 14.9841 20.6367 16.9528 20.5172 17.2126C20.4047 17.4382 20.3977 17.8005 20.3906 20.9518C20.3906 23.2009 20.4188 24.5339 20.468 24.6979C20.5242 24.8962 20.7984 25.2175 21.5719 25.9968C22.1344 26.571 22.7109 27.111 22.8375 27.2067L23.0836 27.3776L25.657 27.3981C27.2953 27.4118 28.3219 27.3913 28.4766 27.3503C28.8352 27.2477 30.8109 25.2995 31.0219 24.8415C31.5773 23.652 30.6563 22.3327 29.2852 22.3327C29.032 22.3327 28.7789 22.3737 28.6453 22.4421C28.5258 22.5036 28.125 22.8591 27.7594 23.2419L27.0914 23.9255H25.7906H24.4828L24.2297 23.652L23.9766 23.3786V20.9997V18.6208L24.2438 18.3679L24.5109 18.1149H25.8117H27.1055L27.7031 18.7028C28.3852 19.3727 28.8211 19.6188 29.3484 19.6188C29.8617 19.6188 30.2133 19.4889 30.5859 19.1608C30.9586 18.8395 31.1063 18.5729 31.2188 18.0602C31.3594 17.4245 31.275 17.2809 30.0094 15.9821C29.3906 15.3464 28.7789 14.7721 28.6594 14.7106C28.4695 14.6081 28.1531 14.5944 25.9453 14.5807C24.5742 14.5739 23.3438 14.5944 23.2242 14.6218ZM29.0953 16.7204C30.0445 17.6911 30.0727 17.7321 30.0164 17.9372C29.932 18.2175 29.6438 18.4567 29.3766 18.4567C29.2008 18.4567 29.032 18.3337 28.4133 17.7458C27.9773 17.3356 27.5695 17.0075 27.45 16.9733C27.3375 16.946 26.5641 16.9186 25.7344 16.9186C24.4617 16.9186 24.1875 16.9391 24.0117 17.028C23.6461 17.2263 22.943 17.9919 22.8586 18.2927C22.7602 18.6481 22.7531 23.3854 22.8586 23.7341C22.95 24.0622 23.6391 24.7936 24.0117 24.9577C24.2578 25.0671 24.4969 25.0876 25.7977 25.0876C27.6469 25.0876 27.6117 25.1013 28.5328 24.1305C29.1234 23.5153 29.2078 23.4538 29.3766 23.4948C29.8406 23.6042 30.0938 23.9528 29.9531 24.2946C29.9109 24.404 29.482 24.8825 28.9898 25.3679L28.1039 26.2497H25.8047H23.5125L22.5492 25.2995L21.5859 24.3493V21.0202V17.6843L22.5422 16.7067L23.4984 15.7223H25.8047H28.1109L29.0953 16.7204Z" fill="#40916C"/>
<path d="M23.2242 14.6218C23.0977 14.6559 22.9219 14.7243 22.8305 14.7858C22.5211 14.9841 20.6367 16.9528 20.5172 17.2126C20.4047 17.4382 20.3977 17.8005 20.3906 20.9518C20.3906 23.2009 20.4188 24.5339 20.468 24.6979C20.5242 24.8962 20.7984 25.2175 21.5719 25.9968C22.1344 26.571 22.7109 27.111 22.8375 27.2067L23.0836 27.3776L25.657 27.3981C27.2953 27.4118 28.3219 27.3913 28.4766 27.3503C28.8352 27.2477 30.8109 25.2995 31.0219 24.8415C31.5773 23.652 30.6563 22.3327 29.2852 22.3327C29.032 22.3327 28.7789 22.3737 28.6453 22.4421C28.5258 22.5036 28.125 22.8591 27.7594 23.2419L27.0914 23.9255H25.7906H24.4828L24.2297 23.652L23.9766 23.3786V20.9997V18.6208L24.2438 18.3679L24.5109 18.1149H25.8117H27.1055L27.7031 18.7028C28.3852 19.3727 28.8211 19.6188 29.3484 19.6188C29.8617 19.6188 30.2133 19.4889 30.5859 19.1608C30.9586 18.8395 31.1063 18.5729 31.2188 18.0602C31.3594 17.4245 31.275 17.2809 30.0094 15.9821C29.3906 15.3464 28.7789 14.7721 28.6594 14.7106C28.4695 14.6081 28.1531 14.5944 25.9453 14.5807C24.5742 14.5739 23.3438 14.5944 23.2242 14.6218ZM29.0953 16.7204C30.0445 17.6911 30.0727 17.7321 30.0164 17.9372C29.932 18.2175 29.6438 18.4567 29.3766 18.4567C29.2008 18.4567 29.032 18.3337 28.4133 17.7458C27.9773 17.3356 27.5695 17.0075 27.45 16.9733C27.3375 16.946 26.5641 16.9186 25.7344 16.9186C24.4617 16.9186 24.1875 16.9391 24.0117 17.028C23.6461 17.2263 22.943 17.9919 22.8586 18.2927C22.7602 18.6481 22.7531 23.3854 22.8586 23.7341C22.95 24.0622 23.6391 24.7936 24.0117 24.9577C24.2578 25.0671 24.4969 25.0876 25.7977 25.0876C27.6469 25.0876 27.6117 25.1013 28.5328 24.1305C29.1234 23.5153 29.2078 23.4538 29.3766 23.4948C29.8406 23.6042 30.0938 23.9528 29.9531 24.2946C29.9109 24.404 29.482 24.8825 28.9898 25.3679L28.1039 26.2497H25.8047H23.5125L22.5492 25.2995L21.5859 24.3493V21.0202V17.6843L22.5422 16.7067L23.4984 15.7223H25.8047H28.1109L29.0953 16.7204Z" stroke="#40916C" stroke-width="0.2" mask="url(#path-9-outside-2_763_5496)"/>
</g>
</g>
<rect x="-495.5" y="-205.5" width="1367" height="1835" stroke="#E9E9E9"/>
</g>
<path d="M-677 -374H5449V-376H-677V-374ZM5450 -373V1728H5452V-373H5450ZM5449 1729H-677V1731H5449V1729ZM-678 1728V-373H-680V1728H-678ZM-677 1729C-677.552 1729 -678 1728.55 -678 1728H-680C-680 1729.66 -678.657 1731 -677 1731V1729ZM5450 1728C5450 1728.55 5449.55 1729 5449 1729V1731C5450.66 1731 5452 1729.66 5452 1728H5450ZM5449 -374C5449.55 -374 5450 -373.552 5450 -373H5452C5452 -374.657 5450.66 -376 5449 -376V-374ZM-677 -376C-678.657 -376 -680 -374.657 -680 -373H-678C-678 -373.552 -677.552 -374 -677 -374V-376Z" fill="white" fill-opacity="0.1"/>
<path d="M-921 -9739H12765V-9741H-921V-9739ZM12766 -9738V6008H12768V-9738H12766ZM12765 6009H-921V6011H12765V6009ZM-922 6008V-9738H-924V6008H-922ZM-921 6009C-921.552 6009 -922 6008.55 -922 6008H-924C-924 6009.66 -922.657 6011 -921 6011V6009ZM12766 6008C12766 6008.55 12765.6 6009 12765 6009V6011C12766.7 6011 12768 6009.66 12768 6008H12766ZM12765 -9739C12765.6 -9739 12766 -9738.55 12766 -9738H12768C12768 -9739.66 12766.7 -9741 12765 -9741V-9739ZM-921 -9741C-922.657 -9741 -924 -9739.66 -924 -9738H-922C-922 -9738.55 -921.553 -9739 -921 -9739V-9741Z" fill="white" fill-opacity="0.1"/>
<defs>
<filter id="filter0_d_763_5496" x="-516" y="-226" width="1408" height="1876" filterUnits="userSpaceOnUse" color-interpolation-filters="sRGB">
<feFlood flood-opacity="0" result="BackgroundImageFix"/>
<feColorMatrix in="SourceAlpha" type="matrix" values="0 0 0 0 0 0 0 0 0 0 0 0 0 0 0 0 0 0 127 0" result="hardAlpha"/>
<feOffset/>
<feGaussianBlur stdDeviation="10"/>
<feColorMatrix type="matrix" values="0 0 0 0 0 0 0 0 0 0 0 0 0 0 0 0 0 0 0.1 0"/>
<feBlend mode="normal" in2="BackgroundImageFix" result="effect1_dropShadow_763_5496"/>
<feBlend mode="normal" in="SourceGraphic" in2="effect1_dropShadow_763_5496" result="shape"/>
</filter>
<clipPath id="clip0_763_5496">
<rect x="-495" y="-205" width="1366" height="1834" fill="white"/>
</clipPath>
<clipPath id="clip1_763_5496">
<rect width="36" height="35" fill="white"/>
</clipPath>
</defs>
</svg>
