<svg width="58" height="59" viewBox="0 0 58 59" fill="none" xmlns="http://www.w3.org/2000/svg">
<circle cx="29" cy="29.5" r="29" fill="#40916C"/>
<path d="M16.4678 16.9336C15.4763 16.9336 14.6726 17.7412 14.6726 18.7374V20.9922H12.4285C11.4371 20.9922 10.6333 21.7998 10.6333 22.796C10.6333 23.7923 11.4371 24.5999 12.4285 24.5999H14.6726V26.8547C14.6726 27.8509 15.4763 28.6585 16.4678 28.6585C17.4593 28.6585 18.2631 27.8509 18.2631 26.8547V24.5999H20.5071C21.4986 24.5999 22.3023 23.7923 22.3023 22.796C22.3023 21.7998 21.4986 20.9922 20.5071 20.9922H18.2631V18.7374C18.2631 17.7412 17.4593 16.9336 16.4678 16.9336Z" fill="white"/>
<path d="M42.4988 31.3642C42.4988 32.3605 41.695 33.1681 40.7035 33.1681C39.7121 33.1681 38.9083 32.3605 38.9083 31.3642C38.9083 30.368 39.7121 29.5604 40.7035 29.5604C41.695 29.5604 42.4988 30.368 42.4988 31.3642Z" fill="white"/>
<path fill-rule="evenodd" clip-rule="evenodd" d="M32.625 29.5604C32.625 27.3189 34.4334 25.5018 36.6643 25.5018H40.5181V25.1711C40.5181 24.6729 40.1163 24.2691 39.6205 24.2691H24.9952C24.0037 24.2691 23.2 23.4615 23.2 22.4653C23.2 21.4691 24.0037 20.6615 24.9952 20.6615H39.6205C42.0992 20.6615 44.1086 22.6805 44.1086 25.1711V25.5018H44.294C46.5249 25.5018 48.3333 27.3189 48.3333 29.5604V32.7171C48.3333 34.9586 46.5249 36.7757 44.294 36.7757H44.1086V37.5574C44.1086 40.0479 42.0992 42.0669 39.6205 42.0669H19.3463C16.8676 42.0669 14.8582 40.0479 14.8582 37.5574V31.8152C14.8582 30.819 15.662 30.0114 16.6534 30.0114C17.6449 30.0114 18.4487 30.819 18.4487 31.8152V37.5574C18.4487 38.0555 18.8506 38.4593 19.3463 38.4593H39.6205C40.1163 38.4593 40.5181 38.0555 40.5181 37.5574V36.7757H36.6643C34.4334 36.7757 32.625 34.9586 32.625 32.7171V29.5604ZM44.294 34.07C45.0376 34.07 45.6404 33.4643 45.6404 32.7171V29.5604C45.6404 28.8132 45.0376 28.2075 44.294 28.2075H36.6643C35.9206 28.2075 35.3178 28.8132 35.3178 29.5604V32.7171C35.3178 33.4643 35.9206 34.07 36.6643 34.07H44.294Z" fill="white"/>
</svg>
