<svg width="39" height="26" viewBox="0 0 39 26" fill="none" xmlns="http://www.w3.org/2000/svg">
<path d="M6.03571 0C5.01004 0 4.17857 0.83545 4.17857 1.86603V4.19857H1.85714C0.831471 4.19857 0 5.03402 0 6.0646C0 7.09518 0.831471 7.93063 1.85714 7.93063H4.17857V10.2632C4.17857 11.2937 5.01004 12.1292 6.03571 12.1292C7.06139 12.1292 7.89286 11.2937 7.89286 10.2632V7.93063H10.2143C11.24 7.93063 12.0714 7.09518 12.0714 6.0646C12.0714 5.03402 11.24 4.19857 10.2143 4.19857H7.89286V1.86603C7.89286 0.835451 7.06139 0 6.03571 0Z" fill="black"/>
<path d="M32.9643 14.9282C32.9643 15.9588 32.1328 16.7943 31.1071 16.7943C30.0815 16.7943 29.25 15.9588 29.25 14.9282C29.25 13.8977 30.0815 13.0622 31.1071 13.0622C32.1328 13.0622 32.9643 13.8977 32.9643 14.9282Z" fill="black"/>
<path fill-rule="evenodd" clip-rule="evenodd" d="M22.75 13.0622C22.75 10.7434 24.6208 8.86365 26.9286 8.86365H30.9153V8.52151C30.9153 8.00622 30.4996 7.58849 29.9868 7.58849H14.8571C13.8315 7.58849 13 6.75304 13 5.72246C13 4.69188 13.8315 3.85643 14.8571 3.85643H29.9868C32.551 3.85643 34.6296 5.94506 34.6296 8.52151V8.86365H34.8214C37.1292 8.86365 39 10.7434 39 13.0622V16.3278C39 18.6466 37.1292 20.5263 34.8214 20.5263H34.6296V21.3349C34.6296 23.9114 32.551 26 29.9868 26H9.01344C6.44926 26 4.37059 23.9114 4.37059 21.3349V15.3948C4.37059 14.3642 5.20206 13.5287 6.22773 13.5287C7.2534 13.5287 8.08487 14.3642 8.08487 15.3948V21.3349C8.08487 21.8502 8.50061 22.2679 9.01344 22.2679H29.9868C30.4996 22.2679 30.9153 21.8502 30.9153 21.3349V20.5263H26.9286C24.6208 20.5263 22.75 18.6466 22.75 16.3278V13.0622ZM34.8214 17.7273C35.5907 17.7273 36.2143 17.1007 36.2143 16.3278V13.0622C36.2143 12.2893 35.5907 11.6627 34.8214 11.6627H26.9286C26.1593 11.6627 25.5357 12.2893 25.5357 13.0622V16.3278C25.5357 17.1007 26.1593 17.7273 26.9286 17.7273H34.8214Z" fill="black"/>
</svg>
